<?xml version="1.0" encoding="UTF-8"?>
<svg xmlns="http://www.w3.org/2000/svg" xmlns:xlink="http://www.w3.org/1999/xlink" width="96pt" height="96pt" viewBox="0 0 96 96" version="1.1">
<g id="surface3054080">
<path style=" stroke:none;fill-rule:nonzero;fill:rgb(14.901961%,16.470588%,17.254902%);fill-opacity:1;" d="M 38.671875 8 L 36.703125 18.09375 C 33.390625 19.339844 30.371094 21.078125 27.726562 23.25 L 18.03125 19.914062 L 8.695312 36.085938 L 16.453125 42.835938 C 16.144531 44.71875 16 46.40625 16 48 C 16 49.578125 16.148438 51.273438 16.453125 53.171875 L 8.695312 59.921875 L 18.03125 76.085938 L 27.71875 72.75 C 30.371094 74.925781 33.394531 76.667969 36.703125 77.914062 L 38.671875 88 L 44 88 L 44 73.523438 L 43.703125 72 L 39.53125 70.421875 C 37.039062 69.480469 34.777344 68.1875 32.796875 66.5625 L 29.34375 63.726562 L 21.65625 66.375 L 18.921875 61.625 L 25.0625 56.28125 L 24.351562 51.898438 C 24.117188 50.429688 24 49.152344 24 48 C 24 46.839844 24.117188 45.570312 24.351562 44.109375 L 25.0625 39.71875 L 18.914062 34.375 L 21.65625 29.625 L 29.335938 32.273438 L 32.796875 29.4375 C 34.769531 27.8125 37.042969 26.519531 39.539062 25.578125 L 43.703125 24 L 45.265625 16 L 50.742188 16 L 52.296875 24 L 56.46875 25.578125 C 58.960938 26.519531 61.230469 27.8125 63.210938 29.4375 L 66.664062 32.273438 L 74.34375 29.625 L 77.085938 34.375 L 70.945312 39.710938 L 71.648438 44.101562 L 71.648438 44.117188 C 71.882812 45.574219 72 46.839844 72 48 C 72 49.160156 71.882812 50.429688 71.648438 51.890625 L 70.9375 56.28125 L 75.210938 60 L 87.257812 60 L 87.304688 59.914062 L 79.546875 53.164062 C 79.851562 51.28125 80 49.59375 80 48 C 80 46.40625 79.855469 44.714844 79.546875 42.828125 L 87.304688 36.078125 L 77.96875 19.914062 L 68.28125 23.25 C 65.628906 21.074219 62.605469 19.332031 59.296875 18.085938 L 57.328125 8 Z M 48 32 C 39.214844 32 32 39.214844 32 48 C 32 56.785156 39.214844 64 48 64 C 56.785156 64 64 56.785156 64 48 C 64 39.214844 56.785156 32 48 32 Z M 48 40 C 52.445312 40 56 43.554688 56 48 C 56 52.445312 52.445312 56 48 56 C 43.554688 56 40 52.445312 40 48 C 40 43.554688 43.554688 40 48 40 Z M 57.382812 68 L 52 88 L 56.210938 88 L 57.242188 84 L 62.710938 84 L 63.75 88 L 68 88 L 62.585938 68 Z M 72 68 L 72 88 L 76 88 L 76 80 L 78 80 C 81.3125 80 84 77.3125 84 74 C 84 70.6875 81.3125 68 78 68 Z M 88 68 L 88 88 L 92 88 L 92 68 Z M 76 72 L 78 72 C 79.105469 72 80 72.894531 80 74 C 80 75.105469 79.105469 76 78 76 L 76 76 Z M 59.96875 73.414062 L 61.679688 80 L 58.273438 80 Z M 59.96875 73.414062 "/>
</g>
</svg>
