<?xml version="1.0" encoding="UTF-8"?>
<svg xmlns="http://www.w3.org/2000/svg" xmlns:xlink="http://www.w3.org/1999/xlink" width="80pt" height="80pt" viewBox="0 0 80 80" version="1.1">
<g id="surface3055032">
<path style=" stroke:none;fill-rule:nonzero;fill:rgb(14.901961%,16.470588%,17.254902%);fill-opacity:1;" d="M 10 10 L 10 28 L 28 28 L 28 10 Z M 12 12 L 26 12 L 26 21.21875 L 22.625 18.449219 L 19.328125 20.988281 L 15.410156 17.761719 L 12 19.992188 Z M 22.5 14 C 21.671875 14 21 14.671875 21 15.5 C 21 16.328125 21.671875 17 22.5 17 C 23.328125 17 24 16.328125 24 15.5 C 24 14.671875 23.328125 14 22.5 14 Z M 37 15 C 36.449219 15 36 15.449219 36 16 C 36 16.550781 36.449219 17 37 17 C 37.550781 17 38 16.550781 38 16 C 38 15.449219 37.550781 15 37 15 Z M 41 15 C 40.449219 15 40 15.449219 40 16 C 40 16.550781 40.449219 17 41 17 C 41.550781 17 42 16.550781 42 16 C 42 15.449219 41.550781 15 41 15 Z M 45 15 C 44.449219 15 44 15.449219 44 16 C 44 16.550781 44.449219 17 45 17 C 45.550781 17 46 16.550781 46 16 C 46 15.449219 45.550781 15 45 15 Z M 49 15 C 48.449219 15 48 15.449219 48 16 C 48 16.550781 48.449219 17 49 17 C 49.550781 17 50 16.550781 50 16 C 50 15.449219 49.550781 15 49 15 Z M 53 15 C 52.449219 15 52 15.449219 52 16 C 52 16.550781 52.449219 17 53 17 C 53.550781 17 54 16.550781 54 16 C 54 15.449219 53.550781 15 53 15 Z M 57 15 C 56.449219 15 56 15.449219 56 16 C 56 16.550781 56.449219 17 57 17 C 57.550781 17 58 16.550781 58 16 C 58 15.449219 57.550781 15 57 15 Z M 61 15 C 60.449219 15 60 15.449219 60 16 C 60 16.550781 60.449219 17 61 17 C 61.550781 17 62 16.550781 62 16 C 62 15.449219 61.550781 15 61 15 Z M 65 15 C 64.449219 15 64 15.449219 64 16 C 64 16.550781 64.449219 17 65 17 C 65.550781 17 66 16.550781 66 16 C 66 15.449219 65.550781 15 65 15 Z M 69 15 C 68.449219 15 68 15.449219 68 16 C 68 16.550781 68.449219 17 69 17 C 69.550781 17 70 16.550781 70 16 C 70 15.449219 69.550781 15 69 15 Z M 15.273438 20.238281 L 19.28125 23.546875 L 22.585938 21.003906 L 26 23.808594 L 26 26 L 12 26 L 12 22.378906 Z M 37 21 C 36.449219 21 36 21.449219 36 22 C 36 22.550781 36.449219 23 37 23 C 37.550781 23 38 22.550781 38 22 C 38 21.449219 37.550781 21 37 21 Z M 41 21 C 40.449219 21 40 21.449219 40 22 C 40 22.550781 40.449219 23 41 23 C 41.550781 23 42 22.550781 42 22 C 42 21.449219 41.550781 21 41 21 Z M 45 21 C 44.449219 21 44 21.449219 44 22 C 44 22.550781 44.449219 23 45 23 C 45.550781 23 46 22.550781 46 22 C 46 21.449219 45.550781 21 45 21 Z M 49 21 C 48.449219 21 48 21.449219 48 22 C 48 22.550781 48.449219 23 49 23 C 49.550781 23 50 22.550781 50 22 C 50 21.449219 49.550781 21 49 21 Z M 53 21 C 52.449219 21 52 21.449219 52 22 C 52 22.550781 52.449219 23 53 23 C 53.550781 23 54 22.550781 54 22 C 54 21.449219 53.550781 21 53 21 Z M 57 21 C 56.449219 21 56 21.449219 56 22 C 56 22.550781 56.449219 23 57 23 C 57.550781 23 58 22.550781 58 22 C 58 21.449219 57.550781 21 57 21 Z M 61 21 C 60.449219 21 60 21.449219 60 22 C 60 22.550781 60.449219 23 61 23 C 61.550781 23 62 22.550781 62 22 C 62 21.449219 61.550781 21 61 21 Z M 10 31 L 10 49 L 28 49 L 28 31 Z M 12 33 L 26 33 L 26 47 L 12 47 Z M 19 35 C 17.894531 35 17 35.894531 17 37 C 17 37.09375 17.03125 37.207031 17.058594 37.316406 C 16.957031 37.253906 16.859375 37.203125 16.765625 37.171875 C 15.710938 36.832031 14.585938 37.40625 14.246094 38.453125 C 13.902344 39.507812 14.476562 40.632812 15.527344 40.972656 C 15.617188 41.003906 15.722656 41.019531 15.835938 41.027344 C 15.75 41.101562 15.671875 41.175781 15.617188 41.25 C 14.96875 42.144531 15.167969 43.398438 16.0625 44.046875 C 16.953125 44.695312 18.203125 44.496094 18.855469 43.605469 C 18.910156 43.527344 18.953125 43.429688 19 43.328125 C 19.042969 43.429688 19.089844 43.527344 19.144531 43.605469 C 19.792969 44.496094 21.042969 44.695312 21.9375 44.046875 C 22.832031 43.398438 23.03125 42.144531 22.378906 41.25 C 22.324219 41.175781 22.25 41.101562 22.160156 41.027344 C 22.273438 41.019531 22.382812 41.003906 22.46875 40.972656 C 23.523438 40.632812 24.097656 39.503906 23.753906 38.453125 C 23.414062 37.40625 22.285156 36.832031 21.234375 37.171875 C 21.140625 37.203125 21.042969 37.253906 20.941406 37.316406 C 20.96875 37.207031 21 37.09375 21 37 C 21 35.894531 20.105469 35 19 35 Z M 37 36 C 36.449219 36 36 36.449219 36 37 C 36 37.550781 36.449219 38 37 38 C 37.550781 38 38 37.550781 38 37 C 38 36.449219 37.550781 36 37 36 Z M 41 36 C 40.449219 36 40 36.449219 40 37 C 40 37.550781 40.449219 38 41 38 C 41.550781 38 42 37.550781 42 37 C 42 36.449219 41.550781 36 41 36 Z M 45 36 C 44.449219 36 44 36.449219 44 37 C 44 37.550781 44.449219 38 45 38 C 45.550781 38 46 37.550781 46 37 C 46 36.449219 45.550781 36 45 36 Z M 49 36 C 48.449219 36 48 36.449219 48 37 C 48 37.550781 48.449219 38 49 38 C 49.550781 38 50 37.550781 50 37 C 50 36.449219 49.550781 36 49 36 Z M 53 36 C 52.449219 36 52 36.449219 52 37 C 52 37.550781 52.449219 38 53 38 C 53.550781 38 54 37.550781 54 37 C 54 36.449219 53.550781 36 53 36 Z M 57 36 C 56.449219 36 56 36.449219 56 37 C 56 37.550781 56.449219 38 57 38 C 57.550781 38 58 37.550781 58 37 C 58 36.449219 57.550781 36 57 36 Z M 61 36 C 60.449219 36 60 36.449219 60 37 C 60 37.550781 60.449219 38 61 38 C 61.550781 38 62 37.550781 62 37 C 62 36.449219 61.550781 36 61 36 Z M 65 36 C 64.449219 36 64 36.449219 64 37 C 64 37.550781 64.449219 38 65 38 C 65.550781 38 66 37.550781 66 37 C 66 36.449219 65.550781 36 65 36 Z M 69 36 C 68.449219 36 68 36.449219 68 37 C 68 37.550781 68.449219 38 69 38 C 69.550781 38 70 37.550781 70 37 C 70 36.449219 69.550781 36 69 36 Z M 19 38 C 20.105469 38 21 38.894531 21 40 C 21 41.105469 20.105469 42 19 42 C 17.894531 42 17 41.105469 17 40 C 17 38.894531 17.894531 38 19 38 Z M 37 42 C 36.449219 42 36 42.449219 36 43 C 36 43.550781 36.449219 44 37 44 C 37.550781 44 38 43.550781 38 43 C 38 42.449219 37.550781 42 37 42 Z M 41 42 C 40.449219 42 40 42.449219 40 43 C 40 43.550781 40.449219 44 41 44 C 41.550781 44 42 43.550781 42 43 C 42 42.449219 41.550781 42 41 42 Z M 45 42 C 44.449219 42 44 42.449219 44 43 C 44 43.550781 44.449219 44 45 44 C 45.550781 44 46 43.550781 46 43 C 46 42.449219 45.550781 42 45 42 Z M 49 42 C 48.449219 42 48 42.449219 48 43 C 48 43.550781 48.449219 44 49 44 C 49.550781 44 50 43.550781 50 43 C 50 42.449219 49.550781 42 49 42 Z M 53 42 C 52.449219 42 52 42.449219 52 43 C 52 43.550781 52.449219 44 53 44 C 53.550781 44 54 43.550781 54 43 C 54 42.449219 53.550781 42 53 42 Z M 57 42 C 56.449219 42 56 42.449219 56 43 C 56 43.550781 56.449219 44 57 44 C 57.550781 44 58 43.550781 58 43 C 58 42.449219 57.550781 42 57 42 Z M 61 42 C 60.449219 42 60 42.449219 60 43 C 60 43.550781 60.449219 44 61 44 C 61.550781 44 62 43.550781 62 43 C 62 42.449219 61.550781 42 61 42 Z M 10 52 L 10 70 L 28 70 L 28 52 Z M 12 54 L 26 54 L 26 68 L 12 68 Z M 19 55 C 18.449219 55 18 55.449219 18 56 C 18 56.550781 18.449219 57 19 57 C 19.550781 57 20 56.550781 20 56 C 20 55.449219 19.550781 55 19 55 Z M 37 56 C 36.449219 56 36 56.449219 36 57 C 36 57.550781 36.449219 58 37 58 C 37.550781 58 38 57.550781 38 57 C 38 56.449219 37.550781 56 37 56 Z M 41 56 C 40.449219 56 40 56.449219 40 57 C 40 57.550781 40.449219 58 41 58 C 41.550781 58 42 57.550781 42 57 C 42 56.449219 41.550781 56 41 56 Z M 45 56 C 44.449219 56 44 56.449219 44 57 C 44 57.550781 44.449219 58 45 58 C 45.550781 58 46 57.550781 46 57 C 46 56.449219 45.550781 56 45 56 Z M 49 56 C 48.449219 56 48 56.449219 48 57 C 48 57.550781 48.449219 58 49 58 C 49.550781 58 50 57.550781 50 57 C 50 56.449219 49.550781 56 49 56 Z M 53 56 C 52.449219 56 52 56.449219 52 57 C 52 57.550781 52.449219 58 53 58 C 53.550781 58 54 57.550781 54 57 C 54 56.449219 53.550781 56 53 56 Z M 57 56 C 56.449219 56 56 56.449219 56 57 C 56 57.550781 56.449219 58 57 58 C 57.550781 58 58 57.550781 58 57 C 58 56.449219 57.550781 56 57 56 Z M 61 56 C 60.449219 56 60 56.449219 60 57 C 60 57.550781 60.449219 58 61 58 C 61.550781 58 62 57.550781 62 57 C 62 56.449219 61.550781 56 61 56 Z M 65 56 C 64.449219 56 64 56.449219 64 57 C 64 57.550781 64.449219 58 65 58 C 65.550781 58 66 57.550781 66 57 C 66 56.449219 65.550781 56 65 56 Z M 69 56 C 68.449219 56 68 56.449219 68 57 C 68 57.550781 68.449219 58 69 58 C 69.550781 58 70 57.550781 70 57 C 70 56.449219 69.550781 56 69 56 Z M 22.546875 56.464844 C 22.277344 56.460938 22.019531 56.566406 21.828125 56.753906 C 21.4375 57.144531 21.4375 57.78125 21.828125 58.171875 C 22.21875 58.558594 22.851562 58.558594 23.242188 58.171875 C 23.632812 57.78125 23.632812 57.144531 23.242188 56.753906 C 23.058594 56.570312 22.808594 56.464844 22.546875 56.464844 Z M 15.480469 56.464844 C 15.207031 56.460938 14.945312 56.566406 14.753906 56.757812 C 14.367188 57.148438 14.367188 57.78125 14.753906 58.171875 C 15.144531 58.5625 15.78125 58.5625 16.171875 58.171875 C 16.558594 57.78125 16.558594 57.148438 16.171875 56.757812 C 15.984375 56.574219 15.738281 56.46875 15.480469 56.464844 Z M 19 58 C 17.355469 58 16 59.355469 16 61 C 16 62.644531 17.355469 64 19 64 C 20.644531 64 22 62.644531 22 61 C 22 59.355469 20.644531 58 19 58 Z M 14 60 C 13.449219 60 13 60.449219 13 61 C 13 61.550781 13.449219 62 14 62 C 14.550781 62 15 61.550781 15 61 C 15 60.449219 14.550781 60 14 60 Z M 19 60 C 19.5625 60 20 60.4375 20 61 C 20 61.5625 19.5625 62 19 62 C 18.4375 62 18 61.5625 18 61 C 18 60.4375 18.4375 60 19 60 Z M 24 60 C 23.449219 60 23 60.449219 23 61 C 23 61.550781 23.449219 62 24 62 C 24.550781 62 25 61.550781 25 61 C 25 60.449219 24.550781 60 24 60 Z M 37 62 C 36.449219 62 36 62.449219 36 63 C 36 63.550781 36.449219 64 37 64 C 37.550781 64 38 63.550781 38 63 C 38 62.449219 37.550781 62 37 62 Z M 41 62 C 40.449219 62 40 62.449219 40 63 C 40 63.550781 40.449219 64 41 64 C 41.550781 64 42 63.550781 42 63 C 42 62.449219 41.550781 62 41 62 Z M 45 62 C 44.449219 62 44 62.449219 44 63 C 44 63.550781 44.449219 64 45 64 C 45.550781 64 46 63.550781 46 63 C 46 62.449219 45.550781 62 45 62 Z M 49 62 C 48.449219 62 48 62.449219 48 63 C 48 63.550781 48.449219 64 49 64 C 49.550781 64 50 63.550781 50 63 C 50 62.449219 49.550781 62 49 62 Z M 53 62 C 52.449219 62 52 62.449219 52 63 C 52 63.550781 52.449219 64 53 64 C 53.550781 64 54 63.550781 54 63 C 54 62.449219 53.550781 62 53 62 Z M 57 62 C 56.449219 62 56 62.449219 56 63 C 56 63.550781 56.449219 64 57 64 C 57.550781 64 58 63.550781 58 63 C 58 62.449219 57.550781 62 57 62 Z M 61 62 C 60.449219 62 60 62.449219 60 63 C 60 63.550781 60.449219 64 61 64 C 61.550781 64 62 63.550781 62 63 C 62 62.449219 61.550781 62 61 62 Z M 15.480469 63.535156 C 15.207031 63.53125 14.949219 63.636719 14.757812 63.828125 C 14.367188 64.21875 14.367188 64.851562 14.757812 65.242188 C 15.148438 65.632812 15.78125 65.632812 16.171875 65.242188 C 16.5625 64.851562 16.5625 64.21875 16.171875 63.828125 C 15.988281 63.644531 15.738281 63.539062 15.480469 63.535156 Z M 22.550781 63.535156 C 22.28125 63.53125 22.019531 63.636719 21.828125 63.828125 C 21.4375 64.21875 21.4375 64.851562 21.828125 65.242188 C 22.21875 65.632812 22.851562 65.632812 23.242188 65.242188 C 23.632812 64.851562 23.632812 64.21875 23.242188 63.828125 C 23.058594 63.644531 22.8125 63.539062 22.550781 63.535156 Z M 19 65 C 18.449219 65 18 65.449219 18 66 C 18 66.550781 18.449219 67 19 67 C 19.550781 67 20 66.550781 20 66 C 20 65.449219 19.550781 65 19 65 Z M 19 65 "/>
</g>
</svg>
