<?xml version="1.0" encoding="UTF-8"?>
<!-- Created with Inkscape (http://www.inkscape.org/) -->
<svg width="666.67" height="666.67" version="1.1" viewBox="0 0 666.67 666.67" xml:space="preserve" xmlns="http://www.w3.org/2000/svg" xmlns:cc="http://creativecommons.org/ns#" xmlns:dc="http://purl.org/dc/elements/1.1/" xmlns:rdf="http://www.w3.org/1999/02/22-rdf-syntax-ns#"><metadata><rdf:RDF><cc:Work rdf:about=""><dc:format>image/svg+xml</dc:format><dc:type rdf:resource="http://purl.org/dc/dcmitype/StillImage"/><dc:title/></cc:Work></rdf:RDF></metadata><defs><clipPath id="clipPath100"><path d="m2173.3 1035.8c-0.81 0-1.63 0.24-2.35 0.74-1.85 1.3-2.29 3.85-0.99 5.7 0.04 0.06 76.07 108.29 171.29 225.76 0.88-3.27 1.76-6.51 2.64-9.75-69.63-86.18-128.53-166.73-153.89-202-8.61-11.97-13.33-18.69-13.35-18.71-0.79-1.14-2.06-1.74-3.35-1.74m366.45 438.44-1.07 10.09c18.42 16.63 36.18 31.21 52.95 43.04h14.53c-20.39-13.36-42.85-31.57-66.41-53.13"/></clipPath></defs><g transform="matrix(1.3333 0 0 -1.3333 0 666.67)"><g transform="matrix(.1 0 0 .1 0 1.5)"><path d="m15.91 0h4984.1v4962.9h-4984.1z" fill-opacity="0"/><g><path d="m4177.6 2677.3c-233.42-349.49-731.55-1430.4-609.02-1831.5l-1787.1-0.411s-258.23 192.26-509.09 526.53c-45.59 60.73-90.93 126.21-134.4 196.03-46.16 73.98-90.2 152.89-130.22 236.37-116.3 242.1-199.3 522.68-202.65 832.8-11.707 1073.5 917.43 2071.2 2181.4 1668.6 1264-402.61 1424.4-1279 1191-1628.4" fill="#eef9f8"/><path d="m3059.4 833.11c-3.59 0-7.15 1.571-9.58 4.582l-953.02 1184.9c-4.25 5.29-3.41 13.01 1.87 17.27 5.29 4.24 13.02 3.41 17.26-1.88l953.03-1184.9c4.25-5.281 3.41-13.008-1.87-17.258-2.27-1.832-4.98-2.723-7.69-2.723" fill="#e13122"/><path d="m1581.1 833.11c-2.7 0-5.42 0.891-7.68 2.723-5.28 4.25-6.12 11.977-1.88 17.258l953.03 1184.9c4.26 5.29 11.98 6.12 17.26 1.88 5.29-4.26 6.13-11.98 1.87-17.27l-953.02-1184.9c-2.43-3.011-5.99-4.582-9.58-4.582" fill="#f14e25"/><path d="m2534.2 833.11c-3.59 0-7.14 1.571-9.57 4.582l-953.03 1184.9c-4.24 5.29-3.4 13.01 1.88 17.27 5.29 4.24 13.01 3.41 17.26-1.88l953.02-1184.9c4.25-5.281 3.41-13.008-1.87-17.258-2.27-1.832-4.99-2.723-7.69-2.723" fill="#f14e25"/><path d="m1750 1998.9h-442.76c-17.37 0-31.46 14.09-31.46 31.46s14.09 31.45 31.46 31.45h442.76c17.37 0 31.46-14.08 31.46-31.45s-14.09-31.46-31.46-31.46" fill="#e13122"/><path d="m3023.9 1998.9h-1265.5c-17.37 0-31.45 14.09-31.45 31.46s14.08 31.45 31.45 31.45h1265.5v-62.91" fill="#f14e25"/><path d="m2092 1437.9c0-18.98-15.38-34.36-34.36-34.36s-34.36 15.38-34.36 34.36c0 18.97 15.38 34.36 34.36 34.36s34.36-15.39 34.36-34.36" fill="#e13122"/><path d="m2617.3 1437.9c0-18.98-15.39-34.36-34.36-34.36-18.98 0-34.36 15.38-34.36 34.36 0 18.97 15.38 34.36 34.36 34.36 18.97 0 34.36-15.39 34.36-34.36" fill="#fbc52f"/><path d="m2160.1 3001h-446.06c-22.03 0-39.88 17.86-39.88 39.88v331.74c0 22.02 17.85 39.88 39.88 39.88h446.06c22.03 0 39.88-17.86 39.88-39.88v-331.74c0-22.02-17.85-39.88-39.88-39.88" fill="#50c4c0"/><path d="m1950.6 3140.6c-45.03-8.52-83.72 30.17-75.2 75.2 4.75 25.15 25.04 45.44 50.2 50.2 45.03 8.51 83.72-30.17 75.2-75.2-4.76-25.16-25.05-45.45-50.2-50.2zm100.56 90.16h-16.51c-2.53 9.02-6.27 17.57-11.14 25.4l12.74 12.73c4.85 4.86 4.85 12.74 0 17.59l-17.93 17.93c-4.86 4.85-12.73 4.85-17.59 0l-13.54-13.54c-7.48 4.21-15.5 7.51-23.97 9.66v20.3c0 6.87-5.56 12.43-12.43 12.43h-25.35c-6.87 0-12.44-5.56-12.44-12.43v-20.53c-8.22-2.12-16.01-5.24-23.27-9.25l-14.86 14.87c-4.85 4.85-12.73 4.85-17.58 0l-17.93-17.93c-4.86-4.86-4.86-12.73 0-17.59l13.76-13.76c-4.6-7.32-8.22-15.31-10.82-23.75h-19.36c-6.87 0-12.44-5.56-12.44-12.43v-25.35c0-6.87 5.57-12.44 12.44-12.44h16.96c1.91-9.37 5.13-18.29 9.54-26.55l-11.59-11.58c-4.86-4.86-4.86-12.73 0-17.58l17.93-17.93c4.86-4.86 12.73-4.86 17.59 0l10.06 10.06c8.39-5.46 17.63-9.68 27.44-12.41v-14.07c0-6.87 5.57-12.44 12.44-12.44h25.35c6.87 0 12.44 5.57 12.44 12.44v13.13c10.16 2.39 19.73 6.26 28.44 11.47l9.69-9.69c4.85-4.86 12.72-4.86 17.58 0l17.93 17.93c4.86 4.85 4.86 12.73 0 17.58l-9.95 9.95c4.94 8.48 8.65 17.73 10.93 27.56h15.44c6.86 0 12.44 5.57 12.44 12.44v25.35c0 6.87-5.58 12.43-12.44 12.43" fill="#fff"/><path d="m2831.6 3228.3h-446.07c-22.02 0-39.88 17.85-39.88 39.88v331.73c0 22.03 17.86 39.88 39.88 39.88h446.07c22.02 0 39.88-17.85 39.88-39.88v-331.73c0-22.03-17.86-39.88-39.88-39.88" fill="#f14e25"/></g><g fill="#fff"><path d="m2519.8 3364.9c-3.14 0-6.28 1.28-8.68 3.84l-55.42 59.32c-4.8 5.13-4.8 13.45 0 18.57l56.36 60.31c4.79 5.13 12.57 5.13 17.36 0 4.8-5.13 4.8-13.45 0-18.57l-47.68-51.02 46.74-50.03c4.8-5.13 4.8-13.45 0-18.58-2.4-2.56-5.53-3.84-8.68-3.84"/><path d="m2697.4 3364.9c-3.14 0-6.28 1.28-8.68 3.84-4.8 5.13-4.8 13.45 0 18.58l46.75 50.03-47.69 51.02c-4.79 5.12-4.79 13.44 0 18.57 4.8 5.13 12.57 5.13 17.36 0l56.37-60.31c2.31-2.46 3.59-5.8 3.59-9.28 0-3.49-1.28-6.83-3.59-9.29l-55.43-59.32c-2.4-2.56-5.55-3.84-8.68-3.84"/><path d="m2581.1 3348.6c-1.53 0-3.1 0.31-4.62 0.97-6.29 2.73-9.3 10.4-6.75 17.12l55.01 144.63c2.56 6.7 9.69 9.97 16.01 7.21 6.28-2.73 9.3-10.4 6.75-17.12l-55.02-144.63c-1.95-5.09-6.53-8.18-11.38-8.18"/><path d="m3234.3 3149.2h-1106.8v33.97c0 9.17 7.42 16.6 16.59 16.6h1073.6c9.17 0 16.59-7.43 16.59-16.6v-33.97"/></g><path d="m3203.4 2559.2h-1045c-17.07 0-30.9 13.84-30.9 30.91v559.15h1106.8v-559.15c0-17.07-13.82-30.91-30.89-30.91" fill="#343573"/><g fill="#f14e25"><path d="m3181.2 3174.5c0-4.3-3.49-7.78-7.78-7.78-4.3 0-7.79 3.48-7.79 7.78s3.49 7.78 7.79 7.78c4.29 0 7.78-3.48 7.78-7.78"/><path d="m3127.7 3174.5c0-4.3-3.48-7.78-7.78-7.78s-7.78 3.48-7.78 7.78 3.48 7.78 7.78 7.78 7.78-3.48 7.78-7.78"/><path d="m3074.2 3174.5c0-4.3-3.49-7.78-7.79-7.78-4.29 0-7.77 3.48-7.77 7.78s3.48 7.78 7.77 7.78c4.3 0 7.79-3.48 7.79-7.78"/></g><g fill="#50c4c0"><path d="m2799.5 3069.5h-614.59c-5.91 0-10.7 4.79-10.7 10.7s4.79 10.7 10.7 10.7h614.59c5.91 0 10.69-4.79 10.69-10.7s-4.78-10.7-10.69-10.7"/><path d="m2799.5 3001.4h-614.59c-5.91 0-10.7 4.79-10.7 10.7s4.79 10.7 10.7 10.7h614.59c5.91 0 10.69-4.79 10.69-10.7s-4.78-10.7-10.69-10.7"/><path d="m2506.3 2933.3h-321.4c-5.91 0-10.7 4.79-10.7 10.7s4.79 10.7 10.7 10.7h321.4c5.9 0 10.69-4.79 10.69-10.7s-4.79-10.7-10.69-10.7"/></g><g><path d="m2799.5 2797.2h-614.59c-5.91 0-10.7 4.79-10.7 10.7s4.79 10.7 10.7 10.7h614.59c5.91 0 10.69-4.79 10.69-10.7s-4.78-10.7-10.69-10.7" fill="#f14e25"/><path d="m2506.3 2729.1h-321.4c-5.91 0-10.7 4.79-10.7 10.7 0 5.9 4.79 10.69 10.7 10.69h321.4c5.9 0 10.69-4.79 10.69-10.69 0-5.91-4.79-10.7-10.69-10.7" fill="#f14e25"/><path d="m2506.3 2661h-321.4c-5.91 0-10.7 4.79-10.7 10.7 0 5.9 4.79 10.69 10.7 10.69h321.4c5.9 0 10.69-4.79 10.69-10.69 0-5.91-4.79-10.7-10.69-10.7" fill="#50c4c0"/><path d="m2799.5 2933.3h-230.96c-5.91 0-10.7 4.79-10.7 10.7s4.79 10.7 10.7 10.7h230.96c5.91 0 10.69-4.79 10.69-10.7s-4.78-10.7-10.69-10.7" fill="#fff"/><path d="m3104.6 3086.2-163.31-163.31c-4.18-4.18-10.95-4.18-15.13 0s-4.18 10.96 0 15.13l163.31 163.31c4.18 4.18 10.96 4.18 15.13 0 4.18-4.17 4.18-10.95 0-15.13" fill="#f14e25"/><path d="m3111.6 2777.2c0-53.18-43.13-96.3-96.31-96.3s-96.3 43.12-96.3 96.3c0 53.19 43.12 96.31 96.3 96.31s96.31-43.12 96.31-96.31" fill="#f14e25"/><path d="m3002.7 2710.1c0-30.11-24.4-54.52-54.51-54.52s-54.52 24.41-54.52 54.52 24.41 54.52 54.52 54.52 54.51-24.41 54.51-54.52" fill="#50c4c0"/><path d="m2127.5 2618.9v-194.7l178.94 178.95" fill="#343573"/><path d="m1937 2371.5h392.62l141.98-273.26h-392.62l-141.98 273.26" fill="#87c5b8"/><path d="m2087 2118.5-117.56 226.26c-2.46 4.75 0.98 10.41 6.33 10.41h339.66c2.66 0 5.09-1.47 6.32-3.83l117.56-226.26c2.47-4.75-0.97-10.41-6.32-10.41h-339.66c-2.66 0-5.1 1.47-6.33 3.83" fill="#fff"/><path d="m2397 2098.3h-317.99v-36.48h317.99v36.48" fill="#bbe8e0"/><path d="m2670.2 2098.3h-313.79c-10.07 0-18.23-8.17-18.23-18.23 0-10.08 8.16-18.25 18.23-18.25h313.79c10.08 0 18.24 8.17 18.24 18.25 0 10.06-8.16 18.23-18.24 18.23" fill="#9fd2c5"/><path d="m2079 2098.3-141.98 273.26-7.12-5.34c-4.59-3.45-6.01-9.72-3.33-14.81l152.43-289.59v36.48" fill="#bbe8e0"/></g><g fill="#9fd2c5"><path d="m2222 2075.2h-35.01v6.08h35.01v-6.08"/><path d="m2266 2075.2h-35.01v6.08h35.01v-6.08"/><path d="m2310 2075.2h-35v6.08h35v-6.08"/></g><path d="m2794.8 1563.4s-325.67-253.57-377.32-317.98c-19.48-24.4-53.45-67.12-88.64-110.91-57.78-71.95-119.09-146.92-126.37-148.72-11.62-2.938-109.35 71.451-112.3 87.501-1.8 9.99 87.17 162.71 164.19 285.49 46.9 74.63 89.29 138.32 104.19 152.07 39.37 36.5 281.64 164.84 281.64 164.84l154.61-112.29" fill="#343573"/><g clip-path="url(#clipPath100)"><path d="m2168.7 1035.8h437.5v491.57h-437.5z" fill="#2c2e5f"/></g><g><path d="m3134.2 2675.4c-3.43-7.86-7.37-16.04-11.78-24.39-23.82-45.51-6.22-91.1-33.4-102.72-1.63-0.66-3.44-1.31-5.48-1.72-35.03-7.78-115.73 38.88-119.26 62.2-3.51 23.33 24.88 63.27 0 68.1-24.87 4.83-38.3-36.99-38.3-36.99-20.46-2.13-27.74 32.16-61.31 32.16-4.74 0-9.4-0.66-13.9-1.8-15.8-3.93-29.63-13.67-38.48-21.2-6.54-5.48-10.31-9.82-10.31-9.82s-29.87 18.91-28.48 56.15c2.37 59.01 24.14 102.06 76.61 110.82 5.81 65.64 59.83 100.67 132.01 102.88 63.28 1.97 72.77-54.92 74.24-69.08-0.56 10.56-3.51 45.27-18.57 69.08 31.67 1.4 59.58-21.2 52.29-94.86 7.29 21.93 32.83 35.77 52.47 19.73-18.17 0-35.69-30.61-35.69-30.61s21.37-13.67 35.94-38.96c12.11-20.88 7.53-51.73-8.6-88.97" fill="#322020"/><path d="m3089.1 2548.3-0.81-10.81-2.78-38.3s-58.29-49.85-91.35 0l-0.73 0.98c-10.24 15.22-19.49 20.54-27.92 21.53-6.39 0.77-12.36-0.92-18.07-2.61-10.57-3.13-20.25-6.26-30.14 6.29-43.54 55.25-60.89 119.25-66.45 144.87 4.5 1.14 9.16 1.8 13.9 1.8 33.57 0 40.85-34.29 61.31-32.16 0 0 13.43 41.82 38.3 36.99 24.88-4.83-3.51-44.77 0-68.1 1.56-10.39 18.51-25.45 39.94-38.22 24.97-14.98 56.08-26.85 75.79-24.56 1.23 0.17 2.39 0.34 3.53 0.58 2.04 0.41 3.85 1.06 5.48 1.72" fill="#f89d8a"/><path d="m2981.3 2467.1c-4.35 7.77-11.1 22.61-5.63 32.1 1.48 2.62 5.16 6.22 10.39 10.48 0.01 0 0.01 0 0.01 0.01 2.4-2.63 4.85-5.77 7.37-9.51l0.73-0.98c4.28-6.47 8.99-11.25 13.94-14.69-7.74-4.98-16.95-10.95-26.81-17.41" fill="#e9f8f5"/><path d="m3008.1 2484.5c-4.95 3.44-9.66 8.22-13.94 14.69l-0.73 0.98c-2.52 3.74-4.97 6.88-7.37 9.51 10.57 8.67 27.59 19.79 45.18 28.96 0 0 0.01 0 0.01 0.01-4.39-6.54-6.59-11.12-7.3-12.7l-0.08-0.57c-1.23-5.32-2.46-10.89-3.6-16.7-1.25-6.02-2.5-12.27-3.73-18.76-2.55-1.63-5.38-3.45-8.44-5.42" fill="#f6836d"/><path d="m3090.4 1838.6c-58.6-11.29-182.6 23.25-241.94 49.93-17.52 7.86-29.47 15.06-32.33 20.14-11.38 20.05 0.08 35.44 28.32 99.11 3.19 7.21 6.54 14.98 10.15 23.41 19.15 45.1 19.23 141.27 19.15 224.19-0.25 70.96-0.57 132.18 10.72 143.06 24.47 23.58 146.59 100.76 146.59 100.76l24.31-126.7s13.75-64.34 28.24-148.31c26.68-154.61 55.99-376.09 6.79-385.59" fill="#50c4c0"/><path d="m3131.2 1782.2c0-5.81-58.36-141.92-107.31-161.4-48.94-19.48-343.92 1.96-343.92 1.96l-145.85-95.35 30.52-287.29 21.28-200.19 0.66-6.48c-44.61-29.13-156.98-36.991-169.1-11.86l-0.08 0.17c-11.71 25.29-190.62 564.01-120.56 657.4 69.98 93.3 519.24 229.5 519.24 229.5 11.71-7.45 25.29-14.16 40.11-20.14 49.92-20.46 113.36-33.31 161.65-40.84 18.57-2.87 34.86-5 47.3-6.46 15.72-1.89 25.21-2.63 25.21-2.63s40.85-50.5 40.85-56.39" fill="#343573"/><path d="m2605.1 845.77h-379.28c-1.88 6.71 0.66 13.5 6.39 20.378 15.38 18.5 53.93 37.082 91.09 53.122 35.28 15.23 69.17 28.312 80.54 37.32 26.77 21.199 14.41 62.45 13.67 64.99 4.09-8.43 19.56-13.17 40.03-14.57 40.18-2.86 99.53 7.12 129.07 26.43l-0.66 6.48c11.3-21.61 16.62-128.43 18.42-173.77 0.49-12.519 0.73-20.378 0.73-20.378" fill="#202853"/><path d="m2457.5 1007c-1.15-18.088-3.77-47.381-9.01-55.248-7.77-11.703-91.42-52.543-103.05-48.621-7.52 2.461-16.69 10.648-22.18 16.129 35.28 15.23 69.17 28.312 80.54 37.32 26.77 21.199 14.41 62.45 13.67 64.99 4.09-8.43 19.56-13.17 40.03-14.57" fill="#304383"/><path d="m2605.1 845.77h-379.28c-1.88 6.71 0.66 13.5 6.39 20.378h372.16c0.49-12.519 0.73-20.378 0.73-20.378" fill="#304383"/><path d="m2202.5 985.81s-28.81-75.95-53.78-116.14c-9.9-16.043-19.31-26.442-25.95-23.902-23.32 8.761-257.73 208.06-235.31 222.63 3.28 2.12 8.52 3.6 15.07 4.42 20.38 2.62 54.18-0.24 85.45-3.44 26.84-2.78 51.8-5.81 64.82-5.81 33.06 0 37.4 9.74 37.4 9.74 0.74-3.85 6.96-11.14 16.21-19.97 28.97-27.5 87.25-69.738 96.09-67.531" fill="#202853"/><path d="m2106.4 1053.3c-49.68-32.9-101.49-13.1-111.73-5.57-7.53 5.49-7.53 15.71-6.7 21.61 26.84-2.78 51.8-5.81 64.82-5.81 33.06 0 37.4 9.74 37.4 9.74 0.74-3.85 6.96-11.14 16.21-19.97" fill="#304383"/><path d="m2148.7 869.67c-9.9-16.043-19.31-26.442-25.95-23.902-23.32 8.761-257.73 208.06-235.31 222.63 3.28 2.12 8.52 3.6 15.07 4.42l246.19-203.15" fill="#304383"/><path d="m2848.6 2086.8c-18.33-25.53-51.15-64.5-78.16-60.56-0.98 0.15-2.04 0.32-3.35 0.56-51.58 9.09-354.82 85.13-369.14 87.99-14.57 2.86-116.63 3.85-110.82 14.57s64.17 44.69 79.72 43.87 76.85-18.58 138.07-16.61c61.31 1.88 221.73 0 221.73 0l7.78 13.42 11.45 19.81c-3.19-59.42 68.43-107.88 102.72-103.05" fill="#f89d8a"/></g><g fill="#2c2e5f"><path d="m2889.1 1762.1c-0.57 0-1.15 0.11-1.7 0.36-19.04 8.65-30.33 23.25-36.62 38.51-6.32 15.28-7.85 31.27-7.86 43.57 0 12.64 1.65 21.42 1.68 21.59 0.37 1.97 2.09 3.34 4.02 3.34 0.25 0 0.5-0.02 0.75-0.07 2.23-0.42 3.69-2.56 3.27-4.78 0 0-0.08-0.44-0.22-1.38-0.15-0.95-0.34-2.34-0.54-4.12-0.38-3.55-0.78-8.62-0.78-14.58 0-11.62 1.51-26.62 7.24-40.44 5.76-13.84 15.51-26.45 32.45-34.19 2.06-0.93 2.97-3.36 2.03-5.42-0.68-1.5-2.17-2.39-3.72-2.39"/><path d="m2534.1 1035.8c-1.89 0-3.59 1.32-4 3.25 0 0.03-52.6 249.5-78.93 417.91-8.78 56.19-14.65 103.23-14.66 129.54 0.03 8.41 0.52 14.63 2.1 19.12 1.43 3.87 4.19 7.57 7.99 11.55 3.8 3.97 8.7 8.17 14.57 12.64 11.73 8.93 27.32 18.9 45.52 29.5 36.36 21.2 83.08 44.91 129.25 67.12 92.32 44.42 182.41 82.84 182.44 82.86 0.52 0.22 1.07 0.33 1.6 0.33 1.59 0 3.11-0.94 3.77-2.49 0.89-2.08-0.08-4.48-2.16-5.37-0.03-0.01-11.11-4.74-29.53-12.82-18.43-8.08-44.17-19.49-73.39-32.83-58.44-26.67-130.85-61.06-186.55-91.8-37.1-20.43-66.92-39.49-79.61-52.8-3.39-3.51-5.47-6.6-6.2-8.68-0.96-2.52-1.65-8.38-1.62-16.33-0.03-44.3 17.84-154.77 37.97-264.41 20.12-109.72 42.49-218.98 51.44-262.11 2.55-12.33 4.01-19.23 4.01-19.25 0.47-2.21-0.95-4.38-3.16-4.85-0.28-0.06-0.57-0.08-0.85-0.08"/><path d="m2564.7 1240.1s-61.63 328.13-61.63 349.58c0 18.32 407.44 135.45 514.83 257.98 18.57-2.92 34.87-5.04 47.29-6.49 0.23-1.58 0.45-3.16 0.67-4.73 3.16-23.17 5-44.57 5-63.09 0-40.01-8.59-66.63-31.03-68.92-56.4-5.9-93.39-7.78-106.97-64.17l-252.83-17.52-125.97-81.19-19.88-14.16 30.52-287.29"/></g><g><path d="m2844.4 2007.8c3.19 7.21 6.54 14.98 10.15 23.41 7.37 17.37 11.92 42.32 14.72 71.18 51.45 49.55 96.29 123.97 94.11 189.99 3.39-38.01 6.24-118.72-24.28-161.97-25.3-35.85-66.06-81.35-94.7-122.61" fill="#43bab4"/><path d="m2864.6 2097.9c-3.77-3.44-7.62-6.88-11.47-10.07-1.38-0.49-2.86-0.82-4.5-0.98-34.29-4.83-105.91 43.63-102.72 103.05 0.25 4.41 3.77 13.25 9.5 24.79 29.3 59.1 117.45 190.63 133.66 184.57 0 0 56.63-8.75 72.02-86.1 14.4-72.6-37.57-160.67-96.49-215.26" fill="#389a9a"/><path d="m3065.2 1841.2c-12.44 1.47-28.72 3.59-47.28 6.46-48.29 7.53-111.73 20.38-161.65 40.84 44.03 1.56 138.24 30.53 149.62 246.2 5.15-40.35 12.93-82.17 23.73-124.98 14.45-56.85 28.13-116.86 35.58-168.52" fill="#43bab4"/><path d="m2986 2509.7c-1.8 1.97-3.56 3.66-5.3 5.09 1.74-1.43 3.51-3.11 5.31-5.08 0-0.01 0-0.01-0.01-0.01" fill="#e9f8f5"/><path d="m2986 2509.7c-1.8 1.97-3.57 3.65-5.31 5.08-5.36 4.42-10.42 6.38-15.24 6.94l38.76 48.82c11.79-7.06 24.93-13.43 37.6-17.96l0.04 0.03-0.04-0.03c-3.55-4.15-6.48-7.99-8.88-11.39-0.62-0.87-1.2-1.72-1.75-2.53-17.59-9.17-34.61-20.29-45.18-28.96" fill="#f6836d"/><path d="m2774.3 2026c-1.3 0-2.6 0.09-3.87 0.28-0.98 0.15-2.04 0.32-3.35 0.56-33.4 48.29-34.63 111.57-32.66 143.24l11.45 19.81c-0.01-0.24-0.02-0.49-0.03-0.73-2.28-52.25 53.11-95.86 89.57-101.93 0.03 0 0.06-0.01 0.08-0.01 0.07-0.01 0.14-0.02 0.21-0.04 0.14-0.02 0.29-0.04 0.43-0.06 0.09-0.02 0.19-0.03 0.28-0.05 0.29-0.04 0.57-0.08 0.86-0.12 0.27-0.03 0.53-0.07 0.79-0.1 1.09-0.13 2.15-0.22 3.2-0.28h0.01c0.31-0.01 0.61-0.03 0.92-0.04 0.48-0.01 0.95-0.02 1.42-0.02 1.73 0 3.4 0.11 4.98 0.33-17.46-24.32-48.08-60.84-74.29-60.84" fill="#f6836d"/><path d="m2843.6 2086.5m-1.42 0.02c-0.31 0.01-0.61 0.03-0.92 0.04 0.31-0.01 0.61-0.03 0.92-0.04m-0.93 0.04c-1.05 0.06-2.11 0.15-3.2 0.28 1.09-0.13 2.15-0.22 3.2-0.28m-3.99 0.38m-0.86 0.12c-0.09 0.02-0.19 0.03-0.28 0.05 0.09-0.02 0.19-0.03 0.28-0.05m-0.71 0.11c-0.07 0.02-0.14 0.03-0.21 0.04 0.07-0.01 0.14-0.02 0.21-0.04m-0.29 0.05c-36.46 6.07-91.85 49.68-89.57 101.93-2.28-52.25 53.11-95.86 89.57-101.93m-89.54 102.66" fill="#2e7d80"/><path d="m3108.9 2603.7c1.17 9.26 2.88 19.13 6.1 29.22-3.21-10.08-4.9-19.94-6.07-29.2-0.01-0.01-0.02-0.01-0.03-0.02" fill="#272952"/><path d="m3041.9 2552.6c-6.77 2.41-13.69 5.32-20.45 8.61-5.91 2.87-11.71 6.02-17.21 9.32-9.55 5.69-18.22 11.84-25.02 17.83-8.45 7.44-14.04 14.63-14.92 20.39-0.21 1.41-0.31 2.89-0.3 4.41 0.02 15.82 10.62 36.97 10.62 50.58 0 6.73-2.59 11.61-10.32 13.11-1.36 0.27-2.68 0.39-3.97 0.39h-0.04c-11.59-0.03-20.39-10.12-26.18-19.81-5.34-8.96-8.11-17.57-8.11-17.57-0.61-0.07-1.22-0.1-1.81-0.1h-0.04c-10.67 0.02-17.83 10.11-27.75 19-7.83 7-17.37 13.26-31.71 13.26-4.74 0-9.4-0.66-13.9-1.8-15.8-3.93-29.63-13.67-38.48-21.2 0 0 31.21 43.83 81.39 43.83 5.07 0 10.33-0.45 15.77-1.43 0 0-7.73 14.73-42.18 14.73-2.05 0-4.19-0.05-6.43-0.16 33.24 10.83 61.72 15.66 85.58 15.66 36.18 0 61.75-11.1 77.29-29.25 13.86-16.24 40.04-35 67.76-35.01 14.33 0 29.06 5.01 42.73 17.99-3.43-7.86-7.37-16.04-11.78-24.39-3.17-6.05-5.6-12.09-7.5-18.05-3.22-10.09-4.93-19.96-6.1-29.22-4.81-2.49-9.35-5.02-13.66-7.57-25.29-15.06-42.31-30.69-53.28-43.55" fill="#261a19"/><path d="m3021.5 2561.2c-5.91 2.86-11.71 6-17.21 9.32l-0.03-0.04c-9.54 5.71-18.19 11.87-24.99 17.87 6.8-5.99 15.47-12.14 25.02-17.83 5.5-3.3 11.3-6.45 17.21-9.32m-57.15 47.54c-0.21 1.41-0.31 2.89-0.3 4.41-0.01-1.52 0.09-3 0.3-4.41m-40.11 31.01m-0.04 0c-10.67 0.02-17.83 10.11-27.75 19 9.92-8.89 17.08-18.98 27.75-19m1.85 0.1s0.01 0.01 0.02 0.04c-0.01-0.03-0.02-0.04-0.02-0.04m48.62 23.88c0 6.73-2.59 11.61-10.32 13.11-1.35 0.27-2.68 0.39-3.97 0.39 1.29 0 2.61-0.12 3.97-0.39 7.73-1.5 10.32-6.38 10.32-13.11m-123.83 6.48c4.5 1.14 9.16 1.8 13.9 1.8-4.74 0-9.4-0.66-13.9-1.8m109.5 7.02h0.04-0.04" fill="#f6836d"/><path d="m3107.2 2588-0.02 0.02c0 0.02 0 0.04 0.01 0.07 0.01-0.01 0.01-0.02 0.02-0.02 0-0.03 0-0.05-0.01-0.07" fill="#272952"/><path d="m3107.1 2588c-2.85 2.19-5.74 4.25-8.65 6.13 2.91-1.87 5.79-3.88 8.66-6.06-0.01-0.03-0.01-0.05-0.01-0.07" fill="#261a19"/><path d="m3041.9 2552.6c-6.76 2.41-13.65 5.36-20.4 8.65 6.76-3.29 13.68-6.2 20.45-8.61l-0.05-0.04" fill="#1f1616"/><path d="m3041.8 2552.6c-12.67 4.53-25.81 10.9-37.6 17.96l0.03 0.04c5.5-3.32 11.3-6.46 17.21-9.32 6.75-3.29 13.64-6.24 20.4-8.65l-0.04-0.03" fill="#f3654f"/><path d="m3304.3 1527.4h-291.78s231.46 68.1 231.46 527.1c0 5.9 0 11.71-0.08 17.52-2.37 306.76-67.94 475.94-148.72 524.15 25.29 14.97 58.93 29.3 103.37 39.2 19.41 4.42 40.76 7.94 64.42 10.4 199.79 20.38 359.39-57.95 378.38-146.59 18.91-88.65-97.89-971.78-337.05-971.78" fill="#bbe8e0"/><path d="m3244 2054.5c0-459-231.46-527.1-231.46-527.1h-478.4l19.88 14.16 125.97 81.19 252.83 17.52c13.58 56.39 50.57 58.27 106.97 64.17 32.82 3.35 36.02 58.76 26.03 132.01-7.29 52.72-21.36 114.68-36.26 173.28-10.8 42.81-18.58 84.63-23.73 124.98-6.15 47.23-8.84 92.33-9.1 134.81-0.73 96.74 11.06 179.4 23.5 239.15 1.14 5.81 2.37 11.38 3.6 16.7l0.08 0.57c1.14 2.54 6.15 12.85 17.92 26.61l0.09 0.07c10.97 12.86 27.99 28.49 53.28 43.55 4.02-2.37 8.02-5.16 11.95-8.18 75.22-57.3 134.48-224.52 136.77-515.97 0.08-5.81 0.08-11.62 0.08-17.52" fill="#87c5b8"/><path d="m3151.7 845.77h-344.42c-11.79 0-16.94 14.902-7.61 22.191l86.19 67.437c38.22 29.954 60.56 75.872 60.56 124.4v467.6h66.14v-467.6c0-48.53 22.34-94.448 60.64-124.4l86.1-67.437c9.34-7.289 4.18-22.191-7.6-22.191" fill="#bbe8e0"/><path d="m3421 2604.8c-1.73 0-3.34 1.11-3.9 2.85-2.04 6.4-3.69 11.18-4.81 14.36-1.13 3.18-1.73 4.7-1.73 4.7-0.82 2.11 0.22 4.48 2.32 5.3 0.49 0.19 0.99 0.28 1.49 0.28 1.64 0 3.18-0.98 3.81-2.6 0.03-0.08 2.57-6.58 6.72-19.55 0.69-2.15-0.5-4.46-2.65-5.14-0.41-0.14-0.84-0.2-1.25-0.2" fill="#aae2d8"/><path d="m3275.4 1579.5c-0.99 0-1.98 0.36-2.76 1.08-1.67 1.52-1.78 4.11-0.26 5.78 9.32 10.18 18.27 20.62 26.85 31.3 0.81 1 1.99 1.52 3.19 1.52 0.9 0 1.81-0.29 2.56-0.9 1.76-1.41 2.04-3.99 0.63-5.75-8.69-10.81-17.75-21.38-27.19-31.7-0.81-0.88-1.91-1.33-3.02-1.33m51.99 64.64c-0.81 0-1.64 0.25-2.35 0.75-1.85 1.31-2.29 3.86-0.99 5.71 7.95 11.26 15.55 22.73 22.79 34.4 0.77 1.25 2.11 1.94 3.48 1.94 0.73 0 1.48-0.2 2.15-0.62 1.92-1.19 2.51-3.71 1.32-5.63-7.32-11.81-15-23.42-23.05-34.81-0.8-1.13-2.06-1.74-3.35-1.74m43.78 70.5c-0.66 0-1.33 0.16-1.95 0.5-1.99 1.08-2.72 3.57-1.64 5.55 6.58 12.1 12.82 24.38 18.73 36.8 0.7 1.48 2.17 2.34 3.7 2.34 0.59 0 1.19-0.13 1.76-0.4 2.04-0.97 2.91-3.41 1.93-5.45-5.97-12.56-12.28-24.97-18.93-37.2-0.74-1.36-2.15-2.14-3.6-2.14m35.7 74.94c-0.52 0-1.05 0.1-1.56 0.31-2.09 0.87-3.08 3.26-2.22 5.35 5.28 12.73 10.23 25.59 14.88 38.55 0.6 1.67 2.18 2.71 3.85 2.71 0.46 0 0.93-0.08 1.39-0.24 2.12-0.76 3.23-3.1 2.47-5.23-4.7-13.09-9.7-26.07-15.03-38.92-0.65-1.58-2.17-2.53-3.78-2.53m28.07 78.13c-0.4 0-0.81 0.06-1.21 0.19-2.16 0.66-3.37 2.95-2.71 5.11 4.06 13.19 7.82 26.45 11.3 39.77 0.48 1.85 2.14 3.07 3.96 3.07 0.34 0 0.69-0.05 1.04-0.14 2.18-0.57 3.49-2.8 2.92-4.99-3.5-13.44-7.3-26.82-11.39-40.12-0.54-1.76-2.16-2.89-3.91-2.89m21 80.34c-0.29 0-0.58 0.03-0.88 0.09-2.2 0.48-3.61 2.66-3.12 4.87 2.93 13.5 5.6 27.04 7.99 40.58 0.36 1.99 2.08 3.38 4.03 3.38 0.24 0 0.48-0.02 0.72-0.06 2.22-0.39 3.71-2.52 3.31-4.74-2.41-13.65-5.1-27.29-8.06-40.9-0.41-1.92-2.11-3.22-3.99-3.22m14.5 81.76c-0.18 0-0.37 0.01-0.57 0.04-2.23 0.31-3.8 2.37-3.49 4.61 1.91 13.72 3.56 27.42 4.96 41.09h0.01c0.21 2.1 1.99 3.67 4.06 3.67 0.14 0 0.28-0.01 0.42-0.02 2.25-0.23 3.89-2.24 3.66-4.49-1.42-13.76-3.08-27.56-5-41.37-0.28-2.05-2.04-3.53-4.05-3.53m8.51 82.61c-0.09 0-0.19 0-0.28 0.01-2.26 0.15-3.96 2.1-3.8 4.36 0.94 13.86 1.64 27.64 2.12 41.34 0.07 2.21 1.89 3.95 4.08 3.95h0.15c2.26-0.08 4.02-1.98 3.95-4.24-0.48-13.78-1.19-27.66-2.14-41.61-0.15-2.16-1.94-3.81-4.08-3.81m2.88 83c-2.26 0-4.09 1.84-4.09 4.1l0.01 2.47c0 13.1-0.21 26.08-0.6 38.92-0.07 2.26 1.71 4.14 3.97 4.21h0.12c2.21 0 4.03-1.75 4.09-3.96 0.4-12.92 0.6-25.99 0.6-39.17v-2.49c-0.01-2.25-1.84-4.08-4.1-4.08m-2.53 83c-2.14 0-3.94 1.67-4.08 3.83-0.88 13.98-1.98 27.74-3.28 41.26-0.21 2.25 1.44 4.25 3.68 4.46 0.14 0.02 0.27 0.02 0.4 0.02 2.08 0 3.87-1.58 4.07-3.7 1.31-13.6 2.42-27.46 3.3-41.52 0.14-2.26-1.57-4.2-3.83-4.34-0.08-0.01-0.17-0.01-0.26-0.01m-7.96 82.64c-2.03 0-3.79 1.5-4.06 3.57-1.86 14.26-3.79 27.94-5.78 41.03-0.33 2.24 1.2 4.32 3.44 4.66 0.21 0.03 0.41 0.05 0.62 0.05 1.98 0 3.73-1.46 4.04-3.48 1.99-13.15 3.93-26.89 5.8-41.21 0.29-2.24-1.29-4.29-3.53-4.58-0.18-0.03-0.36-0.04-0.53-0.04m-12.46 82.11c-1.96 0-3.68 1.4-4.03 3.39-2.52 14.44-5.08 28.01-7.62 40.71-0.44 2.22 0.99 4.38 3.21 4.82 0.27 0.05 0.54 0.08 0.81 0.08 1.91 0 3.62-1.35 4.01-3.29 2.55-12.77 5.12-26.41 7.65-40.92 0.39-2.22-1.1-4.34-3.33-4.73-0.23-0.04-0.47-0.06-0.7-0.06m-16.36 81.41c-1.86 0-3.55 1.28-3.98 3.18-3.48 15.13-6.84 28.52-9.95 40.17-0.58 2.18 0.72 4.42 2.9 5 0.35 0.1 0.71 0.14 1.06 0.14 1.81 0 3.46-1.2 3.95-3.03 3.13-11.75 6.51-25.23 10.01-40.45 0.51-2.2-0.86-4.4-3.07-4.9-0.31-0.07-0.61-0.11-0.92-0.11" fill="#aae2d8"/><path d="m2946.4 1371.9v155.51h66.14v-127.69c-22.92-11.94-46.17-21.11-66.14-27.82" fill="#b1e4db"/><path d="m2725.4 1527.4h-191.28l19.88 14.16 125.97 81.19 252.83 17.52c13.58 56.39 50.57 58.27 106.97 64.17 22.44 2.29 31.03 28.91 31.03 68.92 0 18.52-1.84 39.92-5 63.09-7.29 52.72-21.36 114.68-36.26 173.28-10.8 42.81-18.58 84.63-23.73 124.98-6.15 47.23-8.84 92.33-9.1 134.81 37.42-194.97 118.77-507.71 107.23-543.72-15.56-48.61-112.7-39.91-124.49-75.87-14.75-44.97-25.61-51.78-51.73-51.78-5.67 0-12.06 0.33-19.36 0.65-7.31 0.32-15.53 0.64-24.85 0.64-11.3 0-24.21-0.47-39.11-1.98-55-5.57-94.94-40.84-119-70.06" fill="#74baaf"/><path d="m3285 1527.4h-272.47s231.46 68.1 231.46 527.1c0 5.9 0 11.71-0.08 17.52-2.25 291.5-61.57 458.77-136.78 516.06-2.87 2.18-5.75 4.19-8.66 6.06-1.09 0.7-2.18 1.38-3.28 2.03 25.29 14.97 58.93 29.3 103.37 39.2-13.34-19.23-27.26-48.12-20.7-78.98 11.71-54.59 143.97-264.62 93.39-601.09-36.51-242.76-24.4-369.05 13.75-427.9m-38.81 30.42c-1.02 0-2.04-0.38-2.83-1.13-4.88-4.67-9.86-9.28-14.92-13.82-1.69-1.51-1.83-4.1-0.32-5.78 0.81-0.9 1.93-1.36 3.05-1.36 0.97 0 1.95 0.34 2.73 1.04 5.13 4.6 10.17 9.27 15.12 14 1.63 1.56 1.69 4.15 0.13 5.79-0.81 0.84-1.89 1.26-2.96 1.26" fill="#b1e4db"/><path d="m3244 2054.5c0 5.9 0 11.71-0.08 17.52 0.08-5.81 0.08-11.62 0.08-17.52m-145.52 539.64c-1.09 0.7-2.18 1.38-3.28 2.03 1.1-0.65 2.19-1.33 3.28-2.03" fill="#74baaf"/><path d="m3231.2 1535.7c-1.12 0-2.24 0.46-3.05 1.36-1.51 1.68-1.37 4.27 0.32 5.78 5.06 4.54 10.04 9.15 14.92 13.82 0.79 0.75 1.81 1.13 2.83 1.13 1.07 0 2.15-0.42 2.96-1.26 1.56-1.64 1.5-4.23-0.13-5.79-4.95-4.73-9.99-9.4-15.12-14-0.78-0.7-1.76-1.04-2.73-1.04" fill="#9cddd2"/><path d="m1792.6 2677.3c-10.47-38.06-58.52-111.89-102.39-190.95-47.96-86.26-90.85-178.68-74.07-237.36 4.17-14.73 6.05-25.53 6.05-33.31 0.17-25.54-19.23-17.6-38.79-3.11-19.97 14.81-40.19 36.42-40.19 36.42l1.47 113.77s-64.49 59.26-11.53 188.9c3.35 8.19 7.2 16.7 11.53 25.54 72.93 147.32 182.28 301.94 78.74 345.73 142.99 8.75 191.12-165.99 169.18-245.63" fill="#50c4c0"/><path d="m1623.5 2922.9c-0.01 0-0.03 0-0.05 0.01 0.02-0.01 0.03-0.01 0.05-0.01" fill="#e4f6f3"/><path d="m1570.7 2438c-1.95 1.46-3.81 3.1-5.57 4.9 6.72 18.5 14.46 36.55 22.41 54.46 22.39 49.91 47.54 98.37 70.89 147.64 11.66 24.63 22.94 49.45 32.74 74.84 9.4 25.4 18.43 51.58 19.32 78.72l-0.49 10.08-1.65 10.05c-0.88 6.76-2.65 13.31-4.45 19.86-1.53 6.63-4.47 12.81-6.76 19.2-3.06 6.05-5.79 12.3-9.68 17.89-14.38 22.87-37.33 41.06-64.01 47.23 26.76-5.84 50.08-23.78 64.87-46.67 4-5.6 6.83-11.86 9.99-17.94 2.39-6.4 5.44-12.61 7.06-19.28 1.91-6.58 3.77-13.18 4.74-19.97l1.79-10.13 0.63-10.33c-0.57-27.69-9.37-54.12-18.49-79.78-9.53-25.65-20.53-50.68-31.9-75.51-22.77-49.64-47.32-98.41-68.98-148.37-8.05-18.76-15.85-37.66-22.46-56.89" fill="#3da7a6"/><path d="m1727 2447.4c-43.71-115.24 0-202.66-65.64-215.1-30.04-5.73-43.3 16.54-48.78 42.4-6.55 30.61-2.21 66.22-2.21 66.22s11.13 28.48 34.53 56.14c19.08 22.51 46.17 44.44 82.1 50.34" fill="#389a9a"/><path d="m1574.6 2304.6c-0.25-26.85-6.3-49.6-18.74-61.55-1.23-1.24-2.46-2.3-3.61-3.2-31.02-25.13-50.82 20.87-50.82 20.87s-82.5 40.68-123.43 123.26c-31.35 63.44-38.31 151.67 35.44 265.11 10.81-80.78 55.08-135.79 98.95-188v-0.09c5.49-6.54 10.89-12.93 16.29-19.39 30.37-36.43 46.33-92.41 45.92-137.01" fill="#bbe8e0"/><path d="m1413.4 2649c0 0.01 0 0.03 0.01 0.04-0.01-0.01-0.01-0.03-0.01-0.04-0.01-0.01 0 0 0 0" fill="#e4f6f3"/><path d="m1547.5 2274.9h-7.97c-0.21 13.37-3.19 26.66-8.73 39-6.98 15.78-17.38 30.04-28.47 43.68-22.26 27.25-47.59 52.93-65.65 83.98-18.81 30.62-27.9 66.22-30.95 101.54-2.63 35.46-0.21 71.27 7.6 105.87 0 0-0.01-0.01 0 0-7.14-34.73-8.85-70.52-5.56-105.68 3.72-35.07 13.37-69.92 32.42-99.61 18.32-30.19 43.78-55.04 66.87-82.18 11.49-13.61 22.53-28.06 30.26-44.65 6.17-13 9.7-27.42 10.18-41.95" fill="#95dbcf"/><path d="m1726.9 2447.3v0.01c0.02 0.01 0.03 0.03 0.05 0.05-0.02-0.02-0.04-0.04-0.05-0.06" fill="#e9f8f5"/><path d="m1625.8 2274.9h-7.53c8.82 28.95 23.04 55.8 38.77 81.15 10.15 16.35 21.37 31.98 33.01 47.24 11.71 15.17 23.91 29.97 36.93 44.01v-0.01c-12.52-14.48-24.16-29.69-35.29-45.22-11.06-15.61-21.65-31.56-31.15-48.13-14.37-25.05-27.12-51.49-34.74-79.04" fill="#2e7d80"/><path d="m1700.4 2246.1-27.99-171.87c-1.39-7.21-7.69-12.45-15.06-12.45h-174.42c-7.36 0-13.67 5.24-15.06 12.45l-22.75 139.55-5.24 32.32c-1.72 9.41 5.48 18.1 15.06 18.1h230.4c9.58 0 16.78-8.69 15.06-18.1" fill="#bbe8e0"/><path d="m1727 2211.1h-313.56l8.27 46.82c1.8 9.82 10.31 17.03 20.3 17.03h256.51c9.9 0 18.49-7.21 20.21-17.03l8.27-46.82" fill="#87c5b8"/><path d="m1644.9 2397c6.61 14.91 13.95 30.06 21.72 45.21-7.75-15.14-15.08-30.28-21.72-45.2v-0.01" fill="#e9f8f5"/><path d="m1612.5 2274.9h-40.98c1.97 8.95 2.98 18.97 3.08 29.63 0.01 0.52 0.01 1.04 0.01 1.57 0.01 26.54-5.69 56.95-16.72 84.8 1.7 9.34 3.97 18.63 6.72 27.81 1.89 6.47 3.96 12.9 6.15 19.29 4.78-3.58 10.16-6.07 16.2-7.18 2.55-0.47 5.15-0.69 7.81-0.69 30.11 0 66.9 28.5 95.48 56.18-8.12-14.59-16.08-29.35-23.63-44.1-7.77-15.15-15.11-30.3-21.72-45.21-23.4-27.65-34.53-56.13-34.53-56.13-0.02-0.14-4.33-35.5 2.13-65.97m-59.72 127.9c-6.6 14.18-14.65 27.41-24.1 38.74-5.4 6.46-10.8 12.85-16.29 19.39v0.09c0.66 25.13 6.39 55.25 20.8 90.6 1.88-32.8 8.66-84.84 32-108.72-2.66-7.3-5.15-14.68-7.44-22.14-1.85-5.91-3.52-11.9-4.97-17.96" fill="#43bab4"/><path d="m1557.8 2390.9c-1.59 4.03-3.3 8-5.11 11.9 1.45 6.06 3.12 12.05 4.97 17.96 2.29 7.46 4.78 14.84 7.44 22.14 1.76-1.8 3.62-3.44 5.57-4.9-2.19-6.39-4.26-12.82-6.15-19.29-2.75-9.18-5.02-18.47-6.72-27.81" fill="#348e91"/><path d="m1610.3 2340.9s11.13 28.48 34.53 56.13v0.01c-23.4-27.66-34.53-56.14-34.53-56.14" fill="#2e7d80"/><path d="m1571.5 2274.9h-0.03c1.96 8.91 2.95 18.98 3.11 29.63-0.1-10.66-1.11-20.68-3.08-29.63m3.09 31.2c0.02 44.34-15.92 99.44-45.93 135.44-5.4 6.46-10.8 12.85-16.29 19.39 5.49-6.54 10.89-12.93 16.29-19.39 9.45-11.33 17.5-24.56 24.1-38.74 1.81-3.9 3.52-7.87 5.11-11.9 11.03-27.85 16.73-58.26 16.72-84.8" fill="#aae2d8"/><path d="m1612.5 2274.9h-41.01 41.01" fill="#68b3a7"/><path d="m1483 2061.8c-7.36 0-13.67 5.24-15.06 12.45l-22.34 136.84h0.03l22.31-136.84c1.39-7.21 7.7-12.45 15.06-12.45" fill="#e9f8f5"/><path d="m1587.1 2061.8h-104.11c-7.36 0-13.67 5.24-15.06 12.45l-22.31 136.84h89.92c-2.21-19.15-4.91-54.92 1.88-82.67 5.32-22.01 24.64-50.33 49.68-66.62" fill="#aae2d8"/><path d="m2375.8 3477.6h-446.06c-22.03 0-39.89 17.86-39.89 39.88v331.74c0 22.02 17.86 39.88 39.89 39.88h446.06c22.03 0 39.88-17.86 39.88-39.88v-331.74c0-22.02-17.85-39.88-39.88-39.88" fill="#343573"/></g><g fill="#fff"><path d="m2012.3 3743.5v-44.29c0-3.54 2.88-6.42 6.43-6.42h24.51c3.55 0 6.42 2.88 6.42 6.42v44.29c0 3.55 2.88 6.42 6.43 6.42h2.37c3.54 0 6.42-2.87 6.42-6.42v-120.4c0-3.54-2.88-6.42-6.42-6.42h-2.37c-3.55 0-6.43 2.88-6.43 6.42v49.43c0 3.55-2.87 6.42-6.42 6.42h-24.51c-3.55 0-6.43-2.87-6.43-6.42v-49.43c0-3.54-2.87-6.42-6.42-6.42h-2.38c-3.55 0-6.42 2.88-6.42 6.42v120.4c0 3.55 2.87 6.42 6.42 6.42h2.38c3.55 0 6.42-2.87 6.42-6.42"/><path d="m2097.8 3736.3h-11.47c-3.54 0-6.42 2.88-6.42 6.42v0.8c0 3.55 2.88 6.42 6.42 6.42h51.01c3.55 0 6.42-2.87 6.42-6.42v-0.8c0-3.54-2.87-6.42-6.42-6.42h-11.47c-3.55 0-6.42-2.87-6.42-6.42v-106.76c0-3.54-2.88-6.42-6.43-6.42h-2.37c-3.55 0-6.43 2.88-6.43 6.42v106.76c0 3.55-2.87 6.42-6.42 6.42"/><path d="m2238.4 3674c-1 17.6-1.99 37.16-1.39 52.19h-0.79c-2.97-14.83-6.53-30.64-10.68-46.26l-16.4-62.47h-9.7l-15.61 59.9c-4.35 17-8.3 33.41-10.87 48.83h-0.59c0-15.62-0.8-34.2-1.58-53.18l-2.29-50.21c-0.16-3.43-2.99-6.13-6.42-6.13h-0.69c-3.7 0-6.63 3.11-6.41 6.8l7.14 120.4c0.2 3.39 3.01 6.04 6.41 6.04h5.37c2.94 0 5.5-1.98 6.22-4.82l14.39-56.06c4.54-17.6 7.91-30.64 10.67-45.87h0.59c2.58 15.23 5.54 27.88 9.89 45.87l13.82 56c0.71 2.87 3.29 4.88 6.24 4.88h5.9c3.41 0 6.22-2.65 6.41-6.05l6.97-120.4c0.21-3.68-2.72-6.79-6.41-6.79h-1.31c-3.43 0-6.25 2.69-6.42 6.11l-2.46 51.22"/><path d="m2282.5 3749.9h2.37c3.55 0 6.43-2.87 6.43-6.42v-107.55c0-3.55 2.88-6.42 6.42-6.42h24.71c3.55 0 6.42-2.88 6.42-6.43 0-3.54-2.87-6.42-6.42-6.42h-39.93c-3.55 0-6.43 2.88-6.43 6.42v120.4c0 3.55 2.88 6.42 6.43 6.42"/></g><path d="m2579.2 3853.8c16.69 0 20.63 11.23 20.63 21.24 0 8.79-0.91 17.3-1.81 25.79-0.91 9.11-1.83 17.3-1.83 26.71 0 27.31 16.7 38.84 38.24 38.84h3.64v-15.78h-4.56c-12.74 0-17.9-9.1-17.9-22.76 0-8.19 0.92-15.78 1.83-23.06 0.6-7.89 1.51-15.17 1.51-22.46 0.31-23.67-7.89-31.86-20.93-35.51v-0.6c13.04-3.95 21.24-12.14 20.93-36.12 0-7.58-0.91-15.17-1.51-22.75-0.91-7.59-1.83-15.18-1.83-23.37 0-13.66 4.55-23.06 18.22-23.06h4.24v-15.79h-3.94c-20.03 0-37.94 10.02-37.94 38.85 0 9.1 0.92 18.21 1.83 27.01 0.9 8.8 1.81 17.6 1.81 26.1 0 9.7-3.94 21.54-20.63 21.54v15.18" fill="#343573"/><path d="m2888.5 3838.6c-16.69 0-20.63-11.84-20.63-21.54 0-8.5 0.91-17.3 1.81-26.1 0.91-8.8 1.83-17.91 1.83-27.01 0-28.83-17.91-38.85-37.94-38.85h-3.95v15.79h4.25c13.67 1.51 18.22 9.4 18.22 23.06 0 8.19-0.92 15.78-1.53 23.37-0.91 7.58-1.81 15.17-1.81 22.75-0.31 23.98 7.88 32.17 20.93 36.12v0.6c-13.05 3.65-21.24 11.84-20.93 35.51 0 7.29 0.9 14.57 1.81 22.46 0.61 7.28 1.53 14.87 1.53 23.06 0 13.66-5.17 21.24-17.91 22.76h-4.56v15.78h3.65c21.54 0 38.24-11.53 38.24-38.84 0-9.41-0.92-17.6-1.83-26.71-0.9-8.49-1.81-17-1.81-25.79 0-10.01 3.94-21.24 20.63-21.24v-15.18" fill="#343573"/><g fill="#f14e25"><path d="m2784.4 3816.6v58.38l-50.56 29.19-50.55-29.19v-58.38l50.55-29.19 50.56 29.19"/><path d="m3164.8 3525.7c-47.51 23.66-104.67 14.32-142.22-23.24-46.36-46.36-47.9-120.67-4.9-169.06l-18.53 2.2c-2.24 0.27-4.28-1.34-4.54-3.58-0.27-2.24 1.34-4.28 3.57-4.55l28.23-3.35c1.13-0.14 2.19 0.2 3.02 0.84 0.82 0.65 1.4 1.61 1.53 2.74l3.25 27.31c0.27 2.24-1.33 4.27-3.58 4.54-2.24 0.27-4.28-1.33-4.55-3.58l-2.07-17.39c-40.37 45.18-39.01 114.72 4.36 158.09 35.07 35.07 88.43 43.79 132.79 21.71 2.02-1.02 4.48-0.18 5.49 1.84 1 2.02 0.18 4.47-1.85 5.48"/><path d="m3058.5 3299.2c47.51-23.67 104.67-14.33 142.23 23.23 46.36 46.37 47.9 120.67 4.89 169.07l18.54-2.21c2.24-0.27 4.27 1.34 4.54 3.58 0.27 2.25-1.33 4.28-3.58 4.55l-28.23 3.35c-1.12 0.14-2.19-0.2-3.02-0.84-0.82-0.65-1.39-1.61-1.52-2.74l-3.25-27.31c-0.27-2.24 1.34-4.27 3.57-4.54 2.25-0.27 4.29 1.34 4.55 3.58l2.07 17.39c40.38-45.18 39.02-114.72-4.35-158.09-35.06-35.06-88.43-43.79-132.8-21.7-2.02 1.01-4.47 0.18-5.48-1.84-1.01-2.03-0.18-4.48 1.84-5.48"/><path d="m4153.1 3069.5h-740.73c-13.5 0-24.44 10.95-24.44 24.45s10.94 24.45 24.44 24.45h740.73c13.51 0 24.46-10.95 24.46-24.45s-10.95-24.45-24.46-24.45"/></g><g fill="#50c4c0"><path d="m3888.6 2963.2h-476.23c-13.5 0-24.44 10.94-24.44 24.44 0 13.51 10.94 24.45 24.44 24.45h476.23c13.51 0 24.44-10.94 24.44-24.45 0-13.5-10.93-24.44-24.44-24.44"/><path d="m3888.6 2849.1h-476.23c-13.5 0-24.44 10.95-24.44 24.45s10.94 24.44 24.44 24.44h476.23c13.51 0 24.44-10.94 24.44-24.44s-10.93-24.45-24.44-24.45"/><path d="m1526.7 3475.7h-384.77c-13.5 0-24.45 10.94-24.45 24.44 0 13.51 10.95 24.45 24.45 24.45h384.77c13.5 0 24.44-10.94 24.44-24.45 0-13.5-10.94-24.44-24.44-24.44"/></g><g><path d="m1381.4 3369.4h-239.5c-13.5 0-24.45 10.94-24.45 24.44 0 13.51 10.95 24.45 24.45 24.45h239.5c13.5 0 24.45-10.94 24.45-24.45 0-13.5-10.95-24.44-24.45-24.44" fill="#f14e25"/><path d="m1381.4 3255.3h-239.5c-13.5 0-24.45 10.95-24.45 24.45s10.95 24.45 24.45 24.45h239.5c13.5 0 24.45-10.95 24.45-24.45s-10.95-24.45-24.45-24.45" fill="#f14e25"/><path d="m3819.4 1703.4c-23.98-69.57-52.63-130.3-82.59-185.13-103.53-189.15-223.77-309.48-228.27-485.85 0 0-37.32 166.15-7.36 355.46 16.78 106.32 54.75 219.93 132.43 315.52 216.15 265.84 184.15 507.62 184.15 507.62s108.37-198.31 1.64-507.62" fill="#389a9a"/><path d="m3818.6 2209.4c-0.42 0.82-0.69 1.32-0.8 1.52 0.28-0.5 0.54-1.01 0.8-1.52" fill="#e9f8f5"/><path d="m3596.4 1431.2c7.56 19.39 16.13 38.38 25.5 56.93 9.32 19.36 20.45 37.73 31.33 56.21l34.8 53.74c22.18 36.13 40.89 74.45 56.64 113.96 15.88 39.46 29.25 79.96 40.47 121.04 11.34 41.07 20.61 82.72 27.9 124.71 7.34 41.97 12.69 84.34 15.34 126.88 1.27 21.27 1.86 42.61 0.94 63.91-0.53 10.64-1.19 21.3-2.93 31.82-1.76 10.46-3.7 21.12-8.67 30.63 0.02-0.03 0.04-0.06 0.05-0.1 0.11-0.2 0.38-0.7 0.8-1.52 4.52-9.02 6.53-19.07 8.34-28.93 1.91-10.51 2.75-21.19 3.47-31.84 1.27-21.34 1.02-42.74 0.1-64.07-1.85-42.71-6.9-85.23-13.77-127.41-6.85-42.18-15.69-84.06-26.62-125.41-10.82-41.37-23.8-82.21-39.36-122.11-15.42-39.96-33.87-78.82-55.95-115.7l-34.49-53.93c-10.71-18.31-21.68-36.53-30.83-55.68-7.75-15.43-14.93-31.17-21.42-47.17-3.89-2.02-7.78-4.01-11.64-5.96" fill="#2e7d80"/><path d="m3492.2 1157.6c-1.61 23.35-2.67 49.21-2.66 76.87 0 47.03 3.07 99.3 11.64 153.47 28.13 11.49 61.05 26.02 95.26 43.31-8.05-20.65-14.97-41.76-20.5-63.27-5.52-20.81-9.38-42.08-11.51-63.56-1.14-12.11-1.91-24.2-1.81-36.38-27.13-35.68-51.16-72.5-70.42-110.44m79.05 121.61c0.32 8.14 0.96 16.28 1.8 24.32 2.33 20.97 6.07 41.82 11.41 62.29 6.18 24.3 14.17 48.13 23.62 71.39 43.86 22.8 89.17 50.02 128.73 81.12-31.9-58.28-65.38-110.02-96.58-158.88-24.24-26.06-47.47-52.79-68.98-80.24" fill="#2e7d80"/><path d="m3562.6 1268c-0.1 12.18 0.67 24.27 1.81 36.38 2.13 21.48 5.99 42.75 11.51 63.56 5.53 21.51 12.45 42.62 20.5 63.27 3.86 1.95 7.75 3.94 11.64 5.96-9.45-23.26-17.44-47.09-23.62-71.39-5.34-20.47-9.08-41.32-11.41-62.29-0.84-8.04-1.48-16.18-1.8-24.32-2.9-3.7-5.79-7.45-8.63-11.17" fill="#235a5d"/><path d="m3568.6 845.75s-75.6 129.27 103.33 288.78c178.93 159.52 318.97 370.49 291.73 541.18-171.14-198.85-626.25-480.8-497.89-829.94l102.83-0.02" fill="#50c4c0"/><path d="m3521.2 841.28c-1.57 0-3.07 0.91-3.74 2.438l-0.02 0.043c-0.29 0.66-0.57 1.328-0.85 2h8.68c0.17-1.711-0.76-3.403-2.42-4.133-0.54-0.238-1.1-0.348-1.65-0.348" fill="#fff"/><path d="m3516.6 845.76h6.38-6.38" fill="#e9f8f5"/><path d="m3525.2 845.76h-8.68c-15.97 38.328-20.69 80.207-19.16 121.04 1.5 41.739 10 82.829 22.13 122.51 24.82 79.34 65.44 153.28 117.05 218.08 25.83 32.39 54.74 62.41 86.56 88.95 31.93 26.29 63.87 52.41 92.98 81.77 29.34 29.04 56.93 59.87 82.08 92.64 24.88 32.9 48.03 67.44 65.42 104.96-17.08-37.67-39.97-72.44-64.61-105.58-24.9-33.01-52.29-64.13-81.46-93.46-28.88-29.65-60.81-56.18-92.43-82.69-31.44-26.64-59.93-56.73-85.34-89.14-50.76-64.81-90.47-138.61-114.38-217.32-11.68-39.36-19.71-80-20.84-120.96-1.2-40.778 4.02-82.289 20.35-119.54 0.18-0.411 0.29-0.84 0.33-1.258" fill="#43bab4"/><path d="m1000.6 1782.2s-93.355 85.08-142.95 297.82c285.9-242.39 355.92-458.26 355.92-458.26l-212.97 160.44" fill="#389a9a"/><path d="m1057.4 1771.1c-4.21 2.78-8.42 5.57-12.64 8.37-6.63 12.26-13.51 24.4-20.45 36.48-17.34 30.01-35.252 59.72-53.576 89.19-36.668 58.92-74.422 117.19-113.07 174.88 39.774-56.92 78.668-114.45 116.52-172.69 18.91-29.12 37.429-58.51 55.419-88.27 9.5-15.83 18.89-31.74 27.79-47.96" fill="#2e7d80"/><path d="m1207.7 1662.6c-51.4 46.33-127.52 92.24-199.96 141.68-96.334 65.73-186.12 137.91-202.73 226.07-37.812-318.15 332.22-461.38 332.22-461.38l0.73-1.06 134.4-196.03s54.92 182.77-64.66 290.72" fill="#50c4c0"/><path d="m1272.4 1367.8c-2.24 0-4.06 1.82-4.08 4.06v0.06c0.02 1.82 0.02 3.64 0.02 5.45 1.36-1.82 2.72-3.64 4.08-5.45 0.83-1.1 1.64-2.19 2.47-3.29-0.68-0.52-1.53-0.83-2.45-0.83h-0.04" fill="#fff"/><path d="m1274.8 1368.6c-0.83 1.1-1.64 2.19-2.47 3.29 0 0 1.68 5.58 3.8 15.36 0.2-5.12 0.29-10.25 0.29-15.37 0.01-1.33-0.63-2.53-1.62-3.28m-2.47 3.29c-1.36 1.81-2.72 3.63-4.08 5.45 0 0.17-0.01 0.34-0.01 0.51l4.09-5.96" fill="#e9f8f5"/><path d="m1272.4 1371.9-4.09 5.96c-0.36 67.99-17.65 136.45-55 193.74-37.87 59.41-92.78 105.87-150.57 145.95-28.98 20.16-58.87 39.06-88.333 58.67-29.465 19.52-58.457 40.29-83.516 65.47-25.07 25.07-46.016 54.27-61.32 86.23-14.672 32.12-24.633 66.98-24.524 102.45 0.235-35.46 10.528-70.16 25.446-102.01 15.558-31.7 36.679-60.54 61.843-85.22 25.137-24.78 54.145-45.15 83.766-64.36 29.598-19.29 59.688-37.91 88.958-57.86 58.35-39.65 114.28-85.93 153.41-146 36.84-55.3 55.27-121.52 57.73-187.66-2.12-9.78-3.8-15.36-3.8-15.36" fill="#43bab4"/><path d="m3842.1 703.79h-2486.1c-39.21 0-70.99 31.77-70.99 70.981 0 39.21 31.78 71 70.99 71h2486.1c39.21 0 70.99-31.79 70.99-71 0-39.211-31.78-70.981-70.99-70.981" fill="#eef9f8"/></g></g></g></svg>
