<?xml version="1.0" encoding="UTF-8"?>
<!-- Created with Inkscape (http://www.inkscape.org/) -->
<svg width="666.67" height="666.67" version="1.1" viewBox="0 0 666.67 666.67" xml:space="preserve" xmlns="http://www.w3.org/2000/svg" xmlns:cc="http://creativecommons.org/ns#" xmlns:dc="http://purl.org/dc/elements/1.1/" xmlns:rdf="http://www.w3.org/1999/02/22-rdf-syntax-ns#"><metadata><rdf:RDF><cc:Work rdf:about=""><dc:format>image/svg+xml</dc:format><dc:type rdf:resource="http://purl.org/dc/dcmitype/StillImage"/><dc:title/></cc:Work></rdf:RDF></metadata><defs><clipPath id="clipPath100"><path d="m2173.3 1035.8c-0.81 0-1.63 0.24-2.35 0.74-1.85 1.3-2.29 3.85-0.99 5.7 0.04 0.06 76.07 108.29 171.29 225.76 0.88-3.27 1.76-6.51 2.64-9.75-69.63-86.18-128.53-166.73-153.89-202-8.61-11.97-13.33-18.69-13.35-18.71-0.79-1.14-2.06-1.74-3.35-1.74m366.45 438.44-1.07 10.09c18.42 16.63 36.18 31.21 52.95 43.04h14.53c-20.39-13.36-42.85-31.57-66.41-53.13"/></clipPath></defs><g transform="matrix(1.3333 0 0 -1.3333 0 666.67)"><g transform="scale(.1)"><path d="m0 0h5e3v5e3h-5e3z" fill-opacity="0"/><g><path d="m4767.4 2622.2c-319.76-464.58-1002.1-1901.4-834.28-2434.6l-2448.1-0.54633s-353.74 255.57-697.39 699.92c-62.453 80.729-124.56 167.77-184.11 260.58-63.234 98.342-123.56 203.24-178.39 314.21-159.32 321.82-273.01 694.8-277.61 1107-16.037 1427 1256.8 2753.3 2988.3 2218.1 1731.5-535.19 1951.2-1700.1 1631.6-2164.7" fill="#eef9f8"/><path d="m3235.7 303.66c-4.918 0-9.7947 2.0883-13.123 6.0909l-1305.5 1575.1c-5.8222 7.032-4.6713 17.294 2.5616 22.957 7.2466 5.6362 17.836 4.5329 23.644-2.4992l1305.5-1575.1c5.822-7.02 4.6713-17.292-2.5617-22.941-3.1096-2.4353-6.822-3.6197-10.534-3.6197" fill="#e13122"/><path d="m1210.6 303.66c-3.6985 0-7.4245 1.1844-10.521 3.6197-7.2328 5.6495-8.3835 15.921-2.5753 22.941l1305.5 1575.1c5.8356 7.0321 16.411 8.1354 23.644 2.4992 7.2465-5.6629 8.3972-15.925 2.5616-22.957l-1305.5-1575.1c-3.3288-4.0025-8.2055-6.0909-13.124-6.0909" fill="#f14e25"/><path d="m2516.2 303.66c-4.9178 0-9.7808 2.0883-13.11 6.0909l-1305.5 1575.1c-5.8082 7.032-4.6575 17.294 2.5753 22.957 7.2467 5.6362 17.822 4.5329 23.644-2.4992l1305.5-1575.1c5.822-7.02 4.6712-17.292-2.5616-22.941-3.1098-2.4353-6.8358-3.6197-10.534-3.6197" fill="#f14e25"/><path d="m1442 1853.3h-606.53c-23.795 0-43.096 18.73-43.096 41.82 0 23.09 19.302 41.807 43.096 41.807h606.53c23.795 0 43.096-18.717 43.096-41.807 0-23.09-19.302-41.82-43.096-41.82" fill="#e13122"/><path d="m3187.1 1853.3h-1733.6c-23.795 0-43.082 18.73-43.082 41.82 0 23.09 19.288 41.807 43.082 41.807h1733.6v-83.626" fill="#f14e25"/><path d="m1910.5 1107.6c0-25.23-21.069-45.675-47.069-45.675-26 0-47.069 20.445-47.069 45.675 0 25.217 21.069 45.675 47.069 45.675 26 0 47.069-20.458 47.069-45.675" fill="#e13122"/><path d="m2630 1107.6c0-25.23-21.082-45.675-47.069-45.675-26 0-47.069 20.445-47.069 45.675 0 25.217 21.069 45.675 47.069 45.675 25.986 0 47.069-20.458 47.069-45.675" fill="#fbc52f"/><path d="m2003.7 3185.4h-611.05c-30.179 0-54.631 23.741-54.631 53.012v440.98c0 29.271 24.452 53.012 54.631 53.012h611.05c30.178 0 54.631-23.741 54.631-53.012v-440.98c0-29.271-24.452-53.012-54.631-53.012" fill="#50c4c0"/><path d="m1716.8 3371c-61.686-11.326-114.69 40.105-103.01 99.963 6.507 33.432 34.302 60.403 68.768 66.731 61.685 11.312 114.69-40.105 103.01-99.963-6.5205-33.445-34.315-60.417-68.768-66.731zm137.75 119.85h-22.617c-3.4658 11.99-8.5892 23.356-15.26 33.764l17.452 16.922c6.644 6.4604 6.644 16.935 0 23.382l-24.562 23.834c-6.6577 6.447-17.439 6.447-24.096 0l-18.548-17.999c-10.247 5.5963-21.233 9.983-32.836 12.841v26.985c0 9.1323-7.6165 16.523-17.028 16.523h-34.726c-9.411 0-17.041-7.3909-17.041-16.523v-27.29c-11.26-2.8181-21.932-6.9657-31.877-12.296l-20.356 19.767c-6.6439 6.4472-17.439 6.4472-24.082 0l-24.562-23.834c-6.6577-6.4604-6.6577-16.922 0-23.382l18.849-18.291c-6.3012-9.7305-11.26-20.352-14.822-31.571h-26.521c-9.4111 0-17.041-7.391-17.041-16.523v-33.698c0-9.1323 7.6303-16.536 17.041-16.536h23.233c2.6165-12.456 7.0275-24.313 13.068-35.293l-15.877-15.393c-6.6576-6.4603-6.6576-16.922 0-23.369l24.562-23.834c6.6577-6.4603 17.439-6.4603 24.096 0l13.781 13.373c11.493-7.2579 24.151-12.868 37.589-16.497v-18.703c0-9.1322 7.6303-16.536 17.041-16.536h34.726c9.4111 0 17.041 7.4043 17.041 16.536v17.454c13.918 3.177 27.028 8.3214 38.959 15.247l13.274-12.881c6.6441-6.4605 17.425-6.4605 24.082 0l24.562 23.834c6.6576 6.4472 6.6576 16.922 0 23.369l-13.63 13.227c6.7674 11.272 11.849 23.568 14.973 36.635h21.151c9.3974 0 17.041 7.4043 17.041 16.536v33.698c0 9.1323-7.644 16.523-17.041 16.523" fill="#fff"/><path d="m2923.7 3487.6h-611.06c-30.165 0-54.631 23.728-54.631 53.013v440.97c0 29.285 24.466 53.013 54.631 53.013h611.06c30.165 0 54.631-23.728 54.631-53.013v-440.97c0-29.285-24.466-53.013-54.631-53.013" fill="#f14e25"/></g><g fill="#fff"><path d="m2496.5 3669.1c-4.3014 0-8.6029 1.7016-11.89 5.1045l-75.919 78.854c-6.5753 6.8193-6.5753 17.879 0 24.685l77.206 80.17c6.5617 6.8193 17.219 6.8193 23.781 0 6.5755-6.8194 6.5755-17.879 0-24.685l-65.316-67.821 64.028-66.505c6.5752-6.8193 6.5752-17.879 0-24.698-3.2878-3.4029-7.5754-5.1045-11.891-5.1045"/><path d="m2739.7 3669.1c-4.3015 0-8.6027 1.7016-11.89 5.1045-6.5753 6.8194-6.5753 17.879 0 24.698l64.042 66.505-65.329 67.821c-6.5618 6.8061-6.5618 17.866 0 24.685 6.5754 6.8193 17.219 6.8193 23.781 0l77.22-80.17c3.1644-3.2701 4.918-7.71 4.918-12.336 0-4.6392-1.7536-9.0792-4.918-12.349l-75.932-78.854c-3.2876-3.4029-7.6028-5.1045-11.89-5.1045"/><path d="m2580.4 3647.5c-2.0961 0-4.2467 0.412-6.329 1.2895-8.6164 3.6289-12.74 13.825-9.2467 22.758l75.357 192.26c3.5068 8.9062 13.274 13.253 21.932 9.5842 8.6028-3.6291 12.74-13.825 9.2467-22.758l-75.371-192.26c-2.6712-6.7662-8.9452-10.874-15.589-10.874"/><path d="m3475.2 3382.5h-1516.1v45.156c0 12.19 10.164 22.066 22.726 22.066h1470.7c12.562 0 22.726-9.8767 22.726-22.066v-45.156"/></g><path d="m3432.9 2598.1h-1431.5c-23.384 0-42.329 18.398-42.329 41.089v743.28h1516.1v-743.28c0-22.691-18.932-41.089-42.315-41.089" fill="#343573"/><g fill="#f14e25"><path d="m3402.5 3416.1c0-5.7159-4.7809-10.342-10.658-10.342-5.8903 0-10.671 4.6261-10.671 10.342 0 5.7161 4.7809 10.342 10.671 10.342 5.8768 0 10.658-4.6259 10.658-10.342"/><path d="m3329.2 3416.1c0-5.7159-4.7672-10.342-10.658-10.342-5.8905 0-10.658 4.6261-10.658 10.342 0 5.7161 4.7672 10.342 10.658 10.342 5.8904 0 10.658-4.6259 10.658-10.342"/><path d="m3256 3416.1c0-5.7159-4.7809-10.342-10.671-10.342-5.8767 0-10.644 4.6261-10.644 10.342 0 5.7161 4.7672 10.342 10.644 10.342 5.8904 0 10.671-4.6259 10.671-10.342"/></g><g fill="#50c4c0"><path d="m2879.6 3276.4h-841.91c-8.096 0-14.658 6.3674-14.658 14.224 0 7.8563 6.5616 14.224 14.658 14.224h841.91c8.0961 0 14.644-6.3675 14.644-14.224 0-7.8561-6.5481-14.224-14.644-14.224"/><path d="m2879.6 3186h-841.91c-8.096 0-14.658 6.3674-14.658 14.224 0 7.8562 6.5616 14.223 14.658 14.223h841.91c8.0961 0 14.644-6.3672 14.644-14.223 0-7.8561-6.5481-14.224-14.644-14.224"/><path d="m2478 3095.5h-440.28c-8.096 0-14.658 6.3672-14.658 14.224 0 7.8561 6.5616 14.224 14.658 14.224h440.28c8.0822 0 14.644-6.3674 14.644-14.224 0-7.8563-6.5619-14.224-14.644-14.224"/></g><g><path d="m2879.6 2914.5h-841.91c-8.096 0-14.658 6.3674-14.658 14.224s6.5616 14.224 14.658 14.224h841.91c8.0961 0 14.644-6.3673 14.644-14.224s-6.5481-14.224-14.644-14.224" fill="#f14e25"/><path d="m2478 2824h-440.28c-8.096 0-14.658 6.3673-14.658 14.224 0 7.843 6.5616 14.21 14.658 14.21h440.28c8.0822 0 14.644-6.3672 14.644-14.21 0-7.8562-6.5619-14.224-14.644-14.224" fill="#f14e25"/><path d="m2478 2733.5h-440.28c-8.096 0-14.658 6.3674-14.658 14.224 0 7.8428 6.5616 14.21 14.658 14.21h440.28c8.0822 0 14.644-6.3673 14.644-14.21 0-7.8561-6.5619-14.224-14.644-14.224" fill="#50c4c0"/><path d="m2879.6 3095.5h-316.39c-8.0958 0-14.658 6.3672-14.658 14.224 0 7.8561 6.562 14.224 14.658 14.224h316.39c8.0961 0 14.644-6.3674 14.644-14.224 0-7.8563-6.5481-14.224-14.644-14.224" fill="#fff"/><path d="m3297.5 3298.7-223.71-217.09c-5.726-5.5564-15-5.5564-20.726 0-5.7263 5.5565-5.7263 14.569 0 20.112l223.71 217.09c5.7262 5.5565 15.014 5.5565 20.726 0 5.7261-5.543 5.7261-14.556 0-20.112" fill="#f14e25"/><path d="m3307.2 2888c0-70.692-59.083-128.01-131.93-128.01s-131.92 57.319-131.92 128.01c0 70.706 59.069 128.02 131.92 128.02s131.93-57.319 131.93-128.02" fill="#f14e25"/><path d="m3158.1 2798.8c0-40.025-33.425-72.474-74.672-72.474s-74.686 32.448-74.686 72.474 33.439 72.473 74.686 72.473 74.672-32.448 74.672-72.473" fill="#50c4c0"/><path d="m1959.1 2677.5v-258.82l245.13 237.88" fill="#343573"/><path d="m1698.2 2348.7h537.84l194.5-363.24h-537.84l-194.5 363.24" fill="#87c5b8"/><path d="m1903.6 2012.3-161.04 300.77c-3.3698 6.3141 1.3424 13.838 8.6713 13.838h465.29c3.6439 0 6.9727-1.9539 8.6576-5.0913l161.04-300.77c3.3836-6.3143-1.3289-13.838-8.6576-13.838h-465.29c-3.6439 0-6.9865 1.9542-8.6713 5.0914" fill="#fff"/><path d="m2328.3 1985.4h-435.61v-48.493h435.61v48.493" fill="#bbe8e0"/><path d="m2702.5 1985.4h-429.85c-13.795 0-24.973-10.86-24.973-24.233 0-13.399 11.178-24.26 24.973-24.26h429.85c13.808 0 24.987 10.86 24.987 24.26 0 13.373-11.178 24.233-24.987 24.233" fill="#9fd2c5"/><path d="m1892.7 1985.4-194.5 363.24-9.7536-7.0984c-6.2878-4.5862-8.233-12.921-4.5617-19.687l208.81-384.95v48.493" fill="#bbe8e0"/></g><g fill="#9fd2c5"><path d="m2088.5 1954.7h-47.959v8.0821h47.959v-8.0821"/><path d="m2148.8 1954.7h-47.959v8.0821h47.959v-8.0821"/><path d="m2209.1 1954.7h-47.946v8.0821h47.946v-8.0821"/></g><path d="m2873.3 1274.5s-446.13-337.07-516.88-422.69c-26.685-32.435-73.22-89.223-121.43-147.43-79.152-95.643-163.14-195.3-173.11-197.69-15.918-3.9055-149.8 94.98-153.84 116.32-2.4658 13.28 119.41 216.29 224.92 379.5 64.247 99.206 122.32 183.87 142.73 202.15 53.932 48.519 385.81 219.12 385.81 219.12l211.8-149.27" fill="#343573"/><g transform="matrix(1.3699 0 0 1.3293 -955.32 -803.79)"><g clip-path="url(#clipPath100)"><path d="m2168.7 1035.8h437.5v491.57h-437.5z" fill="#2c2e5f"/></g></g><g><path d="m3338.2 2752.6c-4.6988-10.448-10.096-21.322-16.137-32.422-32.63-60.496-8.5206-121.1-45.754-136.55-2.2329-0.8772-4.7123-1.7413-7.5069-2.2863-47.987-10.342-158.54 51.683-163.37 82.682-4.8083 31.012 34.082 84.105 0 90.525-34.069 6.4205-52.466-49.171-52.466-49.171-28.028-2.8314-38 42.75-83.987 42.75-6.4931 0-12.877-0.8774-19.041-2.3929-21.644-5.2241-40.59-18.171-52.713-28.181-8.959-7.2847-14.124-13.054-14.124-13.054s-40.918 25.137-39.014 74.64c3.2466 78.442 33.069 135.67 104.95 147.31 7.9589 87.255 81.96 133.82 180.84 136.76 86.686 2.6188 99.686-73.005 101.7-91.828-0.7673 14.038-4.8084 60.177-25.439 91.828 43.384 1.8611 81.617-28.181 71.631-126.1 9.9864 29.152 44.973 47.549 71.877 26.227-24.891 0-48.891-40.69-48.891-40.69s29.274-18.172 49.234-51.79c16.589-27.756 10.315-68.765-11.781-118.27" fill="#322020"/><path d="m3276.3 2583.7-1.1095-14.37-3.8083-50.912s-79.85-66.266-125.14 0l-1.0001 1.3028c-14.028 20.232-26.699 27.304-38.247 28.62-8.7535 1.0235-16.932-1.2229-24.754-3.4694-14.479-4.1609-27.74-8.3214-41.288 8.3613-59.644 73.444-83.412 158.52-91.028 192.58 6.1644 1.5155 12.548 2.3929 19.041 2.3929 45.987 0 55.959-45.582 83.987-42.75 0 0 18.398 55.591 52.466 49.171 34.082-6.4205-4.8083-59.513 0-90.525 2.1369-13.811 25.356-33.831 54.713-50.806 34.206-19.913 76.823-35.692 103.82-32.648 1.685 0.226 3.2741 0.4519 4.8357 0.771 2.7946 0.545 5.274 1.4091 7.5069 2.2863" fill="#f89d8a"/><path d="m3128.6 2475.7c-5.9591 10.329-15.206 30.056-7.7125 42.671 2.0275 3.4827 7.0687 8.2682 14.233 13.931 0.013 0 0.013 0 0.013 0.013 3.2877-3.4961 6.6438-7.67 10.096-12.642l1.0001-1.3028c5.863-8.6005 12.315-14.955 19.096-19.527-10.603-6.6199-23.219-14.556-36.726-23.143" fill="#e9f8f5"/><path d="m3165.4 2498.8c-6.7808 4.5728-13.233 10.927-19.096 19.528l-1.0001 1.3028c-3.4521 4.9714-6.8082 9.1454-10.096 12.642 14.48 11.525 37.795 26.307 61.891 38.497 0 0 0.013 0 0.013 0.013-6.0136-8.6935-9.0275-14.782-10-16.882l-0.1095-0.7575c-1.6848-7.072-3.3699-14.476-4.9315-22.199-1.7124-8.0024-3.4248-16.31-5.1097-24.938-3.4933-2.1667-7.3699-4.5861-11.562-7.2048" fill="#f6836d"/><path d="m3278.1 1640.2c-80.275-15.008-250.14 30.906-331.43 66.372-24 10.448-40.37 20.019-44.288 26.772-15.589 26.652 0.1095 47.11 38.795 131.75 4.3698 9.5843 8.9589 19.913 13.904 31.119 26.233 59.951 26.343 187.79 26.233 298.02-0.3426 94.327-0.7809 175.71 14.685 190.17 33.521 31.345 200.81 133.94 200.81 133.94l33.302-168.42s18.836-85.527 38.685-197.15c36.548-205.52 76.699-499.94 9.3014-512.57" fill="#50c4c0"/><path d="m3334.1 1565.3c0-7.7233-79.946-188.65-147-214.55-67.042-25.895-471.13 2.6055-471.13 2.6055l-199.8-126.75 41.809-381.89 29.151-266.11 0.9042-8.6139c-61.11-38.723-215.04-49.172-231.65-15.766l-0.1094 0.22603c-16.042 33.618-261.13 749.74-165.15 873.88 95.864 124.02 711.3 305.07 711.3 305.07 16.041-9.9035 34.644-18.823 54.946-26.772 68.384-27.198 155.29-44.279 221.44-54.289 25.439-3.8151 47.754-6.6465 64.795-8.5873 21.534-2.5124 34.534-3.4961 34.534-3.4961s55.96-67.13 55.96-74.959" fill="#343573"/><path d="m2613.4 320.49h-519.57c-2.5755 8.9196 0.904 17.946 8.7535 27.089 21.069 24.592 73.878 49.293 124.78 70.615 48.329 20.245 94.754 37.635 110.33 49.61 36.672 28.18 19.74 83.015 18.726 86.391 5.6028-11.206 26.795-17.507 54.836-19.368 55.042-3.8017 136.34 9.4646 176.81 35.133l-0.9042 8.6139c15.48-28.726 22.768-170.72 25.233-231 0.6713-16.642 1-27.089 1-27.089" fill="#202853"/><path d="m2411.2 534.83c-1.5754-24.044-5.1644-62.984-12.343-73.441-10.644-15.557-125.23-69.845-141.17-64.632-10.301 3.2714-22.863 14.154-30.384 21.44 48.329 20.245 94.754 37.635 110.33 49.61 36.672 28.18 19.74 83.015 18.726 86.391 5.6028-11.206 26.795-17.507 54.836-19.368" fill="#304383"/><path d="m2613.4 320.49h-519.57c-2.5755 8.9196 0.904 17.946 8.7535 27.089h509.81c0.6713-16.642 1-27.089 1-27.089" fill="#304383"/><path d="m2061.8 506.64s-39.466-100.96-73.672-154.38c-13.562-21.326-26.452-35.149-35.548-31.773-31.946 11.646-353.06 276.57-322.35 295.94 4.493 2.8182 11.671 4.7855 20.644 5.8755 27.918 3.4827 74.22-0.31903 117.06-4.5728 36.768-3.6954 70.96-7.7232 88.796-7.7232 45.288 0 51.233 12.947 51.233 12.947 1.0137-5.1179 9.5343-14.808 22.206-26.546 39.686-36.556 119.52-92.703 131.63-89.769" fill="#202853"/><path d="m1930.2 596.41c-68.056-43.734-139.03-17.414-153.06-7.4042-10.315 7.2978-10.315 20.883-9.1783 28.726 36.768-3.6954 70.96-7.7232 88.796-7.7232 45.288 0 51.233 12.947 51.233 12.947 1.0137-5.1179 9.5343-14.808 22.206-26.546" fill="#304383"/><path d="m1988.2 352.26c-13.562-21.326-26.452-35.149-35.548-31.773-31.946 11.646-353.06 276.57-322.35 295.94 4.493 2.8182 11.671 4.7855 20.644 5.8755l337.25-270.04" fill="#304383"/><path d="m2946.9 1970.2c-25.11-33.937-70.069-85.74-107.07-80.502-1.3426 0.1993-2.7945 0.4254-4.5891 0.7444-70.658 12.083-486.06 113.16-505.68 116.97-19.959 3.8018-159.77 5.1179-151.81 19.368 7.959 14.25 87.905 59.406 109.21 58.316 21.302-1.0899 105.28-24.698 189.14-22.08 83.987 2.4991 303.74 0 303.74 0l10.658 17.839 15.685 26.333c-4.3699-78.987 93.741-143.4 140.71-136.98" fill="#f89d8a"/></g><g fill="#2c2e5f"><path d="m3002.4 1538.5c-0.7809 0-1.5753 0.1462-2.3288 0.4785-26.082 11.498-41.548 30.906-50.165 51.191-8.6575 20.312-10.754 41.567-10.767 57.918 0 16.802 2.2604 28.474 2.3013 28.7 0.507 2.6188 2.8632 4.4399 5.507 4.4399 0.3424 0 0.6849-0.027 1.0275-0.094 3.0547-0.5582 5.0547-3.403 4.4794-6.3541 0 0-0.1096-0.5849-0.3015-1.8343-0.2054-1.2629-0.4657-3.1106-0.7397-5.4769-0.5204-4.7189-1.0684-11.458-1.0684-19.381 0-15.446 2.0685-35.386 9.9178-53.757 7.8907-18.398 21.247-35.16 44.453-45.449 2.822-1.2363 4.0686-4.4665 2.7808-7.2048-0.9314-1.9939-2.9726-3.1772-5.0959-3.1772"/><path d="m2516.1 573.14c-2.589 0-4.9178 1.7548-5.4794 4.3203 0 0.0395-72.056 331.66-108.12 555.53-12.028 74.694-20.069 137.22-20.082 172.2 0.041 11.179 0.7124 19.448 2.8767 25.416 1.959 5.1444 5.7397 10.063 10.945 15.354 5.2055 5.2772 11.918 10.86 19.959 16.802 16.069 11.871 37.425 25.124 62.357 39.214 49.809 28.181 113.81 59.699 177.06 89.223 126.47 59.048 249.88 110.12 249.92 110.15 0.7124 0.2924 1.4657 0.4387 2.1919 0.4387 2.178 0 4.2603-1.2495 5.1644-3.3099 1.2191-2.7649-0.1098-5.9553-2.9591-7.1384-0.041-0.013-15.219-6.3009-40.452-17.042-25.247-10.741-60.507-25.908-100.54-43.641-80.056-35.452-179.25-81.167-255.55-122.03-50.822-27.158-91.672-52.494-109.06-70.187-4.6439-4.6659-7.4931-8.7732-8.4931-11.538-1.3151-3.3498-2.2604-11.14-2.2192-21.707-0.041-58.888 24.439-205.74 52.014-351.48 27.562-145.85 58.206-291.09 70.466-348.42 3.4933-16.39 5.4933-25.562 5.4933-25.589 0.6439-2.9378-1.3014-5.8223-4.3289-6.4471-0.3836-0.08-0.7808-0.10641-1.1644-0.10641"/><path d="m2558 844.69s-84.426 436.18-84.426 464.7c0 24.353 558.14 180.05 705.25 342.93 25.439-3.8815 47.768-6.6997 64.782-8.6272 0.3152-2.1003 0.6165-4.2006 0.9179-6.2875 4.3287-30.8 6.8493-59.247 6.8493-83.866 0-53.186-11.767-88.571-42.507-91.615-77.261-7.843-127.93-10.342-146.54-85.301l-346.35-23.289-172.56-107.93-27.233-18.823 41.809-381.89"/></g><g><path d="m2941.2 1865.1c4.3698 9.5843 8.9589 19.913 13.904 31.119 10.096 23.09 16.329 56.256 20.165 94.62 70.48 65.867 131.91 164.79 128.92 252.55 4.644-50.527 8.548-157.81-33.26-215.31-34.658-47.655-90.494-108.14-129.73-162.99" fill="#43bab4"/><path d="m2968.8 1984.9c-5.1645-4.5727-10.439-9.1455-15.713-13.386-1.8904-0.6513-3.9179-1.0899-6.1644-1.3027-46.973-6.4204-145.08 57.998-140.71 136.98 0.3423 5.8622 5.1644 17.613 13.014 32.954 40.137 78.562 160.89 253.4 183.1 245.35 0 0 77.576-11.631 98.658-114.45 19.726-96.507-51.466-213.58-132.18-286.15" fill="#389a9a"/><path d="m3243.6 1643.7c-17.041 1.9541-39.343 4.7722-64.768 8.5873-66.151 10.01-153.06 27.091-221.44 54.289 60.316 2.0737 189.37 40.584 204.96 327.27 7.0549-53.637 17.712-109.23 32.507-166.14 19.795-75.571 38.535-155.34 48.74-224.01" fill="#43bab4"/><path d="m3135.2 2532.3c-2.4658 2.6188-4.8769 4.8653-7.2604 6.7662 2.3835-1.9009 4.8082-4.1341 7.2741-6.7528 0-0.013 0-0.013-0.013-0.013" fill="#e9f8f5"/><path d="m3135.2 2532.3c-2.4659 2.6187-4.8906 4.8519-7.2741 6.7528-7.3425 5.8756-14.274 8.481-20.877 9.2254l53.096 64.896c16.151-9.3849 34.151-17.852 51.508-23.874l0.055 0.04-0.055-0.04c-4.863-5.5167-8.8768-10.621-12.164-15.141-0.8494-1.1565-1.644-2.2864-2.3972-3.3631-24.096-12.19-47.412-26.972-61.891-38.497" fill="#f6836d"/><path d="m2845.1 1889.4c-1.7808 0-3.5616 0.1196-5.3014 0.3722-1.3426 0.1993-2.7945 0.4254-4.5891 0.7444-45.754 64.192-47.439 148.31-44.74 190.41l15.685 26.333c-0.013-0.319-0.027-0.6514-0.041-0.9702-3.1233-69.456 72.754-127.43 122.7-135.5 0.041 0 0.082-0.013 0.1097-0.013 0.096-0.013 0.1918-0.028 0.2876-0.053 0.1919-0.027 0.3974-0.053 0.589-0.08 0.1233-0.027 0.2604-0.04 0.3837-0.065 0.3972-0.053 0.7808-0.1065 1.178-0.1597 0.3699-0.04 0.7261-0.094 1.0822-0.1329 1.4932-0.1728 2.9454-0.2924 4.3837-0.3722h0.013c0.4247-0.013 0.8357-0.04 1.2604-0.053 0.6575-0.013 1.3014-0.026 1.9452-0.026 2.3697 0 4.6576 0.1462 6.8219 0.4385-23.918-32.329-65.864-80.875-101.77-80.875" fill="#f6836d"/><path d="m2940.1 1969.8m-1.9452 0.028c-0.4247 0.013-0.8356 0.04-1.2604 0.053 0.4248-0.013 0.8357-0.04 1.2604-0.053m-1.274 0.053c-1.4382 0.08-2.8905 0.1994-4.3837 0.3722 1.4932-0.1728 2.9455-0.2924 4.3837-0.3722m-5.4659 0.5051m-1.178 0.1596c-0.1232 0.026-0.2602 0.04-0.3837 0.065 0.1235-0.027 0.2605-0.04 0.3837-0.065m-0.9727 0.1463c-0.096 0.026-0.1917 0.04-0.2876 0.053 0.096-0.013 0.1919-0.025 0.2876-0.053m-0.3972 0.066c-49.946 8.069-125.82 66.04-122.7 135.5-3.1233-69.456 72.754-127.43 122.7-135.5m-122.66 136.47" fill="#2e7d80"/><path d="m3303.5 2657.4c1.6027 12.309 3.9452 25.43 8.3564 38.842-4.3974-13.399-6.7125-26.506-8.3153-38.816-0.013-0.013-0.027-0.013-0.041-0.026" fill="#272952"/><path d="m3211.8 2589.4c-9.2738 3.2037-18.754 7.0718-28.014 11.445-8.0957 3.815-16.041 8.0023-23.576 12.389-13.082 7.5636-24.959 15.739-34.274 23.701-11.576 9.89-19.233 19.448-20.438 27.104-0.2877 1.8743-0.4246 3.8417-0.411 5.8622 0.027 21.03 14.548 49.144 14.548 67.236 0 8.9463-3.548 15.433-14.137 17.427-1.8631 0.3589-3.6713 0.5185-5.4386 0.5185h-0.055c-15.877-0.04-27.932-13.453-35.863-26.334-7.3152-11.91-11.11-23.356-11.11-23.356-0.8356-0.094-1.6712-0.1329-2.4796-0.1329h-0.056c-14.617 0.027-24.425 13.439-38.014 25.257-10.726 9.3052-23.795 17.627-43.439 17.627-6.4932 0-12.877-0.8774-19.041-2.3929-21.644-5.2241-40.589-18.171-52.713-28.181 0 0 42.754 58.263 111.49 58.263 6.9453 0 14.151-0.5982 21.603-1.9009 0 0-10.589 19.58-57.782 19.58-2.8082 0-5.7398-0.066-8.8083-0.2127 45.535 14.396 84.549 20.817 117.23 20.817 49.562 0 84.59-14.755 105.88-38.882 18.987-21.588 54.85-46.526 92.823-46.539 19.63 0 39.809 6.6598 58.535 23.914-4.6988-10.448-10.096-21.322-16.137-32.422-4.3426-8.0423-7.6714-16.071-10.274-23.994-4.4109-13.412-6.7534-26.533-8.3561-38.842-6.5893-3.3102-12.808-6.6732-18.713-10.063-34.644-20.019-57.959-40.796-72.987-57.891" fill="#261a19"/><path d="m3183.7 2600.9c-8.0957 3.8018-16.041 7.9758-23.576 12.389l-0.04-0.053c-13.069 7.5902-24.918 15.779-34.233 23.755 9.3152-7.9626 21.192-16.138 34.274-23.701 7.5344-4.3868 15.48-8.5741 23.576-12.389m-78.288 63.195c-0.2877 1.8743-0.4247 3.8417-0.4109 5.8622-0.013-2.0205 0.1232-3.9879 0.4109-5.8622m-54.946 41.222m-0.056 0c-14.616 0.026-24.425 13.439-38.014 25.257 13.589-11.818 23.398-25.23 38.014-25.257m2.5343 0.1329s0.013 0.013 0.027 0.053c-0.014-0.04-0.027-0.053-0.027-0.053m66.603 31.744c0 8.9463-3.5479 15.433-14.137 17.427-1.8493 0.3589-3.6713 0.5185-5.4386 0.5185 1.7673 0 3.5755-0.1596 5.4386-0.5185 10.589-1.994 14.137-8.4809 14.137-17.427m-169.63 8.6138c6.1644 1.5155 12.548 2.3929 19.041 2.3929-6.4931 0-12.877-0.8774-19.041-2.3929m150 9.3319h0.056-0.056" fill="#f6836d"/><path d="m3301.1 2636.4s-0.014 0.013-0.027 0.026c0 0.027 0 0.053 0.013 0.094 0.014-0.013 0.014-0.026 0.028-0.026 0-0.04 0-0.066-0.013-0.094" fill="#272952"/><path d="m3301.1 2636.5c-3.9041 2.9111-7.8629 5.6496-11.849 8.1486 3.9865-2.4857 7.9316-5.1578 11.863-8.0555-0.013-0.04-0.013-0.066-0.013-0.094" fill="#261a19"/><path d="m3211.7 2589.4c-9.2604 3.2037-18.699 7.125-27.946 11.498 9.2605-4.3735 18.74-8.2416 28.014-11.445l-0.069-0.053" fill="#1f1616"/><path d="m3211.6 2589.3c-17.356 6.0218-35.356 14.489-51.508 23.874l0.041 0.053c7.5344-4.4134 15.48-8.5873 23.576-12.389 9.2467-4.3735 18.685-8.2948 27.946-11.498l-0.055-0.04" fill="#f3654f"/><path d="m3571.2 1226.6h-399.7s317.07 90.525 317.07 700.67c0 7.843 0 15.566-0.1096 23.289-3.2468 407.78-93.07 632.67-203.73 696.75 34.644 19.9 80.727 38.948 141.6 52.109 26.589 5.8753 55.836 10.554 88.248 13.824 273.69 27.091 492.32-77.033 518.33-194.86 25.904-117.84-134.1-1291.8-461.72-1291.8" fill="#bbe8e0"/><path d="m3488.6 1927.3c0-610.15-317.07-700.67-317.07-700.67h-655.35l27.233 18.823 172.56 107.93 346.35 23.289c18.603 74.959 69.275 77.458 146.54 85.301 44.959 4.4531 49.343 78.11 35.658 175.48-9.9864 70.081-29.261 152.44-49.672 230.34-14.795 56.908-25.452 112.5-32.507 166.14-8.4247 62.783-12.11 122.73-12.466 179.2-0.9999 128.6 15.151 238.48 32.192 317.9 1.5616 7.7231 3.2466 15.127 4.9315 22.199l0.1096 0.7577c1.5616 3.3763 8.4247 17.082 24.548 35.373l0.1232 0.094c15.028 17.095 38.343 37.872 72.987 57.891 5.507-3.1504 10.986-6.8593 16.37-10.874 103.04-76.169 184.22-298.45 187.36-685.88 0.1096-7.7232 0.1096-15.446 0.1096-23.289" fill="#87c5b8"/><path d="m3362.1 320.49h-471.81c-16.151 0-23.206 19.809-10.425 29.499l118.07 89.644c52.356 39.818 82.96 100.86 82.96 165.37v621.58h90.604v-621.58c0-64.511 30.603-125.55 83.069-165.37l117.95-89.644c12.795-9.6893 5.7261-29.499-10.411-29.499" fill="#bbe8e0"/><path d="m3731 2658.7c-2.37 0-4.5756 1.4755-5.3427 3.7883-2.7945 8.5075-5.0549 14.862-6.589 19.089-1.548 4.227-2.37 6.2476-2.37 6.2476-1.1232 2.8049 0.3015 5.9552 3.1781 7.0452 0.6713 0.2526 1.3563 0.3722 2.0413 0.3722 2.2465 0 4.3561-1.3027 5.2191-3.4562 0.041-0.1063 3.5207-8.7468 9.2056-25.988 0.9452-2.858-0.6849-5.9287-3.6302-6.8326-0.5615-0.1861-1.1507-0.2658-1.7122-0.2658" fill="#aae2d8"/><path d="m3531.6 1295.9c-1.3562 0-2.7123 0.4785-3.7808 1.4357-2.2877 2.0205-2.4384 5.4634-0.3563 7.6833 12.767 13.532 25.028 27.41 36.781 41.607 1.1096 1.3292 2.7261 2.0204 4.3698 2.0204 1.2329 0 2.4795-0.3854 3.507-1.1964 2.4108-1.8743 2.7945-5.3038 0.863-7.6433-11.904-14.37-24.315-28.421-37.247-42.139-1.1095-1.1698-2.6164-1.768-4.137-1.768m71.22 85.926c-1.1097 0-2.2466 0.3323-3.2193 0.9969-2.5342 1.7413-3.137 5.1311-1.3561 7.5904 10.89 14.968 21.302 30.215 31.22 45.728 1.0547 1.6616 2.8904 2.5788 4.7671 2.5788 1.0001 0 2.0275-0.2658 2.9454-0.8241 2.6301-1.5818 3.4383-4.9318 1.8081-7.4841-10.028-15.699-20.548-31.132-31.576-46.273-1.0958-1.5021-2.822-2.3129-4.589-2.3129m59.973 93.716c-0.9041 0-1.8219 0.2125-2.6713 0.6646-2.7261 1.4355-3.7261 4.7455-2.2467 7.3776 9.0139 16.084 17.562 32.408 25.658 48.918 0.9589 1.9672 2.9726 3.1105 5.0686 3.1105 0.8083 0 1.6302-0.1729 2.4111-0.5317 2.7945-1.2895 3.9863-4.533 2.6438-7.2448-8.1782-16.696-16.822-33.193-25.932-49.45-1.0137-1.8078-2.9451-2.8446-4.9314-2.8446m48.904 99.618c-0.7123 0-1.4382 0.1329-2.137 0.4122-2.863 1.1563-4.2192 4.3335-3.0411 7.1116 7.2329 16.922 14.014 34.017 20.384 51.245 0.8219 2.22 2.9862 3.6024 5.274 3.6024 0.6301 0 1.274-0.1063 1.9041-0.3191 2.9042-1.0102 4.4248-4.1208 3.3837-6.9522-6.4385-17.4-13.288-34.655-20.589-51.736-0.8906-2.1003-2.9727-3.3631-5.1783-3.3631m38.453 103.86c-0.5481 0-1.1096 0.08-1.6576 0.2525-2.9589 0.8773-4.6165 3.9214-3.7123 6.7927 5.5615 17.534 10.712 35.16 15.48 52.866 0.6576 2.4593 2.9315 4.081 5.4245 4.081 0.4659 0 0.9455-0.066 1.4248-0.1861 2.9864-0.7576 4.7809-3.7221 4.0002-6.6332-4.7947-17.866-10-35.652-15.603-53.332-0.7397-2.3395-2.9588-3.8416-5.3561-3.8416m28.767 106.8c-0.3973 0-0.7946 0.04-1.2056 0.1197-3.0137 0.6379-4.9452 3.5358-4.2739 6.4736 4.0137 17.946 7.6713 35.944 10.945 53.943 0.4932 2.6454 2.8494 4.4931 5.5205 4.4931 0.3287 0 0.6575-0.026 0.9863-0.08 3.0411-0.5183 5.0824-3.3497 4.5343-6.3008-3.3014-18.145-6.9863-36.277-11.041-54.368-0.5617-2.5521-2.8904-4.2802-5.4658-4.2802m19.863 108.68c-0.2467 0-0.507 0.013-0.781 0.053-3.0548 0.4122-5.2055 3.1506-4.7808 6.1282 2.6164 18.238 4.8766 36.45 6.7946 54.621h0.013c0.2877 2.7915 2.7261 4.8785 5.5616 4.8785 0.1918 0 0.3837-0.013 0.5754-0.026 3.0822-0.3058 5.3289-2.9778 5.0139-5.9686-1.9453-18.291-4.2193-36.636-6.8497-54.993-0.3834-2.7251-2.7944-4.6925-5.5477-4.6925m11.657 109.81c-0.1231 0-0.26 0-0.3834 0.013-3.0958 0.1993-5.4247 2.7914-5.2055 5.7957 1.2878 18.424 2.2466 36.742 2.9042 54.953 0.095 2.9377 2.5891 5.2507 5.589 5.2507h0.2055c3.0959-0.1064 5.5069-2.6321 5.411-5.6363-0.6575-18.318-1.63-36.768-2.9314-55.312-0.2056-2.8714-2.6577-5.0647-5.5894-5.0647m3.9455 110.33c-3.0959 0-5.6028 2.4459-5.6028 5.4501l0.014 3.2833c0 17.414-0.2877 34.668-0.822 51.736-0.095 3.0042 2.3426 5.5033 5.4386 5.5964h0.1644c3.0272 0 5.5205-2.3264 5.6027-5.264 0.5479-17.175 0.822-34.549 0.822-52.069v-3.3099c-0.014-2.9909-2.5207-5.4235-5.6166-5.4235m-3.4657 110.33c-2.9317 0-5.3974 2.2199-5.5892 5.0913-1.2054 18.584-2.7124 36.875-4.4932 54.847-0.2877 2.9909 1.9726 5.6495 5.0412 5.9286 0.1919 0.028 0.3698 0.028 0.5478 0.028 2.8495 0 5.3015-2.1004 5.5756-4.9185 1.7944-18.078 3.3152-36.502 4.5205-55.192 0.1919-3.0041-2.1506-5.5831-5.2468-5.7692-0.1094-0.013-0.2327-0.013-0.3559-0.013m-10.904 109.85c-2.7808 0-5.1917 1.9939-5.5617 4.7456-2.5479 18.956-5.1918 37.141-7.9178 54.541-0.4521 2.9776 1.6438 5.7426 4.7122 6.1946 0.2879 0.04 0.5618 0.066 0.8494 0.066 2.7124 0 5.1096-1.9407 5.5344-4.6258 2.726-17.48 5.3835-35.745 7.9452-54.781 0.3973-2.9776-1.7671-5.7027-4.8356-6.0881-0.2466-0.04-0.4932-0.053-0.7261-0.053m-17.069 109.15c-2.685 0-5.0411 1.8611-5.5207 4.5065-3.452 19.195-6.9589 37.234-10.438 54.116-0.6027 2.951 1.3562 5.8224 4.3974 6.4072 0.3699 0.066 0.7398 0.1064 1.1096 0.1064 2.6164 0 4.959-1.7946 5.4933-4.3734 3.493-16.975 7.0137-35.107 10.48-54.395 0.5342-2.951-1.5069-5.7692-4.5618-6.2876-0.315-0.053-0.6438-0.081-0.9588-0.081m-22.411 108.22c-2.5481 0-4.8631 1.7015-5.4521 4.2271-4.7672 20.112-9.3701 37.912-13.63 53.398-0.7945 2.8979 0.9862 5.8754 3.9725 6.6466 0.4795 0.1328 0.9727 0.186 1.4521 0.186 2.4795 0 4.7399-1.5952 5.411-4.0278 4.2878-15.619 8.9179-33.538 13.713-53.77 0.6985-2.9245-1.1781-5.8489-4.2055-6.5136-0.4248-0.094-0.8357-0.1462-1.2603-0.1462" fill="#aae2d8"/><path d="m3080.9 1019.9v206.72h90.604v-169.74c-31.398-15.872-63.247-28.062-90.604-36.981" fill="#b1e4db"/><path d="m2778.2 1226.6h-262.03l27.233 18.823 172.56 107.93 346.35 23.289c18.603 74.959 69.275 77.458 146.54 85.301 30.74 3.044 42.507 38.43 42.507 91.615 0 24.619-2.5206 53.066-6.8493 83.866-9.9864 70.081-29.261 152.44-49.672 230.34-14.795 56.908-25.452 112.5-32.507 166.14-8.4247 62.783-12.11 122.73-12.466 179.2 51.261-259.17 162.7-674.9 146.89-722.77-21.315-64.617-154.39-53.052-170.54-100.85-20.206-59.779-35.082-68.831-70.864-68.831-7.767 0-16.52 0.4387-26.521 0.864-10.014 0.4254-21.274 0.8507-34.042 0.8507-15.48 0-33.165-0.6247-53.576-2.632-75.343-7.4041-130.06-54.288-163.02-93.131" fill="#74baaf"/><path d="m3544.8 1226.6h-373.25s317.07 90.525 317.07 700.67c0 7.843 0 15.566-0.1096 23.289-3.0824 387.49-84.343 609.84-187.37 686-3.9315 2.8977-7.8766 5.5698-11.863 8.0555-1.493 0.9305-2.9863 1.8345-4.4932 2.6985 34.644 19.9 80.727 38.948 141.6 52.109-18.274-25.562-37.343-63.966-28.356-104.99 16.041-72.566 197.22-351.76 127.93-799.03-50.014-322.7-33.425-490.58 18.836-568.81m-53.165 40.437c-1.3973 0-2.7946-0.5052-3.8769-1.5021-6.6849-6.2079-13.507-12.336-20.438-18.371-2.315-2.0071-2.5069-5.45-0.4383-7.6831 1.1096-1.1965 2.6439-1.808 4.178-1.808 1.3288 0 2.6713 0.4519 3.7398 1.3824 7.0276 6.1148 13.932 12.323 20.713 18.61 2.2329 2.0737 2.315 5.5167 0.1781 7.6968-1.1095 1.1166-2.589 1.6749-4.0548 1.6749" fill="#b1e4db"/><path d="m3488.6 1927.3c0 7.843 0 15.566-0.1096 23.289 0.1096-7.7232 0.1096-15.446 0.1096-23.289m-199.34 717.34c-1.493 0.9305-2.9863 1.8345-4.4932 2.6985 1.5069-0.864 3.0002-1.768 4.4932-2.6985" fill="#74baaf"/><path d="m3471 1237.7c-1.5341 0-3.0684 0.6115-4.178 1.808-2.0686 2.2331-1.8767 5.676 0.4383 7.6831 6.9317 6.0352 13.754 12.163 20.438 18.371 1.0823 0.9969 2.4796 1.5021 3.8769 1.5021 1.4658 0 2.9453-0.5583 4.0548-1.6749 2.1369-2.1801 2.0548-5.6231-0.1781-7.6968-6.781-6.2875-13.685-12.495-20.713-18.61-1.0685-0.9305-2.411-1.3824-3.7398-1.3824" fill="#9cddd2"/><path d="m1500.3 2755.1c-14.343-50.593-80.165-148.74-140.26-253.83-65.699-114.67-124.45-237.52-101.47-315.52 5.7123-19.581 8.2877-33.937 8.2877-44.279 0.2328-33.95-26.343-23.396-53.138-4.1342-27.356 19.687-55.055 48.413-55.055 48.413l2.0136 151.23s-88.343 78.774-15.795 251.1c4.5891 10.887 9.8632 22.199 15.795 33.95 99.905 195.83 249.7 401.37 107.86 459.58 195.88 11.631 261.81-220.65 231.76-326.52" fill="#50c4c0"/><path d="m1268.6 3081.6c-0.013 0-0.04 0-0.069 0.013 0.027-0.013 0.041-0.013 0.069-0.013" fill="#e4f6f3"/><path d="m1196.4 2437.1c-2.6712 1.9408-5.2193 4.1208-7.6301 6.5135 9.2055 24.592 19.808 48.586 30.699 72.394 30.672 66.345 65.124 130.76 97.111 196.26 15.973 32.741 31.425 65.734 44.85 99.485 12.877 33.764 25.247 68.565 26.466 104.64l-0.6713 13.399-2.2602 13.359c-1.2056 8.9861-3.6301 17.693-6.0961 26.4-2.0958 8.8132-6.1232 17.028-9.2602 25.522-4.1919 8.0425-7.9316 16.35-13.26 23.781-19.699 30.401-51.138 54.581-87.686 62.783 36.658-7.763 68.604-31.611 88.864-62.038 5.4796-7.4442 9.3564-15.766 13.685-23.848 3.2741-8.5075 7.4521-16.762 9.6714-25.629 2.6164-8.7468 5.1643-17.52 6.493-26.546l2.4524-13.466 0.8628-13.732c-0.7808-36.809-12.836-71.942-25.329-106.05-13.055-34.097-28.124-67.369-43.699-100.38-31.192-65.987-64.822-130.82-94.494-197.23-11.028-24.938-21.713-50.062-30.768-75.624" fill="#3da7a6"/><path d="m1410.4 2449.5c-59.877-153.19 0-269.4-89.919-285.93-41.151-7.617-59.316 21.986-66.823 56.362-8.9726 40.69-3.0274 88.026-3.0274 88.026s15.247 37.858 47.302 74.627c26.137 29.922 63.247 59.074 112.47 66.917" fill="#389a9a"/><path d="m1201.6 2259.6c-0.3423-35.692-8.63-65.933-25.672-81.818-1.6849-1.6483-3.3698-3.0573-4.9453-4.2536-42.494-33.405-69.617 27.742-69.617 27.742s-113.01 54.076-169.08 163.85c-42.946 84.331-52.48 201.62 48.548 352.41 14.808-107.38 75.453-180.51 135.55-249.91v-0.1196c7.5205-8.6935 14.918-17.188 22.315-25.775 41.603-48.426 63.466-122.84 62.905-182.13" fill="#bbe8e0"/><path d="m980.83 2717.5c0 0.013 0 0.04 0.0136 0.053-0.0136-0.013-0.0136-0.04-0.0136-0.053-0.0136-0.013 0 0 0 0" fill="#e4f6f3"/><path d="m1164.6 2220.3h-10.918c-0.2878 17.773-4.37 35.439-11.959 51.843-9.5617 20.976-23.808 39.932-39 58.064-30.494 36.224-65.192 70.36-89.932 111.63-25.767 40.703-38.22 88.026-42.398 134.98-3.6028 47.137-0.28766 94.739 10.411 140.73 0 0-0.0136-0.013 0 0-9.781-46.167-12.123-93.742-7.6165-140.48 5.0959-46.618 18.315-92.945 44.411-132.41 25.096-40.132 59.973-73.165 91.604-109.24 15.74-18.092 30.863-37.3 41.452-59.353 8.452-17.281 13.288-36.449 13.945-55.764" fill="#95dbcf"/><path d="m1410.4 2449.4v0.013c0.027 0.013 0.041 0.04 0.069 0.066-0.027-0.028-0.055-0.053-0.069-0.08" fill="#e9f8f5"/><path d="m1271.8 2220.3h-10.315c12.082 38.483 31.562 74.175 53.11 107.87 13.904 21.734 29.274 42.511 45.22 62.796 16.041 20.165 32.754 39.839 50.59 58.502v-0.013c-17.151-19.248-33.096-39.467-48.343-60.111-15.151-20.75-29.658-41.953-42.672-63.979-19.685-33.299-37.151-68.446-47.59-105.07" fill="#2e7d80"/><path d="m1374.1 2182-38.343-228.47c-1.9039-9.5844-10.534-16.55-20.63-16.55h-238.93c-10.082 0-18.726 6.9654-20.63 16.55l-31.165 185.5-7.1781 42.963c-2.3562 12.509 7.5069 24.06 20.63 24.06h315.62c13.124 0 22.987-11.552 20.63-24.06" fill="#bbe8e0"/><path d="m1410.4 2135.4h-429.54l11.329 62.238c2.4657 13.054 14.123 22.638 27.808 22.638h351.39c13.562 0 25.329-9.5843 27.685-22.638l11.329-62.238" fill="#87c5b8"/><path d="m1297.9 2382.6c9.0549 19.82 19.11 39.959 29.754 60.098-10.617-20.126-20.658-40.251-29.754-60.084v-0.013" fill="#e9f8f5"/><path d="m1253.6 2220.3h-56.138c2.6986 11.897 4.0822 25.217 4.2191 39.387 0.013 0.6914 0.013 1.3826 0.013 2.0872 0.013 35.28-7.7946 75.704-22.904 112.72 2.3286 12.416 5.4383 24.765 9.2055 36.968 2.5891 8.6006 5.4245 17.148 8.4247 25.642 6.548-4.7589 13.918-8.069 22.192-9.5444 3.4933-0.6248 7.0549-0.9172 10.699-0.9172 41.247 0 91.645 37.885 130.8 74.68-11.123-19.394-22.028-39.015-32.37-58.622-10.644-20.139-20.699-40.278-29.754-60.098-32.055-36.755-47.302-74.614-47.302-74.614-0.027-0.1862-5.9316-47.19 2.9179-87.694m-81.809 170.02c-9.0412 18.849-20.069 36.436-33.014 51.497-7.3974 8.5872-14.795 17.082-22.316 25.775v0.1196c0.9045 33.405 8.7536 73.444 28.494 120.43 2.5755-43.601 11.863-112.78 43.836-144.52-3.6439-9.7038-7.055-19.514-10.192-29.431-2.5342-7.8561-4.8219-15.819-6.8083-23.874" fill="#43bab4"/><path d="m1178.7 2374.5c-2.1781 5.3571-4.5208 10.634-7.0002 15.819 1.9863 8.0555 4.2741 16.018 6.8084 23.874 3.137 9.9166 6.548 19.727 10.192 29.431 2.4108-2.3927 4.9589-4.5727 7.6301-6.5135-3.0002-8.4943-5.8357-17.042-8.4247-25.642-3.7672-12.203-6.8769-24.552-9.2055-36.968" fill="#348e91"/><path d="m1250.6 2308s15.247 37.858 47.302 74.614v0.013c-32.055-36.769-47.302-74.627-47.302-74.627" fill="#2e7d80"/><path d="m1197.4 2220.3h-0.041c2.6851 11.844 4.0412 25.23 4.2603 39.387-0.1369-14.17-1.5205-27.49-4.2191-39.387m4.2328 41.474c0.027 58.941-21.809 132.19-62.918 180.04-7.3973 8.5872-14.795 17.082-22.315 25.775 7.5206-8.6935 14.918-17.188 22.315-25.775 12.946-15.061 23.973-32.648 33.014-51.497 2.4793-5.1844 4.822-10.462 7.0001-15.819 15.11-37.021 22.918-77.445 22.904-112.72" fill="#aae2d8"/><path d="m1253.6 2220.3h-56.179 56.179" fill="#68b3a7"/><path d="m1076.2 1936.9c-10.082 0-18.726 6.9654-20.63 16.55l-30.603 181.9h0.041l30.562-181.9c1.9041-9.5844 10.548-16.55 20.63-16.55" fill="#e9f8f5"/><path d="m1218.8 1936.9h-142.62c-10.082 0-18.726 6.9654-20.63 16.55l-30.562 181.9h123.18c-3.0273-25.456-6.726-73.005 2.5754-109.89 7.2878-29.258 33.754-66.904 68.056-88.558" fill="#aae2d8"/><path d="m2299.3 3818.9h-611.05c-30.178 0-54.644 23.741-54.644 53.013v440.98c0 29.271 24.466 53.013 54.644 53.013h611.05c30.178 0 54.631-23.741 54.631-53.013v-440.98c0-29.271-24.452-53.013-54.631-53.013" fill="#343573"/></g><g fill="#fff"><path d="m1801.3 4172.4v-58.875c0-4.7058 3.9452-8.5342 8.8082-8.5342h33.576c4.8629 0 8.7946 3.8284 8.7946 8.5342v58.875c0 4.7189 3.9452 8.5342 8.8084 8.5342h3.2465c4.8494 0 8.7946-3.8153 8.7946-8.5342v-160.05c0-4.7058-3.9452-8.5342-8.7946-8.5342h-3.2465c-4.8632 0-8.8084 3.8284-8.8084 8.5342v65.707c0 4.7191-3.9317 8.5341-8.7946 8.5341h-33.576c-4.863 0-8.8082-3.815-8.8082-8.5341v-65.707c0-4.7058-3.9315-8.5342-8.7946-8.5342h-3.2602c-4.863 0-8.7947 3.8284-8.7947 8.5342v160.05c0 4.7189 3.9317 8.5342 8.7947 8.5342h3.2602c4.8631 0 8.7946-3.8153 8.7946-8.5342"/><path d="m1918.4 4162.8h-15.712c-4.8494 0-8.7945 3.8284-8.7945 8.5341v1.0635c0 4.7189 3.9451 8.5342 8.7945 8.5342h69.877c4.863 0 8.7946-3.8153 8.7946-8.5342v-1.0635c0-4.7057-3.9316-8.5341-8.7946-8.5341h-15.712c-4.8632 0-8.7946-3.8151-8.7946-8.5341v-141.92c0-4.7058-3.9453-8.5342-8.8083-8.5342h-3.2465c-4.8633 0-8.8084 3.8284-8.8084 8.5342v141.92c0 4.719-3.9316 8.5341-8.7946 8.5341"/><path d="m2111 4080.1c-1.37 23.396-2.7261 49.397-1.9042 69.376h-1.0821c-4.0685-19.714-8.9454-40.73-14.63-61.493l-22.466-83.042h-13.288l-21.384 79.625c-5.9589 22.598-11.37 44.412-14.891 64.91h-0.8082c0-20.764-1.0959-45.462-2.1644-70.692l-3.137-66.744c-0.2193-4.5595-4.0959-8.1486-8.7945-8.1486h-0.9454c-5.0685 0-9.0823 4.1342-8.781 9.0393l9.7811 160.05c0.274 4.5064 4.1232 8.0291 8.7809 8.0291h7.3563c4.0274 0 7.5342-2.6322 8.5205-6.4073l19.713-74.521c6.2191-23.396 10.836-40.73 14.616-60.975h0.8082c3.5343 20.245 7.5891 37.061 13.548 60.975l18.932 74.441c0.9724 3.815 4.5068 6.4871 8.548 6.4871h8.0822c4.6713 0 8.5206-3.5227 8.7809-8.0423l9.5481-160.05c0.2876-4.8918-3.7262-9.026-8.7809-9.026h-1.7946c-4.6987 0-8.5618 3.5758-8.7946 8.1221l-3.3698 68.087"/><path d="m2171.5 4181h3.2466c4.8632 0 8.8084-3.8153 8.8084-8.5342v-142.97c0-4.7189 3.9454-8.534 8.7947-8.534h33.85c4.863 0 8.7946-3.8284 8.7946-8.5473 0-4.7058-3.9316-8.5342-8.7946-8.5342h-54.699c-4.863 0-8.8083 3.8284-8.8083 8.5342v160.05c0 4.7189 3.9453 8.5342 8.8083 8.5342"/></g><path d="m2577.8 4319.1c22.863 0 28.261 14.928 28.261 28.234 0 11.685-1.2466 22.997-2.4795 34.283-1.2466 12.11-2.5068 22.997-2.5068 35.506 0 36.303 22.877 51.63 52.384 51.63h4.9863v-20.976h-6.2467c-17.452 0-24.521-12.096-24.521-30.255 0-10.887 1.2603-20.976 2.507-30.654 0.8219-10.488 2.0686-20.166 2.0686-29.856 0.4245-31.464-10.808-42.351-28.672-47.203v-0.7977c17.863-5.2507 29.096-16.138 28.672-48.014 0-10.076-1.2467-20.166-2.0686-30.242-1.2467-10.089-2.507-20.179-2.507-31.066 0-18.158 6.233-30.654 24.959-30.654h5.8083v-20.99h-5.3973c-27.439 0-51.973 13.32-51.973 51.643 0 12.097 1.2602 24.206 2.5068 35.904 1.2329 11.698 2.4795 23.396 2.4795 34.695 0 12.894-5.3973 28.633-28.261 28.633v20.179" fill="#343573"/><path d="m3001.6 4298.9c-22.863 0-28.261-15.739-28.261-28.633 0-11.299 1.2465-22.997 2.4795-34.695 1.2465-11.698 2.5068-23.808 2.5068-35.904 0-38.324-24.534-51.643-51.973-51.643h-5.411v20.99h5.822c18.726 2.0072 24.959 12.495 24.959 30.654 0 10.887-1.2603 20.976-2.0957 31.066-1.2467 10.076-2.4795 20.166-2.4795 30.242-0.4248 31.877 10.795 42.764 28.671 48.014v0.7977c-17.877 4.8519-29.096 15.739-28.671 47.203 0 9.6907 1.2328 19.368 2.4795 29.856 0.8354 9.6772 2.0957 19.767 2.0957 30.654 0 18.158-7.0822 28.234-24.534 30.255h-6.2466v20.976h5c29.507 0 52.384-15.327 52.384-51.63 0-12.509-1.2603-23.396-2.5068-35.506-1.233-11.286-2.4795-22.598-2.4795-34.283 0-13.306 5.3974-28.234 28.261-28.234v-20.179" fill="#343573"/><g fill="#f14e25"><path d="m2859 4269.6v77.604l-69.261 38.802-69.247-38.802v-77.604l69.247-38.802 69.261 38.802"/><path d="m3380 3882.9c-65.083 31.451-143.39 19.036-194.82-30.893-63.508-61.626-65.617-160.41-6.7125-224.73l-25.384 2.9247c-3.0685 0.3587-5.863-1.7814-6.2192-4.7591-0.3698-2.9775 1.8356-5.6894 4.8904-6.0483l38.672-4.453c1.5479-0.1861 2.9999 0.2658 4.1368 1.1165 1.1234 0.864 1.918 2.1402 2.0961 3.6423l4.452 36.303c0.37 2.9776-1.8219 5.6762-4.904 6.0351-3.0686 0.3589-5.8632-1.768-6.2329-4.7589l-2.8358-23.117c-55.302 60.058-53.439 152.5 5.9727 210.15 48.042 46.619 121.14 58.21 181.91 28.859 2.7672-1.3559 6.1371-0.2393 7.5206 2.4459 1.3699 2.6851 0.2466 5.9419-2.5342 7.2846"/><path d="m3234.5 3581.9c65.083-31.464 143.39-19.049 194.84 30.88 63.508 61.64 65.617 160.41 6.6985 224.74l25.398-2.9377c3.0686-0.359 5.8494 1.7812 6.2194 4.7589 0.3697 2.991-1.8221 5.6894-4.9043 6.0483l-38.672 4.4532c-1.5342 0.1862-2.9999-0.2659-4.137-1.1166-1.1232-0.8641-1.9041-2.1402-2.0821-3.6423l-4.452-36.303c-0.37-2.9776 1.8354-5.6761 4.8903-6.0349 3.0824-0.359 5.8768 1.7811 6.2329 4.7589l2.8355 23.116c55.316-60.058 53.453-152.5-5.9588-210.15-48.028-46.605-121.14-58.21-181.92-28.846-2.7672 1.3426-6.1234 0.2392-7.5069-2.4459-1.3837-2.6986-0.2465-5.9554 2.5206-7.2846"/><path d="m4733.9 3276.4h-1014.7c-18.493 0-33.48 14.556-33.48 32.502s14.987 32.501 33.48 32.501h1014.7c18.507 0 33.507-14.556 33.507-32.501s-15-32.502-33.507-32.502"/></g><g fill="#50c4c0"><path d="m4371.6 3135.2h-652.38c-18.493 0-33.48 14.542-33.48 32.488 0 17.959 14.987 32.501 33.48 32.501h652.38c18.507 0 33.48-14.543 33.48-32.501 0-17.946-14.973-32.488-33.48-32.488"/><path d="m4371.6 2983.5h-652.38c-18.493 0-33.48 14.556-33.48 32.501s14.987 32.488 33.48 32.488h652.38c18.507 0 33.48-14.543 33.48-32.488s-14.973-32.501-33.48-32.501"/><path d="m1136 3816.4h-527.09c-18.493 0-33.493 14.542-33.493 32.488 0 17.959 15 32.501 33.493 32.501h527.09c18.493 0 33.48-14.543 33.48-32.501 0-17.946-14.986-32.488-33.48-32.488"/></g><g><path d="m937.03 3675.2h-328.09c-18.493 0-33.493 14.543-33.493 32.488 0 17.959 15 32.501 33.493 32.501h328.09c18.493 0 33.494-14.542 33.494-32.501 0-17.946-15-32.488-33.494-32.488" fill="#f14e25"/><path d="m937.03 3523.5h-328.09c-18.493 0-33.493 14.556-33.493 32.501s15 32.501 33.493 32.501h328.09c18.493 0 33.494-14.556 33.494-32.501s-15-32.501-33.494-32.501" fill="#f14e25"/><path d="m4276.8 1460.6c-32.85-92.48-72.097-173.21-113.14-246.09-141.82-251.44-306.54-411.39-312.7-645.84 0 0-51.124 220.86-10.082 472.51 22.987 141.33 75.001 292.35 181.41 419.42 296.1 353.38 252.26 674.78 252.26 674.78s148.45-263.61 2.2466-674.78" fill="#389a9a"/><path d="m4275.7 2133.2c-0.5753 1.0899-0.9452 1.7546-1.0958 2.0204 0.3835-0.6647 0.7398-1.3426 1.0958-2.0204" fill="#e9f8f5"/><path d="m3971.4 1098.8c10.356 25.775 22.096 51.018 34.932 75.677 12.767 25.735 28.014 50.155 42.918 74.72l47.672 71.437c30.384 48.028 56.014 98.966 77.59 151.49 21.754 52.454 40.069 106.29 55.439 160.9 15.534 54.594 28.233 109.96 38.22 165.78 10.055 55.791 17.384 112.11 21.014 168.66 1.7395 28.274 2.548 56.642 1.2876 84.956-0.7259 14.144-1.63 28.314-4.0136 42.298-2.4111 13.905-5.0687 28.075-11.877 40.717 0.027-0.04 0.055-0.081 0.069-0.133 0.1506-0.2658 0.5205-0.9305 1.0958-2.0204 6.1919-11.99 8.9454-25.35 11.425-38.457 2.6164-13.971 3.7671-28.168 4.7534-42.325 1.7397-28.367 1.3974-56.814 0.137-85.168-2.5344-56.774-9.4522-113.3-18.863-169.37-9.3836-56.07-21.493-111.74-36.466-166.71-14.822-54.993-32.603-109.28-53.918-162.32-21.123-53.119-46.398-104.78-76.644-153.8l-47.247-71.689c-14.672-24.34-29.699-48.559-42.233-74.016-10.617-20.511-20.452-41.434-29.343-62.703-5.3288-2.6851-10.658-5.3305-15.945-7.9225" fill="#2e7d80"/><path d="m3828.6 734.99c-2.2055 31.039-3.6575 65.415-3.6438 102.18 0 62.517 4.2055 132 15.945 204.01 38.535 15.274 83.631 34.588 130.49 57.572-11.028-27.45-20.507-55.512-28.083-84.105-7.5616-27.663-12.85-55.937-15.767-84.49-1.5616-16.098-2.6164-32.169-2.4795-48.36-37.165-47.429-70.083-96.374-96.467-146.81m108.29 161.66c0.4385 10.821 1.3152 21.641 2.4659 32.329 3.1917 27.876 8.315 55.591 15.63 82.802 8.4658 32.302 19.411 63.979 32.356 94.899 60.083 30.308 122.15 66.492 176.34 107.83-43.699-77.472-89.563-146.25-132.3-211.2-33.206-34.642-65.028-70.174-94.494-106.66" fill="#2e7d80"/><path d="m3925 881.8c-0.1369 16.191 0.9179 32.262 2.4795 48.36 2.9178 28.554 8.2057 56.828 15.767 84.49 7.5754 28.593 17.055 56.655 28.083 84.105 5.2877 2.592 10.616 5.2374 15.945 7.9225-12.945-30.92-23.891-62.597-32.356-94.899-7.3153-27.211-12.439-54.927-15.63-82.802-1.1507-10.688-2.0274-21.508-2.4659-32.329-3.9725-4.9184-7.9315-9.9033-11.822-14.848" fill="#235a5d"/><path d="m3933.2 320.46s-103.56 171.84 141.55 383.88c245.11 212.05 436.95 492.49 399.63 719.39-234.44-264.33-857.89-639.13-682.05-1103.2l140.86-0.0266" fill="#50c4c0"/><path d="m3868.3 314.52c-2.1507 0-4.2055 1.2096-5.1233 3.2408l-0.027 0.0572c-0.3973 0.87734-0.7808 1.7653-1.1645 2.6586h11.891c0.2328-2.2744-1.0411-4.5236-3.3151-5.494-0.7397-0.31638-1.5067-0.46259-2.2602-0.46259" fill="#fff"/><path d="m3861.9 320.48h8.7398-8.7398" fill="#e9f8f5"/><path d="m3873.8 320.48h-11.891c-21.877 50.949-28.343 106.62-26.247 160.9 2.0549 55.484 13.699 110.1 30.315 162.85 34 105.47 89.645 203.76 160.34 289.89 35.384 43.056 74.987 82.962 118.58 118.24 43.74 34.947 87.494 69.669 127.37 108.7 40.192 38.603 77.987 79.585 112.44 123.15 34.083 43.734 65.795 89.648 89.618 139.52-23.398-50.075-54.754-96.294-88.508-140.35-34.11-43.88-71.631-85.248-111.59-124.24-39.562-39.414-83.302-74.68-126.62-109.92-43.069-35.412-82.097-75.411-116.91-118.49-69.535-86.152-123.93-184.25-156.69-288.88-16-52.321-27-106.34-28.548-160.79-1.6438-54.206 5.5071-109.39 27.877-158.9 0.2466-0.54634 0.3972-1.1166 0.452-1.6723" fill="#43bab4"/><path d="m415.34 1565.3s-127.88 113.1-195.83 395.89c391.65-322.21 487.57-609.17 487.57-609.17l-291.74 213.27" fill="#389a9a"/><path d="m493.12 1550.5c-5.7671 3.6954-11.534 7.4042-17.315 11.126-9.0823 16.297-18.507 32.435-28.014 48.493-23.754 39.892-48.291 79.386-73.393 118.56-50.231 78.323-101.95 155.78-154.89 232.47 54.485-75.664 107.77-152.14 159.62-229.56 25.904-38.709 51.273-77.778 75.917-117.34 13.014-21.043 25.877-42.192 38.069-63.753" fill="#2e7d80"/><path d="m699.11 1406.3c-70.412 61.587-174.69 122.61-273.92 188.34-131.97 87.375-254.96 183.32-277.72 300.52-51.798-422.92 455.1-613.31 455.1-613.31l1-1.409 184.11-260.58s75.234 242.96-88.576 386.45" fill="#50c4c0"/><path d="m787.66 1014.4c-3.0686 0-5.5617 2.4192-5.5891 5.3968v0.08c0.0276 2.4194 0.0276 4.8387 0.0276 7.2447 1.8631-2.4193 3.7261-4.8386 5.5892-7.2447 1.137-1.4623 2.2466-2.9111 3.3836-4.3733-0.93152-0.6913-2.096-1.1033-3.3563-1.1033h-0.055" fill="#fff"/><path d="m791.07 1015.5c-1.137 1.4622-2.2466 2.911-3.3836 4.3733 0 0 2.3014 7.4176 5.2055 20.418 0.27393-6.806 0.39723-13.625 0.39723-20.432 0.0133-1.7678-0.86298-3.363-2.2192-4.3599m-3.3836 4.3733c-1.863 2.4061-3.726 4.8254-5.5892 7.2447 0 0.2259-0.0133 0.4519-0.0133 0.678l5.6028-7.9227" fill="#e9f8f5"/><path d="m787.69 1019.9-5.6028 7.9227c-0.49318 90.379-24.178 181.38-75.343 257.54-51.877 78.974-127.1 140.73-206.26 194.01-39.699 26.799-80.645 51.923-121.01 77.99-40.363 25.948-80.079 53.558-114.41 87.029-34.343 33.326-63.036 72.141-84.001 114.63-20.099 42.697-33.744 89.037-33.595 136.19 0.32192-47.137 14.422-93.264 34.858-135.6 21.313-42.139 50.246-80.476 84.717-113.28 34.435-32.94 74.172-60.018 114.75-85.554 40.546-25.642 81.765-50.394 121.86-76.913 79.932-52.707 156.55-114.23 210.15-194.08 50.466-73.51 75.713-161.54 79.083-249.46-2.9042-13-5.2055-20.418-5.2055-20.418" fill="#43bab4"/><path d="m4307.8 131.76h-3405.7c-53.713 0-97.248 42.232-97.248 94.355 0 52.122 43.535 94.38 97.248 94.38h3405.7c53.713 0 97.248-42.258 97.248-94.38 0-52.123-43.535-94.355-97.248-94.355" fill="#eef9f8"/></g></g></g></svg>
