<?xml version="1.0" encoding="UTF-8" standalone="no"?>
<svg
   xmlns:dc="http://purl.org/dc/elements/1.1/"
   xmlns:cc="http://creativecommons.org/ns#"
   xmlns:rdf="http://www.w3.org/1999/02/22-rdf-syntax-ns#"
   xmlns:svg="http://www.w3.org/2000/svg"
   xmlns="http://www.w3.org/2000/svg"
   viewBox="0 0 666.66669 666.66669"
   height="666.66669"
   width="666.66669"
   xml:space="preserve"
   id="svg2"
   version="1.1"><metadata
     id="metadata8"><rdf:RDF><cc:Work
         rdf:about=""><dc:format>image/svg+xml</dc:format><dc:type
           rdf:resource="http://purl.org/dc/dcmitype/StillImage" /><dc:title></dc:title></cc:Work></rdf:RDF></metadata><defs
     id="defs6" /><g
     transform="matrix(1.3333333,0,0,-1.3333333,0,666.66667)"
     id="g10"><g
       transform="scale(0.1)"
       id="g12"><path
         id="path14"
         style="fill:#fcd0cf;fill-opacity:0;fill-rule:nonzero;stroke:none"
         d="M 5000,0 H 0 V 5000 H 5000 V 0" /><path
         id="path16"
         style="fill:none;stroke:#161316;stroke-width:34.4007988;stroke-linecap:butt;stroke-linejoin:miter;stroke-miterlimit:10;stroke-dasharray:none;stroke-opacity:1"
         d="M 3385.65,2179.61 V 623.961" /><path
         id="path18"
         style="fill:#161316;fill-opacity:1;fill-rule:nonzero;stroke:none"
         d="m 3599.05,2282.78 h -779.33 v -46.34 h 779.33 v 46.34" /><path
         id="path20"
         style="fill:none;stroke:#161316;stroke-width:28.27770042;stroke-linecap:round;stroke-linejoin:round;stroke-miterlimit:10;stroke-dasharray:none;stroke-opacity:1"
         d="M 3925.96,2848.31 3591.01,2245.13" /><path
         id="path22"
         style="fill:#ffffff;fill-opacity:1;fill-rule:nonzero;stroke:none"
         d="M 4331.9,2145.7 H 2439.41 v 90.74 H 4331.9 v -90.74" /><path
         id="path24"
         style="fill:#e9b2b4;fill-opacity:1;fill-rule:nonzero;stroke:none"
         d="m 3588.47,2077.9 h -427.93 v 67.8 h 427.93 v -67.8" /><path
         id="path26"
         style="fill:#f36a7b;fill-opacity:1;fill-rule:nonzero;stroke:none"
         d="m 1984.05,3341.22 102.28,-68.2 c 52.26,-34.84 123.36,-9.62 142.08,50.34 111.56,357.3 -40.42,330.93 -40.42,330.93 l -147.31,0.15 c -12.67,0.01 -23.46,-9.19 -25.44,-21.7 l -42.33,-266.06 c -1.58,-9.94 2.77,-19.88 11.14,-25.46" /><path
         id="path28"
         style="fill:#f36a7b;fill-opacity:1;fill-rule:nonzero;stroke:none"
         d="m 2107.28,3339.79 c -7.4,-6.65 -95.68,-216.54 -95.68,-216.54 l -225.37,71.33 220.75,386.34 100.3,-241.13" /><path
         id="path30"
         style="fill:#f36a7b;fill-opacity:1;fill-rule:nonzero;stroke:none"
         d="m 2257.48,3472.49 c 0.06,-4.9 20.95,-58.84 27.95,-81.45 2.26,-7.29 -4.37,-14.22 -11.76,-12.32 l -56.14,11.6 39.95,82.17" /><path
         id="path32"
         style="fill:#131112;fill-opacity:1;fill-rule:nonzero;stroke:none"
         d="m 2077.95,3278.61 -57.88,48.85 27.27,-118.13 z" /><path
         id="path34"
         style="fill:#131112;fill-opacity:1;fill-rule:nonzero;stroke:none"
         d="m 2230.06,3486.44 c 6.88,-4.88 8.49,-14.41 3.6,-21.29 -4.88,-6.87 -14.42,-8.48 -21.29,-3.59 -6.87,4.88 -8.48,14.42 -3.59,21.29 4.88,6.87 14.41,8.48 21.28,3.59" /><path
         id="path36"
         style="fill:none;stroke:#131112;stroke-width:8.6001997;stroke-linecap:round;stroke-linejoin:round;stroke-miterlimit:10;stroke-dasharray:none;stroke-opacity:1"
         d="m 2221.22,3365.9 -23.54,2.8" /><path
         id="path38"
         style="fill:#131112;fill-opacity:1;fill-rule:nonzero;stroke:none"
         d="m 2217.31,3542.41 c 0,0 -32.19,1.47 -31.51,-10.68 0.68,-12.16 39.58,-11.65 39.58,-11.65 0,0 26.28,0.41 26.89,13.92 0.31,6.98 -34.96,8.41 -34.96,8.41" /><path
         id="path40"
         style="fill:#131112;fill-opacity:1;fill-rule:nonzero;stroke:none"
         d="m 2318.82,3707.97 c -23.41,96.36 -161.59,87.87 -222.69,32.69 l 0.02,-0.02 c -125.39,-16.45 -216.38,-44.32 -202.93,-153.24 14.49,-117.32 3.29,-199.81 3.29,-199.81 l 102.93,46.1 42.11,59.07 c -1.59,-8.12 88.93,26.95 68.77,101.44 0,0 139.2,-0.59 150.81,4.16 0.03,0.01 0.05,0.03 0.08,0.04 3.02,0.52 80.57,15.07 57.61,109.57" /><path
         id="path42"
         style="fill:#f36a7b;fill-opacity:1;fill-rule:nonzero;stroke:none"
         d="m 2054.38,3506.73 c 5.1,-30.21 -15.26,-58.85 -45.47,-63.95 -30.22,-5.11 -58.86,15.25 -63.96,45.47 -5.11,30.21 15.26,58.85 45.48,63.95 30.21,5.11 58.84,-15.25 63.95,-45.47" /><path
         id="path44"
         style="fill:none;stroke:#131112;stroke-width:8.6001997;stroke-linecap:round;stroke-linejoin:round;stroke-miterlimit:10;stroke-dasharray:none;stroke-opacity:1"
         d="m 2021.61,3486.69 c 0,0 -0.04,40.04 -35.93,34.01" /><path
         id="path46"
         style="fill:#47c1b8;fill-opacity:1;fill-rule:nonzero;stroke:none"
         d="m 1801.9,3218.88 c 0,0 -237.91,-61.35 -255.5,-395.29 -17.59,-333.93 2.02,-681.12 2.02,-681.12 l 484.38,-41.61 c 0,0 81.38,395.3 93.5,622.01 11.19,209.61 -98.69,434.37 -98.69,434.37 l -225.71,61.64" /><path
         id="path48"
         style="fill:#e65e76;fill-opacity:1;fill-rule:nonzero;stroke:none"
         d="m 1960.79,2573.66 599.57,183.83 39.59,-155.81 -415.73,-217.5 -223.43,189.48" /><path
         id="path50"
         style="fill:#e65e76;fill-opacity:1;fill-rule:nonzero;stroke:none"
         d="m 2560.36,2757.49 c 0,0 126.31,116.57 193.18,36.97 43.2,-51.44 23.93,-137.46 -16.61,-192.73 -29.17,-39.78 -85.33,-48.17 -126.38,-20.81 l -67.16,44.78 16.97,131.79" /><path
         id="path52"
         style="fill:#e65e76;fill-opacity:1;fill-rule:nonzero;stroke:none"
         d="m 2686.72,2821.99 c 0,0 100.36,16.04 174.92,-137 5.49,-11.27 0.44,-24.94 -11.14,-29.76 v 0 c -9.53,-3.97 -20.36,-0.58 -26.31,7.84 -15,21.23 -51.11,59.04 -124.78,74.42 l -12.69,84.5" /><path
         id="path54"
         style="fill:#47c1b8;fill-opacity:1;fill-rule:nonzero;stroke:none"
         d="m 1938.95,3025.29 c -43.52,71.27 -136.03,94.7 -208.23,52.73 -74.44,-43.27 -98.75,-139.28 -53.88,-212.77 l 114.79,-188.02 253.45,174.21 -106.13,173.85" /><path
         id="path56"
         style="fill:none;stroke:#161316;stroke-width:11.46689987;stroke-linecap:round;stroke-linejoin:round;stroke-miterlimit:10;stroke-dasharray:none;stroke-opacity:1"
         d="m 2045.08,2851.44 -106.13,173.85" /><path
         id="path58"
         style="fill:#f36a7b;fill-opacity:1;fill-rule:nonzero;stroke:none"
         d="m 2045.08,2851.44 182.03,-285.94 482.6,-191.85 -23.92,-137.21 -585.37,99.4 c -38.92,6.61 -73.81,27.9 -97.49,59.48 l -211.3,281.91 253.45,174.21" /><path
         id="path60"
         style="fill:#f36a7b;fill-opacity:1;fill-rule:nonzero;stroke:none"
         d="m 2699.71,2374.32 c 0,0 235.31,52.77 296.37,-137.88 h -310.29 l 13.92,137.88" /><path
         id="path62"
         style="fill:#f36a7b;fill-opacity:1;fill-rule:nonzero;stroke:none"
         d="m 2358.12,1275.18 -166.96,-163.52 -128.98,124.68 173.56,171.37 122.38,-132.53" /><path
         id="path64"
         style="fill:#ffffff;fill-opacity:1;fill-rule:nonzero;stroke:none"
         d="m 2237.62,1083.69 -90.27,-93.37 130.64,-201.211 c 21.45,-45.519 14.5,-99.359 -17.81,-137.929 l -18.53,-22.871 -482.52,468.181 268.42,193.42 210.07,-206.22" /><path
         id="path66"
         style="fill:none;stroke:#161316;stroke-width:11.46689987;stroke-linecap:round;stroke-linejoin:round;stroke-miterlimit:10;stroke-dasharray:none;stroke-opacity:1"
         d="M 2278.64,680.57 1810.3,1133.36" /><path
         id="path68"
         style="fill:none;stroke:#161316;stroke-width:11.46689987;stroke-linecap:round;stroke-linejoin:round;stroke-miterlimit:10;stroke-dasharray:none;stroke-opacity:1"
         d="m 1968.81,1157.58 c -25.94,-26.83 -25.22,-69.61 1.62,-95.55 26.83,-25.94 69.62,-25.23 95.55,1.61 25.95,26.84 25.22,69.62 -1.61,95.56 -26.83,25.94 -69.61,25.22 -95.56,-1.62 z" /><path
         id="path70"
         style="fill:none;stroke:#161316;stroke-width:11.46689987;stroke-linecap:round;stroke-linejoin:round;stroke-miterlimit:10;stroke-dasharray:none;stroke-opacity:1"
         d="m 2212.45,890.07 -58.35,-1.84" /><path
         id="path72"
         style="fill:none;stroke:#161316;stroke-width:11.46689987;stroke-linecap:round;stroke-linejoin:round;stroke-miterlimit:10;stroke-dasharray:none;stroke-opacity:1"
         d="m 2178.39,942.41 -58.34,-1.84" /><path
         id="path74"
         style="fill:#cf456d;fill-opacity:1;fill-rule:nonzero;stroke:none"
         d="m 2728.29,1903.15 -647.74,-544.35 258,-222.21 700.23,503.68 -310.49,262.88" /><path
         id="path76"
         style="fill:#dd5878;fill-opacity:1;fill-rule:nonzero;stroke:none"
         d="m 1548.42,2142.47 c 0,0 913.12,5.78 1349.45,2.02 121.73,-1.05 219.77,-100.02 219.77,-221.76 v 0 c 0,-122.48 -99.28,-221.77 -221.76,-221.77 H 1888.44 c -80.68,0 -191.58,7.17 -251.9,60.77 -75.66,67.21 -117.12,202.4 -88.12,380.74" /><path
         id="path78"
         style="fill:#f36a7b;fill-opacity:1;fill-rule:nonzero;stroke:none"
         d="m 2809.89,1127.45 -46.23,-192.391 h -179.39 l 45.52,202.601 180.1,-10.21" /><path
         id="path80"
         style="fill:#ffffff;fill-opacity:1;fill-rule:nonzero;stroke:none"
         d="M 2816.51,947.238 V 817.371 l 233.77,-53.859 c 47.06,-17.813 79.48,-61.352 83.07,-111.543 l 2.57,-29.328 -672.32,1.218 58.54,325.629 294.37,-2.25" /><path
         id="path82"
         style="fill:none;stroke:#161316;stroke-width:11.46689987;stroke-linecap:round;stroke-linejoin:round;stroke-miterlimit:10;stroke-dasharray:none;stroke-opacity:1"
         d="M 3126.19,685.93 H 2474.76" /><path
         id="path84"
         style="fill:none;stroke:#161316;stroke-width:11.46689987;stroke-linecap:round;stroke-linejoin:round;stroke-miterlimit:10;stroke-dasharray:none;stroke-opacity:1"
         d="m 2571.88,813.531 c 0,-37.32 30.26,-67.582 67.58,-67.582 37.32,0 67.58,30.262 67.58,67.582 0,37.328 -30.26,67.578 -67.58,67.578 -37.32,0 -67.58,-30.25 -67.58,-67.578 z" /><path
         id="path86"
         style="fill:none;stroke:#161316;stroke-width:11.46689987;stroke-linecap:round;stroke-linejoin:round;stroke-miterlimit:10;stroke-dasharray:none;stroke-opacity:1"
         d="m 2932.98,790.531 -40.67,-41.859" /><path
         id="path88"
         style="fill:none;stroke:#161316;stroke-width:11.46689987;stroke-linecap:round;stroke-linejoin:round;stroke-miterlimit:10;stroke-dasharray:none;stroke-opacity:1"
         d="m 2872.13,804.5 -40.68,-41.871" /><path
         id="path90"
         style="fill:#dd5878;fill-opacity:1;fill-rule:nonzero;stroke:none"
         d="m 2704.76,1895.31 -209.27,-848.57 h 370.05 l 245.07,820.39 -405.85,28.18" /><path
         id="path92"
         style="fill:none;stroke:#161316;stroke-width:11.46689987;stroke-linecap:round;stroke-linejoin:round;stroke-miterlimit:10;stroke-dasharray:none;stroke-opacity:1"
         d="m 2639.47,1700.96 70.24,43.93" /><path
         id="path94"
         style="fill:none;stroke:#161316;stroke-width:11.46689987;stroke-linecap:round;stroke-linejoin:round;stroke-miterlimit:10;stroke-dasharray:none;stroke-opacity:1"
         d="m 2540.62,1195.12 h 369.25" /><path
         id="path96"
         style="fill:#ffffff;fill-opacity:1;fill-rule:nonzero;stroke:none"
         d="m 1439.03,2599.25 149.39,-731.52 c 22.01,-86.82 134.64,-148.35 224.19,-150.47 l 640.5,-13.24 c 24.55,-0.59 44.14,-20.65 44.14,-45.2 v 0 c 0,-24.98 -20.24,-45.22 -45.21,-45.22 h -674.1 c -79.7,0 -167.61,31.66 -223.96,88.02 v 0 c -44.08,44.07 -73.35,100.76 -83.78,162.21 l -109.97,718.78 c -2.97,17.49 5.84,34.86 21.71,42.79 v 0 c 23.01,11.51 50.77,-1.2 57.09,-26.15" /><path
         id="path98"
         style="fill:none;stroke:#161316;stroke-width:34.4007988;stroke-linecap:butt;stroke-linejoin:miter;stroke-miterlimit:10;stroke-dasharray:none;stroke-opacity:1"
         d="M 2639.47,623.961 2237.22,1912.21 c -34.29,108.02 -134.58,181.41 -247.91,181.41 v 0 c -115.24,0 -216.75,-75.83 -249.42,-186.35 L 1366.65,623.961" /><path
         id="path100"
         style="fill:none;stroke:#ffffff;stroke-width:20.49780083;stroke-linecap:butt;stroke-linejoin:miter;stroke-miterlimit:10;stroke-dasharray:none;stroke-opacity:1"
         d="M 640.801,622.641 H 4324.23" /><path
         id="path102"
         style="fill:#ffffff;fill-opacity:1;fill-rule:nonzero;stroke:none"
         d="M 1188.74,3489.75 H 457.324 c -12.98,0 -23.508,10.53 -23.508,23.51 v 0 c 0,12.99 10.528,23.51 23.508,23.51 h 731.416 c 12.98,0 23.51,-10.52 23.51,-23.51 v 0 c 0,-12.98 -10.53,-23.51 -23.51,-23.51" /><path
         id="path104"
         style="fill:#ffffff;fill-opacity:1;fill-rule:nonzero;stroke:none"
         d="m 4299.22,3851.21 h -216.13 c -12.99,0 -23.51,10.53 -23.51,23.51 v 0 c 0,12.99 10.52,23.51 23.51,23.51 h 216.13 c 12.99,0 23.52,-10.52 23.52,-23.51 v 0 c 0,-12.98 -10.53,-23.51 -23.52,-23.51" /><path
         id="path106"
         style="fill:#47c1b8;fill-opacity:1;fill-rule:nonzero;stroke:none"
         d="m 2284.54,4075.34 h -37.28 c -9.8,0 -17.74,7.94 -17.74,17.73 v 35 c 0,9.8 7.94,17.74 17.74,17.74 h 37.28 c 9.8,0 17.74,-7.94 17.74,-17.74 v -35 c 0,-9.79 -7.94,-17.73 -17.74,-17.73" /><path
         id="path108"
         style="fill:#ffffff;fill-opacity:1;fill-rule:nonzero;stroke:none"
         d="m 3057.26,2975.29 h -37.27 c -9.81,0 -17.75,7.93 -17.75,17.73 v 35 c 0,9.79 7.94,17.73 17.75,17.73 h 37.27 c 9.8,0 17.74,-7.94 17.74,-17.73 v -35 c 0,-9.8 -7.94,-17.73 -17.74,-17.73" /><path
         id="path110"
         style="fill:#dd5878;fill-opacity:1;fill-rule:nonzero;stroke:none"
         d="M 1516.2,3861.63 H 968.16 c -29.672,0 -53.73,24.06 -53.73,53.73 v 513.95 c 0,18.28 14.82,33.1 33.101,33.1 H 1516.2 c 18.28,0 33.1,-14.82 33.1,-33.1 v -534.58 c 0,-18.28 -14.82,-33.1 -33.1,-33.1" /><path
         id="path112"
         style="fill:#edebeb;fill-opacity:1;fill-rule:nonzero;stroke:none"
         d="m 1180.19,4206.7 c 0,-47.56 38.7,-86.25 86.26,-86.25 47.56,0 86.25,38.69 86.25,86.25 0,47.56 -38.69,86.26 -86.25,86.26 -47.56,0 -86.26,-38.7 -86.26,-86.26 z m -35.78,0 c 0,67.29 54.75,122.04 122.04,122.04 67.29,0 122.04,-54.75 122.04,-122.04 0,-67.29 -54.75,-122.04 -122.04,-122.04 -67.29,0 -122.04,54.75 -122.04,122.04" /><path
         id="path114"
         style="fill:#edebeb;fill-opacity:1;fill-rule:nonzero;stroke:none"
         d="m 1163.81,4084.25 36.04,36.02 -19.56,19.56 -36.03,-36.03 19.55,-19.55" /><path
         id="path116"
         style="fill:#edebeb;fill-opacity:1;fill-rule:nonzero;stroke:none"
         d="m 1125.73,4108.96 -71.3,-71.3 c -7.56,-7.56 -7.56,-19.82 0,-27.39 l 15.86,-15.85 c 7.56,-7.57 19.82,-7.57 27.38,0 l 71.31,71.29 c 7.55,7.57 7.55,19.83 0,27.39 l -15.87,15.86 c -7.56,7.56 -19.82,7.56 -27.38,0" /><path
         id="path118"
         style="fill:#ffffff;fill-opacity:1;fill-rule:nonzero;stroke:none"
         d="M 4359.27,3086.66 H 3564.3 c -17.76,0 -32.16,14.4 -32.16,32.16 v 211.42 c 0,17.76 14.4,32.16 32.16,32.16 h 794.97 c 17.77,0 32.17,-14.4 32.17,-32.16 v -211.42 c 0,-17.76 -14.4,-32.16 -32.17,-32.16" /><path
         id="path120"
         style="fill:#ffffff;fill-opacity:1;fill-rule:nonzero;stroke:none"
         d="M 3655.56,3133.4 V 2996 L 3815,3133.4 Z" /><path
         id="path122"
         style="fill:none;stroke:#161316;stroke-width:12.12119961;stroke-linecap:round;stroke-linejoin:round;stroke-miterlimit:10;stroke-dasharray:none;stroke-opacity:1"
         d="m 3655.56,3260.45 h 605.79" /><path
         id="path124"
         style="fill:none;stroke:#161316;stroke-width:12.12119961;stroke-linecap:round;stroke-linejoin:round;stroke-miterlimit:10;stroke-dasharray:none;stroke-opacity:1"
         d="m 3655.56,3188.62 h 188.63" /><path
         id="path126"
         style="fill:#47c1b8;fill-opacity:1;fill-rule:nonzero;stroke:none"
         d="M 1013.05,2544.71 H 485.086 c -27.086,0 -49.047,21.96 -49.047,49.05 v 486 c 0,16.69 13.527,30.21 30.219,30.21 h 546.792 c 16.69,0 30.21,-13.52 30.21,-30.21 v -504.84 c 0,-16.68 -13.52,-30.21 -30.21,-30.21" /><path
         id="path128"
         style="fill:#ffffff;fill-opacity:1;fill-rule:nonzero;stroke:none"
         d="m 733.492,2778.37 c -27.121,0 -49.101,21.98 -49.101,49.1 0,27.12 21.988,49.1 49.101,49.1 27.121,0 49.102,-21.99 49.102,-49.1 0,-0.1 0,-0.19 0,-0.28 -0.153,-27.01 -22.09,-48.82 -49.102,-48.82 z m 117.906,72.13 -19.546,3.42 c -2.289,8.52 -5.68,16.7 -10.086,24.34 l 11.39,16.25 c 4.188,5.97 3.481,14.09 -1.679,19.24 l -11.704,11.7 c -5.23,5.06 -13.339,5.64 -19.234,1.37 l -16.25,-11.39 c -7.637,4.41 -15.82,7.8 -24.34,10.08 l -3.359,19.98 c -1.227,7.09 -7.313,12.32 -14.508,12.46 h -16.871 c -7.309,0.01 -13.57,-5.25 -14.813,-12.46 l -3.425,-19.48 c -8.52,-2.28 -16.703,-5.68 -24.34,-10.09 l -16.188,10.9 c -5.965,4.19 -14.082,3.48 -19.23,-1.68 l -11.707,-11.71 c -5.16,-5.15 -5.867,-13.26 -1.68,-19.23 l 11.395,-16.25 c -4.41,-7.64 -7.801,-15.82 -10.09,-24.34 l -19.481,-3.42 c -7.207,-1.25 -12.468,-7.5 -12.453,-14.82 v -16.55 c -0.015,-7.32 5.246,-13.58 12.453,-14.82 l 19.481,-3.43 c 2.289,-8.51 5.68,-16.7 10.09,-24.34 l -11.395,-16.24 c -4.187,-5.97 -3.48,-14.09 1.68,-19.24 l 11.707,-11.71 c 5.148,-5.15 13.265,-5.86 19.23,-1.67 l 16.25,11.39 c 7.637,-4.41 15.821,-7.8 24.34,-10.09 l 3.426,-19.48 c 1.242,-7.21 7.5,-12.46 14.812,-12.45 h 16.809 c 7.313,-0.01 13.574,5.24 14.82,12.45 l 3.422,19.48 c 8.52,2.29 16.699,5.68 24.34,10.09 l 15.875,-11.15 c 5.965,-4.19 14.082,-3.47 19.234,1.68 l 11.704,11.71 c 5.16,5.15 5.867,13.27 1.679,19.24 l -11.39,16.37 c 4.406,7.63 7.797,15.82 10.086,24.34 l 19.546,3.42 c 7.207,1.25 12.465,7.5 12.45,14.82 v 16.55 c -0.012,7.29 -5.27,13.52 -12.45,14.76" /><path
         id="path130"
         style="fill:#47c1b8;fill-opacity:1;fill-rule:nonzero;stroke:none"
         d="m 3688.52,3743.97 h -727.06 c -31.42,0 -56.91,25.48 -56.91,56.92 v 727.05 c 0,31.43 25.49,56.92 56.91,56.92 h 727.06 c 31.43,0 56.92,-25.49 56.92,-56.92 v -727.05 c 0,-31.44 -25.49,-56.92 -56.92,-56.92" /><path
         id="path132"
         style="fill:#ffffff;fill-opacity:1;fill-rule:nonzero;stroke:none"
         d="m 3333.51,4269.94 c 4.7,12.55 18.68,18.9 31.22,14.2 12.55,-4.71 18.9,-18.68 14.2,-31.23 l -72.76,-194.03 c -4.71,-12.54 -18.68,-18.9 -31.23,-14.19 -12.54,4.7 -18.9,18.68 -14.19,31.22 z m -205.44,-105.53 79.87,-79.86 c 9.47,-9.48 9.47,-24.83 0,-34.3 -9.48,-9.48 -24.83,-9.48 -34.3,0 l -97.01,97.01 c -9.48,9.47 -9.48,24.83 0,34.3 l 97.01,97.02 c 9.47,9.47 24.82,9.47 34.3,0 9.47,-9.47 9.47,-24.83 0,-34.3 z m 313.98,79.87 c -9.48,9.47 -9.48,24.83 0,34.3 9.47,9.47 24.82,9.47 34.29,0 l 97.02,-97.02 c 9.47,-9.47 9.47,-24.83 0,-34.3 l -97.02,-97.01 c -9.47,-9.48 -24.82,-9.48 -34.29,0 -9.48,9.47 -9.48,24.82 0,34.3 l 79.86,79.86 -79.86,79.87" /></g></g></svg>