<svg xmlns="http://www.w3.org/2000/svg" viewBox="0 0 172 172" width="100px" height="100px"><g style="mix-blend-mode:normal" fill="none" stroke-miterlimit="10" font-family="none" font-size="none" font-weight="none" text-anchor="none"><path d="M0,172v-172h172v172z"/><path fill="#262a2c" d="M99.76,24.08l-19.57844,6.88l19.57844,6.88l19.57844,-6.88zM147.92,24.08l-19.57844,6.88l19.57844,6.88l19.57844,-6.88zM79.12,37.84v21.78219l17.2,5.73781v-21.78219zM120.4,37.84l-17.2,5.73781v21.78219l17.2,-5.73781zM127.28,37.84v21.78219l17.2,5.73781v-21.78219zM168.56,37.84l-17.2,5.73781v21.78219l17.2,-5.73781zM27.52,65.36l-19.57844,6.88l19.57844,6.88l19.57844,-6.88zM75.68,65.36l-19.57844,6.88l19.57844,6.88l19.57844,-6.88zM6.88,79.12v21.78219l17.2,5.73781v-21.78219zM48.16,79.12l-17.2,5.73781v21.78219l17.2,-5.73781zM55.04,79.12v21.78219l17.2,5.73781v-21.78219zM96.32,79.12l-17.2,5.73781v21.78219l17.2,-5.73781zM51.6,106.64l-19.57844,6.88l19.57844,6.88l19.57844,-6.88zM30.96,120.4v21.78219l17.2,5.73781v-21.78219zM72.24,120.4l-17.2,5.73781v21.78219l17.2,-5.73781z"/></g></svg>