<svg xmlns="http://www.w3.org/2000/svg" viewBox="0 0 172 172" width="100px" height="100px"><g style="mix-blend-mode:normal" fill="none" stroke-miterlimit="10" font-family="none" font-size="none" font-weight="none" text-anchor="none"><path d="M0,172v-172h172v172z"/><path fill="#262a2c" d="M86,6.88c-19.28281,0 -36.71125,2.17688 -49.61125,5.85875c-6.45,1.84094 -11.75781,4.03125 -15.72187,6.74563c-3.9775,2.70094 -6.90688,6.22156 -6.90688,10.58875v0.34937l0.45688,2.23063l9.90344,64.19094c0.20156,3.95062 2.63375,7.33687 6.00656,10.05125c0.77937,0.63156 1.63937,1.22281 2.55312,1.81406l5.38844,38.3775l-0.02687,-0.48375c0,3.49375 2.15,6.39625 4.91812,8.57312c2.78156,2.16344 6.42313,3.88344 10.73656,5.33469c8.14313,2.72781 18.85281,4.3 30.315,4.47469v0.13437h1.98875v-0.13437c11.47563,-0.17469 22.17188,-1.74688 30.315,-4.47469c4.32688,-1.45125 7.955,-3.17125 10.73656,-5.33469c2.64719,-2.06937 4.68969,-4.81062 4.89125,-8.08937l5.22719,-37.11438c1.72,-0.95406 3.3325,-1.97531 4.71656,-3.07719c3.35937,-2.71438 5.79156,-6.10063 5.99312,-10.05125v-0.02688l9.90344,-64.16406l0.45687,-2.23063v-0.34937c0,-4.36719 -2.92937,-7.88781 -6.89344,-10.58875c-3.9775,-2.71438 -9.28531,-4.90469 -15.73531,-6.74563c-12.9,-3.68187 -30.32844,-5.85875 -49.61125,-5.85875zM86,13.76c18.75875,0 35.73031,2.17688 47.73,5.59c5.99313,1.72 10.73656,3.77594 13.73313,5.805c2.94281,2.01563 3.80281,3.66844 3.84312,4.8375l-0.29562,1.45125l-9.97063,64.6075v0.26875c0,1.34375 -0.88687,3.13094 -3.48031,5.21375c-2.58,2.08281 -6.665,4.20594 -11.78469,6.00656c-10.22594,3.60125 -24.55031,5.97969 -39.775,5.97969c-15.22469,0 -29.54906,-2.37844 -39.775,-5.97969c-5.11969,-1.80063 -9.20469,-3.92375 -11.78469,-6.00656c-2.59344,-2.08281 -3.48031,-3.87 -3.48031,-5.21375v-0.26875l-9.97062,-64.6075l-0.29563,-1.45125c0.04031,-1.16906 0.90031,-2.82187 3.84313,-4.8375c2.99656,-2.02906 7.74,-4.085 13.73312,-5.805c11.99969,-3.41312 28.97125,-5.59 47.73,-5.59zM86,17.2c-13.49125,0 -25.73281,1.30344 -34.85687,3.56094c-4.56875,1.12875 -8.34469,2.4725 -11.26063,4.20594c-2.91594,1.72 -5.4825,4.1925 -5.4825,7.71312c0,3.52063 2.56656,5.99313 5.4825,7.72656c2.91594,1.72 6.69188,3.06375 11.26063,4.1925c9.12406,2.2575 21.36562,3.56094 34.85687,3.56094c13.49125,0 25.73281,-1.30344 34.85688,-3.56094c4.56875,-1.12875 8.34469,-2.4725 11.26062,-4.1925c2.91594,-1.73344 5.4825,-4.20594 5.4825,-7.72656c0,-3.52062 -2.56656,-5.99312 -5.4825,-7.71312c-2.91594,-1.73344 -6.69187,-3.07719 -11.26062,-4.20594c-9.12406,-2.2575 -21.36563,-3.56094 -34.85688,-3.56094zM86,24.08c13.03438,0 24.88625,1.30344 33.20406,3.35938c4.16562,1.03469 7.44437,2.27094 9.40625,3.44c1.96187,1.16906 2.10969,1.90812 2.10969,1.80062c0,-0.1075 -0.14781,0.63156 -2.10969,1.80063c-1.96188,1.16906 -5.24063,2.40531 -9.40625,3.44c-8.31781,2.05594 -20.16969,3.35937 -33.20406,3.35937c-13.03437,0 -24.88625,-1.30344 -33.20406,-3.35937c-4.16562,-1.03469 -7.44437,-2.27094 -9.40625,-3.44c-1.96187,-1.16906 -2.10969,-1.90813 -2.10969,-1.80063c0,0.1075 0.14781,-0.63156 2.10969,-1.80062c1.96188,-1.16906 5.24063,-2.40531 9.40625,-3.44c8.31781,-2.05594 20.16969,-3.35938 33.20406,-3.35938zM86,61.92c-11.55625,0 -20.64,9.08375 -20.64,20.64c0,11.55625 9.08375,20.64 20.64,20.64c11.55625,0 20.64,-9.08375 20.64,-20.64c0,-11.55625 -9.08375,-20.64 -20.64,-20.64zM86,72.24c5.6975,0 10.32,4.6225 10.32,10.32c0,5.6975 -4.6225,10.32 -10.32,10.32c-5.6975,0 -10.32,-4.6225 -10.32,-10.32c0,-5.6975 4.6225,-10.32 10.32,-10.32zM40.16469,112.57938c1.20938,0.49719 2.45906,0.99437 3.7625,1.45125c11.22031,3.95062 26.13594,6.36937 42.07281,6.36937c15.93688,0 30.8525,-2.41875 42.07281,-6.36937c0.57781,-0.20156 1.10187,-0.43 1.66625,-0.645l-4.64938,32.97562v0.24188c0,0.645 -0.43,1.70656 -2.27094,3.14437c-1.84094,1.43781 -4.86437,2.95625 -8.69406,4.24625c-7.4175,2.48594 -17.89875,4.085 -29.11906,4.17906c-11.22031,-0.09406 -21.70156,-1.69313 -29.11906,-4.17906c-3.82969,-1.29 -6.85313,-2.80844 -8.69406,-4.24625c-1.8275,-1.43781 -2.27094,-2.49937 -2.27094,-3.14437v-0.24188z"/></g></svg>