<svg xmlns="http://www.w3.org/2000/svg" viewBox="0 0 172 172" width="100px" height="100px"><g style="mix-blend-mode:normal" fill="none" stroke-miterlimit="10" font-family="none" font-size="none" font-weight="none" text-anchor="none"><path d="M0,172v-172h172v172z"/><path fill="#262a2c" d="M86,6.88c-2.45906,0 -4.90469,0.61813 -7.10844,1.85438l-57.9425,32.55906c-4.4075,2.48594 -7.18906,7.12188 -7.18906,12.1475v65.11813c0,5.03906 2.78156,9.675 7.18906,12.16094l57.9425,32.54563c4.4075,2.48594 9.80937,2.48594 14.21687,0l57.9425,-32.54563c4.42094,-2.48594 7.18906,-7.13531 7.18906,-12.16094v-65.11813c0,-5.02562 -2.78156,-9.66156 -7.18906,-12.1475l-57.9425,-32.55906c-2.20375,-1.23625 -4.64937,-1.85438 -7.10844,-1.85438zM86,13.76c1.29,0 2.59344,0.3225 3.74906,0.9675l57.9425,32.55906c2.29781,1.30344 3.66844,3.64156 3.66844,6.15437v29.11906h-6.88v-6.88h-6.88v6.88h-6.88v6.88h6.88v6.88h6.88v-6.88h6.88v29.11906c0,2.51281 -1.37062,4.85094 -3.68187,6.15437l-57.92906,32.55906c-2.31125,1.29 -5.18688,1.29 -7.49813,0l-57.92906,-32.55906c-2.31125,-1.30344 -3.68188,-3.62812 -3.68188,-6.15437v-65.11813c0,-2.51281 1.37063,-4.85094 3.68188,-6.15437l57.92906,-32.55906c1.15563,-0.645 2.45906,-0.9675 3.74906,-0.9675zM86,41.28c-24.63094,0 -44.72,20.08906 -44.72,44.72c0,24.63094 20.08906,44.72 44.72,44.72c14.06906,0 27.13031,-6.5575 35.56906,-17.67031l2.35156,-3.10406l-20.82813,-12.06688l-1.88125,2.0425c-3.88344,4.24625 -9.39281,6.71875 -15.21125,6.71875c-11.40844,0 -20.64,-9.23156 -20.64,-20.64c0,-11.40844 9.23156,-20.64 20.64,-20.64c5.81844,0 11.32781,2.4725 15.21125,6.71875l1.88125,2.0425l20.82813,-12.06687l-2.35156,-3.10406c-8.43875,-11.11281 -21.5,-17.67031 -35.56906,-17.67031zM86,48.16c10.57531,0 20.25031,4.52844 27.33188,12.08031l-9.43313,5.45562c-4.97187,-4.35375 -11.15312,-7.21594 -17.89875,-7.21594c-15.14406,0 -27.52,12.37594 -27.52,27.52c0,15.14406 12.37594,27.52 27.52,27.52c6.74563,0 12.92688,-2.86219 17.89875,-7.21594l9.43313,5.45562c-7.08156,7.55188 -16.75656,12.08031 -27.33188,12.08031c-20.89531,0 -37.84,-16.94469 -37.84,-37.84c0,-20.89531 16.94469,-37.84 37.84,-37.84zM113.52,75.68v6.88h-6.88v6.88h6.88v6.88h6.88v-6.88h6.88v-6.88h-6.88v-6.88z"/></g></svg>