<svg xmlns="http://www.w3.org/2000/svg" viewBox="0 0 172 172" width="100px" height="100px"><g style="mix-blend-mode:normal" fill="none" stroke-miterlimit="10" font-family="none" font-size="none" font-weight="none" text-anchor="none"><path d="M0,172v-172h172v172z"/><path fill="#262a2c" d="M86,15.49512l-69.875,34.9375v71.13477l69.875,34.9375l69.875,-34.9375v-71.13477zM86,27.50489l59.125,29.5625v57.86523l-59.125,29.5625l-59.125,-29.5625v-57.86523zM69.875,53.75c-17.7417,0 -32.25,14.5083 -32.25,32.25c0,17.7417 14.5083,32.25 32.25,32.25c8.0625,0 15.6001,-3.2334 20.9751,-8.0625l-9.1543,-6.4458c-3.2334,2.1416 -7.5166,3.7583 -11.8208,3.7583c-11.8208,0 -21.5,-9.6792 -21.5,-21.5c0,-11.8208 9.6792,-21.5 21.5,-21.5c4.3042,0 8.5874,1.6167 11.8208,3.7583l9.1543,-6.4458c-5.375,-4.8291 -12.9126,-8.0625 -20.9751,-8.0625zM96.75,64.5v5.375h-5.375v10.75h5.375v10.75h-5.375v10.75h5.375v5.375h10.75v-5.375h10.75v5.375h10.75v-5.375h5.375v-10.75h-5.375v-10.75h5.375v-10.75h-5.375v-5.375h-10.75v5.375h-10.75v-5.375zM107.5,80.625h10.75v10.75h-10.75z"/></g></svg>