<svg xmlns="http://www.w3.org/2000/svg" viewBox="0 0 172 172" width="100px" height="100px"><g style="mix-blend-mode:normal" fill="none" fill-rule="none" stroke-miterlimit="10" font-family="none" font-size="none" font-weight="none" text-anchor="none"><path d="M0,172v-172h172v172z"/><path fill="#262a2c" fill-rule="evenodd" d="M134.16,137.6l-48.16,13.76l-48.16,-13.76l-10.32,-116.96h116.96c-3.44,38.98219 -6.88,77.97781 -10.32,116.96zM136.96844,27.52h-101.93687l9.245,104.75875l41.72344,11.9325l41.72344,-11.9325zM57.79469,96.32h13.76l0.33594,8.6l14.10937,4.81063l14.10938,-4.81063l1.02125,-15.48h-30.26125l-0.69875,-13.76h31.65875l1.02125,-13.76h-47.46125l-1.03469,-13.76h62.95469l-1.72,27.52l-2.41875,39.56l-27.17063,8.94938l-27.17062,-8.94938z"/></g></svg>