<svg xmlns="http://www.w3.org/2000/svg" viewBox="0 0 172 172" width="100px" height="100px"><g style="mix-blend-mode:normal" fill="none" stroke-miterlimit="10" font-family="none" font-size="none" font-weight="none" text-anchor="none"><path d="M0,172v-172h172v172z"/><path fill="#262a2c" d="M20.79453,55.0064v14.55281c-1.40352,-0.3612 -3.08842,-0.48375 -4.61578,-0.48375c-9.83496,0 -16.17875,6.16685 -16.17875,15.66813c0,9.86592 5.97899,14.99593 17.47547,15.00969c3.83904,0 7.39525,-0.35153 12.21469,-1.26313v-43.48375zM35.24656,55.05344v9.56078h9.41297v-9.56078zM35.24656,68.8v19.3164c0,8.11152 -0.42199,11.19822 -1.76703,13.86078c-1.28312,2.60408 -3.29557,4.30516 -7.45109,6.235l8.73438,4.1186c4.15552,-2.06744 6.16561,-3.93488 7.69297,-6.90015c1.634,-3.08224 2.19031,-6.65866 2.19031,-14.09594v-22.53469zM156.74844,68.8c-9.66296,0 -15.69124,6.06091 -15.70844,15.78235c0,9.36368 5.84139,15.17765 15.32547,15.17765c9.60448,0 15.63453,-6.05219 15.63453,-15.71515c0,-9.4256 -5.78124,-15.24485 -15.25156,-15.24485zM62.2089,69.07547c-4.1624,0 -7.97241,0.85189 -11.95937,2.77485l0.01344,7.18234c3.52256,-1.86792 7.27211,-2.83531 10.6089,-2.83531c2.27728,0 3.10406,0.61221 3.10406,2.29781v2.0425c-11.0768,0.95632 -15.5875,3.97261 -15.5875,10.48797c0,6.02344 3.397,8.73437 10.965,8.73437c3.74272,0 8.84456,-0.42941 12.88656,-1.02797v-18.85953c0,-3.85968 -0.2443,-5.66837 -1.0011,-7.05469c-1.34848,-2.4768 -4.39288,-3.74235 -9.03,-3.74235zM92.59781,69.07547c-4.63712,0 -9.21549,0.65801 -14.77453,2.10969v28.1986h9.39953v-22.145c1.892,-0.5504 3.04703,-0.66515 4.33359,-0.66515c3.354,0 4.92485,1.33053 4.92485,4.90469v17.90547h9.07031v-18.275c0,-4.65432 -0.6228,-6.83668 -2.57328,-8.82844c-2.07088,-2.11216 -5.56103,-3.20485 -10.38047,-3.20485zM129.98094,69.12922c-13.73592,0 -21.5,5.97995 -21.5,16.57515c0,8.5312 5.24213,13.92125 13.49125,13.92125c2.43552,0 4.27727,-0.36857 6.10735,-1.26985v0.17469c0,5.92712 -2.63037,8.41188 -8.79485,8.41188c-3.4916,0 -6.78604,-0.78002 -10.07812,-2.4725h-0.00672v8.60672c3.29552,1.2728 6.46811,1.81406 10.13859,1.81406c7.21024,0 12.28709,-2.2453 15.21797,-6.77922c2.00896,-3.09256 2.6875,-6.84388 2.6875,-14.835v-2.53969c-0.06192,-1.2728 -0.05902,-2.54345 -0.12094,-3.81625l-0.06047,-5.0861l-0.12094,-3.93719v-0.97422c1.88856,0.17888 -0.40807,-0.22629 2.09625,0.25531l3.225,-6.71875c-4.51672,-0.9116 -8.24676,-1.33031 -12.28188,-1.33031zM156.61406,76.22422c3.63264,0 5.71765,2.99587 5.71765,8.04235c0,5.10496 -2.14204,8.04906 -5.77812,8.04906c-3.68424,0 -5.85203,-2.9441 -5.85203,-8.04906c0,-5.10496 2.15258,-8.04235 5.9125,-8.04235zM17.09922,76.5736c1.16067,0 2.58859,0.12403 3.68859,0.48375v14.95594c-1.34504,0.17888 -2.70674,0.24187 -3.74906,0.24187c-4.81944,0 -7.45109,-2.73937 -7.45109,-7.69297c0,-5.08776 2.7506,-7.98859 7.51156,-7.98859zM126.91719,76.63406h0.6786h0.30235v0.7189l0.06047,3.0839l0.06047,4.3c0,1.26936 0.06047,2.4839 0.06047,3.57438v2.53969v0.6786c-1.21088,0.3612 -2.25094,0.59797 -3.53406,0.59797c-4.15552,0 -6.4836,-2.66912 -6.4836,-7.32344c0,-3.26456 1.15993,-5.56689 3.41313,-6.83969c1.46544,-0.9116 3.61211,-1.38879 5.44219,-1.33031zM64.38578,86.6114v6.21485c-1.7544,0.29928 -2.99183,0.42328 -4.34031,0.42328c-2.46648,0 -3.5811,-0.84791 -3.5811,-2.6539c0,-2.41144 1.94613,-3.38566 7.92141,-3.98422z"/></g></svg>