<svg xmlns="http://www.w3.org/2000/svg" viewBox="0 0 172 172" width="100px" height="100px"><g style="mix-blend-mode:normal" fill="none" stroke-miterlimit="10" font-family="none" font-size="none" font-weight="none" text-anchor="none"><path d="M0,172v-172h172v172z"/><path fill="#262a2c" d="M75.68,6.88c0,0 0.06719,6.70531 0,8.94938c0,0.05375 0.37625,4.43437 -2.48594,12.1475c-1.90813,4.86437 -5.64375,8.08937 -8.15656,8.98969c-29.50875,8.96281 -47.8375,32.23656 -47.8375,60.7375c0,37.16812 30.86594,67.41594 68.8,67.41594c37.93406,0 68.8,-30.24781 68.8,-67.41594c0,-30.79875 -21.91656,-56.03438 -54.54281,-62.86063l-0.09406,-0.01344c-1.78719,-0.48375 -5.99313,-0.79281 -17.60313,-17.63c-1.76031,-2.55312 -6.88,-10.32 -6.88,-10.32zM80.89375,26.66c8.86875,11.75781 13.58531,13.84063 17.45531,14.80813l0.55094,0.13437l0.20156,0.04031c29.21312,6.19469 48.81844,28.7025 48.81844,56.06125c0,33.37875 -27.77531,60.53594 -61.92,60.53594c-34.14469,0 -61.92,-27.15719 -61.92,-60.53594c0,-25.35656 16.46094,-46.1175 42.95969,-54.16656l0.14781,-0.04031l0.16125,-0.05375c4.13875,-1.46469 9.52719,-6.03344 12.29531,-13.07469c0.48375,-1.31687 0.90031,-2.55312 1.24969,-3.70875zM70.85594,82.56c-14.17656,0 -26.13594,9.50031 -26.13594,22.69594c0,6.03344 1.92156,11.62344 7.37719,15.25156c4.90469,3.25188 11.12625,3.73563 15.64125,3.31906c10.89781,-1.02125 19.12156,-5.29438 25.38344,-9.07031c6.24844,-3.7625 10.77687,-6.46344 12.65812,-6.39625c0.3225,0.02688 1.72,0.55094 3.34594,1.74688c1.65281,1.20937 3.57438,2.92937 5.4825,4.71656c1.92156,1.80063 3.84313,3.64156 5.73781,5.16c1.88125,1.51844 3.5475,2.94281 6.32906,3.15781c2.56656,0.20156 5.11969,-0.34937 7.10844,-1.72c1.98875,-1.35719 3.41313,-3.17125 5.16,-5.46906c4.27313,-5.53625 5.53625,-12.95375 5.53625,-17.57625c0,-2.53969 -0.44344,-5.6975 -2.20375,-8.64031c-1.77375,-2.94281 -5.30781,-5.45563 -9.83625,-5.45563c-2.75469,0 -5.07937,1.08844 -7.53844,2.39188c-2.45906,1.30344 -4.97188,2.92937 -7.44438,4.52844c-2.45906,1.58562 -4.87781,3.1175 -6.96062,4.20594c-2.09625,1.08844 -3.88344,1.59906 -4.54188,1.59906h-0.08062l-0.08063,0.01344c-0.87344,0.02688 -2.58,-0.48375 -4.78375,-1.69312c-2.19031,-1.20938 -4.82406,-3.01 -7.80719,-4.87781c-5.93937,-3.74906 -13.35687,-7.88781 -22.34656,-7.88781zM70.85594,89.44c6.85313,0 13.02094,3.26531 18.69156,6.82625c2.82188,1.78719 5.50938,3.61469 8.15656,5.07938c1.31687,0.73906 2.82187,0.80625 4.20594,1.27656c-4.085,1.20938 -7.90125,3.57438 -12.34906,6.24844c-5.93937,3.58781 -13.02094,7.21594 -22.4675,8.10281c-3.1175,0.29563 -8.61344,-0.48375 -11.18,-2.19031c-3.73562,-2.48594 -4.31344,-4.54188 -4.31344,-9.52719c0,-9.09719 7.99531,-15.81594 19.25594,-15.81594zM132.44,91.16c2.35156,0 3.1175,0.7525 3.92375,2.10969c0.81969,1.37063 1.23625,3.52063 1.23625,5.10625c0,2.95625 -1.49156,9.98406 -4.09844,13.38375c-1.69313,2.19031 -2.84875,3.48031 -3.61469,4.00438c-0.76594,0.51062 -1.11531,0.645 -2.66063,0.51062h-0.05375c0.38969,0.04031 -0.99437,-0.41656 -2.52625,-1.65281c-1.51844,-1.23625 -3.38625,-2.99656 -5.33469,-4.82406c-1.96188,-1.8275 -4.00438,-3.70875 -6.11406,-5.25406c-1.16906,-0.84656 -2.60687,-1.11531 -3.91031,-1.67969c1.45125,-0.44344 2.95625,-0.61813 4.38063,-1.34375c2.49937,-1.30344 5.03906,-2.94281 7.525,-4.54188c2.4725,-1.59906 4.87781,-3.14437 6.93375,-4.23281c2.0425,-1.08844 3.78937,-1.58563 4.31344,-1.58563zM106.03531,103.85844c0.01344,0 0.04031,0.02688 0.06719,0.02688h-0.14781c0.02688,0 0.05375,-0.01344 0.08063,-0.02688zM105.28281,120.4c-5.60344,0 -9.64813,2.13656 -12.06688,4.34031c-2.41875,2.20375 -3.45344,4.68969 -3.45344,4.68969c-0.71219,1.76031 0.13438,3.7625 1.90813,4.48813c1.76031,0.71219 3.7625,-0.14781 4.47469,-1.90813c0,0 0.34937,-0.95406 1.70656,-2.19031c1.35719,-1.23625 3.48031,-2.53969 7.43094,-2.53969c3.52062,0 5.38844,1.23625 6.63812,2.45906c1.24969,1.22281 1.6125,2.21719 1.6125,2.21719c0.41656,1.1825 1.43781,2.0425 2.67406,2.24406c1.23625,0.215 2.48594,-0.26875 3.26531,-1.24969c0.77937,-0.98094 0.9675,-2.29781 0.48375,-3.46688c0,0 -0.95406,-2.44562 -3.225,-4.66281c-2.28438,-2.21719 -6.14094,-4.42094 -11.44875,-4.42094zM113.43938,137.65375c-0.65844,0.02688 -1.29,0.22844 -1.84094,0.60469c-3.64156,2.44563 -8.80156,5.83188 -17.69719,4.87781c-7.25625,-0.76594 -10.61562,-2.76812 -12.30875,-4.4075c-1.35719,-1.33031 -3.53406,-1.31687 -4.86437,0.05375c-1.33031,1.35719 -1.30344,3.53406 0.06719,4.86438c3.01,2.94281 8.0625,5.45562 16.36687,6.32906c11.01875,1.1825 18.46313,-3.44 22.27938,-6.00656c1.29,-0.84656 1.85437,-2.44563 1.3975,-3.91031c-0.47031,-1.47813 -1.85438,-2.45906 -3.39969,-2.40531z"/></g></svg>