<svg xmlns="http://www.w3.org/2000/svg" viewBox="0 0 172 172" width="100px" height="100px"><g style="mix-blend-mode:normal" fill="none" stroke-miterlimit="10" stroke-width="none" font-family="none" font-size="none" font-weight="none" text-anchor="none"><path d="M0,172v-172h172v172z" transform="matrix(.66 0 0 .66 29.24 29.24)"/><path fill="#000" stroke-width="1" d="M26.875,26.875v118.25h118.25v-118.25zM37.625,37.625h96.75v96.75h-96.75zM108.81226,80.625c-7.65938,0 -12.60815,4.90276 -12.60815,11.39038c-0.00001,7.04663 4.13195,10.41482 10.36157,13.07006l2.1521,0.92383c3.93451,1.73613 6.27783,2.74931 6.27783,5.71094c0,2.49938 -2.29403,4.2937 -5.86841,4.2937c-4.2355,0 -6.64417,-2.24414 -8.48242,-5.25952l-7.04419,4.03125c2.49937,5.00413 7.70658,8.83935 15.72608,8.83935c8.17,0 14.29834,-4.23777 14.29834,-11.99927c0,-7.25087 -4.13699,-10.47235 -11.49536,-13.58447l-2.1416,-0.92383c-3.72487,-1.634 -5.31202,-2.70639 -5.31202,-5.25952c0,-2.09625 1.58311,-3.72681 4.13623,-3.72681c2.50475,0 4.08046,1.07156 5.56396,3.72681l6.75024,-4.3357c-2.8595,-5.00413 -6.79946,-6.89722 -12.31421,-6.89722zM77.3706,81.1394v29.36304c0,4.28925 -1.83951,5.40649 -4.65063,5.40649c-2.96163,0 -4.23634,-2.03805 -5.56396,-4.44067l-7.04419,4.24121c2.0425,4.343 6.06896,7.91553 12.96509,7.91553c7.65938,0 12.9231,-4.08945 12.9231,-13.02808v-29.45752z" transform="matrix(.66 0 0 .66 29.24 29.24)"/><path fill="#262a2c" stroke-width="1" d="M-7.54667,4.06273v3.15h-12.63v10.33h14.67v3.14h-18.52v-29.15h18.32v3.16h-14.47v9.37zM1.22333,-0.97727l4.74,7.91l4.81,-7.91h4.32l-7.09,10.71l7.31,10.95h-4.28l-5.01,-8.11l-5,8.11h-4.31l7.31,-10.95l-7.09,-10.71zM37.31333,9.75273v0.34c0,3.29333 -0.75333,5.95 -2.26,7.97c-1.50667,2.01333 -3.55,3.02 -6.13,3.02v0c-2.62667,0 -4.69333,-0.83333 -6.2,-2.5v0v10.43h-3.7v-29.99h3.38l0.18,2.4c1.50667,-1.86667 3.6,-2.8 6.28,-2.8v0c2.60667,0 4.66667,0.98 6.18,2.94c1.51333,1.96 2.27,4.69 2.27,8.19zM33.61333,9.67273v0c0,-2.44 -0.52,-4.37 -1.56,-5.79c-1.04,-1.41333 -2.47,-2.12 -4.29,-2.12v0c-2.24,0 -3.92,0.99333 -5.04,2.98v0v10.35c1.10667,1.98 2.8,2.97 5.08,2.97v0c1.78,0 3.19333,-0.70333 4.24,-2.11c1.04667,-1.41333 1.57,-3.50667 1.57,-6.28zM52.49333,-1.09727v3.44c-0.56,-0.09333 -1.16667,-0.14 -1.82,-0.14v0c-2.43333,0 -4.08333,1.03667 -4.95,3.11v0v15.37h-3.7v-21.66h3.6l0.06,2.5c1.21333,-1.93333 2.93667,-2.9 5.17,-2.9v0c0.72,0 1.26667,0.09333 1.64,0.28zM64.50333,21.08273v0c-2.93333,0 -5.32333,-0.96333 -7.17,-2.89c-1.84,-1.93333 -2.76,-4.51333 -2.76,-7.74v0v-0.68c0,-2.14667 0.41,-4.06667 1.23,-5.76c0.82,-1.68667 1.96667,-3.00667 3.44,-3.96c1.48,-0.95333 3.08,-1.43 4.8,-1.43v0c2.81333,0 5.00333,0.92667 6.57,2.78c1.56,1.85333 2.34,4.51 2.34,7.97v0v1.54h-14.68c0.05333,2.13333 0.68,3.86 1.88,5.18c1.19333,1.31333 2.71,1.97 4.55,1.97v0c1.30667,0 2.41333,-0.26667 3.32,-0.8c0.90667,-0.53333 1.70333,-1.24333 2.39,-2.13v0l2.26,1.77c-1.82,2.78667 -4.54333,4.18 -8.17,4.18zM64.04333,1.66273v0c-1.49333,0 -2.74667,0.54333 -3.76,1.63c-1.02,1.08667 -1.65,2.61333 -1.89,4.58v0h10.85v-0.28c-0.10667,-1.88667 -0.61333,-3.34667 -1.52,-4.38c-0.90667,-1.03333 -2.13333,-1.55 -3.68,-1.55zM89.84333,14.93273v0c0,-1 -0.37667,-1.77667 -1.13,-2.33c-0.75333,-0.55333 -2.06667,-1.03 -3.94,-1.43c-1.87333,-0.4 -3.36,-0.88 -4.46,-1.44c-1.10667,-0.56 -1.92333,-1.22667 -2.45,-2c-0.52667,-0.77333 -0.79,-1.69667 -0.79,-2.77v0c0,-1.77333 0.75,-3.27333 2.25,-4.5c1.50667,-1.22667 3.42667,-1.84 5.76,-1.84v0c2.45333,0 4.44667,0.63333 5.98,1.9c1.52667,1.26667 2.29,2.89 2.29,4.87v0h-3.73c0,-1.02 -0.43,-1.89667 -1.29,-2.63c-0.86,-0.73333 -1.94333,-1.1 -3.25,-1.1v0c-1.34667,0 -2.4,0.29333 -3.16,0.88c-0.76,0.58667 -1.14,1.35333 -1.14,2.3v0c0,0.9 0.35333,1.57667 1.06,2.03c0.70667,0.45333 1.98333,0.88667 3.83,1.3c1.84667,0.41333 3.34333,0.90667 4.49,1.48c1.15333,0.57333 2.00667,1.26333 2.56,2.07c0.55333,0.80667 0.83,1.79 0.83,2.95v0c0,1.94 -0.77333,3.49333 -2.32,4.66c-1.55333,1.16667 -3.56333,1.75 -6.03,1.75v0c-1.73333,0 -3.26667,-0.30667 -4.6,-0.92c-1.34,-0.61333 -2.38667,-1.47 -3.14,-2.57c-0.75333,-1.1 -1.13,-2.29333 -1.13,-3.58v0h3.7c0.06667,1.24667 0.56667,2.23333 1.5,2.96c0.92667,0.72667 2.15,1.09 3.67,1.09v0c1.4,0 2.52333,-0.28333 3.37,-0.85c0.84667,-0.56667 1.27,-1.32667 1.27,-2.28zM110.99333,14.93273v0c0,-1 -0.38,-1.77667 -1.14,-2.33c-0.75333,-0.55333 -2.06667,-1.03 -3.94,-1.43c-1.87333,-0.4 -3.36,-0.88 -4.46,-1.44c-1.10667,-0.56 -1.92333,-1.22667 -2.45,-2c-0.52667,-0.77333 -0.79,-1.69667 -0.79,-2.77v0c0,-1.77333 0.75,-3.27333 2.25,-4.5c1.50667,-1.22667 3.42667,-1.84 5.76,-1.84v0c2.45333,0 4.44667,0.63333 5.98,1.9c1.52667,1.26667 2.29,2.89 2.29,4.87v0h-3.73c0,-1.02 -0.43,-1.89667 -1.29,-2.63c-0.86,-0.73333 -1.94333,-1.1 -3.25,-1.1v0c-1.34667,0 -2.4,0.29333 -3.16,0.88c-0.76,0.58667 -1.14,1.35333 -1.14,2.3v0c0,0.9 0.35333,1.57667 1.06,2.03c0.70667,0.45333 1.98333,0.88667 3.83,1.3c1.84667,0.41333 3.34667,0.90667 4.5,1.48c1.14667,0.57333 1.99667,1.26333 2.55,2.07c0.55333,0.80667 0.83,1.79 0.83,2.95v0c0,1.94 -0.77333,3.49333 -2.32,4.66c-1.55333,1.16667 -3.56333,1.75 -6.03,1.75v0c-1.73333,0 -3.26667,-0.30667 -4.6,-0.92c-1.34,-0.61333 -2.38667,-1.47 -3.14,-2.57c-0.75333,-1.1 -1.13,-2.29333 -1.13,-3.58v0h3.71c0.06667,1.24667 0.56333,2.23333 1.49,2.96c0.92667,0.72667 2.15,1.09 3.67,1.09v0c1.4,0 2.52333,-0.28333 3.37,-0.85c0.85333,-0.56667 1.28,-1.32667 1.28,-2.28z" transform="matrix(.66 0 0 .66 29.24 29.24)"/></g></svg>