<svg xmlns="http://www.w3.org/2000/svg" viewBox="0 0 172 172" width="100px" height="100px"><g style="mix-blend-mode:normal" fill="none" stroke-miterlimit="10" font-family="none" font-size="none" font-weight="none" text-anchor="none"><path d="M0,172v-172h172v172z"/><path fill="#262a2c" d="M86,13.76c1.94844,0 3.77594,0.7525 5.14656,2.13656l64.95687,64.95687c2.84875,2.83531 2.84875,7.45781 0,10.29313l-64.95687,64.95687c-1.37063,1.38406 -3.19813,2.13656 -5.14656,2.13656c-1.94844,0 -3.77594,-0.7525 -5.14656,-2.13656l-64.95687,-64.95687c-2.84875,-2.83531 -2.84875,-7.45781 0,-10.29313l42.38187,-42.38187l7.82063,7.82062c-1.88125,6.9875 0.01344,14.60656 5.30781,19.90094c1.26312,1.26312 2.70094,2.35156 4.27312,3.25187v33.12344c-6.26187,3.61469 -10.32,10.34688 -10.32,17.83156c0,11.38156 9.25844,20.64 20.64,20.64c11.38156,0 20.64,-9.25844 20.64,-20.64c0,-7.48469 -4.05812,-14.21687 -10.32,-17.83156v-26.05531l4.17906,4.17906c-1.88125,6.9875 0.01344,14.60656 5.30781,19.90094c3.89687,3.89687 9.08375,6.04687 14.59312,6.04687c5.50938,0 10.69625,-2.15 14.59313,-6.04687c8.04906,-8.04906 8.04906,-21.13719 0,-29.18625c-3.88344,-3.88344 -9.03,-6.02 -14.52594,-6.02c-1.81406,0 -3.62812,0.24187 -5.375,0.71219l-9.19125,-9.19125c1.88125,-6.9875 -0.01344,-14.60656 -5.30781,-19.90094c-3.88344,-3.88344 -9.03,-6.02 -14.52594,-6.02c-1.81406,0 -3.62812,0.24187 -5.375,0.71219l-7.82062,-7.82063l7.98187,-7.98187c1.37063,-1.38406 3.19813,-2.13656 5.14656,-2.13656M86,6.88c-3.62812,0 -7.25625,1.38406 -10.01094,4.15219l-12.84625,12.84625l15.89656,15.89656c2.16344,-1.26312 4.59562,-1.90812 7.02781,-1.90812c3.49375,0 6.9875,1.33031 9.66156,4.00437c4.52844,4.52844 5.18688,11.40844 2.08281,16.67594l15.62781,15.62781c2.16344,-1.26312 4.59562,-1.90812 7.02781,-1.90812c3.49375,0 6.9875,1.33031 9.66156,4.00437c5.375,5.375 5.375,14.0825 0,19.4575c-2.6875,2.6875 -6.20812,4.03125 -9.72875,4.03125c-3.52062,0 -7.04125,-1.34375 -9.72875,-4.03125c-4.52844,-4.52844 -5.18687,-11.40844 -2.08281,-16.68937l-15.62781,-15.62781c-1.11531,0.65844 -2.29781,1.14219 -3.52063,1.45125v42.26094c5.92594,1.53188 10.32,6.86656 10.32,13.27625c0,7.60563 -6.15437,13.76 -13.76,13.76c-7.59219,0 -13.76,-6.15437 -13.76,-13.76c0,-6.40969 4.39406,-11.74437 10.32,-13.27625v-42.26094c-2.29781,-0.59125 -4.48812,-1.73344 -6.28875,-3.53406c-4.52844,-4.52844 -5.18687,-11.40844 -2.08281,-16.67594l-15.91,-15.91l-47.24625,47.24625c-5.53625,5.52281 -5.53625,14.49906 0,20.02187l64.95688,64.95688c2.75469,2.76812 6.38281,4.15219 10.01094,4.15219c3.62813,0 7.25625,-1.38406 10.01094,-4.15219l64.95688,-64.95688c5.53625,-5.52281 5.53625,-14.49906 0,-20.02187l-64.95688,-64.95688c-2.75469,-2.76812 -6.38281,-4.15219 -10.01094,-4.15219z"/></g></svg>