<svg xmlns="http://www.w3.org/2000/svg" viewBox="0 0 172 172" width="100px" height="100px"><g style="mix-blend-mode:normal" fill="none" stroke-miterlimit="10" font-family="none" font-size="none" font-weight="none" text-anchor="none"><path d="M0,172v-172h172v172z"/><path fill="#262a2c" d="M40.80801,14.96602c-0.67077,0.02362 -1.29204,0.3591 -1.67969,0.90703c-0.18705,0.24615 -0.31882,0.52975 -0.38633,0.83145l-30.00762,81.45225c-0.32977,0.89494 -0.03059,1.90016 0.73486,2.46914l74.80908,55.57246c0.41233,0.53109 1.04936,0.83872 1.72168,0.83144c0.04342,-0.00008 0.08684,-0.00149 0.13018,-0.0042c0.0042,0.00001 0.0084,0.00001 0.0126,0c0.62338,-0.03418 1.20113,-0.33761 1.58311,-0.83144l74.80488,-55.56826c0.76546,-0.56898 1.06463,-1.5742 0.73486,-2.46914l-30.01182,-81.46064c-0.19628,-0.85914 -0.89693,-1.51153 -1.76787,-1.64609c-0.09165,-0.01578 -0.18423,-0.0256 -0.27715,-0.02939c-0.0112,-0.00009 -0.0224,-0.00009 -0.03359,0c-0.0042,-0.00001 -0.0084,-0.00001 -0.0126,0c-0.007,-0.00003 -0.014,-0.00003 -0.02099,0c-1.03627,-0.00134 -1.92607,0.73664 -2.11641,1.75527l-17.77529,54.17412h-50.49981l-17.7249,-54.01875c-0.09782,-1.14098 -1.07272,-2.00509 -2.21719,-1.96523zM40.73242,23.73398l15.49092,47.21602h-32.88408zM131.26758,23.73398l17.39316,47.21602h-32.88408zM21.75195,75.25h35.88232l23.17129,70.61406c-0.52737,-0.04308 -1.06832,0.09452 -1.51172,0.44512c-0.18165,0.14321 -0.31011,0.32458 -0.43252,0.50811l-65.53721,-48.68574zM62.16103,75.25h47.67793l-23.83897,72.65488zM114.36572,75.25h35.88232l8.42783,22.88154l-64.90312,48.21543c-0.1371,-0.25822 -0.32317,-0.49289 -0.57109,-0.68447c-0.53181,-0.42148 -1.20147,-0.51755 -1.81826,-0.37373zM144.92344,77.71494c-0.54529,0.06719 -1.06643,0.3398 -1.43193,0.80205c-0.75465,0.9245 -0.58436,2.27984 0.34014,3.01084c0.38915,0.3225 0.8645,0.47451 1.33535,0.47451c0.645,0 1.26699,-0.28135 1.67549,-0.81885c0.7525,-0.9245 0.58016,-2.27934 -0.34434,-3.03184c-0.46118,-0.3655 -1.02941,-0.50391 -1.57471,-0.43672zM27.12275,77.76953c-0.54825,-0.0645 -1.11666,0.08382 -1.57891,0.44932c-0.9245,0.731 -1.09684,2.08164 -0.34434,3.02764c0.4085,0.5375 1.05199,0.81885 1.67549,0.81885c0.473,0 0.94415,-0.15201 1.33115,-0.47451c0.9245,-0.731 1.09633,-2.08214 0.36533,-3.00664c-0.37625,-0.473 -0.90048,-0.75015 -1.44873,-0.81465zM139.59043,84.46728c-0.54556,0.06719 -1.06643,0.3398 -1.43193,0.80205c-0.7525,0.9245 -0.58016,2.27984 0.34434,3.01084c0.40635,0.3225 0.856,0.47031 1.33115,0.47031c0.645,0 1.27068,-0.27715 1.70068,-0.81465c0.731,-0.946 0.55917,-2.30084 -0.36533,-3.03184c-0.46225,-0.3655 -1.03334,-0.50391 -1.57891,-0.43672zM32.49355,84.58486c-0.54556,-0.06181 -1.11246,0.08382 -1.57471,0.44932c-0.9245,0.731 -1.09633,2.08214 -0.36533,3.00664c0.43,0.5375 1.05148,0.81885 1.69648,0.81885c0.473,0 0.94415,-0.15251 1.33115,-0.45351c0.9245,-0.731 1.09684,-2.08164 0.34434,-3.02764c-0.3655,-0.46225 -0.88637,-0.73184 -1.43193,-0.79365zM134.25742,91.21543c-0.54529,0.06719 -1.06643,0.344 -1.43193,0.80625c-0.73315,0.92235 -0.58016,2.27349 0.34434,3.00664c0.41065,0.3225 0.8818,0.47451 1.33115,0.47451c0.645,0 1.27068,-0.28135 1.70068,-0.81885c0.731,-0.946 0.55917,-2.29664 -0.36533,-3.02764c-0.46118,-0.3655 -1.03361,-0.50811 -1.57891,-0.44092zM37.86855,91.3876c-0.54556,-0.06719 -1.11246,0.07542 -1.57471,0.44092c-0.9245,0.75035 -1.09633,2.08164 -0.36533,3.02764c0.43,0.5375 1.07298,0.81885 1.69648,0.81885c0.473,0 0.94415,-0.15416 1.33115,-0.47451c0.9245,-0.731 1.09684,-2.08214 0.34434,-3.00664c-0.3655,-0.46225 -0.88637,-0.73906 -1.43193,-0.80625zM128.92861,97.95938c-0.54825,0.06477 -1.06643,0.33852 -1.43193,0.81045c-0.731,0.9245 -0.58016,2.27984 0.34434,3.01084c0.40635,0.3225 0.87965,0.47451 1.33115,0.47451c0.645,0 1.26649,-0.28135 1.69649,-0.81885c0.731,-0.94385 0.58436,-2.30084 -0.34014,-3.03184c-0.473,-0.3655 -1.05165,-0.50989 -1.5999,-0.44512zM43.24775,98.19453c-0.54825,-0.06423 -1.11666,0.08382 -1.57891,0.44932c-0.9245,0.72885 -1.09633,2.07999 -0.36533,3.00664c0.43,0.5375 1.07298,0.81885 1.69648,0.81885c0.473,0 0.94415,-0.15251 1.33115,-0.45351c0.9245,-0.731 1.09633,-2.08214 0.36533,-3.00664c-0.37625,-0.47407 -0.90048,-0.75042 -1.44873,-0.81465zM123.59561,104.70752c-0.54825,0.06477 -1.06956,0.34165 -1.43613,0.81465c-0.731,0.92235 -0.57647,2.27564 0.36953,3.00664c0.387,0.32465 0.8603,0.47451 1.33115,0.47451c0.6235,0 1.24549,-0.28084 1.67549,-0.83984c0.731,-0.92235 0.58231,-2.27564 -0.34434,-3.00664c-0.47192,-0.36657 -1.04745,-0.51408 -1.5957,-0.44932zM48.61855,105.00986c-0.54556,-0.06181 -1.11246,0.08382 -1.57471,0.44932c-0.9245,0.72885 -1.09684,2.07999 -0.34434,3.00664c0.4085,0.5375 1.03049,0.81885 1.67549,0.81885c0.473,0 0.94415,-0.15251 1.33115,-0.45351c0.9245,-0.731 1.09684,-2.08379 0.34434,-3.02764c-0.3655,-0.46225 -0.88637,-0.73184 -1.43193,-0.79365zM118.2752,111.46406c-0.54556,0.06477 -1.06828,0.33852 -1.44453,0.81045c-0.731,0.92235 -0.58067,2.27564 0.36533,3.00664c0.38485,0.3225 0.86235,0.47451 1.33535,0.47451c0.6235,0 1.26699,-0.27715 1.67549,-0.81465c0.7525,-0.946 0.58016,-2.30084 -0.34434,-3.03184c-0.473,-0.3655 -1.04174,-0.50989 -1.5873,-0.44512zM53.99355,111.8042c-0.54556,-0.06423 -1.11246,0.08382 -1.57471,0.44932c-0.9245,0.75035 -1.09633,2.10099 -0.36533,3.02764c0.43,0.5375 1.05148,0.81885 1.69648,0.81885c0.473,0 0.94415,-0.15201 1.33115,-0.47451c0.9245,-0.731 1.09684,-2.08214 0.34434,-3.00664c-0.3655,-0.47407 -0.88637,-0.75042 -1.43193,-0.81465zM112.95059,118.21221c-0.54798,0.06477 -1.0756,0.33852 -1.45293,0.81045c-0.731,0.9245 -0.56132,2.27984 0.36533,3.01084c0.387,0.3225 0.8603,0.47236 1.33115,0.47451c0.6235,0 1.27334,-0.28135 1.67969,-0.81885c0.75465,-0.94385 0.58231,-2.29869 -0.34434,-3.03184c-0.46225,-0.3655 -1.03093,-0.50989 -1.57891,-0.44512zM59.36855,118.61953c-0.54556,-0.06423 -1.11246,0.08382 -1.57471,0.44932c-0.9245,0.731 -1.09633,2.08164 -0.36533,3.02764c0.43,0.5375 1.07298,0.81885 1.69648,0.81885c0.473,0 0.94415,-0.15416 1.33115,-0.47451c0.9245,-0.731 1.09684,-2.08214 0.34434,-3.00664c-0.3655,-0.47407 -0.88637,-0.75042 -1.43193,-0.81465zM107.62178,124.96455c-0.54556,0.0645 -1.06643,0.33745 -1.43193,0.81045c-0.7525,0.92235 -0.58016,2.27564 0.34434,3.00664c0.38485,0.32465 0.85815,0.47451 1.33115,0.47451c0.645,0 1.27068,-0.30234 1.70068,-0.83984c0.731,-0.92235 0.55497,-2.27564 -0.36953,-3.00664c-0.46225,-0.3655 -1.02914,-0.50962 -1.57471,-0.44512zM64.74775,125.42647c-0.54825,-0.0645 -1.11666,0.08146 -1.57891,0.45771c-0.9245,0.72885 -1.09684,2.07999 -0.34434,3.00664c0.4085,0.5375 1.05199,0.81885 1.67549,0.81885c0.473,0 0.94415,-0.15251 1.33115,-0.45351c0.9245,-0.7525 1.09633,-2.08379 0.36533,-3.02764c-0.37625,-0.46225 -0.90048,-0.73755 -1.44873,-0.80205zM102.28877,131.7127c-0.54529,0.06181 -1.06643,0.3314 -1.43193,0.79365c-0.75465,0.94385 -0.58436,2.29664 0.34014,3.02764c0.41065,0.301 0.88385,0.45352 1.33535,0.45352c0.64715,0 1.26864,-0.28135 1.69649,-0.81885c0.731,-0.9245 0.56132,-2.27564 -0.36533,-3.00664c-0.46118,-0.3655 -1.02941,-0.51113 -1.57471,-0.44932zM70.11855,132.2376c-0.54556,-0.06719 -1.11246,0.07542 -1.57471,0.44092c-0.9245,0.75035 -1.09633,2.08164 -0.36533,3.02764c0.43,0.5375 1.05148,0.81885 1.69648,0.81885c0.473,0 0.94415,-0.15416 1.33115,-0.47451c0.9245,-0.731 1.09684,-2.08214 0.34434,-3.00664c-0.3655,-0.46225 -0.88637,-0.73906 -1.43193,-0.80625zM96.95576,138.46084c-0.54556,0.06181 -1.06643,0.3314 -1.43193,0.79365c-0.731,0.946 -0.58016,2.30084 0.34434,3.03184c0.4085,0.29885 0.88385,0.45351 1.33535,0.45351c0.645,0 1.26648,-0.28135 1.69648,-0.81885c0.731,-0.92235 0.57852,-2.27769 -0.36533,-3.01084c-0.46225,-0.3655 -1.03334,-0.51113 -1.57891,-0.44932zM75.49355,139.04453c-0.54556,-0.06423 -1.11246,0.08382 -1.57471,0.44932c-0.9245,0.72885 -1.09633,2.07999 -0.36533,3.00664c0.43,0.559 1.05148,0.83984 1.69648,0.83984c0.473,0 0.94415,-0.15416 1.33115,-0.47451c0.9245,-0.731 1.09684,-2.08214 0.34434,-3.00664c-0.3655,-0.47407 -0.88637,-0.75042 -1.43193,-0.81465zM90.26221,148.69434c0.0449,0.05353 0.08349,0.10991 0.13437,0.15957l-0.24355,0.18057z"/></g></svg>