<svg xmlns="http://www.w3.org/2000/svg" viewBox="0 0 172 172" width="100px" height="100px"><g style="mix-blend-mode:normal" fill="none" stroke-miterlimit="10" font-family="none" font-size="none" font-weight="none" text-anchor="none"><path d="M0,172v-172h172v172z"/><path fill="#262a2c" d="M49.94271,21.5l-20.60417,37.17708l10.52604,18.8125l20.60417,-34.48958h73.45833l-12.09375,-21.5zM112.65104,50.16667l21.27604,35.16146l-36.28125,65.17188h24.1875l35.83333,-64.5l-19.93229,-35.83333zM86,57.33333c-15.81706,0 -28.66667,12.84961 -28.66667,28.66667c0,15.81706 12.84961,28.66667 28.66667,28.66667c15.81706,0 28.66667,-12.84961 28.66667,-28.66667c0,-15.81706 -12.84961,-28.66667 -28.66667,-28.66667zM25.30729,66.06771l-10.97396,19.93229l35.60938,64.5h39.64063l11.86979,-21.5h-41.20833zM86,71.66667c7.89453,0 14.33333,6.43881 14.33333,14.33333c0,7.89453 -6.4388,14.33333 -14.33333,14.33333c-7.89453,0 -14.33333,-6.4388 -14.33333,-14.33333c0,-7.89453 6.43881,-14.33333 14.33333,-14.33333z"/></g></svg>