<svg xmlns="http://www.w3.org/2000/svg" viewBox="0 0 172 172" width="100px" height="100px"><g style="mix-blend-mode:normal" fill="none" stroke-miterlimit="10" font-family="none" font-size="none" font-weight="none" text-anchor="none"><path d="M0,172v-172h172v172z"/><path fill="#262a2c" d="M92.01538,16.146c-8.04638,2.838 -10.06939,7.16731 -10.66602,11.09644c-2.07475,-1.47275 -1.82876,-6.29623 -1.96314,-7.5271c-2.04788,0.24725 -7.95869,5.97255 -7.68457,13.17505c-0.54825,0.13437 -1.07383,0.30066 -1.6167,0.46191c-1.77375,-2.40263 -6.84162,-8.59001 -13.46899,-10.71851c-2.16075,-0.61275 -4.37441,-0.97632 -6.52978,-0.97632c-7.912,0 -12.5754,4.72286 -12.62915,4.77661l-2.20459,2.56152l3.34888,0.66138c0.05375,0 5.6204,1.16948 7.91553,4.79761c0.38162,0.602 0.48551,1.79668 0.59839,3.07593c0.05375,0.76325 -0.10171,1.50559 -0.24146,2.21509c-0.1075,0.516 -0.22508,1.06333 -0.25195,1.6062c-2.10162,0.09137 -3.87663,0.50239 -5.32251,1.23877c-1.96188,1.0105 -3.29941,2.60864 -3.84229,4.62964c-1.36525,4.9665 3.05628,10.50939 3.2229,10.69751c0.516,0.92987 0.73671,7.58522 -0.46191,10.25659c-0.16125,0.38162 -0.60603,0.73453 -1.17578,1.19678c-0.1935,0.13438 -0.37801,0.30067 -0.59839,0.46192c-1.66625,1.25238 -4.20972,3.18821 -4.20972,7.57959c0,6.03075 6.11557,9.30816 11.02295,11.92578c0.817,0.43537 1.58495,0.84077 2.26758,1.24927c0.73638,0.43537 3.32788,3.11842 3.32788,7.12817c0,1.88125 -0.16906,10.82533 -1.01831,17.01733c-3.16587,-2.69825 -6.05788,-7.0609 -6.70825,-11.94678c0,0 -7.96533,6.16916 -5.61646,19.31641c1.419,8.04638 6.32512,12.57423 12.81812,14.91773c2.40263,5.20837 8.01958,12.46773 18.36108,13.53198c3.92912,3.21963 9.38752,5.31201 17.35327,5.31201h0.05249c7.93888,0 13.39727,-2.09239 17.35327,-5.31201c10.33613,-1.06425 15.95846,-8.32361 18.36108,-13.53198c6.493,-2.37576 11.37224,-6.87135 12.81812,-14.91773c2.236,-13.19562 -5.75293,-19.3374 -5.75293,-19.3374c-0.65574,4.8805 -3.54775,9.22216 -6.70825,11.92578c-0.84388,-6.192 -1.01832,-15.14658 -1.01832,-17.02783c0,-4.00975 2.59151,-6.67693 3.32788,-7.11768c0.68263,-0.4085 1.47745,-0.82439 2.26758,-1.25977c4.91275,-2.61763 11.02295,-5.88453 11.02295,-11.91528c0,-4.41825 -2.54347,-6.33234 -4.20972,-7.59009c-0.22037,-0.16125 -0.40489,-0.30067 -0.59839,-0.46192c-0.57512,-0.46225 -1.01453,-0.81515 -1.17578,-1.19678c-1.19862,-2.67137 -0.98329,-9.33209 -0.46191,-10.25659c0.16125,-0.16125 4.56127,-5.69901 3.2229,-10.68701c-0.54825,-2.021 -1.88553,-3.62964 -3.85278,-4.64014c-1.44588,-0.73637 -3.24776,-1.14765 -5.32251,-1.22827c-0.02688,-0.54825 -0.12858,-1.06333 -0.24146,-1.6062c-0.16125,-0.7095 -0.3057,-1.44134 -0.25195,-2.20459c0.1075,-1.28462 0.22726,-2.46293 0.60889,-3.08643c2.28975,-3.62813 7.85128,-4.79761 7.90503,-4.79761l3.35938,-0.65088l-2.21509,-2.59302c-0.02687,-0.05375 -4.71715,-4.77661 -12.62915,-4.77661c-2.15538,0 -4.36266,0.3613 -6.57178,1.0708c-6.6005,2.1285 -11.70574,8.31588 -13.47949,10.71851c-0.84387,-0.27412 -1.71639,-0.51449 -2.61401,-0.73486c-1.14487,-4.31075 2.45654,-10.50855 2.45654,-10.50855c0,0 -3.70329,-0.8144 -9.18579,4.14673c-0.70951,-1.77375 -2.21341,-5.58311 -0.49341,-10.14111zM50.13867,25.76221c1.66625,0 3.27573,0.24574 4.8291,0.73486c4.85363,1.58025 8.62721,6.32587 10.28809,8.75537c-0.43537,0.1935 -0.87151,0.37801 -1.31226,0.59839c-0.68262,0.32787 -1.34551,0.67994 -1.94214,1.00781c-0.7095,-1.47275 -2.2617,-3.73411 -5.64795,-6.10986c-2.26287,-1.58025 -4.96079,-2.42505 -7.85254,-2.42505c-0.91912,0.02688 -1.80079,0.13396 -2.45654,0.24146c-0.89762,-0.59662 -1.80163,-1.09398 -2.64551,-1.44873c1.3115,-0.54287 3.73512,-1.35425 6.73975,-1.35425zM121.82984,25.76221c2.99925,0 5.42824,0.8165 6.73974,1.36475c-0.84387,0.38162 -1.74789,0.86311 -2.64551,1.43823c-0.65575,-0.1075 -1.52541,-0.22046 -2.50903,-0.22046c-2.86488,0 -5.59017,0.84992 -7.83155,2.43555c-3.354,2.37575 -4.91157,4.61024 -5.64795,6.10986c-0.602,-0.35475 -1.22214,-0.67994 -1.93164,-1.00781c-0.43537,-0.22037 -0.85051,-0.41539 -1.29126,-0.60889c1.66625,-2.48325 5.43446,-7.22299 10.28808,-8.77637c1.5265,-0.48913 3.16823,-0.73486 4.8291,-0.73486zM122.73266,31.45215c-0.22037,0.27413 -0.43638,0.57571 -0.62988,0.87134c-0.89762,1.419 -1.0624,3.17285 -1.19678,4.8606c-0.13437,1.74688 -0.29916,3.39876 -1.19678,4.62964c-1.14487,0.22037 -2.20904,0.47124 -3.13891,0.74536c-0.62888,-0.84388 -1.52759,-1.91006 -2.86597,-3.05493c0.38162,-1.3115 1.50257,-4.39448 3.68482,-6.14136c1.5265,-1.17175 3.3225,-1.83002 5.3435,-1.91064zM49.23584,31.48364c2.021,0.08063 3.82288,0.71202 5.32251,1.91064c2.18225,1.72 3.30319,4.80374 3.68482,6.10986c-1.33838,1.14487 -2.26397,2.18418 -2.86597,3.05493c-0.92987,-0.24725 -1.98866,-0.52499 -3.13891,-0.74536c-0.89762,-1.19862 -1.02553,-2.85127 -1.16528,-4.59814c-0.13438,-1.69313 -0.30965,-3.4416 -1.20727,-4.8606c-0.1935,-0.301 -0.40951,-0.59721 -0.62988,-0.87134zM85.97901,35.74585c7.611,0 14.43448,1.44982 20.27173,4.3147c3.87538,1.88125 5.34653,3.32511 5.8894,4.11523c-9.27725,4.11725 -14.42305,12.60102 -14.4768,12.68164l-0.96582,1.58521l1.53272,-1.0603c0,0 0.05123,-0.03023 0.10498,-0.08398c2.37575,-1.85437 10.64199,-8.13271 17.48974,-10.28808c1.90812,-0.602 5.61646,-1.6377 8.97583,-1.6377c1.72,0 3.07786,0.28185 4.11523,0.79785c0.95675,0.48912 1.55254,1.19073 1.82666,2.12061c0.68263,2.48325 -1.6639,6.17353 -2.56153,7.26465c-0.13438,0.16124 -0.24943,0.35114 -0.35693,0.59839c-0.08062,-1.25238 -0.13773,-2.5879 -0.08398,-3.92627c-1.09112,2.40263 -1.76736,8.59269 -1.38574,11.72632c0.98363,7.99263 4.28321,12.08325 4.28321,12.08325c-0.22038,-0.43538 -0.48761,-2.10087 -0.73486,-4.06274c0.1935,0.16125 0.40489,0.32166 0.59839,0.48291l0.13648,0.11548c1.25238,1.0105 2.42504,1.93408 2.42504,4.96558c0,3.87538 -4.20434,6.1322 -8.24097,8.31445c-0.79013,0.4085 -1.5522,0.84077 -2.28857,1.24927c-2.37575,1.36525 -4.91141,4.55976 -5.20703,9.33276c-0.24725,3.98288 0.2517,13.61765 0.93433,20.71265c-3.38088,1.3115 -7.28648,1.74016 -10.83398,1.84766c-0.54825,-1.118 -1.06585,-2.31159 -1.50122,-3.56934c-0.1935,-0.54825 -5.34729,-13.94384 -7.20166,-16.97534c1.49962,10.63712 4.77493,20.10183 6.4143,24.43945c-0.95675,-0.13438 -1.98741,-0.18896 -3.19141,-0.18896h-31.92456c-1.19862,0 -2.26153,0.07609 -3.19141,0.18896c1.63938,-4.33763 4.94155,-13.80233 6.4143,-24.43945c-1.85438,3.053 -7.00816,16.45397 -7.20166,16.97534c-0.43538,1.25238 -0.95834,2.45134 -1.50122,3.56934c-3.5475,-0.1075 -7.42086,-0.54153 -10.83398,-1.84766c0.68263,-7.095 1.1762,-16.7029 0.93433,-20.71265c-0.24725,-4.7515 -2.81566,-7.97289 -5.18604,-9.33276c-0.73638,-0.43537 -1.52532,-0.84077 -2.28857,-1.24927c-4.0635,-2.18225 -8.24097,-4.43908 -8.24097,-8.31445c0,-3.02612 1.1778,-3.98195 2.43555,-4.96558l0.13647,-0.11548c0.1935,-0.16125 0.37801,-0.32166 0.59839,-0.48291c-0.24725,1.96188 -0.51449,3.62737 -0.73486,4.06274c0,0 3.29958,-4.09062 4.2832,-12.08325c0.38162,-3.139 -0.30512,-9.35595 -1.39624,-11.72632c0.05375,1.33838 0.00714,2.66852 -0.07349,3.92627c-0.1075,-0.22038 -0.22256,-0.43177 -0.35693,-0.59839c-0.87075,-1.09113 -3.21727,-4.7814 -2.56152,-7.26465c0.24725,-0.95675 0.84304,-1.63148 1.82666,-2.12061c1.03737,-0.516 2.40061,-0.79785 4.11523,-0.79785c3.354,0 7.06233,1.00882 8.97583,1.6377c6.84775,2.18225 15.10887,8.43371 17.47925,10.28808c0.05375,0.05375 0.11548,0.08398 0.11548,0.08398l1.52222,1.0603l-0.95532,-1.58521c-0.05375,-0.08063 -5.20418,-8.56439 -14.5083,-12.68164c0.54825,-0.79013 2.01941,-2.20711 5.8894,-4.11523c5.83726,-2.86488 12.67711,-4.3147 20.26123,-4.3147zM78.52539,62.55786c0.01075,0 3.97112,4.79635 7.43262,4.8501h0.05249c3.46688,-0.02688 7.42212,-4.8501 7.42212,-4.8501c-2.69824,1.63938 -5.13161,2.20333 -7.45361,2.25708c-2.31663,-0.05375 -4.74999,-0.62308 -7.45361,-2.25708zM52.75269,62.9043c-1.33931,0.03063 -2.72924,0.19786 -4.16772,0.5459c1.16564,0.2727 2.41792,0.66429 3.66382,1.12329c-1.15025,0.54825 -1.78139,1.93189 -1.92114,3.26489c-0.301,2.7305 1.42773,5.21753 1.42773,5.21753c0.1935,-2.04788 0.59217,-3.50316 1.0813,-4.53516c0.1075,2.81112 0.87285,6.42002 3.49585,9.31177c1.88125,2.07475 9.71859,6.35107 14.98071,1.65869c0.27412,0.65575 0.57697,1.44932 0.81885,2.32007c0.79013,2.81113 -0.74536,6.90771 -0.74536,6.90771c0,0 4.11767,-4.67297 3.78979,-8.87085c2.9455,-0.13437 5.84405,-2.29101 5.76343,-5.32251c0,0 -5.15858,2.84707 -9.6897,-2.39355c-2.31394,-2.67137 -9.12239,-9.44222 -18.49756,-9.22778zM119.20532,62.95679c-9.3906,-0.21539 -16.17312,6.5517 -18.48706,9.22778c-4.558,5.23525 -9.6897,2.40405 -9.6897,2.40405c-0.05375,2.97237 2.83892,5.14665 5.78442,5.25952c-0.32788,4.23013 3.78979,8.87085 3.78979,8.87085c0,0 -1.52499,-4.09659 -0.73486,-6.90771c0.24725,-0.87075 0.5501,-1.64281 0.81885,-2.32007c5.2675,4.71926 13.09484,0.41606 14.94922,-1.65869c2.61763,-2.89175 3.3456,-6.50064 3.48535,-9.31177c0.48912,1.03737 0.93055,2.49266 1.0918,4.53516c0,0 1.75561,-2.4924 1.42773,-5.21753c-0.16125,-1.36525 -0.79264,-2.72328 -1.91064,-3.2124h-0.0315c1.25238,-0.48913 2.51307,-0.87604 3.68482,-1.12329c-1.44252,-0.34803 -2.83671,-0.51513 -4.17822,-0.5459zM58.0542,67.35547c5.32125,2.99925 10.20335,7.00337 12.25122,10.08862c-1.55338,0.89763 -5.92157,2.83834 -10.37207,-0.46191c-2.81113,-2.07475 -2.67465,-7.14346 -1.87915,-9.62671zM113.9143,67.35547c0.817,2.48325 0.93786,7.55658 -1.90014,9.6582c-4.44512,3.30025 -8.7872,1.36029 -10.34058,0.43042c2.0425,-3.11213 6.92484,-7.08937 12.24072,-10.08862zM42.08667,110.46045c2.97237,9.38475 12.88035,12.0762 20.30322,12.3772c-0.73638,1.14487 -1.42152,2.07374 -1.91065,2.72949l-0.37793,0.38843c-1.96188,2.1285 -2.34879,5.04326 -1.12329,8.67139c-6.192,-0.03225 -12.62655,-2.677 -15.87305,-8.052c-3.30025,-5.45562 -2.38356,-14.75463 -1.01831,-16.1145zM129.91333,110.48145c1.35987,1.37062 2.28782,10.66475 -1.03931,16.0935c-3.27338,5.375 -9.7138,7.99699 -15.85205,8.10449c1.2255,-3.62813 0.83858,-6.58026 -1.12329,-8.68189c-0.1075,-0.13438 -0.24355,-0.27505 -0.37793,-0.40942c-0.48913,-0.65575 -1.17427,-1.57924 -1.91065,-2.72949c7.4175,-0.32788 17.33085,-2.99245 20.30322,-12.3772zM69.78052,126.19702h32.40747c4.11725,0 5.945,1.06551 6.70825,1.96313c1.14487,1.3115 1.2197,3.43395 0.24146,6.29883c-1.79525,5.12775 -6.62519,17.63084 -23.15869,17.65771c-16.5335,-0.02687 -21.35807,-12.49771 -23.15869,-17.65771c-1.0105,-2.86488 -0.92517,-4.96583 0.25195,-6.29883c0.79013,-0.89763 2.591,-1.96313 6.70825,-1.96313zM94.77636,130.34375c-1.14487,0 -1.96792,0.24574 -2.43554,0.73486c-0.602,0.62887 -0.40271,1.41816 -0.24146,1.82666c0.27412,0.70951 1.50046,3.0824 3.54834,5.27002c0.73637,0.79012 1.79332,1.22827 2.99194,1.22827c1.19863,0 2.37903,-0.43479 3.2229,-1.14429c0.62888,-0.54825 2.78593,-2.51508 3.7373,-4.94458c0.35475,-0.89763 0.26942,-1.6361 -0.25195,-2.1521c-0.34937,-0.35475 -1.08877,-0.79197 -2.56152,-0.81885zM69.23462,130.37524c-1.49963,0 -2.23826,0.43261 -2.59301,0.78736c-0.51601,0.54825 -0.59621,1.28009 -0.24146,2.20459c0.95675,2.48325 3.1138,4.50593 3.7373,5.08105c0.84387,0.73638 2.04065,1.16528 3.2124,1.16528c1.19862,0 2.26607,-0.45914 3.00244,-1.24926c2.04788,-2.23601 3.24734,-4.67012 3.54834,-5.4065c0.16125,-0.4085 0.35005,-1.21878 -0.25195,-1.84766c-0.48375,-0.4945 -1.27555,-0.73486 -2.39355,-0.73486zM55.57666,138.44824c1.63938,0.30101 3.32368,0.51113 5.07055,0.65088c0.95675,2.18225 2.01588,4.33695 3.34888,6.29883c-3.92912,-1.60712 -6.64568,-4.35896 -8.41943,-6.94971zM116.40234,138.44824c-1.77375,2.59076 -4.5008,5.34258 -8.42993,6.94971c1.33838,-1.96188 2.408,-4.11658 3.35938,-6.29883c1.74687,-0.13438 3.43118,-0.34987 5.07055,-0.65088z"/></g></svg>