<svg xmlns="http://www.w3.org/2000/svg" viewBox="0 0 172 172" width="100px" height="100px"><g style="mix-blend-mode:normal" fill="none" stroke-miterlimit="10" font-family="none" font-size="none" font-weight="none" text-anchor="none"><path d="M0,172v-172h172v172z"/><path fill="#262a2c" d="M119.07935,5.375c-0.21912,0.00848 -0.38969,0.06962 -0.50391,0.17847l-19.96729,23.71509l-4.07324,14.00439c-2.76813,-0.09137 -5.62653,-0.12598 -8.55591,-0.12598c-20.75288,0 -37.60401,2.19846 -37.60401,4.92358c0,6.50375 75.19751,6.50375 75.19751,0c0,-2.01562 -9.00228,-3.71841 -21.98291,-4.52466l3.2229,-11.52686l18.67602,-22.46582l0.0315,-0.03149c0.41925,-0.43537 -0.39918,-1.74209 -1.73218,-2.88696c-0.99975,-0.86269 -2.05115,-1.28521 -2.70849,-1.25977zM93.0022,48.78442l-0.07349,0.22046c-0.03225,0.02688 -0.03149,0.06223 -0.03149,0.09448c0,0.40313 1.62795,0.73486 3.61133,0.73486c1.98337,0 3.62183,-0.33174 3.62183,-0.73486l0.06299,-0.25195c0.52138,0.18812 0.80835,0.40363 0.80835,0.65088c0,0.65038 -2.01453,1.18166 -4.52466,1.15478c-2.44025,0 -4.46167,-0.49391 -4.46167,-1.14429c0,-0.2795 0.40094,-0.53624 0.98681,-0.72437zM123.15259,50.63208c-9.94913,5.30513 -64.29743,5.34099 -74.28418,0.07349l4.41968,38.87427c1.91887,-6.19737 6.77183,-14.56432 13.01758,-17.10132c2.04788,-0.8385 4.12724,-0.83455 6.07837,0.28345c1.69312,0.92987 3.12464,2.87932 3.28589,3.65332c0.39238,2.01563 -0.6476,2.81347 -1.45923,2.81347c-0.97825,0 -1.72597,-1.41858 -2.21509,-2.25708c-1.333,-2.26287 -3.35097,-2.36021 -5.50097,-0.87134c-2.24675,1.548 -4.19871,4.15143 -5.56396,6.4143c-1.66088,2.72512 -3.0614,5.72976 -3.90528,8.73438c-0.48912,1.73613 -0.93609,4.51761 -0.18896,6.16236c0.32787,0.68262 0.81095,1.11279 1.5957,1.11279c1.62862,0 3.99404,-2.04267 5.13354,-3.12842c1.462,-1.39213 3.34787,-3.56295 4.06274,-4.95508l1.70069,-4.79761c0.84387,-2.107 3.2124,-1.73613 3.2124,0c0,3.1605 -1.19602,4.214 -3.2439,10.75c-1.88663,6.0415 -2.47754,7.99951 -2.47754,7.99951c-0.22575,0.86538 -1.1065,2.32007 -2.04712,2.32007c-0.39238,0 -0.67859,-0.13068 -0.83984,-0.37793c-0.32787,-0.43537 -0.2947,-1.63039 -0.26245,-1.94214c0.0645,-0.989 2.04468,-6.88067 2.37256,-7.81055c-0.65037,0.68262 -1.33148,1.36987 -2.07861,2.04712c-1.75763,1.58025 -4.5837,3.65332 -6.9917,3.65332c-1.10725,0 -1.81591,-0.28311 -2.49853,-0.74536l2.46704,24.65991c0.65038,1.548 12.75429,5.30151 28.69116,5.30151c15.96912,0 28.06254,-3.78039 28.68066,-5.30151l3.54834,-29.30005c-1.85438,1.6125 -3.99656,3.59864 -6.37231,4.58764c-1.75763,0.71488 -5.65845,1.17133 -5.65845,-1.77417c0,-1.6125 2.96213,-4.58101 4.68213,-6.65576c0.45687,-0.52675 1.52222,-1.82641 1.52222,-2.50903c0,-0.89763 -1.94592,-0.69027 -3.80029,0.76636c-1.04275,0.8385 -2.02285,1.95944 -2.83447,3.01294c-1.3975,1.85975 -2.14286,3.46461 -2.76099,4.79761c-2.01562,4.39675 -1.33182,2.66373 -2.96045,6.81323c-1.62862,4.12262 -1.36231,3.65307 -1.69018,4.3357c-0.29025,0.59125 -0.71589,1.08987 -1.30176,1.39624c-0.61813,0.31175 -1.46275,0.27639 -1.98413,-0.09449c-0.29025,-0.18812 -0.43042,-0.59066 -0.43042,-1.14428c0,-0.2795 0.04048,-0.56034 0.10498,-0.83984c0.48913,-1.892 2.53809,-5.60378 4.88159,-10.62403c0.52138,-1.14487 0.32183,-0.80524 0.25195,-0.71386c-2.01562,1.85975 -3.54801,2.7599 -4.68213,3.2544c-1.88662,0.80625 -4.22987,0.80449 -4.71362,-1.27026c-0.03225,-0.12363 -0.03074,-0.25431 -0.06299,-0.37793c-3.83775,2.84875 -7.90116,3.62384 -6.49829,-2.50903c-1.49425,2.54237 -4.10339,4.61914 -7.29614,4.61914c-1.333,0 -2.30873,-0.42983 -2.79248,-1.57471c-0.74712,-1.70387 0.42109,-4.62275 1.49072,-7.38012c0.55362,-1.39213 1.30957,-3.06694 2.32007,-5.01807c0.52138,-1.0535 1.35979,-1.67574 2.46704,-1.39624c0.19349,0.0645 0.36365,0.12909 0.5249,0.22046c0.84387,0.559 0.51911,1.38708 0.09448,2.22558c-1.23625,2.322 -2.30856,4.02705 -3.02344,6.4458c-0.29025,1.02125 -0.65659,2.79248 0.48291,2.79248c0.77938,0 1.52633,-0.25086 2.24658,-0.74536c1.49425,-1.0535 2.69758,-2.63022 3.61133,-4.17822c0.65037,-1.11263 1.43429,-2.56917 1.82666,-3.81079c0.16125,-0.52675 0.36214,-1.02309 0.58789,-1.49072c0.36012,-0.77399 0.84093,-1.5747 1.69018,-1.5747c0.42463,0 0.77594,0.15554 1.03931,0.46191c0.55362,0.68263 0.4321,1.38398 0.13647,2.13111c-0.65038,1.73613 -1.52633,3.28891 -2.24658,5.17553c-0.42462,1.08575 -0.88183,2.47695 -0.88183,3.62183c0,1.0535 1.20459,0.80281 2.21509,0.36744c0.77938,-0.33862 1.55934,-0.85899 2.21509,-1.38574c0.39238,-1.51575 0.2884,-1.18057 8.5874,-21.13256c0.42463,-1.02125 1.20476,-1.45923 1.98413,-1.45923c0.39238,0 0.71143,0.13143 1.0393,0.34643c0.55363,0.40313 0.56169,1.26027 0.33594,1.91065c-0.22575,0.59125 -0.20123,0.40565 -1.46972,3.2544c-1.69313,3.74638 -2.79408,6.44916 -4.29371,9.88916c-0.61813,1.42437 -2.50147,5.85421 -2.82397,6.90771c-0.1935,0.68262 -0.42706,1.79516 0.32544,1.79516c1.75763,0 6.28035,-4.06065 7.5166,-5.27002c0.0645,-0.09137 0.16495,-0.12446 0.29395,-0.18896c0.1935,-0.59125 0.38465,-1.14168 0.5459,-1.70068c0.45688,-1.17713 0.88293,-2.5496 1.73218,-3.50635c0.258,-0.31175 0.54884,-0.49341 0.87134,-0.49341c0.90838,0 1.36474,0.36802 1.36474,1.23877c0,0.33862 -0.22256,1.58252 -0.35693,1.92114c0.45688,-0.46225 0.93786,-0.92349 1.45923,-1.38574c4.88051,-4.30538 8.35645,-2.10852 8.35645,0.06298c0,2.28975 -2.89166,5.47528 -4.48266,7.24365c-0.52137,0.59125 -1.59495,1.67238 -1.6272,1.98413c0,0.40313 0.28924,0.5669 0.71387,0.5669c0.65038,0 2.08214,-1.08835 2.60352,-1.45923c1.62862,-1.20938 3.83187,-3.06644 5.39599,-4.36719zM58.74707,129.16797l4.85009,7.87354l1.88965,24.59692c0,2.75737 9.20393,4.98657 20.52368,4.98657c11.31975,0 20.52368,-2.2292 20.52368,-4.98657l1.50122,-24.84888l4.57715,-7.62158c-12.88387,5.17613 -40.46023,5.35888 -53.86548,0z"/></g></svg>