<svg xmlns="http://www.w3.org/2000/svg" viewBox="0 0 172 172" width="100px" height="100px"><g style="mix-blend-mode:normal" fill="none" stroke-miterlimit="10" font-family="none" font-size="none" font-weight="none" text-anchor="none"><path d="M0,172v-172h172v172z"/><path fill="#262a2c" d="M41.28,6.88c-9.46,0 -17.2,7.74 -17.2,17.2v123.84c0,9.46 7.74,17.2 17.2,17.2h96.32c9.46,0 17.2,-7.74 17.2,-17.2v-123.84c0,-9.46 -7.74,-17.2 -17.2,-17.2zM41.28,13.76h96.32c5.73781,0 10.32,4.58219 10.32,10.32v123.84c0,5.73781 -4.58219,10.32 -10.32,10.32h-96.32c-5.73781,0 -10.32,-4.58219 -10.32,-10.32v-123.84c0,-5.73781 4.58219,-10.32 10.32,-10.32zM73.6375,30.96l-16.985,0.1075c0,0 0.01344,55.83281 0.1075,55.5775c52.07031,-20.26375 48.16,-5.9125 48.16,-5.9125v60.0925h16.34v-59.8775c0,-32.98906 -47.6225,-14.19 -47.6225,-14.19zM108.8975,31.0675c0,0 -5.87219,13.55844 -12.3625,21.5h18.06c9.79594,-12.685 13.0075,-21.5 13.0075,-21.5zM56.975,106.5325v34.185l17.0925,-17.0925z"/></g></svg>