<svg xmlns="http://www.w3.org/2000/svg" viewBox="0 0 172 172" width="100px" height="100px"><g style="mix-blend-mode:normal" fill="none" stroke-miterlimit="10" font-family="none" font-size="none" font-weight="none" text-anchor="none"><path d="M0,172v-172h172v172z"/><path fill="#262a2c" d="M18.1675,6.88c-1.77375,0.3225 -2.99656,1.97531 -2.795,3.7625l12.1475,135.665c0.16125,1.38406 1.14219,2.52625 2.4725,2.9025l55.04,15.8025c0.63156,0.18813 1.30344,0.18813 1.935,0l55.04,-15.8025c1.33031,-0.37625 2.31125,-1.51844 2.4725,-2.9025l12.1475,-135.665c0.09406,-0.9675 -0.22844,-1.92156 -0.88687,-2.64719c-0.65844,-0.71219 -1.58563,-1.11531 -2.55313,-1.11531h-134.375c-0.1075,0 -0.215,0 -0.3225,0c-0.1075,0 -0.215,0 -0.3225,0zM22.575,13.76h126.85l-11.5025,129.5375l-51.9225,14.7275l-51.9225,-14.7275zM43.1075,34.615c-1.77375,0.3225 -2.99656,1.97531 -2.795,3.7625l4.6225,50.8475c0.1075,1.77375 1.55875,3.17125 3.3325,3.225h54.9325l-1.505,15.8025l-15.5875,3.3325l-15.8025,-3.3325l-0.5375,-5.59c-0.1075,-1.81406 -1.62594,-3.225 -3.44,-3.225h-16.77c-0.9675,0 -1.89469,0.40313 -2.55312,1.11531c-0.65844,0.72562 -0.98094,1.67969 -0.88688,2.64719l1.935,21.07c0.1075,1.38406 1.03469,2.58 2.365,3.01l34.185,10.4275l0.43,0.1075c0.63156,0.18813 1.30344,0.18813 1.935,0l34.615,-10.535c1.37063,-0.38969 2.35156,-1.58562 2.4725,-3.01l4.515,-51.7075c0.09406,-0.95406 -0.215,-1.89469 -0.84656,-2.60687c-0.63156,-0.71219 -1.53187,-1.12875 -2.48594,-1.15563h-58.5875l-0.86,-10.6425h60.9525c1.78719,0.01344 3.27875,-1.34375 3.44,-3.1175l1.505,-16.6625c0.09406,-0.9675 -0.22844,-1.92156 -0.88687,-2.64719c-0.65844,-0.71219 -1.58563,-1.11531 -2.55313,-1.11531h-84.495c-0.215,-0.02687 -0.43,-0.02687 -0.645,0zM47.515,41.495h76.97l-0.86,9.7825h-61.5975c-0.9675,0 -1.89469,0.40313 -2.55312,1.11531c-0.65844,0.72562 -0.98094,1.67969 -0.88688,2.64719l1.6125,17.5225c0.16125,1.73344 1.59906,3.07719 3.3325,3.1175h57.9425l-4.085,45.6875l-31.39,9.46l-31.39,-9.46l-1.29,-15.05h9.89l0.43,5.0525c0.1075,1.51844 1.19594,2.78156 2.6875,3.1175l19.135,3.9775c0.45688,0.09406 0.94063,0.09406 1.3975,0l18.8125,-3.9775c1.49156,-0.33594 2.58,-1.59906 2.6875,-3.1175l2.0425,-22.145c0.05375,-0.95406 -0.28219,-1.88125 -0.92719,-2.56656c-0.65844,-0.69875 -1.55875,-1.08844 -2.51281,-1.08844h-55.5775z"/></g></svg>