<svg xmlns="http://www.w3.org/2000/svg" viewBox="0 0 172 172" width="100px" height="100px"><g style="mix-blend-mode:normal" fill="none" stroke-miterlimit="10" font-family="none" font-size="none" font-weight="none" text-anchor="none"><path d="M0,172v-172h172v172z"/><path fill="#262a2c" d="M18.79906,6.88c-0.96614,-0.00003 -1.88776,0.40619 -2.53956,1.11933c-0.6518,0.71315 -0.9737,1.66749 -0.887,2.62973l12.10719,135.62469c0.12573,1.4175 1.11121,2.61129 2.47922,3.00328l55.07359,15.7286c0.61701,0.17606 1.27096,0.17606 1.88797,0l55.12735,-15.7286c1.36801,-0.39199 2.35349,-1.58578 2.47922,-3.00328l12.10047,-135.62469c0.0867,-0.96224 -0.2352,-1.91659 -0.887,-2.62973c-0.6518,-0.71315 -1.57342,-1.11936 -2.53956,-1.11933zM22.56156,13.76h126.87687l-11.54953,129.53078l-51.90906,14.81485l-51.85531,-14.81485zM65.36,34.4c-1.89978,0.00019 -3.43981,1.54022 -3.44,3.44v64.08344l-19.71953,-5.46234c-1.03537,-0.28738 -2.14554,-0.07451 -3.00118,0.57546c-0.85564,0.64997 -1.35846,1.66238 -1.35929,2.73689v17.01188c0.00112,1.5445 1.03138,2.89896 2.51953,3.31234l37.84,10.49469c1.03537,0.28738 2.14554,0.07451 3.00118,-0.57546c0.85564,-0.64997 1.35846,-1.66238 1.35929,-2.73689v-89.44c-0.00019,-1.89978 -1.54022,-3.43981 -3.44,-3.44zM92.88,34.4c-1.89978,0.00019 -3.43981,1.54022 -3.44,3.44v58.48c-0.00076,1.01505 0.44676,1.97862 1.22281,2.63289c0.77605,0.65427 1.80142,0.93244 2.80172,0.76008l19.77328,-3.4064l-0.40985,6.0939l-20.86172,5.73781c-1.49081,0.41087 -2.5243,1.76595 -2.52625,3.31235v15.82937c-0.00068,1.07414 0.50036,2.08695 1.35458,2.73817c0.85422,0.65121 1.96358,0.86608 2.99917,0.5809l34.4,-9.46c1.38765,-0.38286 2.39022,-1.58917 2.51281,-3.02344l3.62812,-42.14c0.09012,-1.04457 -0.301,-2.07322 -1.06237,-2.79404c-0.76137,-0.72081 -1.80987,-1.0551 -2.84795,-0.908l-20.34437,2.88234v-20.11594h22.89078c1.78493,-0.00053 3.27301,-1.36606 3.42656,-3.14437l1.18922,-13.76c0.0827,-0.96003 -0.24099,-1.91074 -0.89234,-2.62083c-0.65135,-0.7101 -1.57064,-1.11449 -2.53422,-1.11479zM68.8,41.28h6.88v81.47828l-30.96,-8.58656v-9.87656l19.71953,5.46906c1.03537,0.28738 2.14554,0.07451 3.00118,-0.57546c0.85564,-0.64997 1.35846,-1.66238 1.35929,-2.73689zM96.32,41.28h34.09094l-0.59797,6.88h-23.17297c-1.89978,0.00019 -3.43981,1.54022 -3.44,3.44v27.52c-0.00006,0.99681 0.43223,1.94464 1.18496,2.59811c0.75272,0.65348 1.75187,0.94835 2.73879,0.80829l19.98828,-2.83531l-3.05703,35.44812l-27.735,7.62578v-8.68735l20.69375,-5.69078c1.4099,-0.38803 2.42045,-1.62494 2.51953,-3.0839l0.86,-12.9c0.07092,-1.05292 -0.34533,-2.08015 -1.12921,-2.78669c-0.78388,-0.70654 -1.84868,-1.01423 -2.8886,-0.83471l-20.05547,3.45344z"/></g></svg>