<svg xmlns="http://www.w3.org/2000/svg" viewBox="0 0 172 172" width="100px" height="100px"><g style="mix-blend-mode:normal" fill="none" stroke-miterlimit="10" font-family="none" font-size="none" font-weight="none" text-anchor="none"><path d="M0,172v-172h172v172z"/><path fill="#262a2c" d="M30.6375,6.88c-12.94031,0 -23.435,10.88438 -23.435,23.7575c0,9.98406 6.42313,18.54375 15.8025,21.5c-2.41875,11.73094 0.63156,24.49656 9.675,33.54l0.645,0.645l-0.43,0.215l-0.3225,0.215l-0.215,0.215c-8.76125,8.76125 -12.13406,21.02969 -10.2125,32.465c-8.84187,3.62813 -15.265,11.83844 -15.265,21.93c0,12.87313 10.535,23.7575 23.7575,23.7575c10.09156,0 18.36906,-6.45 21.715,-15.5875c11.32781,1.84094 23.27375,-1.47812 32.25,-10.105v-0.1075l0.3225,-0.3225l0.7525,0.645c9.04344,9.04344 21.90313,12.38938 33.97,9.675c3.21156,9.16438 11.70406,15.8025 22.0375,15.8025c12.87313,0 23.7575,-10.535 23.7575,-23.7575v-0.1075c-0.36281,-10.73656 -7.75344,-19.29625 -17.63,-22.145c1.78719,-11.2875 -1.55875,-23.05875 -10.2125,-31.7125l-0.645,-0.7525l0.3225,-0.3225c9.01656,-9.01656 12.01313,-21.47312 9.89,-33.11c9.89,-2.86219 17.3075,-11.46219 17.3075,-22.2525c0,-12.87312 -10.535,-23.7575 -23.7575,-23.7575c-10.76344,0 -19.36344,7.36375 -22.2525,17.2c-11.70406,-2.37844 -24.16062,0.95406 -33.4325,9.89l-0.645,-0.5375c-0.04031,-0.04031 -0.06719,-0.06719 -0.1075,-0.1075c-8.39844,-8.66719 -20.22344,-11.66375 -31.39,-10.105c-2.91594,-9.675 -11.77125,-16.6625 -22.2525,-16.6625zM30.6375,13.76c8.31781,0 15.42625,5.97969 16.555,13.8675l0.5375,3.655l3.5475,-0.7525c9.95719,-2.17687 20.81469,0.29563 28.165,7.955v0.1075l0.3225,0.3225l-9.89,9.89l-0.3225,-0.3225c-6.15437,-6.15437 -16.31312,-6.15437 -22.4675,0c-6.15437,6.15438 -6.15437,16.20563 0,22.36l0.215,0.215l0.7525,0.645l-0.215,0.215l17.2,17.2l2.365,2.4725l0.3225,-0.43l12.3625,12.3625l-9.89,9.9975l-15.1575,-15.1575l-14.7275,-14.835l-0.86,-0.7525l-1.935,-1.935c-8.00875,-8.00875 -10.49469,-19.83375 -7.4175,-29.9925l1.1825,-3.7625l-3.9775,-0.645c-7.94156,-1.12875 -13.2225,-7.72656 -13.2225,-15.8025c0,-9.15094 7.48469,-16.8775 16.555,-16.8775zM140.7175,14.0825c9.47344,0 16.8775,7.72656 16.8775,16.8775c0,8.64031 -6.26187,15.39938 -14.62,16.555l-3.87,0.5375l1.075,3.7625c2.78156,10.22594 0.29563,21.63438 -7.74,29.67l-0.3225,0.3225l-9.9975,-9.89l0.3225,-0.3225c6.15438,-6.15437 6.15438,-16.31312 0,-22.4675c-6.15437,-6.15437 -16.20562,-6.15437 -22.36,0l-2.795,2.795l-14.7275,14.835l-2.4725,2.365l0.1075,0.1075l-12.3625,12.255l-10.105,-9.9975l14.5125,-14.7275l14.835,-14.7275l2.6875,-2.795c8.43875,-8.12969 19.87406,-10.80375 29.9925,-7.74l3.87,1.1825l0.5375,-3.9775c1.15563,-8.35812 7.91469,-14.62 16.555,-14.62zM58.265,50.74c2.29781,0 4.59563,0.83313 6.3425,2.58l0.7525,0.7525l-12.5775,12.685l-0.86,-0.7525l-0.1075,-0.1075c-3.37281,-3.49375 -3.34594,-9.12406 0.1075,-12.5775c1.74688,-1.74687 4.04469,-2.58 6.3425,-2.58zM111.2625,51.385c2.29781,0 4.59563,0.94063 6.3425,2.6875c3.48031,3.48031 3.48031,9.20469 0,12.685l-0.215,0.3225l-12.685,-12.685l0.215,-0.3225c1.74688,-1.74687 4.04469,-2.6875 6.3425,-2.6875zM99.76,59.2325l12.685,12.685l2.4725,2.365l14.2975,14.405l3.5475,3.5475c7.75344,7.75344 10.52156,18.53031 8.0625,28.38l-0.9675,3.655l3.7625,0.5375c8.33125,1.14219 14.60656,7.90125 14.9425,16.555c0,0.04031 0,0.06719 0,0.1075c-0.05375,9.41969 -7.76687,16.77 -16.8775,16.77c-8.39844,0 -15.14406,-5.68406 -16.555,-13.33l-0.645,-3.87l-3.7625,1.1825c-10.36031,3.35938 -21.95687,0.67188 -29.9925,-7.2025l-0.86,-0.86l9.89,-9.89l0.43,0.43c6.15438,6.03344 16.13844,6.00656 22.2525,-0.1075c6.07375,-6.07375 6.15438,-16.08469 0.215,-22.2525l-0.215,-0.215l-0.215,-0.3225l0.3225,-0.3225l-2.4725,-2.4725l-14.835,-14.7275l-2.365,-2.4725l-0.215,0.215l-12.7925,-12.7925zM84.925,73.96l12.9,12.9l-12.3625,12.3625l-12.7925,-12.9zM38.055,91.375l10.2125,10.32l-0.43,0.43c-6.15437,6.15438 -6.15437,16.31313 0,22.4675c6.15438,6.15438 16.20563,6.15438 22.36,0l0.1075,-0.1075v-0.1075l2.6875,-2.9025l0.1075,-0.215l14.19,-14.0825l0.43,-0.5375l14.9425,-14.9425l9.9975,9.9975l-12.9,12.9l-0.43,-0.5375l-2.365,2.58l-13.6525,14.2975l-0.86,0.86l-2.58,2.6875h-0.1075c-8.11625,7.76688 -18.87969,10.52156 -28.7025,8.0625l-3.44,-0.86l-0.7525,3.44c-1.73344,7.80719 -8.15656,13.115 -16.2325,13.115c-9.47344,0 -16.8775,-7.72656 -16.8775,-16.8775c0,-8.07594 5.375,-14.63344 12.9,-16.6625l3.3325,-0.86l-0.86,-3.225c-2.44562,-9.80937 0.38969,-20.86844 8.0625,-28.595c0.02688,-0.02687 -0.02687,-0.08062 0,-0.1075zM53.32,106.3175l12.685,12.685l-0.645,0.645c-3.48031,3.48031 -9.20469,3.48031 -12.685,0c-3.48031,-3.48031 -3.48031,-9.20469 0,-12.685zM117.39,106.64l0.1075,0.215l0.1075,0.1075c3.48031,3.48031 3.48031,9.20469 0,12.685c-3.48031,3.48031 -9.20469,3.48031 -12.685,0l-0.3225,-0.215z"/></g></svg>