<svg xmlns="http://www.w3.org/2000/svg" viewBox="0 0 172 172" width="100px" height="100px">
    <g style="mix-blend-mode:normal" fill="none" stroke-miterlimit="10" font-family="none" font-size="none"
        font-weight="none" text-anchor="none">
        <path d="M0,172v-172h172v172z" />
        <path fill="#262a2c" 
        d="M103.3075,10.32c-0.56437,-0.01344 -1.12875,0.1075 -1.63937,0.36281c-2.16344,1.075 -3.5475,2.66062 -4.79719,4.04469c-1.23625,1.38406 -2.16344,2.62031 -2.16344,2.62031c-0.04031,0.05375 -0.08062,0.1075 -0.1075,0.16125c-3.41312,5.13312 -5.09281,10.97844 -5.16,16.86406c-0.04031,4.52844 0.87344,9.08375 2.64719,13.37031c4.34031,10.41406 13.06125,18.46313 23.31406,22.30625h0.01344c0.47031,0.18813 0.88688,0.33594 1.22281,0.45688c0.05375,0.01344 0.1075,0.02687 0.16125,0.05375c0.06719,0.01344 0.215,0.06719 0.47031,0.13437c0.38969,0.13438 1.04812,0.40313 2.01562,0.59125c2.80844,0.56438 5.42875,0.86 7.88781,0.94063c10.88438,0.33594 18.42281,-3.85656 23.12594,-8.43875c2.35156,-2.29781 4.03125,-4.67625 5.21375,-6.61125c1.19594,-1.935 2.10969,-3.68188 2.12313,-3.69531h0.01344c1.03469,-1.57219 0.61813,-3.68187 -0.92719,-4.74344c-1.55875,-1.06156 -3.68188,-0.67188 -4.77031,0.87344c-2.66062,3.91031 -5.96625,6.15438 -10.18562,7.24281c-4.21938,1.08844 -9.40625,0.92719 -15.35906,-0.55094c-0.80625,-0.20156 -1.80063,-0.52406 -2.70094,-0.86c0,0 -0.01344,0 -0.02688,-0.01344c-1.08844,-0.38969 -2.20375,-0.86 -3.29219,-1.38406l-0.01344,-0.01344l-0.02688,-0.01344c-2.02906,-1.00781 -3.99094,-2.21719 -5.77812,-3.61469c-4.945,-3.84313 -8.78813,-10.13188 -10.4275,-16.70281c-1.63938,-6.57094 -1.075,-13.26281 1.97531,-18.11375c0.65844,-1.04812 0.69875,-2.365 0.12094,-3.45344c-0.57781,-1.08844 -1.69313,-1.77375 -2.92938,-1.81406zM72.22656,17.2c-0.79281,0 -1.55875,0.28219 -2.16344,0.77938c-5.50938,4.48812 -10.75,11.46219 -10.75,11.46219c-0.04031,0.04031 -0.06719,0.09406 -0.09406,0.14781c-10.18563,14.80812 -9.55406,34.27906 -1.80063,49.63812c1.27656,2.53969 2.72781,5.01219 4.35375,7.36375c0.01344,0.01344 0.01344,0.01344 0.01344,0.01344c1.27656,1.88125 2.82187,4.34031 5.0525,6.39625c0.72562,0.83313 1.47812,1.6125 2.23062,2.35156c0.17469,0.18813 0.36281,0.37625 0.5375,0.55094c0.01344,0.02688 0.02688,0.04031 0.04031,0.04031c0.71219,0.69875 1.45125,1.3975 2.21719,2.08281l0.01344,0.01344c0.02688,0.02688 0.06719,0.06719 0.09406,0.09406l0.05375,0.02687c0.04031,0.05375 0.09406,0.09406 0.14781,0.13438c0.80625,0.72562 1.62594,1.41094 2.4725,2.06937c0.04031,0.04031 0.06719,0.06719 0.1075,0.09406c0,0 0.18812,0.16125 0.57781,0.44344c0.86,0.67188 1.73344,1.31688 2.59344,1.935c0.1075,0.08063 0.22844,0.16125 0.33594,0.215c0.08063,0.05375 0.13438,0.09406 0.20156,0.14781h0.01344c0.30906,0.215 0.61813,0.41656 0.87344,0.59125c0.08063,0.05375 0.26875,0.18813 0.57781,0.38969c0.67188,0.44344 1.33031,0.84656 2.01563,1.26313c0.06719,0.04031 0.14781,0.08062 0.215,0.12094c0,0 0.1075,0.05375 0.22844,0.1075c0.02687,0.02688 0.02687,0.01344 0.06719,0.04031c0.5375,0.3225 1.08844,0.645 1.66625,0.94062c0.20156,0.12094 0.44344,0.24188 0.51063,0.28219c0.04031,0.02687 0.08062,0.04031 0.12094,0.06719c0.34937,0.17469 0.72562,0.37625 1.11531,0.59125c0.33594,0.17469 0.43,0.18812 0.40312,0.18812c0.86,0.41656 1.67969,0.79281 2.44563,1.15563c0.05375,0.01344 0.1075,0.04031 0.17469,0.06719c0.16125,0.06719 0.29562,0.12094 0.47031,0.20156c0.68531,0.28219 1.3975,0.60469 2.15,0.88687c0.04031,0.01344 0.09406,0.04031 0.13437,0.05375c0.14781,0.05375 0.40313,0.14781 0.79281,0.29563c0,0 0.01344,0 0.01344,0.01344c0.645,0.22844 1.30344,0.44344 1.94844,0.65844c0.33594,0.12094 0.63156,0.215 0.88688,0.30906c0,0 0,0 0.01344,0c0.71219,0.22844 1.77375,0.67188 3.21156,0.91375c0,0 0,-0.01344 0.01344,0c5.42875,0.90031 10.44094,1.26313 15.06344,1.16906c18.90656,-0.41656 31.16156,-8.74781 38.35063,-16.94469c7.17562,-8.19688 9.59437,-16.47438 9.59437,-16.47438c0.48375,-1.62594 -0.29562,-3.34594 -1.8275,-4.07156c-1.51844,-0.72562 -3.34594,-0.22844 -4.31344,1.16906c-9.1375,13.35688 -26.90187,20.22344 -46.3325,15.10375c-0.86,-0.215 -1.69312,-0.45687 -2.51281,-0.73906c-0.05375,-0.01344 -0.12094,-0.04031 -0.18812,-0.05375c-0.12094,-0.02687 -0.28219,-0.08062 -0.56438,-0.17469c-0.02687,-0.01344 -0.05375,-0.02687 -0.06719,-0.04031c-0.63156,-0.20156 -1.22281,-0.38969 -1.76031,-0.60469c0,0 0,0 -0.01344,0c-0.30906,-0.12094 -0.57781,-0.215 -0.80625,-0.30906c-0.68531,-0.26875 -1.33031,-0.52406 -1.88125,-0.76594c-0.04031,-0.02687 -0.06719,-0.04031 -0.1075,-0.05375c-0.29562,-0.12094 -0.43,-0.18812 -0.24187,-0.09406c-0.08063,-0.04031 -0.16125,-0.06719 -0.24188,-0.1075c-0.7525,-0.33594 -1.53187,-0.69875 -2.31125,-1.08844l-0.05375,-0.01344c0,-0.01344 -0.01344,-0.01344 -0.02687,-0.02688c-0.38969,-0.20156 -0.76594,-0.38969 -1.15563,-0.60469c-0.01344,0 -0.02687,-0.01344 -0.05375,-0.01344c-0.24187,-0.13438 -0.47031,-0.25531 -0.67187,-0.36281v0.01344c-0.44344,-0.22844 -0.90031,-0.51062 -1.43781,-0.83312c-0.04031,-0.01344 -0.06719,-0.02688 -0.09406,-0.04031c-0.16125,-0.09406 -0.215,-0.12094 -0.24187,-0.14781h-0.01344l-0.02687,-0.01344c-0.65844,-0.40312 -1.27656,-0.77937 -1.76031,-1.11531c-0.06719,-0.04031 -0.14781,-0.08062 -0.215,-0.12094c0.05375,0.02688 -0.09406,-0.08062 -0.44344,-0.30906c-0.36281,-0.22844 -0.73906,-0.47031 -1.14219,-0.7525h-0.01344c-0.01344,-0.01344 -0.02687,-0.02687 -0.05375,-0.02687c-0.7525,-0.55094 -1.53187,-1.14219 -2.32469,-1.74688l-0.06719,-0.06719c-0.18813,-0.14781 -0.34938,-0.26875 -0.45688,-0.36281c-0.02687,-0.01344 -0.05375,-0.04031 -0.08062,-0.06719c-8.57313,-6.83969 -15.31875,-16.20562 -18.49,-26.67344v-0.01344c-3.18469,-10.30656 0.09406,-22.96469 5.67062,-32.59938c0.61813,-1.06156 0.61813,-2.37844 0,-3.45344c-0.61812,-1.06156 -1.76031,-1.70656 -2.98312,-1.70656zM34.41344,27.52c-0.84656,0 -1.67969,0.30906 -2.31125,0.88688c-0.18812,0.16125 -0.28219,0.33594 -0.47031,0.51062c-6.67844,6.18125 -11.43531,13.70625 -11.52938,13.8675c-13.84062,20.11594 -11.99969,50.98188 -1.66625,71.82344c0,0.01344 0,0.02688 0,0.04031c0.26875,0.56438 0.5375,1.06156 0.7525,1.45125c0.1075,0.24188 0.22844,0.47031 0.34938,0.69875c0.25531,0.57781 0.44344,0.81969 0.47031,0.86c0.16125,0.30906 0.3225,0.61813 0.44344,0.84656c0.01344,0.02687 0.04031,0.06719 0.05375,0.09406c0.30906,0.49719 0.60469,1.04812 0.94062,1.59906c0,0.01344 0.01344,0.02688 0.02688,0.04031c0.14781,0.24188 0.33594,0.59125 0.63156,1.02125c0.37625,0.61813 0.72563,1.16906 0.98094,1.57219c0.01344,0.02688 0.02687,0.04031 0.02687,0.05375c0.13438,0.20156 0.29563,0.47031 0.49719,0.7525c0.01344,0.02688 0.02688,0.04031 0.04031,0.05375c0.01344,0.02688 0.01344,0.04031 0.04031,0.08063c0.47031,0.71219 0.9675,1.45125 1.51844,2.21719c0.05375,0.06719 0.04031,0.04031 0.08063,0.1075c0.04031,0.05375 0.04031,0.05375 0.06719,0.09406c0.01344,0.01344 0.04031,0.05375 0.05375,0.08062l0.01344,0.01344c0.02688,0.04031 0.13438,0.17469 0.13438,0.17469c0,0.01344 0.01344,0.02687 0.02687,0.02687c0.48375,0.67188 0.98094,1.35719 1.505,2.02906c0.20156,0.26875 0.37625,0.49719 0.47031,0.61813c0.02687,0.04031 0.06719,0.08062 0.09406,0.13437c0.44344,0.52406 0.87344,1.06156 1.31687,1.6125c0.01344,0.02688 0.02688,0.04031 0.04031,0.05375c0.13437,0.16125 0.30906,0.36281 0.49719,0.59125c0.57781,0.69875 1.16906,1.37063 1.77375,2.0425c0.05375,0.05375 0.1075,0.12094 0.16125,0.17469l-0.02687,-0.04031c0.17469,0.20156 0.48375,0.5375 0.79281,0.73906l-0.645,-0.55094c0.63156,0.69875 1.27656,1.38406 1.92156,2.06938c0.01344,0.01344 0.02688,0.01344 0.02688,0.02687c0.22844,0.22844 0.45687,0.45688 0.69875,0.69875c0.45687,0.45688 0.94062,0.95406 1.505,1.49156c0.215,0.20156 0.43,0.38969 0.57781,0.55094c0.01344,0.01344 0.01344,0.01344 0.02688,0.01344c0.61812,0.59125 1.29,1.22281 2.00219,1.85438c0.06719,0.04031 0.1075,0.09406 0.16125,0.13437c0,0.01344 0,0.01344 0,0.01344c0.18813,0.16125 0.29563,0.25531 0.26875,0.22844c0.04031,0.02687 0.06719,0.06719 0.1075,0.09406c0.63156,0.55094 1.26313,1.08844 1.89469,1.62594c0.30906,0.24187 0.57781,0.45687 0.80625,0.65844c0.01344,0 0.01344,0 0.02688,0c0.56437,0.47031 1.10187,0.87344 1.6125,1.26313c0,0.01344 0.01344,0.01344 0.01344,0.02687c0.25531,0.18813 0.52406,0.38969 0.81969,0.61813c0.01344,0.01344 0.02688,0.01344 0.04031,0.02687c0.60469,0.45688 1.20938,0.88688 1.78719,1.30344c0.17469,0.13438 0.37625,0.26875 0.59125,0.41656c-0.01344,-0.01344 0.06719,0.05375 0.04031,0.04031c0.09406,0.06719 0.18813,0.13437 0.26875,0.18812c0.56438,0.37625 1.11531,0.7525 1.69313,1.12875c0,0.01344 0.01344,0.01344 0.01344,0.01344c0.25531,0.16125 0.48375,0.3225 0.71219,0.47031c0.01344,0.01344 0.02688,0.02688 0.05375,0.04031c0.91375,0.59125 1.81406,1.14219 2.70094,1.67969c0.05375,0.04031 0.1075,0.06719 0.16125,0.09406c0.215,0.12094 0.41656,0.22844 0.60469,0.33594c0.01344,0.01344 0.01344,0.01344 0.02687,0.02688c0.68531,0.38969 1.37063,0.79281 2.09625,1.1825l-0.06719,-0.04031c0.48375,0.26875 0.91375,0.47031 1.26312,0.645c0.43,0.24188 0.88688,0.49719 1.37063,0.73906c0.06719,0.04031 0.14781,0.08062 0.22844,0.12094c0.25531,0.09406 0.25531,0.12094 -0.01344,-0.04031c0.09406,0.06719 0.18812,0.1075 0.28219,0.14781c0.04031,0.02688 0.18813,0.09406 0.44344,0.22844c0.01344,0 0.01344,0 0.02688,0c0.79281,0.40313 1.57219,0.76594 2.37844,1.11531c0.18813,0.09406 0.30906,0.14781 0.26875,0.12094c0.08063,0.04031 0.14781,0.08063 0.215,0.1075c0.90031,0.40313 1.81406,0.77938 2.74125,1.15563c0.01344,0 0.04031,0.01344 0.05375,0.01344c0.05375,0.01344 0.3225,0.13438 0.59125,0.22844c0.05375,0.02688 0.1075,0.04031 0.16125,0.05375c0.02688,0.01344 0.01344,0.01344 0.04031,0.02688c0.73906,0.28219 1.47812,0.56437 2.21719,0.81969c0.20156,0.09406 0.37625,0.14781 0.49719,0.20156c0.9675,0.3225 1.90813,0.63156 2.87563,0.92719c0.02687,0.01344 0.05375,0.02688 0.09406,0.04031c0.05375,0.01344 0.30906,0.09406 0.59125,0.17469c0.01344,0 0.02687,0.01344 0.04031,0.01344c0.06719,0.01344 0.05375,0.01344 0.12094,0.04031c0.81969,0.25531 1.78719,0.61813 3.05031,0.86c0.01344,0 0.01344,0 0.02688,0c6.63812,1.22281 12.80594,1.77375 18.55719,1.77375c49.31563,0.01344 65.13156,-40.05719 65.13156,-40.05719c0.60469,-1.59906 -0.05375,-3.39969 -1.54531,-4.23281c-1.49156,-0.81969 -3.37281,-0.43 -4.4075,0.92719c-14.04219,18.46313 -39.22406,22.19875 -63.78781,16.555c-0.73906,-0.17469 -1.6125,-0.44344 -2.62031,-0.7525c-0.01344,0 -0.04031,-0.01344 -0.05375,-0.01344c-0.17469,-0.05375 -0.36281,-0.1075 -0.45688,-0.14781c-0.05375,-0.01344 -0.1075,-0.02687 -0.16125,-0.04031c-0.86,-0.26875 -1.73344,-0.56438 -2.60687,-0.86c-0.01344,-0.01344 -0.04031,-0.01344 -0.06719,-0.02688c-0.05375,-0.01344 -0.1075,-0.02687 -0.14781,-0.05375c-0.05375,-0.01344 -0.1075,-0.04031 -0.17469,-0.05375c-0.67187,-0.24187 -1.3975,-0.51062 -2.15,-0.80625l-0.12094,-0.05375c-0.29562,-0.1075 -0.55094,-0.20156 -0.65844,-0.25531c-0.80625,-0.3225 -1.63938,-0.67187 -2.45906,-1.03469c-0.08062,-0.04031 -0.14781,-0.06719 -0.215,-0.09406c0.01344,0 -0.16125,-0.06719 -0.26875,-0.1075c-0.71219,-0.33594 -1.41094,-0.67187 -2.13656,-1.02125c-0.05375,-0.01344 -0.09406,-0.04031 -0.14781,-0.06719c-0.04031,-0.01344 -0.16125,-0.06719 -0.40313,-0.20156c-0.02687,-0.01344 -0.05375,-0.02687 -0.09406,-0.04031c-0.47031,-0.22844 -0.99437,-0.49719 -1.53187,-0.79281c-0.01344,-0.01344 -0.04031,-0.02688 -0.05375,-0.04031c-0.43,-0.215 -0.76594,-0.37625 -1.00781,-0.52406c-0.02687,0 -0.04031,-0.01344 -0.06719,-0.02687c-0.63156,-0.33594 -1.29,-0.72563 -1.98875,-1.11531l0.26875,0.16125c-0.45688,-0.29562 -0.77938,-0.45687 -0.9675,-0.56437l0.1075,0.05375c-0.87344,-0.52406 -1.73344,-1.04813 -2.55313,-1.57219c-0.01344,-0.01344 -0.02687,-0.01344 -0.02687,-0.02687c-0.16125,-0.09406 -0.34938,-0.215 -0.57781,-0.37625c-0.04031,-0.04031 -0.09406,-0.06719 -0.13437,-0.09406c-0.56438,-0.36281 -1.14219,-0.76594 -1.74688,-1.16906l-0.04031,-0.02687c-0.12094,-0.09406 -0.30906,-0.22844 -0.56437,-0.41656c-0.5375,-0.37625 -1.075,-0.76594 -1.62594,-1.1825h-0.02688c-0.02687,-0.02687 -0.04031,-0.04031 -0.06719,-0.06719c-0.215,-0.17469 -0.45688,-0.34938 -0.69875,-0.5375c-0.5375,-0.41656 -1.04813,-0.80625 -1.505,-1.1825l-0.06719,-0.04031c-0.26875,-0.22844 -0.51063,-0.43 -0.68531,-0.57781c0,0 -0.01344,0 -0.02688,-0.01344c-0.63156,-0.51062 -1.23625,-1.04812 -1.89469,-1.6125l0.28219,0.28219c-0.55094,-0.61812 -0.80625,-0.69875 -0.67187,-0.60469l0.18812,0.16125c-0.65844,-0.59125 -1.33031,-1.22281 -2.01562,-1.86781l-0.04031,-0.02687c-0.1075,-0.1075 -0.28219,-0.28219 -0.51062,-0.49719l-0.09406,-0.09406c-0.49719,-0.48375 -0.95406,-0.94063 -1.37063,-1.35719c-0.01344,-0.01344 -0.01344,-0.01344 -0.02687,-0.02688c-0.18813,-0.18812 -0.36281,-0.37625 -0.57781,-0.59125c-0.59125,-0.59125 -1.16906,-1.22281 -1.74687,-1.86781c-0.02688,-0.02687 -0.06719,-0.06719 -0.09406,-0.1075h-0.01344c-0.60469,-0.65844 -1.19594,-1.34375 -1.80063,-2.05594c0,-0.01344 0,-0.02687 -0.01344,-0.04031c-0.09406,-0.1075 -0.25531,-0.30906 -0.51063,-0.60469c-0.41656,-0.51062 -0.83312,-1.04812 -1.29,-1.59906l-0.01344,-0.01344c-0.14781,-0.20156 -0.30906,-0.41656 -0.40312,-0.5375l-0.01344,-0.01344c-0.51062,-0.67188 -0.99437,-1.33031 -1.47812,-2.00219l-0.01344,-0.01344c-6.47688,-8.9225 -10.95156,-23.35437 -12.20125,-37.24875c-1.26313,-13.88094 0.90031,-27.21094 5.73781,-33.76844c0.77938,-1.03469 0.90031,-2.41875 0.3225,-3.57437c-0.57781,-1.16906 -1.76031,-1.89469 -3.06375,-1.90813zM97.01875,29.75063c0.18813,1.88125 -0.01344,3.77594 0.44344,5.61687c2.00219,7.96844 6.47688,15.49344 12.88656,20.47875c2.19031,1.69313 4.54188,3.15781 6.97406,4.35375c0.01344,0.01344 0.02687,0.02688 0.04031,0.02688c1.29,0.61812 2.62031,1.1825 3.9775,1.67969l-0.02688,-0.01344c1.04813,0.38969 2.23063,0.79281 3.42656,1.08844c3.10406,0.76594 6.10062,1.16906 9.00312,1.33031c-2.0425,0.41656 -3.74906,1.11531 -6.35594,1.03469c-2.0425,-0.06719 -4.3,-0.3225 -6.75906,-0.80625h-0.01344c-0.16125,-0.02688 -0.57781,-0.18813 -1.29,-0.40313c-0.08062,-0.02687 -0.24187,-0.08062 -0.41656,-0.13437c-0.41656,-0.14781 -0.7525,-0.25531 -1.00781,-0.36281c-0.02688,-0.01344 -0.04031,-0.01344 -0.06719,-0.02687c-8.4925,-3.18469 -15.84281,-9.98406 -19.39031,-18.51688c-1.43781,-3.46687 -2.16344,-7.095 -2.12313,-10.65594c0.01344,-1.59906 0.38969,-3.14438 0.69875,-4.68969zM62.05438,39.4525c-0.87344,5.81844 -0.86,11.78469 0.90031,17.5225c3.62813,11.95938 11.20688,22.40031 20.78781,30.04625c0.20156,0.17469 0.40313,0.33594 0.5375,0.45688c0.02688,0.01344 0.05375,0.04031 0.08063,0.05375c0.86,0.67187 1.76031,1.35719 2.70094,2.01562c0.01344,0.01344 0.04031,0.02688 0.06719,0.04031c0.43,0.29562 0.86,0.57781 1.33031,0.87344c0,0.01344 0,0.01344 0,0.01344c0.02687,0.01344 0.26875,0.20156 0.72562,0.47031c0.645,0.41656 1.29,0.80625 1.8275,1.14219c0.02688,0.01344 0.04031,0.02688 0.05375,0.04031c0.24188,0.13438 0.40313,0.22844 0.47031,0.25531c0.48375,0.29562 1.02125,0.61812 1.66625,0.95406c0,0 0,0 0,0.01344c0.25531,0.12094 0.51063,0.25531 0.76594,0.37625c0.41656,0.215 0.81969,0.43 1.22281,0.645c0.02688,0.01344 0.05375,0.02687 0.09406,0.04031c0.7525,0.37625 1.55875,0.7525 2.39187,1.11531c0.44344,0.22844 0.63156,0.29563 0.7525,0.33594c0.77938,0.34937 1.51844,0.63156 2.19031,0.90031c0.33594,0.13438 0.65844,0.25531 0.91375,0.36281l-0.01344,-0.01344c0.71219,0.26875 1.41094,0.49719 2.06937,0.71219c0.20156,0.08063 0.48375,0.16125 0.79281,0.25531c0.95406,0.3225 1.935,0.61812 2.92938,0.87344c12.9,3.39969 25.19531,1.65281 35.5825,-3.225c-6.31563,5.65719 -15.48,10.58875 -29.455,10.89781c-4.16563,0.09406 -8.74781,-0.22844 -13.80031,-1.075c-0.01344,-0.01344 -0.02688,-0.01344 -0.04031,-0.01344c-0.41656,-0.06719 -1.14219,-0.33594 -2.19031,-0.67188c-0.29562,-0.08062 -0.55094,-0.17469 -0.81969,-0.26875c-0.59125,-0.18812 -1.19594,-0.40312 -1.78719,-0.61812l-0.02688,-0.01344c-0.14781,-0.05375 -0.44344,-0.16125 -0.79281,-0.28219l-0.08063,-0.04031c-0.02687,-0.01344 -0.02687,-0.01344 -0.05375,-0.01344c-0.56437,-0.22844 -1.15562,-0.48375 -1.77375,-0.7525c0,0 0,0 -0.01344,0c-0.17469,-0.08062 -0.34938,-0.16125 -0.55094,-0.22844c-0.80625,-0.37625 -1.57219,-0.72563 -2.28438,-1.08844c-0.04031,-0.01344 -0.08062,-0.02688 -0.12094,-0.04031c-0.34938,-0.20156 -0.73906,-0.40313 -1.15563,-0.60469l-0.04031,-0.02688c-0.02688,-0.01344 -0.04031,-0.02687 -0.06719,-0.04031c-0.16125,-0.08062 -0.33594,-0.17469 -0.33594,-0.17469c-0.08062,-0.05375 -0.16125,-0.09406 -0.22844,-0.13437c-0.49719,-0.25531 -1.00781,-0.55094 -1.49156,-0.84656c-0.09406,-0.05375 -0.17469,-0.09406 -0.26875,-0.14781c0,0 -0.08062,-0.04031 -0.12094,-0.05375c-0.59125,-0.36281 -1.15563,-0.71219 -1.73344,-1.08844c-0.01344,-0.01344 -0.02688,-0.02688 -0.04031,-0.04031c-0.05375,-0.02687 -0.22844,-0.14781 -0.52406,-0.33594c-0.43,-0.28219 -0.77937,-0.51063 -1.04812,-0.69875c-0.08063,-0.06719 -0.17469,-0.12094 -0.26875,-0.18813c0,0 -0.01344,0 -0.02688,-0.01344c-0.77937,-0.56437 -1.54531,-1.12875 -2.27094,-1.70656c-0.04031,-0.02687 -0.08063,-0.05375 -0.1075,-0.08062c-0.01344,-0.01344 -0.215,-0.17469 -0.47031,-0.37625c-0.76594,-0.60469 -1.49156,-1.20938 -2.20375,-1.84094c-0.01344,-0.01344 -0.01344,-0.01344 -0.02687,-0.02688c-0.02688,-0.02687 -0.06719,-0.05375 -0.09406,-0.08062c-0.01344,-0.01344 -0.04031,-0.02688 -0.05375,-0.04031c-0.02688,-0.02688 -0.04031,-0.04031 -0.05375,-0.05375c-0.67188,-0.60469 -1.33031,-1.22281 -1.98875,-1.86781l-0.04031,-0.04031c-0.17469,-0.17469 -0.33594,-0.33594 -0.48375,-0.49719c-0.01344,0 -0.01344,-0.01344 -0.02687,-0.01344c-0.71219,-0.71219 -1.35719,-1.38406 -1.92156,-2.0425c-0.1075,-0.12094 -0.215,-0.22844 -0.33594,-0.3225c-1.31688,-1.15563 -2.78156,-3.3325 -4.21938,-5.42875c-0.01344,-0.01344 -0.01344,-0.01344 -0.01344,-0.02688c-1.45125,-2.06937 -2.74125,-4.25969 -3.87,-6.53062c0,-0.01344 0,-0.01344 0,-0.02688c-5.76469,-11.38156 -6.53063,-25.155 -1.51844,-36.67094zM25.00719,48.42875c-0.76594,6.00656 -1.03469,12.37594 -0.44344,18.97375c1.34375,14.87531 5.87219,30.16719 13.49125,40.64844c0.52406,0.7525 1.06156,1.46469 1.6125,2.19031c0.20156,0.26875 0.33594,0.43 0.37625,0.48375c0.05375,0.08063 0.1075,0.16125 0.17469,0.22844c0.43,0.5375 0.87344,1.08844 1.33031,1.66625c0.04031,0.04031 0.06719,0.06719 0.1075,0.1075c0.08063,0.09406 0.22844,0.29563 0.47031,0.57781c0.61812,0.72563 1.26312,1.47813 1.935,2.21719c0.02687,0.02688 0.05375,0.06719 0.08062,0.09406c0.63156,0.69875 1.29,1.3975 1.96188,2.08281c0.17469,0.17469 0.36281,0.37625 0.59125,0.60469c0.01344,0.01344 0.01344,0.01344 0.01344,0.01344l0.01344,0.01344c0.5375,0.5375 1.03469,1.03469 1.505,1.49156c0.02688,0.02688 0.06719,0.06719 0.09406,0.09406c0.1075,0.09406 0.26875,0.26875 0.55094,0.5375c0.01344,0.01344 0.02688,0.01344 0.04031,0.02688c0.68531,0.645 1.3975,1.31687 2.13656,1.96187c0.05375,0.06719 0.12094,0.12094 0.18812,0.17469c0.28219,0.215 0.215,0.24188 -0.215,-0.22844c0.09406,0.09406 0.18813,0.18813 0.28219,0.26875c0.67187,0.60469 1.35719,1.19594 2.10969,1.80063c0.26875,0.215 0.48375,0.38969 0.645,0.52406c0.01344,0.01344 0.04031,0.04031 0.05375,0.05375c0.57781,0.47031 1.12875,0.88688 1.63937,1.29c0.04031,0.04031 0.08063,0.06719 0.1075,0.09406c0.22844,0.14781 0.44344,0.3225 0.68531,0.49719c0.02688,0.04031 0.05375,0.06719 0.09406,0.09406c0.60469,0.43 1.19594,0.87344 1.84094,1.33031c0.13438,0.09406 0.33594,0.25531 0.59125,0.44344c0.01344,0 0.02688,0.01344 0.05375,0.01344c0.61813,0.43 1.27656,0.88688 1.98875,1.33031c0.18813,0.13438 0.40313,0.29563 0.68531,0.47031c0.01344,0.01344 0.02687,0.01344 0.02687,0.01344c0.91375,0.59125 1.8275,1.15563 2.71438,1.67969c0.02687,0.01344 0.05375,0.04031 0.09406,0.05375c0.29562,0.16125 0.43,0.24188 0.40312,0.22844c0.08063,0.05375 0.17469,0.12094 0.26875,0.17469c0.645,0.34937 1.31688,0.73906 2.02906,1.12875l0.01344,0.01344c0.01344,0 0.02688,0.01344 0.05375,0.01344c0.44344,0.25531 0.84656,0.45688 1.1825,0.63156c0.52406,0.28219 1.08844,0.57781 1.67969,0.86c0.01344,0.01344 0.05375,0.02688 0.05375,0.04031c0.02688,0 0.02688,0 0.04031,0.01344c0.20156,0.09406 0.43,0.22844 0.79281,0.37625c0.67187,0.33594 1.35719,0.65844 2.06937,0.98094c0.05375,0.02688 0.1075,0.05375 0.16125,0.08063c0.01344,0 0.24188,0.09406 0.41656,0.17469c0.86,0.37625 1.77375,0.76594 2.72781,1.14219c0,0.01344 0.01344,0.01344 0.01344,0.01344c0.30906,0.12094 0.49719,0.18812 0.5375,0.20156c0.05375,0.02688 0.09406,0.04031 0.14781,0.05375c0.79281,0.3225 1.62594,0.645 2.51281,0.95406c0.14781,0.05375 0.30906,0.1075 0.45687,0.16125c0.84656,0.29563 1.72,0.57781 2.62031,0.86c0.34937,0.12094 0.65844,0.20156 0.92719,0.28219c0.88688,0.26875 1.86781,0.59125 2.99656,0.84656c18.20781,4.1925 37.26219,3.13094 52.74219,-4.74344c-8.94937,8.96281 -23.62312,17.96594 -46.60125,17.96594c-5.30781,0 -11.05906,-0.51062 -17.3075,-1.66625c-0.61812,-0.12094 -1.41094,-0.38969 -2.4725,-0.71219c-0.05375,-0.02688 -0.1075,-0.04031 -0.16125,-0.05375c-0.01344,0 -0.22844,-0.06719 -0.48375,-0.14781l-0.1075,-0.02687c-0.86,-0.26875 -1.70656,-0.55094 -2.56656,-0.84656c-0.02687,-0.01344 -0.04031,-0.01344 -0.06719,-0.02688c-0.09406,-0.02687 -0.06719,-0.01344 -0.04031,-0.01344c-0.04031,-0.01344 -0.09406,-0.04031 -0.13437,-0.05375c-0.81969,-0.29562 -1.63938,-0.60469 -2.40531,-0.90031c-0.05375,-0.02687 -0.12094,-0.04031 -0.18812,-0.06719c0.02687,0.01344 -0.16125,-0.06719 -0.44344,-0.17469l-0.05375,-0.02688c-0.83312,-0.33594 -1.63937,-0.67187 -2.45906,-1.03469c-0.16125,-0.06719 -0.37625,-0.17469 -0.40313,-0.17469c-0.01344,-0.01344 -0.02687,-0.02688 -0.04031,-0.02688c-0.7525,-0.33594 -1.45125,-0.65844 -2.12312,-0.99437h-0.02688c-0.05375,-0.04031 -0.25531,-0.13438 -0.38969,-0.20156c-0.30906,-0.17469 -0.34937,-0.17469 -0.45687,-0.215l-0.05375,-0.01344c-0.43,-0.22844 -0.86,-0.45688 -1.27656,-0.68531c-0.04031,-0.02687 -0.08063,-0.05375 -0.12094,-0.06719c-0.40313,-0.20156 -0.71219,-0.36281 -0.95406,-0.49719c-0.01344,-0.01344 -0.04031,-0.02688 -0.05375,-0.02688c-0.61813,-0.33594 -1.23625,-0.68531 -1.85438,-1.04812l-0.02687,-0.01344c-0.26875,-0.16125 -0.52406,-0.30906 -0.79281,-0.44344l-0.06719,-0.05375c-0.80625,-0.48375 -1.59906,-0.98094 -2.39188,-1.49156c-0.22844,-0.16125 -0.45687,-0.29562 -0.68531,-0.44344l-0.01344,-0.01344c0,0 0,0 -0.01344,0c-0.52406,-0.36281 -1.03469,-0.71219 -1.58562,-1.075c-0.08063,-0.06719 -0.17469,-0.13438 -0.26875,-0.20156c-0.13438,-0.08062 -0.29563,-0.20156 -0.48375,-0.33594c-0.01344,-0.01344 -0.02688,-0.02688 -0.04031,-0.04031c-0.56438,-0.38969 -1.11531,-0.79281 -1.63938,-1.1825l-0.01344,-0.01344h-0.01344c-0.25531,-0.20156 -0.51063,-0.40313 -0.79281,-0.61813l-0.01344,-0.01344c-0.5375,-0.40312 -1.03469,-0.77937 -1.49156,-1.15562l-0.01344,-0.01344c-0.26875,-0.215 -0.49719,-0.38969 -0.68531,-0.55094c0,-0.01344 -0.01344,-0.01344 -0.01344,-0.01344c-0.61813,-0.52406 -1.22281,-1.04813 -1.8275,-1.55875c-0.08063,-0.08063 -0.14781,-0.13438 -0.20156,-0.16125c-0.05375,-0.06719 -0.12094,-0.12094 -0.17469,-0.17469c-0.61813,-0.52406 -1.24969,-1.12875 -1.90813,-1.74688l-0.01344,-0.02687c-0.22844,-0.215 -0.43,-0.38969 -0.60469,-0.56438c-0.01344,-0.01344 -0.02688,-0.02687 -0.04031,-0.04031c-0.43,-0.40312 -0.87344,-0.87344 -1.37062,-1.37062c-0.02688,-0.02688 -0.05375,-0.05375 -0.08063,-0.09406c-0.18812,-0.17469 -0.34937,-0.3225 -0.51062,-0.48375c-0.60469,-0.645 -1.19594,-1.27656 -1.78719,-1.92156c-0.01344,-0.01344 -0.02687,-0.02687 -0.02687,-0.02687c-0.02688,-0.04031 -0.05375,-0.06719 -0.09406,-0.09406c-0.59125,-0.67187 -1.16906,-1.33031 -1.72,-2.00219c-0.02687,-0.02688 -0.05375,-0.05375 -0.08062,-0.09406c-0.1075,-0.12094 -0.25531,-0.29562 -0.41656,-0.48375l-0.01344,-0.01344c0,-0.01344 -0.01344,-0.02688 -0.02688,-0.04031c-0.41656,-0.52406 -0.86,-1.075 -1.31687,-1.62594c-0.16125,-0.215 -0.30906,-0.41656 -0.37625,-0.52406c-0.04031,-0.04031 -0.06719,-0.08062 -0.09406,-0.1075c-0.44344,-0.57781 -0.88688,-1.15562 -1.33031,-1.77375l-0.02687,-0.04031c-0.12094,-0.17469 -0.20156,-0.26875 -0.16125,-0.215c-0.02688,-0.04031 -0.05375,-0.08062 -0.08063,-0.12094c-0.02687,-0.04031 -0.05375,-0.06719 -0.08062,-0.1075c-0.01344,-0.01344 -0.02688,-0.04031 -0.04031,-0.05375c0,0 0,0 -0.01344,0c-0.45688,-0.645 -0.91375,-1.33031 -1.3975,-2.05594c-0.01344,-0.04031 -0.04031,-0.08063 -0.08063,-0.12094c-0.08062,-0.12094 -0.18812,-0.29563 -0.3225,-0.51063l-0.04031,-0.05375c-0.40312,-0.65844 -0.76594,-1.19594 -1.00781,-1.6125c-0.02688,-0.05375 -0.06719,-0.12094 -0.1075,-0.17469c-0.1075,-0.16125 -0.24188,-0.40313 -0.44344,-0.72563l-0.01344,-0.02687c-0.28219,-0.47031 -0.57781,-0.9675 -0.88687,-1.49156v-0.02687c-0.02688,-0.02688 -0.02688,-0.04031 -0.05375,-0.06719c-0.13438,-0.26875 -0.25531,-0.49719 -0.34938,-0.68531c-0.04031,-0.08063 -0.08062,-0.14781 -0.13437,-0.22844c-0.14781,-0.26875 -0.20156,-0.38969 -0.08063,-0.13437c-0.05375,-0.12094 -0.1075,-0.22844 -0.16125,-0.3225c-0.12094,-0.215 -0.24187,-0.41656 -0.3225,-0.63156c-0.02687,-0.05375 -0.05375,-0.1075 -0.08062,-0.16125c-0.26875,-0.51062 -0.48375,-0.91375 -0.645,-1.23625c-0.01344,-0.04031 -0.02688,-0.08062 -0.04031,-0.1075c-8.96281,-18.07344 -10.22594,-45.92937 0.40312,-63.15625zM76.76844,93.24281l0.04031,0.01344c0.05375,0.08063 0.04031,0.05375 0.1075,0.16125c-0.04031,-0.06719 -0.09406,-0.12094 -0.14781,-0.17469zM36.69781,129.36281c0,0 0.04031,0.04031 0.05375,0.05375c0.04031,0.04031 0.02687,0.02687 0.06719,0.08062l0.01344,0.01344v0.01344c0.02688,0.01344 0.04031,0.05375 0.05375,0.08062c-0.1075,-0.14781 -0.14781,-0.20156 -0.18812,-0.24187zM50.72656,141.63125l0.12094,0.06719c-0.24187,-0.17469 -0.22844,-0.18812 0,0.02688c-0.04031,-0.04031 -0.08062,-0.06719 -0.12094,-0.09406z" />
    </g>
</svg>