<svg xmlns="http://www.w3.org/2000/svg" viewBox="0 0 172 172" width="100px" height="100px"><g style="mix-blend-mode:normal" fill="none" stroke-miterlimit="10" font-family="none" font-size="none" font-weight="none" text-anchor="none"><path d="M0,172v-172h172v172z"/><path fill="#262a2c" d="M41.0986,27.52c-0.14643,0.00636 -0.2923,0.02207 -0.43672,0.04703l-37.84,6.88672c-1.0759,0.19601 -1.99453,0.89187 -2.47457,1.8745c-0.48004,0.98262 -0.46431,2.13495 0.04238,3.1041l41.28,79.12c0.75219,1.43818 2.40717,2.15506 3.97078,1.72l37.14797,-10.32l20.86844,36.24094c0.83703,1.45672 2.60379,2.09582 4.17906,1.51172l58.50016,-21.62094c0.99229,-0.36687 1.7606,-1.16988 2.08332,-2.1774c0.32272,-1.00751 0.16395,-2.10748 -0.43051,-2.9826l-19.75984,-29.14594l21.2514,-5.90578c1.07243,-0.29698 1.93499,-1.09434 2.31517,-2.14018c0.38018,-1.04584 0.23103,-2.21097 -0.40033,-3.12732l-18.91328,-27.43266c-0.82404,-1.19259 -2.3072,-1.74072 -3.70875,-1.37062l-25.80672,6.79265c-1.07868,0.28362 -1.95294,1.07256 -2.34544,2.11656c-0.3925,1.044 -0.25454,2.21349 0.37012,3.1375l16.17875,23.865l-51.07594,14.18328l-41.83766,-72.65656c-0.64537,-1.12158 -1.8655,-1.78616 -3.15781,-1.72zM39.50625,34.76953l39.7414,69.02844l-32.76734,9.1039l-37.82656,-72.51547zM148.18875,59.06453l14.79469,21.47312l-18.81922,5.23391l-14.75437,-21.76203zM141.23485,93.71985l18.5975,27.43265l-51.66047,19.09469l-18.53703,-32.19625z"/></g></svg>