<svg xmlns="http://www.w3.org/2000/svg" viewBox="0 0 172 172" width="100px" height="100px"><g style="mix-blend-mode:normal" fill="none" stroke-miterlimit="10" font-family="none" font-size="none" font-weight="none" text-anchor="none"><path d="M0,172v-172h172v172z"/><path fill="#fff" d="M150.5,61.99167c0,73.45833 -64.5,95.675 -64.5,95.675c0,0 -64.5,-22.21667 -64.5,-95.675c0,-8.95833 0.71667,-16.48333 1.43333,-22.575c1.075,-8.95833 7.16667,-16.125 15.76667,-18.275c11.10833,-3.225 28.66667,-6.80833 47.3,-6.80833c18.63333,0 36.19167,3.58333 47.65833,6.80833c8.6,2.15 14.69167,9.675 15.76667,18.275c0.35833,6.09167 1.075,13.975 1.075,22.575z"/><path fill="#262a2c" d="M86,25.08333c17.55833,0 34.04167,3.58333 44.79167,6.45c4.3,1.075 7.16667,4.65833 7.88333,9.31667c0.71667,6.80833 1.075,13.975 1.075,21.14167c0,55.9 -41.20833,78.475 -53.75,83.85c-12.54167,-5.73333 -53.75,-28.30833 -53.75,-83.85c0,-7.16667 0.35833,-14.33333 1.075,-21.14167c0.35833,-4.65833 3.58333,-8.24167 7.88333,-9.31667c10.75,-2.86667 27.23333,-6.45 44.79167,-6.45M86,14.33333c-18.63333,0 -36.19167,3.58333 -47.65833,6.80833c-8.24167,2.15 -14.69167,9.675 -15.40833,18.275c-0.71667,6.09167 -1.43333,13.975 -1.43333,22.575c0,73.45833 64.5,95.675 64.5,95.675c0,0 64.5,-22.21667 64.5,-95.675c0,-8.95833 -0.71667,-16.48333 -1.43333,-22.575c-1.075,-8.95833 -7.16667,-16.125 -15.76667,-18.275c-11.10833,-3.225 -28.66667,-6.80833 -47.3,-6.80833z"/><path fill="#6a6d67" d="M82.41667,100.33333h7.16667v28.66667h-7.16667z"/><path fill="#262a2c" d="M86,35.83333c0,0 -21.5,17.91667 -21.5,46.58333c0,18.63333 11.825,30.45833 17.91667,35.83333l3.58333,-10.75l3.58333,10.75c6.09167,-5.375 17.91667,-17.2 17.91667,-35.83333c0,-28.66667 -21.5,-46.58333 -21.5,-46.58333z"/><path fill="#646764" d="M86,35.83333c0,0 -21.5,17.91667 -21.5,46.58333c0,18.63333 11.825,30.45833 17.91667,35.83333l3.58333,-10.75z"/></g></svg>