<svg xmlns="http://www.w3.org/2000/svg" viewBox="0 0 172 172" width="100px" height="100px"><g style="mix-blend-mode:normal" fill="none" stroke-miterlimit="10" font-family="none" font-size="none" font-weight="none" text-anchor="none"><path d="M0,172v-172h172v172z"/><path fill="#262a2c" d="M40.85,19.35c-4.72427,0 -8.6,3.87573 -8.6,8.6v19.35c0,2.60352 1.23893,4.86855 3.08643,6.45c-1.8475,1.58145 -3.08643,3.84648 -3.08643,6.45v19.35c0,2.60352 1.23893,4.86855 3.08643,6.45c-1.8475,1.58145 -3.08643,3.84648 -3.08643,6.45v19.35c0,2.60352 1.23893,4.86855 3.08643,6.45c-1.8475,1.58145 -3.08643,3.84648 -3.08643,6.45v19.35c0,4.72427 3.87573,8.6 8.6,8.6h90.3c4.72427,0 8.6,-3.87573 8.6,-8.6v-19.35c0,-2.60352 -1.23893,-4.86855 -3.08643,-6.45c1.8475,-1.58145 3.08643,-3.84648 3.08643,-6.45v-19.35c0,-2.60352 -1.23893,-4.86855 -3.08643,-6.45c1.8475,-1.58145 3.08643,-3.84648 3.08643,-6.45v-19.35c0,-2.60352 -1.23893,-4.86855 -3.08643,-6.45c1.8475,-1.58145 3.08643,-3.84648 3.08643,-6.45v-19.35c0,-4.72427 -3.87573,-8.6 -8.6,-8.6zM40.85,23.65h90.3c2.40083,0 4.3,1.89917 4.3,4.3v19.35c0,2.40083 -1.89917,4.3 -4.3,4.3v4.3c2.40083,0 4.3,1.89917 4.3,4.3v19.35c0,2.40083 -1.89917,4.3 -4.3,4.3v4.3c2.40083,0 4.3,1.89917 4.3,4.3v19.35c0,2.40083 -1.89917,4.3 -4.3,4.3v4.3c2.40083,0 4.3,1.89917 4.3,4.3v19.35c0,2.40083 -1.89917,4.3 -4.3,4.3h-90.3c-2.40083,0 -4.3,-1.89917 -4.3,-4.3v-19.35c0,-2.40083 1.89917,-4.3 4.3,-4.3v-4.3c-2.40083,0 -4.3,-1.89917 -4.3,-4.3v-19.35c0,-2.40083 1.89917,-4.3 4.3,-4.3v-4.3c-2.40083,0 -4.3,-1.89917 -4.3,-4.3v-19.35c0,-2.40083 1.89917,-4.3 4.3,-4.3v-4.3c-2.40083,0 -4.3,-1.89917 -4.3,-4.3v-19.35c0,-2.40083 1.89917,-4.3 4.3,-4.3zM47.3,51.6c-1.18741,0 -2.15,0.96259 -2.15,2.15c0,1.18741 0.96259,2.15 2.15,2.15c1.18741,0 2.15,-0.96259 2.15,-2.15c0,-1.18741 -0.96259,-2.15 -2.15,-2.15zM55.9,51.6c-1.18741,0 -2.15,0.96259 -2.15,2.15c0,1.18741 0.96259,2.15 2.15,2.15c1.18741,0 2.15,-0.96259 2.15,-2.15c0,-1.18741 -0.96259,-2.15 -2.15,-2.15zM64.5,51.6c-1.18741,0 -2.15,0.96259 -2.15,2.15c0,1.18741 0.96259,2.15 2.15,2.15c1.18741,0 2.15,-0.96259 2.15,-2.15c0,-1.18741 -0.96259,-2.15 -2.15,-2.15zM73.1,51.6c-1.18741,0 -2.15,0.96259 -2.15,2.15c0,1.18741 0.96259,2.15 2.15,2.15c1.18741,0 2.15,-0.96259 2.15,-2.15c0,-1.18741 -0.96259,-2.15 -2.15,-2.15zM81.7,51.6c-1.18741,0 -2.15,0.96259 -2.15,2.15c0,1.18741 0.96259,2.15 2.15,2.15c1.18741,0 2.15,-0.96259 2.15,-2.15c0,-1.18741 -0.96259,-2.15 -2.15,-2.15zM90.3,51.6c-1.18741,0 -2.15,0.96259 -2.15,2.15c0,1.18741 0.96259,2.15 2.15,2.15c1.18741,0 2.15,-0.96259 2.15,-2.15c0,-1.18741 -0.96259,-2.15 -2.15,-2.15zM98.9,51.6c-1.18741,0 -2.15,0.96259 -2.15,2.15c0,1.18741 0.96259,2.15 2.15,2.15c1.18741,0 2.15,-0.96259 2.15,-2.15c0,-1.18741 -0.96259,-2.15 -2.15,-2.15zM107.5,51.6c-1.18741,0 -2.15,0.96259 -2.15,2.15c0,1.18741 0.96259,2.15 2.15,2.15c1.18741,0 2.15,-0.96259 2.15,-2.15c0,-1.18741 -0.96259,-2.15 -2.15,-2.15zM116.1,51.6c-1.18741,0 -2.15,0.96259 -2.15,2.15c0,1.18741 0.96259,2.15 2.15,2.15c1.18741,0 2.15,-0.96259 2.15,-2.15c0,-1.18741 -0.96259,-2.15 -2.15,-2.15zM124.7,51.6c-1.18741,0 -2.15,0.96259 -2.15,2.15c0,1.18741 0.96259,2.15 2.15,2.15c1.18741,0 2.15,-0.96259 2.15,-2.15c0,-1.18741 -0.96259,-2.15 -2.15,-2.15zM45.15,77.4v19.35h4.3v-12.16094l4.02705,10.01094h2.6959l4.02705,-10.01094v12.16094h4.3v-19.35h-5.04326l-4.51836,11.43447h-0.23936l-4.50576,-11.43447zM89.2292,77.4c-4.31935,0 -7.14287,2.31656 -7.14287,5.87051c0,2.86595 1.68782,4.66241 5.01387,5.32461l2.38096,0.49971c2.1285,0.4343 2.94785,1.03311 2.94785,2.10381c0,1.2728 -1.24693,2.15 -3.04863,2.15c-1.9909,0 -3.3627,-0.87868 -3.48955,-2.26758h-4.18242c0.10105,3.4916 2.95971,5.66895 7.47041,5.66895c4.71065,0 7.57119,-2.30487 7.57119,-6.08887c0,-2.89175 -1.59943,-4.52232 -5.20283,-5.24903l-2.30537,-0.45771c-1.978,-0.4085 -2.80928,-1.01661 -2.80928,-2.07441c0,-1.27495 1.13352,-2.09121 2.84707,-2.09121c1.70065,0 2.94698,0.91738 3.07383,2.26758h4.05645c-0.08815,-3.35185 -3.01181,-5.65635 -7.18066,-5.65635zM107.5168,77.4c-5.23525,0 -8.5958,3.69585 -8.5958,9.675c0,6.0157 3.3369,9.6876 8.5958,9.6876c1.10725,0 2.13253,-0.16501 3.05703,-0.47031l1.57051,2.60772h3.95566l-2.62871,-4.42178c1.69205,-1.61895 2.62871,-4.19112 2.62871,-7.40322c0,-5.977 -3.34795,-9.675 -8.5832,-9.675zM118.25,77.4v19.35h10.75v-4.3h-6.45v-15.05zM107.5168,81.10791c2.58215,0 4.2832,2.32069 4.2832,5.96709c0,1.50285 -0.32828,2.73913 -0.92383,3.58193l-0.26455,-0.35693h-3.69111l1.65449,2.61191c-0.34185,0.10105 -0.68011,0.13857 -1.04561,0.13857c-2.60365,0 -4.32939,-2.30544 -4.32939,-5.97549c0,-3.65715 1.7239,-5.96709 4.3168,-5.96709zM66.35605,83.85l4.8123,12.22393l-0.08818,0.42412c-0.1892,0.9374 -1.02065,1.36055 -2.44395,1.36055c-0.08815,0 -1.91098,0.0003 -1.98623,-0.0126v3.204c0.08815,0.0129 2.65394,0 2.74209,0c3.8442,0 5.7711,-1.27891 6.9665,-5.03066l4.59814,-12.16934h-4.44697l-2.63291,8.42363h-0.23936l-2.63291,-8.42363zM47.3,116.1c-1.18741,0 -2.15,0.96259 -2.15,2.15c0,1.18741 0.96259,2.15 2.15,2.15c1.18741,0 2.15,-0.96259 2.15,-2.15c0,-1.18741 -0.96259,-2.15 -2.15,-2.15zM55.9,116.1c-1.18741,0 -2.15,0.96259 -2.15,2.15c0,1.18741 0.96259,2.15 2.15,2.15c1.18741,0 2.15,-0.96259 2.15,-2.15c0,-1.18741 -0.96259,-2.15 -2.15,-2.15zM64.5,116.1c-1.18741,0 -2.15,0.96259 -2.15,2.15c0,1.18741 0.96259,2.15 2.15,2.15c1.18741,0 2.15,-0.96259 2.15,-2.15c0,-1.18741 -0.96259,-2.15 -2.15,-2.15zM73.1,116.1c-1.18741,0 -2.15,0.96259 -2.15,2.15c0,1.18741 0.96259,2.15 2.15,2.15c1.18741,0 2.15,-0.96259 2.15,-2.15c0,-1.18741 -0.96259,-2.15 -2.15,-2.15zM81.7,116.1c-1.18741,0 -2.15,0.96259 -2.15,2.15c0,1.18741 0.96259,2.15 2.15,2.15c1.18741,0 2.15,-0.96259 2.15,-2.15c0,-1.18741 -0.96259,-2.15 -2.15,-2.15zM90.3,116.1c-1.18741,0 -2.15,0.96259 -2.15,2.15c0,1.18741 0.96259,2.15 2.15,2.15c1.18741,0 2.15,-0.96259 2.15,-2.15c0,-1.18741 -0.96259,-2.15 -2.15,-2.15zM98.9,116.1c-1.18741,0 -2.15,0.96259 -2.15,2.15c0,1.18741 0.96259,2.15 2.15,2.15c1.18741,0 2.15,-0.96259 2.15,-2.15c0,-1.18741 -0.96259,-2.15 -2.15,-2.15zM107.5,116.1c-1.18741,0 -2.15,0.96259 -2.15,2.15c0,1.18741 0.96259,2.15 2.15,2.15c1.18741,0 2.15,-0.96259 2.15,-2.15c0,-1.18741 -0.96259,-2.15 -2.15,-2.15zM116.1,116.1c-1.18741,0 -2.15,0.96259 -2.15,2.15c0,1.18741 0.96259,2.15 2.15,2.15c1.18741,0 2.15,-0.96259 2.15,-2.15c0,-1.18741 -0.96259,-2.15 -2.15,-2.15zM124.7,116.1c-1.18741,0 -2.15,0.96259 -2.15,2.15c0,1.18741 0.96259,2.15 2.15,2.15c1.18741,0 2.15,-0.96259 2.15,-2.15c0,-1.18741 -0.96259,-2.15 -2.15,-2.15z"/></g></svg>