<svg xmlns="http://www.w3.org/2000/svg" viewBox="0 0 172 172" width="100px" height="100px"><g style="mix-blend-mode:normal" fill="none" fill-rule="none" stroke-miterlimit="10" font-family="none" font-size="none" font-weight="none" text-anchor="none"><path d="M0,172v-172h172v172z"/><path fill="#262a2c" fill-rule="evenodd" d="M76.36279,75.20801c-1.0708,0 -2.85547,0.35693 -3.67431,1.78467l-11.37989,19.71533l6.19385,0.04199l8.83935,-15.30615l4.19922,7.22266l-8.0625,-0.02099l3.14942,5.354l8.02051,0.04199l1.51172,2.66651h6.21484l-11.42187,-19.77832c-1.15479,-1.80566 -2.66651,-1.72168 -3.59033,-1.72168zM101.70508,75.20801c-5.71094,0 -10.33008,4.8081 -10.33008,10.75c0,5.94189 4.61914,10.75 10.33008,10.75l11.16992,0.08398l5.375,-5.45898l-16.60791,0.04199c-3.02344,-0.04199 -4.8291,-2.91846 -4.89209,-5.39599c-0.08398,-2.66651 1.93164,-5.45898 4.93408,-5.50098l11.19092,0.14697l5.375,-5.41699zM10.75,75.25c-5.68994,0 -10.75,5.10205 -10.75,11.04395c0,5.94189 5.06006,10.45605 10.75,10.45605h10.75c5.68994,0 10.75,-4.8081 10.75,-10.75c0,-5.9419 -5.06006,-10.75 -10.75,-10.75zM37.625,75.25v21.5h5.375v-16.125h6.88672c2.03662,-0.02099 3.86328,0.73486 3.86328,2.66651c0,1.91065 -1.78467,2.72949 -3.61133,2.72949l-7.13867,-0.02099l9.11231,10.79199l7.01269,-0.04199l-5.50097,-6.4668c0,0 5.45898,-1.5957 5.50097,-7.07568c0.02099,-4.53516 -2.72949,-7.91553 -7.34863,-7.95752zM129,75.25h-5.375v19.44239c0,0.5249 0.18896,1.0498 0.58789,1.44873c0.35693,0.37793 0.88184,0.60889 1.42773,0.60889l14.10938,0.04199l5.375,-5.41699h-16.125zM154.8042,75.29199c-5.71094,0 -10.33008,4.8081 -10.33008,10.75c0,5.94189 4.61914,10.75 10.33008,10.75h11.8208l5.375,-5.375h-17.27979c-1.30176,0.14697 -3.7583,-0.94483 -4.36719,-3.2544l16.27197,0.18896l5.31201,-4.89209c0,0 -15.99902,0.08398 -21.5,0.10498c0.50391,-2.47754 4.2832,-2.89746 4.2832,-2.89746h11.90479l5.375,-5.375zM10.75,80.625h10.75c1.0708,0.02099 4.89209,1.6377 4.87109,5.35401c-0.02099,4.03125 -3.50635,5.375 -4.87109,5.39599h-10.75c-2.45654,-0.02099 -4.95508,-2.85547 -4.95508,-5.29102c0,-3.02344 2.85547,-5.50097 4.95508,-5.45898z"/></g></svg>