<svg xmlns="http://www.w3.org/2000/svg" viewBox="0 0 172 172" width="100px" height="100px"><g style="mix-blend-mode:normal" fill="none" stroke-miterlimit="10" font-family="none" font-size="none" font-weight="none" text-anchor="none"><path d="M0,172v-172h172v172z"/><path fill="#262a2c" d="M86,41.28c-46.29219,0 -82.56,19.64563 -82.56,44.72c0,25.07438 36.26781,44.72 82.56,44.72c46.29219,0 82.56,-19.64562 82.56,-44.72c0,-25.07437 -36.26781,-44.72 -82.56,-44.72zM77.42688,55.04h9.01656l-2.86219,13.76h8.04906c5.10625,0 8.53281,0.71219 10.48125,2.49938c1.90812,1.76031 2.48594,4.64937 1.72,8.58656l-3.57438,16.43406h-9.16437l3.29219,-15.19781c0.40313,-2.08281 0.24188,-3.53406 -0.45687,-4.3c-0.69875,-0.76594 -2.23063,-1.14219 -4.52844,-1.14219h-7.21594l-4.35375,20.64h-9.03zM37.84,68.8h18.34219c8.74781,0 14.04219,5.85875 11.97281,14.60656c-2.40531,10.15875 -8.85531,12.91344 -20.70719,12.91344h-5.67063l-1.80062,10.32h-9.11063zM110.08,68.8h18.34219c8.74781,0 14.04219,5.85875 11.97281,14.60656c-2.40531,10.15875 -8.85531,12.91344 -20.70719,12.91344h-5.67063l-1.80062,10.32h-9.11063zM45.64719,75.68l-2.59344,13.76h5.88563c5.09281,0 9.82281,-0.57781 10.61562,-8.17c0.29563,-2.94281 -0.92719,-5.59 -6.81281,-5.59zM117.88719,75.68l-2.59344,13.76h5.88563c5.09281,0 9.82281,-0.57781 10.61562,-8.17c0.29563,-2.94281 -0.92719,-5.59 -6.81281,-5.59z"/></g></svg>