<svg xmlns="http://www.w3.org/2000/svg" viewBox="0 0 172 172" width="100px" height="100px"><g style="mix-blend-mode:normal" fill="none" stroke-miterlimit="10" font-family="none" font-size="none" font-weight="none" text-anchor="none"><path d="M0,172v-172h172v172z"/><path fill="#262a2c" d="M120.06406,6.88c-7.01438,0 -13.08813,1.89469 -17.29406,3.7625c-4.12531,-1.38406 -10.965,-3.74906 -19.17531,-2.0425c-4.78375,0.83313 -9.17781,2.80844 -13.20906,5.83188c-6.63813,-3.19813 -13.57188,-5.16 -20.84156,-5.4825c-4.47469,-0.34938 -22.70938,1.72 -29.25344,11.34125c-2.40531,3.78937 -4.81063,8.6 -5.84531,14.44531c-1.03469,5.16 -1.03469,11.01875 0.68531,23.05875c1.03469,8.25063 2.41875,13.76 5.50937,25.10125c0.34938,1.03469 2.06938,6.54406 7.22938,21.68813c1.02125,2.74125 3.09062,7.90125 7.21594,12.71187c2.75469,3.44 5.50937,5.50938 8.94937,5.50938c4.47469,0 7.56531,-3.09063 10.32,-6.53063c0.20156,-0.22844 0.41656,-0.48375 0.61813,-0.71219c-0.25531,0.40313 -0.48375,0.84656 -0.61813,1.3975c-0.68531,3.44 3.44,6.19469 6.88,7.56531c2.75469,1.37062 5.84531,1.72 8.25063,1.72c3.09062,0 5.50937,-0.68531 6.88,-1.02125c1.1825,-0.40313 3.73562,-1.505 6.46344,-3.31906c0.12094,8.78813 0.20156,19.16188 0.41656,21.54031c1.03469,8.94937 3.44,15.13062 7.91469,18.57062c3.44,2.75469 9.63469,3.10406 9.98406,3.10406c6.18125,0 15.81594,-4.12531 19.94125,-10.65594c2.06937,-3.10406 2.75469,-5.85875 3.44,-9.64813c0.68531,-2.05594 1.37062,-14.09594 1.72,-16.50125c0.47031,-3.80281 0.83312,-7.55187 1.19594,-11.19344c2.27094,0.59125 5.06594,1.22281 8.10281,1.22281c5.49594,0 12.72531,-3.78938 14.09594,-4.48813c2.75469,-2.05594 8.25063,-6.86656 5.84531,-10.99187c-1.37063,-2.41875 -3.44,-2.41875 -8.6,-1.72c0,0 -8.25063,1.02125 -8.94938,0.67187c-0.49719,-0.18812 -1.26312,-0.67187 -2.12312,-1.30344c1.78719,-2.76812 3.37281,-5.50937 5.22719,-7.96844c4.12531,-7.91469 6.54406,-14.10938 8.26406,-18.92c3.09062,-8.6 4.81062,-15.49344 5.83187,-20.30406c2.41875,-10.32 3.10406,-15.13062 1.72,-20.64c-2.74125,-9.63469 -12.72531,-17.88531 -16.85062,-20.29062c-2.75469,-1.38406 -9.62125,-5.50938 -19.94125,-5.50938zM120.06406,13.76c8.6,0 14.44531,3.44 17.53594,4.81063c3.78938,2.06937 12.38938,8.94937 13.07469,15.48c0.34938,3.78937 0.68531,7.57875 -1.72,17.54937c-1.37062,4.81063 -2.75469,11.00531 -5.85875,19.60531c-1.72,4.81062 -3.77594,10.66937 -7.90125,17.89875c-0.1075,0.17469 -0.22844,0.36281 -0.33594,0.55094c0.40313,-1.45125 0.68531,-2.62031 0.68531,-2.62031c0.68531,-3.44 0.68531,-6.19469 0.33594,-10.32c-0.34937,-2.06937 -0.68531,-7.22937 -0.68531,-9.29875c0,-1.02125 1.02125,-11.69062 1.37063,-15.48c0.34937,-6.18125 -3.44,-13.76 -4.46125,-15.13062c-5.16,-7.91469 -7.91469,-12.37594 -13.42406,-16.85063c-1.37062,-1.16906 -3.72219,-3.1175 -6.92031,-5.07937c2.52625,-0.61813 5.32125,-1.11531 8.30438,-1.11531zM89.66844,15.17094c4.48813,0.1075 8.29094,1.34375 11.12625,2.37844c7.22938,2.40531 11.69063,6.18125 13.76,7.90125c4.47469,3.78937 6.88,7.57875 12.04,15.49344c0.37625,0.7525 1.35719,2.35156 2.13656,4.58219c-7.04125,-0.645 -11.7175,1.8275 -14.52594,4.35375c-4.12531,3.44 -3.78938,8.6 -3.44,12.37594c0,2.75469 0.69875,6.20813 5.85875,17.89875c2.05594,5.16 4.11187,10.65594 6.18125,14.44531c1.075,2.13656 2.39187,4.09844 3.80281,5.84531c-0.81969,0.41656 -1.65281,0.95406 -2.43219,1.72c-2.05594,2.40531 -2.40531,4.82406 -3.09062,9.29875c-0.68531,3.44 -1.37063,10.65594 -1.72,16.50125c0,2.40531 -1.02125,14.10937 -1.37063,15.82937c-1.03469,3.44 -1.38406,5.16 -2.75469,7.22938c-2.40531,3.77594 -9.97062,6.88 -14.44531,6.53062c-1.37062,0 -3.44,0 -5.16,-1.37062c-3.78937,-2.75469 -5.16,-8.94938 -5.50937,-13.76c-0.34938,-3.44 0,-28.21875 -0.68531,-33.72813c-0.34937,-1.37062 -0.68531,-4.81062 -3.44,-7.21594c-1.15562,-0.9675 -3.5475,-1.46469 -5.805,-1.80062c0.02688,-1.15563 0.09406,-2.31125 0.30906,-3.35938c0.33594,-2.06937 1.02125,-3.10406 1.72,-4.82406c0.33594,-1.02125 1.02125,-2.39187 1.72,-4.11187c3.09062,-9.63469 2.39187,-22.37344 0.67187,-30.28813c-0.33594,-0.68531 -1.72,-6.18125 -6.53062,-9.27187c-5.16,-3.10406 -10.66938,-1.38406 -13.76,-0.34938c-1.27656,0.34938 -2.53969,0.90031 -3.80281,1.54531c0.215,-1.43781 0.40313,-2.88906 0.71219,-4.3c1.37063,-6.88 2.75469,-12.72531 7.22938,-18.57062c4.81062,-5.85875 10.30656,-9.63469 16.50125,-10.66938c1.63937,-0.25531 3.21156,-0.34937 4.70312,-0.30906zM47.1925,15.77563c0.80625,-0.01344 1.49156,0 2.00219,0.05375c5.375,0.28219 10.52156,1.54531 15.62781,3.69531c-0.63156,0.69875 -1.26312,1.3975 -1.86781,2.15c-5.84531,6.88 -7.22937,14.09594 -8.6,21.32531c-1.72,8.6 -2.06937,17.53594 -0.69875,26.48531l-0.67187,6.53062c-0.34938,3.44 -1.04813,9.98406 2.74125,16.86406c1.33031,2.28438 2.795,4.21938 4.4075,5.87219c-3.49375,4.6225 -7.2025,8.98969 -10.93813,13.04781c-2.06937,2.40531 -3.78937,4.12531 -5.16,4.12531c-0.34937,0 -1.72,-0.68531 -3.78937,-3.09063c-3.78938,-4.12531 -5.16,-8.6 -5.84531,-10.32c-4.12531,-12.38937 -6.53062,-20.30406 -6.88,-21.33875c-2.75469,-11.00531 -4.12531,-16.50125 -5.50937,-24.41594c-1.72,-11.00531 -1.72,-16.51469 -0.68531,-20.97594c1.03469,-4.82406 2.75469,-8.61344 4.47469,-11.35469c4.21938,-6.62469 15.8025,-8.50594 21.3925,-8.65375zM126.12438,52.03c1.10187,0 2.29781,0.13438 3.56094,0.40313c-0.04031,3.21156 -1.37063,13.28969 -1.37063,14.64687c0,2.75469 0.68531,8.25063 0.68531,10.32c0.34938,3.78938 0.34938,5.84531 0,8.6c0,0 -0.51062,2.45906 -1.03469,4.20594c-1.59906,-3.61469 -3.37281,-7.92812 -5.50938,-12.80594c-5.16,-11.69062 -5.49594,-14.09594 -5.49594,-15.81594c0,-2.41875 0,-5.50938 2.05594,-6.88c1.935,-1.72 4.28656,-2.64719 7.10844,-2.67406zM72.72375,53.03781c0.68531,0.08062 1.31688,0.28219 1.92156,0.61812c2.75469,1.38406 3.44,4.82406 3.44,4.82406c1.72,7.56531 2.40531,18.92 -0.34938,26.48531c-0.33594,1.37062 -1.02125,2.40531 -1.37062,3.44c-0.68531,1.72 -1.37063,3.44 -2.06938,6.53062c-0.17469,1.27656 -0.25531,2.53969 -0.29562,3.80281c-2.37844,-0.49719 -4.6225,-1.34375 -6.235,-2.41875c-2.75469,-1.37062 -4.81063,-3.78937 -6.18125,-6.54406c-2.41875,-5.16 -2.06938,-9.97062 -1.72,-12.71187l0.67187,-7.92813c-0.48375,-3.87 -0.71219,-7.75344 -0.65844,-11.61c1.58563,-1.35719 3.655,-2.74125 6.51719,-3.52062c2.06938,-0.51063 4.32688,-1.22281 6.32906,-0.9675zM123.45031,55.34906c-0.90031,0.04031 -1.85438,0.20156 -2.365,0.37625c-1.37063,0.34937 -1.72,0.34937 -2.06938,1.03469c-0.33594,0.68531 0.69875,1.72 1.04813,2.40531c0.33594,0 1.37062,1.03469 2.74125,0.69875c1.03469,-0.34938 1.72,-1.03469 2.06937,-1.38406c0.34938,-0.34937 1.72,-2.06937 0.68531,-2.75469c-0.34937,-0.34938 -1.20937,-0.43 -2.10969,-0.37625zM71.94438,57.84844c-0.37625,0.02688 -0.73906,0.12094 -1.08844,0.29563c-0.33594,0 -1.02125,0.33594 -1.37062,1.02125c-0.34938,0.68531 0,1.37062 0.34937,1.72c0.68531,1.03469 1.72,2.06937 3.44,2.06937c0.34938,0 1.72,0 2.74125,-1.03469c0,0 1.04813,-1.03469 1.04813,-2.05594c-0.34938,-0.69875 -1.03469,-1.03469 -2.06938,-1.38406c-0.77937,-0.25531 -1.935,-0.71219 -3.05031,-0.63156zM65.61531,102.86406c2.10969,1.12875 4.64937,2.0425 7.43094,2.67406c-0.73906,1.47812 -1.80062,2.70094 -2.86219,3.50719c-2.41875,1.72 -5.50938,2.75469 -8.6,3.44c-0.69875,0 -1.03469,0.34937 -1.72,0.34937c-1.66625,0.47031 -3.27875,0.99438 -4.38063,2.13656c3.37281,-3.74906 6.75906,-7.88781 10.13188,-12.10719zM131.94281,105.61875c1.505,1.12875 2.98312,1.96188 4.27312,2.40531c2.06938,0.68531 3.78938,0.68531 9.98406,0c-1.03469,1.02125 -4.12531,2.74125 -8.6,3.44c-2.87562,0.28219 -6.45,-0.40313 -9.3525,-1.23625c0.26875,-1.94844 0.57781,-3.06375 1.08844,-3.58781c0.18813,-0.17469 1.33031,-0.52406 2.60688,-1.02125zM80.14125,106.65344c0.71219,0.12094 1.27656,0.215 1.38406,0.3225c0.68531,0.69875 1.03469,2.41875 1.03469,3.10406c0.04031,0.59125 0.06719,2.08281 0.09406,3.1175c-2.83531,3.31906 -7.39063,5.16 -8.35813,5.4825c-1.37062,0.68531 -5.49594,1.37063 -9.62125,0c3.44,-1.03469 6.88,-2.05594 9.62125,-4.12531c2.40531,-1.72 4.47469,-4.46125 5.84531,-7.90125z"/></g></svg>