<svg xmlns="http://www.w3.org/2000/svg" viewBox="0 0 172 172" width="100px" height="100px"><g style="mix-blend-mode:normal" fill="none" stroke-miterlimit="10" font-family="none" font-size="none" font-weight="none" text-anchor="none"><path d="M0,172v-172h172v172z"/><path fill="#2a262c" d="M86,6.88c-13.96156,0 -23.435,3.3325 -29.455,8.17c-6.02,4.8375 -8.385,11.05906 -8.385,16.2325v16.8775h34.4v3.44h-51.2775c-6.28875,0 -12.67156,2.72781 -17.2,8.4925c-4.52844,5.76469 -7.2025,14.36469 -7.2025,25.9075c0,11.54281 2.67406,20.14281 7.2025,25.9075c4.52844,5.76469 10.91125,8.4925 17.2,8.4925h16.8775v20.3175c0,5.17344 2.365,11.395 8.385,16.2325c6.02,4.8375 15.49344,8.17 29.455,8.17c13.96156,0 23.435,-3.3325 29.455,-8.17c6.02,-4.8375 8.385,-11.05906 8.385,-16.2325v-16.8775h-34.4v-3.44h51.2775c6.28875,0 12.67156,-2.72781 17.2,-8.4925c4.52844,-5.76469 7.2025,-14.36469 7.2025,-25.9075c0,-11.54281 -2.67406,-20.14281 -7.2025,-25.9075c-4.52844,-5.76469 -10.91125,-8.4925 -17.2,-8.4925h-16.8775v-20.3175c0,-5.30781 -2.35156,-11.54281 -8.385,-16.34c-6.03344,-4.79719 -15.50687,-8.0625 -29.455,-8.0625zM86,13.76c12.88656,0 20.69375,3.01 25.155,6.5575c4.46125,3.5475 5.805,7.67281 5.805,10.965v40.9575c0,5.6975 -4.6225,10.32 -10.32,10.32h-41.28c-7.08156,0 -13.18219,4.36719 -15.8025,10.535c-0.44344,1.02125 -0.84656,2.10969 -1.075,3.225c-0.22844,1.11531 -0.3225,2.2575 -0.3225,3.44v13.76h-16.8775c-4.36719,0 -8.41187,-1.70656 -11.7175,-5.9125c-3.30562,-4.20594 -5.805,-11.13969 -5.805,-21.6075c0,-10.46781 2.49938,-17.40156 5.805,-21.6075c3.30563,-4.20594 7.35031,-5.9125 11.7175,-5.9125h58.1575v-17.2h-34.4v-9.9975c0,-3.07719 1.33031,-7.26969 5.805,-10.8575c4.47469,-3.58781 12.28188,-6.665 25.155,-6.665zM68.8,24.08c-3.78937,0 -6.88,3.09063 -6.88,6.88c0,3.78938 3.09063,6.88 6.88,6.88c3.78938,0 6.88,-3.09062 6.88,-6.88c0,-3.78937 -3.09062,-6.88 -6.88,-6.88zM123.84,58.48h16.8775c4.36719,0 8.41188,1.70656 11.7175,5.9125c3.30563,4.20594 5.805,11.13969 5.805,21.6075c0,10.46781 -2.49937,17.40156 -5.805,21.6075c-3.30562,4.20594 -7.35031,5.9125 -11.7175,5.9125h-58.1575v17.2h34.4v9.9975c0,3.07719 -1.33031,7.26969 -5.805,10.8575c-4.47469,3.58781 -12.28187,6.665 -25.155,6.665c-12.87312,0 -20.68031,-3.07719 -25.155,-6.665c-4.47469,-3.58781 -5.805,-7.78031 -5.805,-10.8575v-40.9575c0,-0.71219 0.08063,-1.37062 0.215,-2.0425c0.9675,-4.70312 5.11969,-8.2775 10.105,-8.2775h41.28c9.44656,0 17.2,-7.75344 17.2,-17.2zM103.2,134.16c-3.78937,0 -6.88,3.09063 -6.88,6.88c0,3.78938 3.09063,6.88 6.88,6.88c3.78938,0 6.88,-3.09062 6.88,-6.88c0,-3.78937 -3.09062,-6.88 -6.88,-6.88z"/></g></svg>