<svg xmlns="http://www.w3.org/2000/svg" viewBox="0 0 172 172" width="100px" height="100px"><g style="mix-blend-mode:normal" fill="none" stroke-miterlimit="10" font-family="none" font-size="none" font-weight="none" text-anchor="none"><path d="M0,172v-172h172v172z"/><circle cx="50" cy="50" r="7" fill="#262a2c" transform="scale(1.72)"/><path fill="#1f212b" d="M86,99.76c-7.58692,0 -13.76,-6.17308 -13.76,-13.76c0,-7.58692 6.17308,-13.76 13.76,-13.76c7.58692,0 13.76,6.17308 13.76,13.76c0,7.58692 -6.17308,13.76 -13.76,13.76zM86,75.68c-5.69148,0 -10.32,4.62852 -10.32,10.32c0,5.69148 4.62852,10.32 10.32,10.32c5.69148,0 10.32,-4.62852 10.32,-10.32c0,-5.69148 -4.62852,-10.32 -10.32,-10.32z"/><path fill="#262a2c" d="M152.22,86c0,-9.24672 -11.13528,-17.24988 -28.41096,-22.01256c4.44104,-17.36512 3.07364,-31.0202 -4.86244,-35.65388c-3.1304,-1.82836 -6.92816,-2.16204 -11.28664,-0.99588c-6.56696,1.75784 -14.09196,6.8972 -21.65996,14.44628c-7.568,-7.54908 -15.093,-12.68672 -21.65996,-14.44628c-4.35848,-1.16788 -8.15624,-0.83248 -11.28664,0.99588c-7.93608,4.63368 -9.30348,18.28704 -4.86244,35.65388c-17.27568,4.76268 -28.41096,12.76584 -28.41096,22.01256c0,9.24672 11.13528,17.24988 28.41096,22.01428c-4.44104,17.36512 -3.07364,31.0202 4.86244,35.65388c1.91264,1.11628 4.07296,1.67872 6.46032,1.677c1.51876,0 3.1304,-0.22704 4.82632,-0.68112c6.56696,-1.75956 14.09196,-6.8972 21.65996,-14.44628c7.568,7.54908 15.093,12.68672 21.65996,14.44628c1.69592,0.45408 3.30756,0.68112 4.82632,0.68112c2.38736,0 4.54768,-0.559 6.46032,-1.677c7.93608,-4.63368 9.30176,-18.28876 4.86244,-35.65388c17.27568,-4.7644 28.41096,-12.76756 28.41096,-22.01428zM108.99468,32.32052c1.247,-0.33196 2.40284,-0.50052 3.46752,-0.50052c1.4792,0 2.77952,0.32336 3.88204,0.96836c5.31824,3.10632 6.40356,14.4824 2.4424,29.94692c-5.45756,-1.22808 -11.4122,-2.15172 -17.74008,-2.72276c-3.71348,-5.35436 -7.5766,-10.22884 -11.46896,-14.49788c6.91096,-6.92644 13.6912,-11.65988 19.41708,-13.19412zM104.4986,96.83428c-2.02788,3.55352 -4.1624,6.9574 -6.35196,10.21508c-3.8872,0.29068 -7.93952,0.45064 -12.14664,0.45064c-4.20712,0 -8.25944,-0.15996 -12.14492,-0.45064c-2.18956,-3.25768 -4.32408,-6.66156 -6.35196,-10.21508c-2.09668,-3.67392 -3.97836,-7.2928 -5.66396,-10.83256c1.6856,-3.53976 3.56728,-7.15864 5.66396,-10.83428c2.0296,-3.55524 4.1624,-6.95912 6.35368,-10.2168c3.88548,-0.29068 7.93608,-0.45064 12.1432,-0.45064c4.20712,0 8.25772,0.15996 12.14492,0.45064c2.18956,3.25768 4.32408,6.66328 6.35368,10.2168c2.09668,3.67392 3.97836,7.2928 5.66396,10.83428c-1.6856,3.53976 -3.56728,7.15864 -5.66396,10.83256zM112.90768,92.0974c1.79052,4.23292 3.26972,8.3076 4.46684,12.18104c-3.913,0.87204 -8.13732,1.5996 -12.64888,2.13796c1.44824,-2.28072 2.87584,-4.61304 4.25356,-7.0262c1.39492,-2.44068 2.69696,-4.87448 3.92848,-7.2928zM86,122.73404c-2.81392,-3.11148 -5.62268,-6.55664 -8.36608,-10.28388c2.73824,0.13244 5.52464,0.20984 8.36608,0.20984c2.84144,0 5.62784,-0.0774 8.36608,-0.20984c-2.7434,3.72552 -5.55216,7.17068 -8.36608,10.28388zM67.27264,106.4164c-4.50984,-0.53836 -8.73588,-1.26592 -12.64888,-2.13796c1.19712,-3.87344 2.67632,-7.94984 4.46684,-12.18104c1.23152,2.41832 2.53528,4.85212 3.92848,7.2928c1.37944,2.41488 2.80532,4.7472 4.25356,7.0262zM59.09232,79.90432c-1.79052,-4.23292 -3.27144,-8.30932 -4.46684,-12.18448c3.913,-0.87204 8.13904,-1.5996 12.6506,-2.13796c-1.44996,2.28072 -2.87584,4.61476 -4.25356,7.02792c-1.39664,2.4424 -2.69868,4.8762 -3.9302,7.29452zM86,49.26768c2.81392,3.11148 5.62268,6.55664 8.36608,10.28388c-2.73824,-0.13416 -5.52464,-0.21156 -8.36608,-0.21156c-2.84144,0 -5.62784,0.0774 -8.36608,0.20984c2.7434,-3.72552 5.55216,-7.17068 8.36608,-10.28216zM108.9792,72.61152c-1.37772,-2.41488 -2.80532,-4.7472 -4.25356,-7.02792c4.51156,0.53836 8.73588,1.26592 12.6506,2.13796c-1.19712,3.87516 -2.67632,7.94984 -4.46684,12.18448c-1.23324,-2.42004 -2.53528,-4.85384 -3.9302,-7.29452zM55.65576,32.78836c1.10424,-0.645 2.40112,-0.96836 3.88204,-0.96836c1.06296,0 2.22224,0.16856 3.46752,0.50052c5.72588,1.53424 12.50612,6.26596 19.41708,13.1924c-3.89236,4.26904 -7.75548,9.14524 -11.46896,14.49788c-6.32788,0.57104 -12.28424,1.49468 -17.74008,2.72276c-3.96116,-15.46452 -2.87584,-26.8406 2.4424,-29.9452zM24.94,86c0,-6.18512 9.28972,-12.7968 24.6562,-17.02972c1.66668,5.43348 3.85452,11.15592 6.54632,17.02972c-2.6918,5.8738 -4.87964,11.59624 -6.54632,17.02972c-15.36648,-4.23292 -24.6562,-10.8446 -24.6562,-17.02972zM63.00532,139.67948c-2.98076,0.79464 -5.4524,0.63812 -7.34956,-0.46612c-5.31824,-3.10632 -6.40184,-14.4824 -2.4424,-29.94692c5.45584,1.22808 11.4122,2.15172 17.73836,2.72276c3.71348,5.35436 7.5766,10.22884 11.46896,14.4996c-6.90924,6.92472 -13.68948,11.65644 -19.41536,13.19068zM116.34424,139.21336c-1.89716,1.10768 -4.36708,1.26248 -7.34956,0.46612c-5.72588,-1.53424 -12.50612,-6.26596 -19.41708,-13.1924c3.89236,-4.26904 7.75548,-9.14524 11.46896,-14.4996c6.32788,-0.57104 12.28252,-1.49468 17.73836,-2.72276c3.96288,15.46624 2.87756,26.84232 -2.44068,29.94864zM122.4038,103.02972c-1.66668,-5.43348 -3.85452,-11.15592 -6.54632,-17.02972c2.6918,-5.8738 4.87964,-11.59796 6.54632,-17.02972c15.36648,4.23292 24.6562,10.8446 24.6562,17.02972c0,6.18512 -9.28972,12.7968 -24.6562,17.02972z"/><path fill="#1f212b" d="M59.5034,146.20344c-2.53012,0 -4.84524,-0.60372 -6.88172,-1.79396c-7.96704,-4.6526 -9.94676,-17.67472 -5.46616,-35.79492c-17.95852,-5.10668 -28.23552,-13.32656 -28.23552,-22.61456c0,-9.288 10.277,-17.50788 28.2338,-22.61456c-4.47888,-18.1202 -2.49916,-31.14232 5.46788,-35.79492c3.33336,-1.95048 7.34956,-2.31512 11.94196,-1.0836c6.39496,1.71312 13.7944,6.5704 21.43636,14.06788c7.64368,-7.49748 15.04312,-12.35476 21.43636,-14.06788c4.59068,-1.22808 8.6086,-0.86344 11.94368,1.0836c7.96532,4.6526 9.94504,17.67472 5.46616,35.79492c17.9568,5.10668 28.2338,13.32656 28.2338,22.61456c0,9.288 -10.277,17.50788 -28.2338,22.61456c4.47888,18.1202 2.50088,31.1406 -5.46616,35.79492c-3.31444,1.935 -7.37192,2.30824 -11.94196,1.0836c-6.39668,-1.71312 -13.79612,-6.5704 -21.43808,-14.06616c-7.64196,7.49576 -15.0414,12.35476 -21.43636,14.06616c-1.75956,0.47128 -3.45892,0.71036 -5.04992,0.71036c-0.00344,0 -0.00688,0 -0.01032,0zM59.51888,27.51828c-2.23772,0 -4.25528,0.51944 -6.03204,1.55832c-7.26528,4.24324 -8.93368,17.21376 -4.4634,34.69756c0.11524,0.45408 -0.15308,0.91848 -0.60544,1.04232c-17.39264,4.79536 -27.778,12.71596 -27.778,21.18352c0,8.46756 10.38536,16.38816 27.77972,21.18352c0.45236,0.12384 0.72068,0.58824 0.60544,1.04232c-4.472,17.4838 -2.8036,30.45604 4.46168,34.69756c1.7716,1.03372 3.79604,1.55832 6.01656,1.55832c0.00344,0 0.00688,0 0.01032,0c1.44136,0 2.98936,-0.21844 4.60444,-0.65016c6.27284,-1.68044 13.631,-6.59792 21.27468,-14.2244c0.3354,-0.33368 0.87892,-0.33368 1.21432,0c7.64368,7.62476 15.00184,12.54224 21.27468,14.2244c4.11768,1.09908 7.7142,0.79292 10.63132,-0.90816c7.26528,-4.24324 8.93368,-17.21376 4.46168,-34.69756c-0.11524,-0.45408 0.15308,-0.91848 0.60544,-1.04232c17.39436,-4.79536 27.77972,-12.71596 27.77972,-21.18352c0,-8.46756 -10.38536,-16.38816 -27.77972,-21.18352c-0.45236,-0.12384 -0.72068,-0.58824 -0.60544,-1.04232c4.47028,-17.4838 2.80188,-30.45604 -4.4634,-34.69756c-2.92228,-1.70796 -6.49988,-2.0124 -10.63132,-0.90816c-6.27284,1.68044 -13.62928,6.59792 -21.27468,14.2244c-0.3354,0.33368 -0.87892,0.33368 -1.21432,0c-7.6454,-7.62648 -15.00184,-12.54396 -21.27468,-14.2244c-1.61852,-0.43344 -3.15276,-0.65016 -4.59756,-0.65016zM112.46392,141.03828c-1.14036,0 -2.37188,-0.17544 -3.69112,-0.52804c-5.72932,-1.53596 -12.57664,-6.17308 -19.80408,-13.416c-0.32336,-0.32508 -0.3354,-0.84796 -0.02752,-1.1868c3.8958,-4.27248 7.72968,-9.12116 11.39844,-14.41016c0.14448,-0.20984 0.37496,-0.344 0.62952,-0.36636c6.21264,-0.56072 12.1432,-1.4706 17.62828,-2.70556c0.44892,-0.10148 0.90644,0.17372 1.02168,0.62608c4.01792,15.69156 2.92916,27.53376 -2.84144,30.90324v0c-1.23668,0.7224 -2.67976,1.0836 -4.31376,1.0836zM90.76612,126.45612c6.79572,6.69768 13.16316,10.97532 18.45044,12.3926c2.75028,0.73444 5.00348,0.60716 6.69424,-0.3784v0c4.9106,-2.86896 5.77404,-13.88556 2.24632,-28.18564c-5.20816,1.13348 -10.79644,1.98144 -16.6324,2.52324c-3.46752,4.97424 -7.08296,9.55976 -10.7586,13.6482zM59.53608,141.03828c-1.634,0 -3.07708,-0.3612 -4.31376,-1.08188c-5.7706,-3.3712 -6.86108,-15.2134 -2.84144,-30.90496c0.11524,-0.45064 0.57276,-0.72068 1.02168,-0.62608c5.48336,1.23496 11.41392,2.14484 17.62828,2.70556c0.25284,0.02236 0.48504,0.15652 0.62952,0.36636c3.66876,5.289 7.50264,10.13768 11.39844,14.41016c0.3096,0.33884 0.29756,0.86172 -0.02752,1.1868c-7.22744,7.2412 -14.07476,11.88004 -19.80236,13.416v0c-1.32096,0.35088 -2.5542,0.52804 -3.69284,0.52804zM53.84288,110.28468c-3.52772,14.29836 -2.66428,25.31668 2.24632,28.18564c1.68904,0.98384 3.94224,1.11284 6.69424,0.3784v0c5.28728,-1.41728 11.65472,-5.69664 18.45044,-12.3926c-3.67392,-4.08844 -7.28936,-8.67396 -10.75688,-13.6482c-5.83596,-0.5418 -11.42596,-1.38976 -16.63412,-2.52324zM86,123.59232c-0.24252,0 -0.47472,-0.1032 -0.63812,-0.2838c-2.86036,-3.16308 -5.6932,-6.64608 -8.42112,-10.35096c-0.19608,-0.2666 -0.22188,-0.62436 -0.06536,-0.91676c0.15652,-0.2924 0.44892,-0.47128 0.7998,-0.45236c5.68632,0.27692 10.96328,0.27692 16.6496,0c0.344,-0.02064 0.64328,0.15996 0.7998,0.45236c0.15652,0.2924 0.13244,0.64844 -0.06536,0.91676c-2.72792,3.70316 -5.56076,7.18616 -8.42112,10.35096c-0.1634,0.1806 -0.3956,0.2838 -0.63812,0.2838zM79.40724,113.38928c2.15172,2.8466 4.36364,5.54872 6.59276,8.05648c2.23084,-2.50776 4.44104,-5.20816 6.59276,-8.05648c-4.49264,0.172 -8.69288,0.172 -13.18552,0zM86,108.36c-4.07468,0 -8.18204,-0.15136 -12.21028,-0.45236c-0.26316,-0.01892 -0.50224,-0.15824 -0.65016,-0.3784c-2.29964,-3.42108 -4.44792,-6.87656 -6.38464,-10.2684c-2.0296,-3.55696 -3.94568,-7.22056 -5.6932,-10.89104c-0.1118,-0.23392 -0.1118,-0.50568 0,-0.7396c1.74752,-3.67048 3.6636,-7.33408 5.6932,-10.89104c1.935,-3.3884 4.08328,-6.84388 6.38636,-10.27012c0.1462,-0.21844 0.387,-0.35776 0.65016,-0.3784c8.05648,-0.602 16.36236,-0.602 24.41712,0c0.26316,0.01892 0.50224,0.15824 0.65016,0.3784c2.30308,3.42624 4.45136,6.88172 6.38636,10.27012c2.0296,3.55696 3.94568,7.22056 5.6932,10.89104c0.1118,0.23392 0.1118,0.50568 0,0.7396c-1.74752,3.67048 -3.6636,7.33408 -5.6932,10.89104v0c-1.93672,3.39184 -4.085,6.84732 -6.38464,10.2684c-0.1462,0.21844 -0.387,0.35776 -0.65016,0.3784c-4.02824,0.301 -8.1356,0.45236 -12.21028,0.45236zM74.33496,106.22204c7.70388,0.55384 15.6262,0.55384 23.32836,0c2.18956,-3.27316 4.23636,-6.57384 6.08708,-9.81604c1.94016,-3.40044 3.7754,-6.89892 5.45756,-10.406c-1.68216,-3.50708 -3.5174,-7.00728 -5.45756,-10.406c-1.849,-3.23876 -3.8958,-6.53944 -6.0888,-9.81776c-7.70388,-0.55384 -15.62448,-0.55384 -23.32836,0c-2.19128,3.27832 -4.2398,6.579 -6.0888,9.81776c-1.94016,3.40044 -3.7754,6.89892 -5.45756,10.406c1.68216,3.50708 3.5174,7.00728 5.45756,10.406c1.85416,3.24392 3.90096,6.54288 6.09052,9.81604zM104.72736,107.27812c-0.2924,0 -0.56932,-0.14964 -0.72756,-0.40076c-0.17716,-0.28208 -0.17544,-0.63984 0.00172,-0.9202c1.59616,-2.51292 2.98076,-4.80052 4.2312,-6.9918c1.31408,-2.30136 2.62816,-4.74376 3.90956,-7.25668c0.15136,-0.29756 0.46956,-0.47472 0.79636,-0.46784c0.33368,0.01204 0.63124,0.215 0.76196,0.5246c1.7458,4.12628 3.25768,8.25256 4.49608,12.26188c0.07224,0.22876 0.043,0.47816 -0.0774,0.68456c-0.1204,0.20812 -0.32336,0.35604 -0.55728,0.40764c-4.042,0.903 -8.32652,1.62712 -12.73316,2.15344c-0.0344,0.00344 -0.0688,0.00516 -0.10148,0.00516zM112.82512,94.13732c-1.02168,1.95736 -2.06056,3.8614 -3.09772,5.67944c-1.00276,1.75784 -2.09152,3.57588 -3.3024,5.51948c3.3884,-0.45064 6.6908,-1.01996 9.85044,-1.69764c-0.99244,-3.12008 -2.14828,-6.3038 -3.45032,-9.50128zM67.27264,107.27812c-0.0344,0 -0.0688,-0.00172 -0.1032,-0.00516c-4.40492,-0.52804 -8.68944,-1.25216 -12.73144,-2.15516c-0.23392,-0.0516 -0.43516,-0.19952 -0.55728,-0.40764c-0.1204,-0.20812 -0.14792,-0.4558 -0.0774,-0.68456c1.2384,-4.01104 2.75028,-8.1356 4.49608,-12.26188c0.13072,-0.30788 0.42828,-0.51256 0.76196,-0.5246c0.31304,-0.03268 0.645,0.17028 0.79636,0.46784c1.2814,2.51292 2.59548,4.95532 3.90956,7.25668c1.25216,2.19128 2.63676,4.47888 4.2312,6.9918c0.17888,0.28036 0.17888,0.63812 0.00172,0.9202c-0.15824,0.25284 -0.43344,0.40248 -0.72756,0.40248zM55.72628,103.6386c3.15964,0.67768 6.46204,1.247 9.85044,1.69764c-1.2126,-1.9436 -2.29964,-3.76164 -3.3024,-5.51948c-1.03888,-1.81804 -2.07604,-3.7238 -3.09772,-5.67944c-1.30376,3.19748 -2.4596,6.3812 -3.45032,9.50128zM122.4038,103.88972c-0.3698,0 -0.70864,-0.23908 -0.82216,-0.60888c-1.677,-5.46788 -3.86656,-11.16108 -6.50504,-16.92136c-0.10492,-0.22704 -0.10492,-0.4902 0,-0.71724c2.63848,-5.76028 4.82804,-11.4552 6.50676,-16.9248c0.1376,-0.44548 0.60888,-0.69488 1.05092,-0.5762c15.59696,4.29828 25.28572,11.14044 25.28572,17.85876c0,6.71832 -9.69048,13.56048 -25.28916,17.85876c-0.07568,0.02064 -0.15308,0.03096 -0.22704,0.03096zM116.80348,86c2.46992,5.4266 4.54596,10.79644 6.17308,15.97536c14.13668,-4.02996 23.22344,-10.26152 23.22344,-15.97536c0,-5.71384 -9.08676,-11.9454 -23.22344,-15.97536c-1.62884,5.18064 -3.70488,10.55048 -6.17308,15.97536zM49.5962,103.88972c-0.07568,0 -0.15136,-0.01032 -0.22876,-0.03096c-15.59696,-4.29828 -25.28744,-11.14044 -25.28744,-17.85876c0,-6.71832 9.68876,-13.56048 25.28744,-17.85876c0.44376,-0.11868 0.91332,0.13072 1.05092,0.5762c1.67872,5.4696 3.86828,11.16452 6.50676,16.9248c0.10492,0.22704 0.10492,0.48848 0,0.71724c-2.6402,5.762 -4.82804,11.4552 -6.50504,16.92136c-0.11352,0.3698 -0.45408,0.60888 -0.82388,0.60888zM49.02344,70.02464c-14.13668,4.02996 -23.22344,10.26152 -23.22344,15.97536c0,5.71384 9.08676,11.9454 23.22344,15.97536c1.62884,-5.17892 3.70316,-10.54704 6.17308,-15.97536c-2.4682,-5.42488 -4.54424,-10.79472 -6.17308,-15.97536zM112.9094,80.76604c-0.32336,0 -0.6192,-0.1806 -0.76712,-0.46956c-1.30204,-2.55936 -2.58172,-4.93468 -3.90784,-7.2584v0c-1.24872,-2.18784 -2.63332,-4.47544 -4.23292,-6.99352c-0.17888,-0.28036 -0.17888,-0.63812 -0.00172,-0.9202c0.17716,-0.28036 0.49364,-0.43516 0.83076,-0.3956c4.40836,0.52804 8.69288,1.25216 12.73488,2.15344c0.23392,0.0516 0.43516,0.19952 0.55728,0.40764c0.1204,0.20812 0.14792,0.4558 0.0774,0.68456c-1.24012,4.01792 -2.75372,8.1442 -4.49608,12.26532c-0.13072,0.30788 -0.42828,0.51256 -0.76196,0.5246c-0.01376,0.00172 -0.02408,0.00172 -0.03268,0.00172zM109.72568,72.18496c1.05092,1.8404 2.0726,3.71176 3.09772,5.67944c1.30032,-3.19232 2.45616,-6.37948 3.4486,-9.503c-3.15964,-0.67768 -6.46204,-1.247 -9.85216,-1.69764c1.21776,1.94704 2.3048,3.76508 3.30584,5.5212zM59.0906,80.76604c-0.01032,0 -0.02064,0 -0.03096,0c-0.33368,-0.01204 -0.63124,-0.215 -0.76196,-0.5246c-1.74236,-4.12112 -3.25596,-8.2474 -4.49608,-12.26532c-0.07224,-0.22876 -0.043,-0.47816 0.0774,-0.68456c0.1204,-0.20812 0.32336,-0.35604 0.55728,-0.40764c4.042,-0.903 8.32652,-1.62712 12.73488,-2.15344c0.3354,-0.0344 0.6536,0.11524 0.83076,0.3956c0.17716,0.28208 0.17544,0.63984 -0.00172,0.9202c-1.5996,2.51808 -2.9842,4.80568 -4.23292,6.99352c-1.32612,2.32372 -2.6058,4.69732 -3.90784,7.2584c-0.14964,0.28724 -0.44548,0.46784 -0.76884,0.46784zM55.72628,68.3614c0.99244,3.12352 2.15,6.31068 3.4486,9.503c1.02684,-1.96768 2.0468,-3.83904 3.09772,-5.67944c1.00276,-1.75612 2.0898,-3.57416 3.30412,-5.5212c-3.3884,0.45064 -6.6908,1.01996 -9.85044,1.69764zM118.78836,63.59528c-0.06364,0 -0.12556,-0.00688 -0.1892,-0.02064c-5.48336,-1.23496 -11.41564,-2.14484 -17.63,-2.70556c-0.25284,-0.02236 -0.48504,-0.15652 -0.62952,-0.36636c-3.66876,-5.29072 -7.50436,-10.13768 -11.39844,-14.40844c-0.3096,-0.33884 -0.29756,-0.86172 0.02752,-1.1868c7.22572,-7.2412 14.07476,-11.88176 19.80408,-13.416v0c3.21468,-0.86 5.91336,-0.66564 8.00488,0.55384c5.7706,3.3712 6.86108,15.2134 2.84316,30.90496c-0.09976,0.38528 -0.4472,0.645 -0.83248,0.645zM101.523,59.19208c5.83596,0.5418 11.42596,1.38976 16.63412,2.52324c3.52772,-14.29836 2.66428,-25.31668 -2.24804,-28.18564c-1.68388,-0.98212 -3.94052,-1.11112 -6.69252,-0.3784c-5.28728,1.41728 -11.65644,5.69664 -18.45216,12.39432c3.67564,4.085 7.29108,8.67052 10.7586,13.64648zM53.21164,63.59528c-0.38528,0 -0.73272,-0.25972 -0.83248,-0.64672c-4.01792,-15.69156 -2.92916,-27.53204 2.84144,-30.90324c0,0 0,0 0.00172,0c2.09152,-1.21948 4.79364,-1.41384 8.00316,-0.55384c5.73104,1.53596 12.57836,6.1748 19.80408,13.416c0.32336,0.32508 0.3354,0.84796 0.02752,1.1868c-3.89408,4.27076 -7.72968,9.11944 -11.39844,14.40844c-0.14448,0.20984 -0.37496,0.344 -0.62952,0.36636c-6.21264,0.56072 -12.14492,1.4706 -17.63,2.70556c-0.06192,0.01376 -0.12384,0.02064 -0.18748,0.02064zM56.0892,33.52968c-4.9106,2.86896 -5.77404,13.88728 -2.24804,28.18564c5.20816,-1.13348 10.79816,-1.98144 16.63412,-2.52324c3.46924,-4.97596 7.08296,-9.56148 10.75688,-13.6482c-6.79572,-6.69768 -13.16316,-10.97704 -18.45216,-12.39432c-2.73996,-0.731 -5.00004,-0.60372 -6.6908,0.38012zM94.36608,60.40984c-0.01376,0 -0.02752,0 -0.04128,0c-5.68632,-0.27692 -10.96156,-0.27692 -16.64788,0c-0.35432,0.0086 -0.64328,-0.16168 -0.7998,-0.45236c-0.15652,-0.2924 -0.13244,-0.64844 0.06536,-0.91676c2.72964,-3.7066 5.56248,-7.1896 8.42112,-10.35096c0.3268,-0.35948 0.94944,-0.35948 1.27624,0c2.85692,3.15964 5.68976,6.64264 8.42112,10.35096c0.19608,0.2666 0.22188,0.62436 0.06536,0.91676c-0.15308,0.27864 -0.44548,0.45236 -0.76024,0.45236zM86,58.48c2.13624,0 4.34644,0.04472 6.59276,0.13244c-2.15344,-2.85004 -4.36536,-5.55216 -6.59276,-8.05648c-2.2274,2.50604 -4.43932,5.20644 -6.59276,8.05648c2.24632,-0.08772 4.45652,-0.13244 6.59276,-0.13244z"/></g></svg>