<svg xmlns="http://www.w3.org/2000/svg" viewBox="0 0 172 172" width="100px" height="100px"><g style="mix-blend-mode:normal" fill="none" stroke-miterlimit="10" font-family="none" font-size="none" font-weight="none" text-anchor="none"><path d="M0,172v-172h172v172z"/><path fill="#2a262c" d="M148.0232,95.63888c-6.00968,0.03096 -11.21784,1.47576 -15.5832,3.62576c-1.59616,-3.18544 -3.21296,-5.98904 -3.48472,-8.07368c-0.31648,-2.43208 -0.68456,-3.88376 -0.30272,-6.78368c0.38184,-2.89992 2.06056,-7.00384 2.03304,-7.31c-0.02408,-0.30616 -0.37496,-1.78192 -3.84248,-1.80944c-3.46752,-0.02408 -6.4328,0.66736 -6.78368,1.5824c-0.35088,0.91504 -1.01824,2.9756 -1.43104,5.1256c-0.60888,3.14416 -6.92128,14.35856 -10.5092,20.22376c-1.17304,-2.29104 -2.17064,-4.30688 -2.37704,-5.90304c-0.31648,-2.43208 -0.68456,-3.88376 -0.30272,-6.78368c0.38184,-2.89992 2.06056,-7.00384 2.03304,-7.31c-0.02408,-0.30616 -0.37496,-1.78192 -3.84248,-1.80944c-3.46752,-0.02408 -6.4328,0.66736 -6.78368,1.5824c-0.35088,0.91504 -0.7224,3.05472 -1.43104,5.1256c-0.71208,2.07088 -9.10568,20.77416 -11.30384,25.62112c-1.12144,2.46992 -2.09496,4.4548 -2.78296,5.81016c-0.00344,-0.00344 -0.00344,-0.00688 -0.00344,-0.00688c0,0 -0.04128,0.08944 -0.11696,0.24424c-0.58824,1.1524 -0.93912,1.79224 -0.93912,1.79224c0,0 0.00344,0.01032 0.01032,0.02408c-0.46784,0.84624 -0.96664,1.634 -1.21432,1.634c-0.172,0 -0.51944,-2.25664 0.07568,-5.3492c1.24872,-6.48784 4.2484,-16.60832 4.22088,-16.95576c-0.01376,-0.17888 0.55728,-1.94016 -1.9608,-2.86552c-2.44584,-0.8944 -3.3196,0.59856 -3.5432,0.602c-0.21672,0.00344 -0.3784,0.52632 -0.3784,0.52632c0,0 2.72792,-11.37952 -5.20128,-11.37952c-4.9536,0 -11.81984,5.42144 -15.2048,10.33376c-2.1328,1.16272 -6.70112,3.65672 -11.54808,6.31928c-1.86104,1.02168 -3.75992,2.06744 -5.56248,3.0616c-0.12384,-0.13416 -0.24424,-0.27176 -0.37152,-0.40592c-9.61136,-10.25464 -27.37552,-17.50616 -26.62216,-31.29024c0.2752,-5.01208 2.01584,-18.20792 34.13856,-34.21424c26.31256,-13.11328 47.37912,-9.50472 51.01864,-1.50672c5.20128,11.42424 -11.25912,32.65936 -38.58304,35.72096c-10.41288,1.16616 -15.8928,-2.86896 -17.25848,-4.37224c-1.43448,-1.5824 -1.64776,-1.65464 -2.1844,-1.35536c-0.87376,0.48504 -0.31992,1.88168 0,2.71416c0.81528,2.12248 4.1624,5.88928 9.8728,7.76064c5.0224,1.64776 17.24472,2.55248 32.02984,-3.1648c16.55672,-6.40528 29.48424,-24.22104 25.68992,-39.1128c-3.86312,-15.14632 -28.97512,-20.124 -52.74208,-11.68224c-14.14528,5.02584 -29.45672,12.91376 -40.46816,23.20968c-13.09264,12.2464 -15.17728,22.90352 -14.31728,27.35488c3.05816,15.824 24.86432,26.1268 33.59848,33.7636c-0.43,0.23736 -0.83592,0.46096 -1.204,0.66392c-4.37912,2.1672 -21.0012,10.86696 -25.16016,20.05864c-4.71624,10.42664 0.74992,17.90864 4.37224,18.91656c11.2144,3.12008 22.72464,-2.494 28.90976,-11.72008c6.18512,-9.22264 5.42832,-21.23168 2.59032,-26.71504c-0.0344,-0.0688 -0.07568,-0.13416 -0.11008,-0.20296c1.13176,-0.6708 2.28416,-1.34848 3.42624,-2.01928c2.22912,-1.3072 4.41696,-2.5284 6.31584,-3.56384c-1.06296,2.91024 -1.8404,6.3984 -2.24632,11.438c-0.47472,5.92024 1.95048,13.5708 5.1256,16.5808c1.39664,1.3244 3.0788,1.35536 4.1452,1.35536c3.69456,0 5.38016,-3.07192 7.23432,-6.708c2.27728,-4.45824 4.29656,-9.64576 4.29656,-9.64576c0,0 -2.53528,14.018 4.37224,14.018c2.51464,0 5.04648,-3.26456 6.1748,-4.92608c0.00344,0.0172 0.00344,0.02752 0.00344,0.02752c0,0 0.06536,-0.10664 0.19264,-0.3268c0.26144,-0.39904 0.40936,-0.6536 0.40936,-0.6536c0,0 0.00688,-0.02752 0.01376,-0.07224c1.01136,-1.7544 3.25424,-5.75856 6.61856,-12.36336c4.34472,-8.5312 8.514,-19.21584 8.514,-19.21584c0,0 0.38872,2.6144 1.65808,6.9316c0.74648,2.54216 2.33576,5.35264 3.58792,8.04616c-1.00792,1.40008 -1.62712,2.2016 -1.62712,2.2016c0,0 0.00688,0.01376 0.0172,0.04128c-0.80496,1.06984 -1.70968,2.22224 -2.65568,3.35056c-3.42968,4.08672 -7.5164,8.75136 -8.06336,10.09984c-0.64328,1.58584 -0.49192,2.75544 0.75336,3.69112c0.90816,0.68456 2.5284,0.7912 4.22088,0.67768c3.08224,-0.2064 5.25288,-0.97352 6.32272,-1.43792c1.6684,-0.58824 3.612,-1.51704 5.4352,-2.85864c3.36432,-2.47336 5.39392,-6.01312 5.20128,-10.70184c-0.10664,-2.58344 -0.93224,-5.1428 -1.97456,-7.56112c0.30616,-0.44032 0.61232,-0.88064 0.91848,-1.33128c5.30448,-7.7572 9.41872,-16.27808 9.41872,-16.27808c0,0 0.38872,2.6144 1.65808,6.9316c0.64328,2.18784 1.91264,4.57176 3.05128,6.91096c-4.988,4.05232 -8.08056,8.76168 -9.15728,11.8508c-1.98488,5.71384 -0.43,8.30416 2.48712,8.8924c1.32096,0.26832 3.18888,-0.33712 4.5924,-0.93224c1.74752,-0.57792 3.84592,-1.54456 5.80672,-2.98592c3.36432,-2.47336 6.60136,-5.93744 6.40528,-10.62616c-0.08944,-2.1328 -0.66736,-4.25184 -1.45168,-6.28832c4.22776,-1.76128 9.70424,-2.74168 16.67712,-1.9264c14.96056,1.74752 17.89488,11.08712 17.33416,14.99496c-0.56072,3.91128 -3.698,6.05784 -4.7472,6.708c-1.0492,0.65016 -1.36912,0.87376 -1.27968,1.35536c0.12728,0.70176 0.61232,0.67424 1.50672,0.52288c1.23152,-0.2064 7.85352,-3.17856 8.13904,-10.39568c0.35776,-9.14352 -8.42112,-19.20552 -23.96992,-19.12296zM32.72128,134.51088c-4.9536,5.40424 -11.87832,7.4476 -14.84704,5.7276c-3.20608,-1.8576 -1.93672,-9.81776 4.1452,-15.55224c3.70488,-3.49504 8.48992,-6.71488 11.66504,-8.69976c0.7224,-0.43344 1.78192,-1.07328 3.07192,-1.84728c0.21328,-0.1204 0.33368,-0.1892 0.33368,-0.1892l-0.00344,-0.00688c0.24768,-0.14792 0.50568,-0.30272 0.76712,-0.46096c2.21192,8.16656 0.0688,15.35616 -5.13248,21.02872zM68.8172,109.96992c-1.72688,4.20712 -5.33888,14.97088 -7.53704,14.39296c-1.88856,-0.49536 -3.03752,-8.67912 -0.3784,-16.72872c1.33816,-4.05232 4.1968,-8.89584 5.87896,-10.77752c2.70384,-3.02376 5.68288,-4.01448 6.40528,-2.7864c0.92536,1.56176 -3.2852,13.2612 -4.3688,15.89968zM98.642,124.2012c-0.73272,0.38184 -1.40352,0.62264 -1.71312,0.43688c-0.23048,-0.1376 0.30272,-0.63984 0.30272,-0.63984c0,0 3.72896,-4.01448 5.20128,-5.84112c0.85312,-1.06296 1.84728,-2.32544 2.924,-3.73584c0.01032,0.14104 0.01376,0.28208 0.01376,0.41968c-0.01376,4.80912 -4.65776,8.05304 -6.72864,9.36024zM121.61776,118.96208c-0.54696,-0.38872 -0.45408,-1.64432 1.33816,-5.55216c0.7052,-1.53424 2.31168,-4.12112 5.1084,-6.59104c0.32336,1.0148 0.52288,1.98832 0.516,2.89648c-0.03784,6.05096 -4.35504,8.31104 -6.96256,9.24672z"/></g></svg>