<svg xmlns="http://www.w3.org/2000/svg" viewBox="0 0 172 172" width="100px" height="100px"><g style="mix-blend-mode:normal" fill="none" stroke-miterlimit="10" font-family="none" font-size="none" font-weight="none" text-anchor="none"><path d="M0,172v-172h172v172z"/><path fill="#262a2c" d="M78.56906,7.00094c-10.94158,-0.29812 -22.40918,14.29616 -28.58828,36.75828l-19.41719,6.32906c-1.26248,0.4128 -2.17956,1.51107 -2.35156,2.82859l-11.85187,92.22828c-0.23048,1.806 0.9826,3.47913 2.77484,3.81625l82.79515,15.75547l6.38953,-139.95828l-3.82297,1.24297c-2.28072,-8.40736 -6.54669,-13.69491 -12.16765,-14.89547c-1.7028,-0.37152 -3.34884,-0.29498 -4.945,0.1075c-1.91608,-2.02272 -4.12349,-3.41726 -6.63813,-3.95734c-0.72304,-0.15437 -1.44744,-0.23544 -2.17687,-0.25531zM78.15922,13.88766c0.39614,-0.00924 0.78518,0.02295 1.15563,0.10078c0.58824,0.12728 1.15616,0.38818 1.70656,0.73906c-6.8284,5.83768 -12.04924,16.9155 -14.80812,23.75078l-8.25735,2.6875c5.6244,-17.286 14.26123,-27.13955 20.20328,-27.27813zM91.6975,18.12047c2.64192,1.09048 4.86868,4.6411 6.26187,10.01094l-3.52062,1.14891c-0.5504,-4.25872 -1.45813,-8.02944 -2.74125,-11.15984zM85.16015,20.35781c1.2556,2.92056 2.16935,6.69994 2.63375,11.08594l-12.83281,4.17906c3.48472,-7.396 7.07554,-12.47172 10.19906,-15.265zM115.17953,25.44391l-6.34922,139.01094l43.27547,-9.57422c1.76128,-0.38872 2.91862,-2.07137 2.66062,-3.84985c-5.50744,-38.17368 -15.96267,-110.77864 -16.15187,-112.21656c-0.03784,-0.344 -0.12443,-0.68117 -0.26203,-1.00109c-0.67424,-1.548 -1.8935,-2.65756 -3.52063,-3.21828c-0.31648,-0.10664 -0.69429,-0.16765 -1.02797,-0.18141c-0.76368,-0.03096 -7.54806,-0.55905 -10.43422,-0.78609c-2.35984,-2.41144 -6.8893,-7.02642 -8.06922,-8.08938c-0.03784,-0.03784 -0.0831,-0.05966 -0.12094,-0.09406zM78.1525,62.00063c7.10016,0 10.87722,2.23164 11.0389,2.3314c0.67768,0.40936 0.9833,1.23867 0.73906,1.99547l-5.20031,16.03094c-0.15824,0.48848 -0.51965,0.87908 -0.99437,1.06828c-0.4816,0.19952 -1.01749,0.16018 -1.46469,-0.08062c-0.04472,-0.02408 -4.42304,-2.37172 -9.4936,-2.37172c-6.13352,0 -7.04797,3.13755 -7.04797,5.00547c0,2.02616 2.65885,4.0341 5.74453,6.34922c5.45928,4.10048 12.93359,9.71321 12.93359,20.98265c0,14.11776 -8.78882,23.98594 -21.37234,23.98594c-14.3104,0 -21.5165,-8.91363 -21.81578,-9.29203c-0.34744,-0.43688 -0.46059,-1.02211 -0.30235,-1.55875l3.655,-12.28859c0.16856,-0.56072 0.61834,-1.00067 1.1825,-1.16235c0.56072,-0.15136 1.17218,-0.02574 1.6125,0.3561c0.0688,0.06192 6.73273,5.88562 12.01313,5.88562c3.07192,0 3.88344,-2.46218 3.88344,-3.7625c0,-3.3712 -2.46648,-5.42499 -5.59,-8.02219c-4.31376,-3.58448 -9.675,-8.04718 -9.675,-17.73078c0,-13.35064 9.30686,-27.71484 29.7439,-27.71484c0.1376,0 0.27225,-0.00672 0.40985,-0.00672z"/></g></svg>