<svg xmlns="http://www.w3.org/2000/svg" viewBox="0 0 172 172" width="100px" height="100px"><g style="mix-blend-mode:normal" fill="none" stroke-miterlimit="10" font-family="none" font-size="none" font-weight="none" text-anchor="none"><path d="M0,172v-172h172v172z"/><path fill="#262a2c" d="M136.63922,10.29313l-0.86672,0.02688c-8.61763,0.31174 -17.36925,4.7941 -24.1875,11.395c-6.81825,6.6009 -11.78572,15.49918 -11.825,25.14156c-0.0074,1.95602 0.14133,4.11438 0.56437,6.30219c-0.56927,-0.77821 -1.12347,-1.59407 -1.69984,-2.35156c-14.19587,-18.65846 -36.79526,-30.16719 -59.06453,-30.16719c-7.77514,0 -15.7812,1.57235 -23.46859,4.58219l-2.00219,0.78609l-0.16797,2.13656c-0.10796,1.33649 -0.16125,2.71025 -0.16125,4.10516c0.0055,8.90099 2.20048,19.23346 8.13641,28.44719c5.93592,9.21373 15.69018,17.19829 30.17391,21.11031c12.49866,3.66043 21.18948,5.82833 30.40234,9.21813c1.83485,0.67474 3.56648,1.40146 5.25406,2.15672c-2.30554,3.91253 -5.18358,8.12607 -8.85531,12.73875l-0.00672,0.00672l-0.00672,0.01344c-8.4143,10.71239 -16.85527,27.29074 -16.93125,47.12531c-0.01101,2.9473 0.16003,5.96675 0.55094,9.04344l0.42328,3.35937l3.37281,-0.37625c19.87545,-2.21317 33.33855,-11.01981 41.73015,-21.40594c8.32074,-10.29842 11.74921,-21.95325 12.3625,-30.59047h0.0336v-0.34265v-1.2161c18.63581,-17.86462 36.38791,-37.03278 37.81985,-60.7375v-0.06047v-0.06047c0.47568,-19.41866 -8.96232,-34.16817 -20.80125,-40.00344zM135.18125,17.42844c8.62528,4.73241 16.53213,16.47475 16.1586,32.98906c-1.14562,18.71136 -14.89643,35.44351 -31.29594,51.68063c-0.44923,-5.11912 -1.33023,-9.99105 -2.57328,-14.62c-3.59908,-18.36699 -9.82281,-33.37203 -9.82281,-33.37203l0.0739,0.17469c-0.79606,-2.16619 -1.0911,-4.89959 -1.08172,-7.39735c0.02958,-7.24802 3.948,-14.63368 9.72875,-20.23016c5.53852,-5.36197 12.66988,-8.73516 18.8125,-9.22484zM39.56,27.52c19.87073,0 40.71854,10.52791 53.59547,27.45281c9.68844,12.73295 17.73323,28.11108 19.59188,47.07828c-8.82603,-7.6769 -17.24332,-13.56227 -27.90297,-17.48219c-9.6524,-3.55152 -18.48881,-5.7478 -30.90625,-9.38609l-0.0336,-0.01344l-0.04031,-0.00672c-12.98799,-3.50792 -21.10487,-10.31216 -26.18297,-18.19437c-5.0781,-7.88221 -7.03644,-16.95591 -7.04125,-24.71828c0,-0.42737 0.036,-0.8188 0.04703,-1.23625c6.28441,-2.20867 12.70672,-3.49375 18.87297,-3.49375zM93.87437,96.29313c6.6441,3.76885 12.66568,8.59374 19.64563,15.25156v0.90031c-0.48059,7.22354 -3.52044,17.82606 -10.86422,26.91531c-6.82571,8.44806 -17.517,15.54712 -33.58031,18.17422c-0.09818,-1.48344 -0.27408,-2.99168 -0.26875,-4.4411c0.06846,-17.87141 7.7933,-33.13631 15.44641,-42.88578l0.01344,-0.02015c3.95164,-4.96617 7.08324,-9.56526 9.60781,-13.89437z"/></g></svg>