<svg xmlns="http://www.w3.org/2000/svg" viewBox="0 0 172 172" width="100px" height="100px"><g style="mix-blend-mode:normal" fill="none" stroke-miterlimit="10" font-family="none" font-size="none" font-weight="none" text-anchor="none"><path d="M0,172v-172h172v172z"/><path fill="#262a2c" d="M83.3125,10.75c-29.82495,0 -55.78662,16.84936 -68.88818,41.53027c-0.04199,0.08398 -0.09448,0.17847 -0.12598,0.27295c-5.68994,10.81299 -8.92334,23.0957 -8.92334,36.13428c0,33.80371 21.63647,62.64185 51.78686,73.41284c0.10498,0.04199 0.20996,0.07349 0.31494,0.10498c8.09399,2.85547 16.78638,4.41968 25.83569,4.41968c42.96851,0 77.9375,-34.96899 77.9375,-77.9375c0,-16.1355 -4.93408,-31.13721 -13.36401,-43.58789c-0.19946,-0.41992 -0.40942,-0.80835 -0.65088,-1.18628c-0.48291,-0.76636 -1.0708,-1.45923 -1.70068,-2.09961c-14.24585,-18.85449 -36.82715,-31.06372 -62.22192,-31.06372zM83.3125,16.125c20.10376,0 38.30737,8.21997 51.47192,21.45801c-0.95532,0.0105 -1.92114,0.07349 -2.89746,0.24146c-6.85522,1.18628 -12.06226,6.21484 -13.60547,13.10156c-1.69018,7.5376 1.31226,13.40601 4.20972,19.07495c2.98145,5.80542 5.80542,11.3064 3.62183,18.48706l-9.92065,25.43677l-20.91211,-54.7998h4.15723c1.49072,0 2.6875,-1.19678 2.6875,-2.6875c0,-1.49072 -1.19678,-2.6875 -2.6875,-2.6875h-37.625c-1.49072,0 -2.6875,1.19678 -2.6875,2.6875c0,1.49072 1.19678,2.6875 2.6875,2.6875h5.32251l9.6792,24.82788l-11.68433,29.97192l-20.91211,-54.7998h6.84473c1.49072,0 2.6875,-1.19678 2.6875,-2.6875c0,-1.49072 -1.19678,-2.6875 -2.6875,-2.6875h-31.31567v-0.0105c12.3667,-22.40283 36.21826,-37.6145 63.56567,-37.6145zM83.34399,24.1875c-1.49072,0 -2.6875,1.19678 -2.6875,2.6875v5.375c0,1.49072 1.19678,2.6875 2.6875,2.6875c1.49072,0 2.6875,-1.19678 2.6875,-2.6875v-5.375c0,-1.49072 -1.19678,-2.6875 -2.6875,-2.6875zM68.76221,26.18213c-0.34644,-0.05249 -0.71387,-0.03149 -1.0708,0.06299c-1.42773,0.38843 -2.28857,1.85815 -1.90015,3.28589l1.39624,5.19653c0.31494,1.20728 1.40674,1.99463 2.59302,1.99463c0.23096,0 0.46191,-0.03149 0.69287,-0.09448c1.43823,-0.37793 2.28858,-1.85815 1.91065,-3.28589l-1.40674,-5.19653c-0.28345,-1.0813 -1.17578,-1.82666 -2.21509,-1.96313zM97.93628,26.18213c-1.0393,0.14697 -1.94214,0.88184 -2.23608,1.96313l-1.38574,5.19653c-0.38843,1.42773 0.47241,2.90796 1.90015,3.28589c0.23096,0.06299 0.46191,0.09448 0.70337,0.09448c1.17578,0 2.26758,-0.78735 2.59302,-1.99463l1.38574,-5.19653c0.38843,-1.42773 -0.47241,-2.89746 -1.90015,-3.28589c-0.35693,-0.09448 -0.71387,-0.11548 -1.0603,-0.06299zM54.11743,31.95605c-0.34643,0.04199 -0.69287,0.14697 -1.00781,0.33594c-1.29126,0.74536 -1.72168,2.38306 -0.98682,3.66382l2.6875,4.65064c0.50391,0.87134 1.40674,1.34375 2.34107,1.34375c0.45142,0 0.91333,-0.10498 1.33325,-0.34643c1.29126,-0.74536 1.73218,-2.39355 0.98682,-3.68482l-2.6875,-4.65064c-0.5564,-0.95532 -1.6272,-1.44873 -2.6665,-1.31226zM112.57056,31.95605c-1.03931,-0.13647 -2.11011,0.35693 -2.66651,1.32276l-2.6875,4.65063c-0.73486,1.28076 -0.30444,2.92896 0.98682,3.67432c0.41992,0.24146 0.88184,0.35693 1.34375,0.35693c0.93433,0 1.83716,-0.48291 2.33057,-1.34375l2.6875,-4.65063c0.74536,-1.29126 0.29395,-2.92896 -0.98682,-3.67432c-0.32544,-0.18896 -0.66138,-0.29395 -1.00781,-0.33594zM135.30933,42.94751c2.42505,0.09448 4.61914,0.94482 6.17285,2.41455c0.5564,0.73486 1.0813,1.49072 1.5957,2.24658c3.99976,8.5769 -3.85278,33.41528 -10.03613,47.64014l-23.02222,59.07251l-23.03271,-59.07251c-0.0105,-0.0105 -0.021,-0.02099 -0.021,-0.04199c-0.08398,-0.19946 -0.23096,-0.37793 -0.35693,-0.5564c-0.07349,-0.09448 -0.13648,-0.23096 -0.23096,-0.32544c-0.09448,-0.09448 -0.24146,-0.15747 -0.35693,-0.25195c-0.16797,-0.11548 -0.32544,-0.24145 -0.51441,-0.31494c-0.0105,-0.0105 -0.02099,-0.03149 -0.04199,-0.03149c-0.12598,-0.05249 -0.26245,-0.04199 -0.38843,-0.07349c-0.19946,-0.04199 -0.38843,-0.10498 -0.58789,-0.10498c-0.19946,0 -0.39892,0.06299 -0.58789,0.10498c-0.13647,0.03149 -0.26245,0.021 -0.38843,0.07349c-0.021,0 -0.03149,0.021 -0.04199,0.03149c-0.19946,0.07349 -0.36743,0.20996 -0.5354,0.33594c-0.11548,0.08398 -0.25195,0.13647 -0.34643,0.23096c-0.09448,0.10498 -0.14697,0.23096 -0.23096,0.33594c-0.12598,0.17847 -0.26245,0.34644 -0.34643,0.5354c-0.0105,0.021 -0.02099,0.03149 -0.03149,0.05249l-23.02222,59.07251l-37.12109,-95.19629h16.62891l24.13501,63.21924c0.0105,0.02099 0.03149,0.04199 0.04199,0.06299c0.03149,0.08398 0.07349,0.14697 0.11548,0.22046c0.11548,0.20996 0.24145,0.39893 0.39892,0.57739c0.07349,0.07349 0.14697,0.13647 0.22046,0.20996c0.17847,0.14697 0.38843,0.27295 0.60889,0.37793c0.05249,0.03149 0.08398,0.07349 0.14697,0.09448c0.03149,0.0105 0.05249,0 0.08398,0.021c0.28345,0.09448 0.58789,0.16797 0.89234,0.16797c0.30444,0 0.59839,-0.07349 0.87134,-0.16797c0.03149,-0.0105 0.05249,0 0.08398,-0.021c0.06299,-0.02099 0.10498,-0.06299 0.15747,-0.09448c0.22046,-0.09448 0.41992,-0.22046 0.59839,-0.37793c0.08398,-0.06299 0.15747,-0.12598 0.23096,-0.20996c0.15747,-0.15747 0.28345,-0.35693 0.39892,-0.56689c0.04199,-0.07349 0.09448,-0.13648 0.12598,-0.22046c0.0105,-0.02099 0.021,-0.04199 0.03149,-0.06299l14.53979,-37.27857c0.0105,-0.03149 0.021,-0.05249 0.03149,-0.08398l0.03149,-0.06299c0.02099,-0.07349 0.0105,-0.15747 0.03149,-0.23096c0.07348,-0.25195 0.13647,-0.49341 0.13647,-0.75586c0,-0.17847 -0.05249,-0.34643 -0.09448,-0.5249c-0.03149,-0.14697 -0.021,-0.28345 -0.07349,-0.43042l-9.30127,-23.86206h16.61841l24.14551,63.21924c0.0105,0.02099 0.021,0.04199 0.03149,0.06299c0.03149,0.08398 0.08398,0.14697 0.12598,0.22046c0.10498,0.20996 0.23096,0.39893 0.38843,0.57739c0.07349,0.07349 0.14697,0.13647 0.22046,0.20996c0.18897,0.14697 0.38843,0.27295 0.60889,0.37793c0.05249,0.03149 0.08398,0.07349 0.14697,0.09448c0.03149,0.0105 0.05249,0.0105 0.08398,0.021c0.28345,0.09448 0.58789,0.16797 0.90283,0.16797c0.0105,0 0.0105,-0.0105 0.02099,-0.0105c0.13648,0 0.27295,-0.05249 0.40942,-0.07349c0.16797,-0.03149 0.34643,-0.03149 0.5144,-0.09448c0.03149,-0.0105 0.03149,-0.021 0.06299,-0.03149c0.18896,-0.07349 0.34643,-0.20996 0.5144,-0.32544c0.11548,-0.09448 0.26245,-0.15747 0.36743,-0.25195c0.09448,-0.10498 0.15747,-0.23096 0.23096,-0.34643c0.12598,-0.17847 0.26245,-0.33594 0.33594,-0.5249c0.0105,-0.02099 0.03149,-0.03149 0.04199,-0.05249l12.50317,-32.11353c2.88696,-9.45874 -0.71387,-16.50293 -3.89478,-22.70727c-2.698,-5.25952 -5.01807,-9.80518 -3.7583,-15.44263c1.0708,-4.79761 4.54565,-8.15698 9.29077,-8.97583c0.83984,-0.15747 1.67969,-0.20996 2.48804,-0.17847zM149.31372,58.6001c4.19922,9.17529 6.56128,19.3584 6.56128,30.0874c0,28.18726 -16.16699,52.6582 -39.71411,64.66797l21.85693,-56.05957c1.29126,-2.99194 9.79468,-23.05371 11.2959,-38.6958zM16.53442,60.30078l36.81665,94.44043c-25.10083,-11.42187 -42.60108,-36.72217 -42.60108,-66.05371c0,-10.06763 2.05762,-19.66284 5.78442,-28.38672zM84.48828,103.63672l21.09058,54.09643c-7.02319,2.27808 -14.4978,3.51685 -22.26636,3.51685c-7.0022,0 -13.76294,-1.01831 -20.16675,-2.86597z"/></g></svg>